<?xml version="1.0" standalone="no"?>
<!DOCTYPE svg PUBLIC "-//W3C//DTD SVG 20010904//EN"
 "http://www.w3.org/TR/2001/REC-SVG-20010904/DTD/svg10.dtd">
<svg version="1.0" xmlns="http://www.w3.org/2000/svg"
 width="1736.000000pt" height="1736.000000pt" viewBox="0 0 1736.000000 1736.000000"
 preserveAspectRatio="xMidYMid meet">
<metadata>
Created by potrace 1.11, written by Peter Selinger 2001-2013
</metadata>
<g transform="translate(0.000000,1736.000000) scale(0.100000,-0.100000)"
fill="#000000" stroke="none">
<path d="M7632 12487 c-105 -106 -192 -195 -192 -198 0 -3 42 -3 94 -1 120 5
183 -13 280 -83 62 -44 155 -147 168 -186 3 -8 25 4 62 34 71 59 153 101 229
118 l58 12 -248 249 c-136 136 -250 248 -253 248 -3 0 -92 -87 -198 -193z"/>
<path d="M7463 12137 c-86 -32 -159 -118 -178 -209 -4 -24 -9 -26 -47 -25
-104 3 -205 -58 -253 -154 -51 -100 -27 -240 59 -350 78 -100 217 -169 426
-212 65 -13 64 -13 -66 -9 -239 8 -398 -51 -493 -183 -127 -176 -47 -413 152
-450 l37 -7 0 -62 c0 -73 22 -126 75 -180 73 -74 169 -99 275 -72 132 34 234
129 296 274 32 74 24 31 -23 -133 -61 -210 -157 -432 -268 -620 -25 -42 -45
-79 -45 -81 0 -2 20 -4 44 -4 l44 0 60 118 c33 64 80 169 105 233 67 169 146
460 148 546 0 25 1 26 9 8 5 -11 9 -38 9 -60 3 -140 101 -304 221 -369 100
-55 234 -43 317 29 44 37 93 123 93 162 0 21 4 23 58 23 99 0 194 60 245 155
17 31 22 58 22 120 0 71 -4 88 -33 148 -64 130 -193 220 -382 267 -47 12 -98
25 -115 29 -20 5 7 8 78 9 324 5 497 95 553 289 42 144 -47 301 -191 337 l-46
12 -3 65 c-1 49 -9 77 -31 118 -95 173 -329 189 -495 33 -91 -86 -140 -192
-184 -399 l-23 -108 5 157 c6 181 -5 251 -50 348 -38 79 -118 162 -190 195
-59 28 -157 33 -215 12z"/>
<path d="M9948 10700 l-3 -1091 50 3 50 3 3 1081 2 1082 -22 6 c-13 3 -35 6
-50 6 l-28 0 -2 -1090z"/>
<path d="M10110 10271 l0 -1491 694 0 694 0 11 -62 c33 -192 195 -341 384
-355 121 -9 225 25 316 103 78 67 141 191 141 276 l0 38 98 0 c132 0 174 20
217 104 l30 60 -3 200 c-3 244 -17 474 -34 541 l-13 50 -120 5 c-69 3 -129 10
-142 18 -28 15 -53 51 -53 74 0 16 12 18 120 18 138 0 147 7 78 63 -120 97
-306 143 -620 154 l-177 6 -11 31 c-22 63 -126 233 -211 345 -216 286 -501
518 -851 691 -235 116 -296 131 -318 77 -5 -12 -14 -148 -20 -302 -5 -154 -13
-352 -16 -440 -18 -449 -21 -393 -23 350 l-1 790 -23 40 c-22 39 -83 88 -124
100 l-23 6 0 -1490z m1001 243 c120 -36 233 -120 298 -223 22 -35 91 -245 91
-276 0 -3 -146 -5 -325 -5 l-325 0 0 260 0 260 103 0 c66 0 123 -6 158 -16z
m920 -1380 c117 -34 222 -140 249 -254 19 -78 9 -187 -24 -253 -33 -68 -109
-140 -184 -175 -47 -22 -71 -27 -142 -27 -75 0 -93 4 -150 31 -152 73 -238
231 -209 388 39 219 249 351 460 290z"/>
<path d="M11814 9026 c-99 -46 -163 -161 -151 -268 8 -61 51 -141 96 -179 101
-83 259 -77 352 13 135 131 103 349 -63 432 -70 35 -162 36 -234 2z"/>
<path d="M6485 11340 l-320 -320 243 0 242 0 0 -665 0 -665 304 0 304 0 55 93
c54 92 91 159 133 249 l23 47 -63 -6 c-119 -11 -233 31 -324 120 -56 54 -106
139 -117 198 -5 27 -16 40 -57 64 -139 83 -223 262 -198 420 20 124 119 268
235 342 l43 27 -46 55 c-63 77 -109 180 -122 269 -6 41 -8 78 -4 83 24 39 -54
-34 -331 -311z"/>
<path d="M9037 11408 c-12 -132 -86 -261 -197 -342 -33 -24 -65 -46 -72 -48
-6 -2 12 -35 45 -78 108 -142 142 -293 98 -438 -40 -133 -161 -251 -290 -282
-40 -10 -50 -18 -76 -61 -41 -69 -104 -125 -183 -162 -62 -30 -75 -32 -172
-32 -95 0 -111 3 -170 30 -36 16 -89 49 -118 73 -35 28 -54 38 -57 30 -54
-155 -145 -368 -167 -395 -8 -10 125 -13 661 -13 l671 0 0 665 0 665 240 2
240 3 -223 223 -224 224 -6 -64z"/>
<path d="M4990 9200 l0 -421 117 3 116 3 12 55 c22 112 96 217 197 281 29 18
55 36 58 39 3 3 39 14 80 23 88 20 228 22 291 4 34 -9 120 -10 374 -4 377 9
489 10 665 5 169 -4 2941 21 3058 28 87 6 92 7 92 28 l0 23 -267 6 c-148 3
-1123 14 -2168 24 -1045 9 -1886 21 -1870 24 17 4 923 15 2015 24 1092 8 2054
18 2138 21 150 6 152 6 152 29 0 22 -3 23 -122 29 -111 5 -1328 17 -3470 35
-421 3 -769 8 -772 11 -3 3 853 14 1902 23 1049 10 2032 21 2185 24 l277 6 0
24 0 23 -1937 2 -1938 1 1475 14 c811 7 1628 17 1815 21 222 6 -496 9 -2067
10 l-2408 2 0 -420z"/>
<path d="M5655 9159 c-160 -20 -290 -111 -353 -247 -24 -50 -27 -69 -27 -157
0 -90 3 -106 29 -160 74 -150 235 -245 417 -245 143 0 261 55 382 178 l58 59
-73 66 c-40 37 -77 67 -83 67 -5 0 -46 -32 -89 -70 -60 -53 -93 -74 -133 -86
-119 -35 -246 30 -279 143 -29 101 27 200 135 238 115 39 178 12 367 -161 396
-363 433 -392 539 -419 113 -29 258 -15 357 36 54 27 130 99 168 158 124 195
38 451 -189 560 -75 36 -77 36 -207 36 -130 0 -130 0 -205 -37 -63 -31 -230
-163 -236 -186 -2 -8 139 -134 155 -140 6 -2 42 26 80 61 93 88 121 101 207
101 53 0 80 -5 111 -21 80 -43 121 -118 110 -201 -21 -157 -223 -233 -357
-134 -20 15 -143 124 -273 242 -131 118 -261 231 -290 251 -88 59 -201 83
-321 68z"/>
<path d="M8405 9159 c-395 -50 -523 -515 -202 -730 91 -60 178 -83 296 -77 86
4 106 9 174 42 74 35 232 166 232 191 0 6 -34 41 -75 78 l-74 67 -51 -48 c-83
-80 -114 -101 -171 -118 -140 -41 -283 57 -284 194 -1 150 177 247 324 177 22
-10 114 -87 205 -170 348 -316 373 -337 449 -373 126 -60 290 -56 422 10 81
40 155 116 194 197 28 59 31 76 31 156 0 80 -3 97 -31 156 -78 164 -220 249
-418 249 -150 0 -246 -43 -378 -170 l-63 -60 75 -70 c41 -38 79 -70 84 -70 4
0 41 31 82 69 127 119 248 134 353 45 70 -61 90 -146 52 -229 -48 -106 -197
-154 -305 -98 -35 18 -76 53 -361 312 -110 101 -222 196 -250 212 -88 52 -197
72 -310 58z"/>
<path d="M5950 9156 c0 -2 20 -16 45 -30 24 -15 70 -50 102 -79 32 -28 68 -60
80 -71 l23 -19 67 64 c38 35 90 78 116 94 26 17 47 33 47 38 0 4 -108 7 -240
7 -132 0 -240 -2 -240 -4z"/>
<path d="M6960 9123 c101 -66 180 -179 202 -287 l11 -56 401 2 401 3 11 53
c24 105 102 222 184 274 14 9 23 18 19 22 -3 3 -291 8 -640 12 l-634 6 45 -29z"/>
<path d="M5632 8899 c-132 -66 -121 -235 20 -294 82 -34 146 -11 253 87 l70
65 -59 54 c-117 109 -194 132 -284 88z"/>
<path d="M6594 8902 c-17 -9 -63 -46 -103 -83 l-71 -65 71 -64 c114 -101 158
-116 252 -84 54 18 92 59 107 114 13 48 5 85 -27 128 -50 66 -159 92 -229 54z"/>
<path d="M8395 8906 c-37 -16 -92 -77 -101 -112 -31 -125 113 -238 241 -189
24 9 78 46 119 83 l75 67 -67 62 c-37 34 -85 72 -108 83 -46 23 -114 26 -159
6z"/>
<path d="M9345 8901 c-22 -12 -69 -50 -104 -85 l-63 -63 51 -48 c105 -98 153
-121 226 -111 119 18 189 138 136 233 -47 84 -160 117 -246 74z"/>
<path d="M13233 8581 c-479 -4 -873 -8 -876 -11 -2 -3 -18 -25 -34 -50 -65
-95 -157 -160 -278 -195 -76 -23 -207 -16 -285 14 -76 29 -164 98 -218 171
l-46 61 -155 -5 c-86 -3 -451 -8 -811 -11 l-655 -6 -18 -22 c-123 -150 -255
-216 -432 -217 -139 0 -255 48 -375 156 -94 85 -109 85 -200 1 -116 -107 -235
-157 -375 -157 -140 0 -260 48 -364 144 l-66 62 -481 -11 -482 -11 -54 -49
c-190 -174 -492 -180 -690 -14 l-47 39 -90 0 -90 0 -75 -54 c-95 -68 -175 -96
-291 -103 -129 -7 -229 21 -340 97 l-40 27 -120 -8 c-503 -34 -933 -86 -1770
-214 -231 -36 -483 -74 -560 -85 -129 -20 -395 -62 -473 -75 -17 -3 -32 -10
-32 -15 0 -7 2319 -10 6335 -10 l6335 0 -2 278 -3 277 -485 1 c-267 0 -877 -2
-1357 -5z"/>
<path d="M4587 7538 c-289 -28 -550 -232 -643 -503 -25 -72 -28 -93 -28 -220
0 -116 4 -154 23 -220 36 -129 94 -227 191 -326 71 -72 100 -93 180 -132 142
-70 197 -82 380 -82 179 0 236 12 370 78 69 33 103 59 176 132 101 100 151
179 192 303 23 69 26 93 26 237 1 132 -2 170 -18 215 -122 356 -453 557 -849
518z m169 -359 c86 -16 157 -54 219 -120 89 -93 118 -188 96 -314 -16 -92 -58
-170 -124 -233 -84 -79 -130 -96 -257 -97 -99 0 -109 2 -172 33 -78 38 -144
106 -184 190 -40 81 -46 221 -14 305 42 112 172 216 298 237 68 11 72 11 138
-1z"/>
<path d="M8937 7538 c-180 -18 -364 -109 -492 -246 -56 -59 -121 -170 -152
-257 -25 -73 -27 -92 -27 -220 0 -115 4 -154 22 -219 71 -251 254 -437 507
-516 100 -31 300 -39 415 -16 166 34 285 101 403 226 80 85 144 199 173 305
25 92 30 287 10 378 -82 368 -444 606 -859 565z m169 -359 c81 -15 149 -51
210 -110 92 -91 127 -196 106 -319 -23 -134 -105 -247 -222 -307 -50 -25 -65
-28 -160 -28 -99 0 -110 2 -172 33 -78 38 -144 106 -184 190 -39 81 -46 221
-14 304 43 114 170 216 296 237 70 12 74 12 140 0z"/>
<path d="M14501 7529 c-138 -18 -279 -116 -339 -235 -43 -87 -55 -151 -50
-264 10 -201 89 -280 358 -359 133 -40 189 -68 218 -112 38 -56 16 -125 -50
-160 -101 -52 -242 -23 -372 75 -25 20 -50 36 -54 36 -4 0 -41 -65 -83 -145
l-77 -145 27 -19 c46 -33 163 -88 236 -111 99 -31 285 -39 388 -16 107 24 191
69 263 140 91 91 130 211 122 377 -9 191 -103 284 -380 373 -75 25 -151 55
-167 67 -103 76 -33 192 114 190 70 -1 123 -17 185 -56 23 -15 46 -23 50 -18
5 4 38 66 76 137 l67 129 -24 18 c-39 30 -227 87 -324 98 -99 12 -93 12 -184
0z"/>
<path d="M2357 7493 c-4 -3 -7 -318 -7 -699 l0 -693 180 -3 c143 -2 181 0 185
10 3 8 5 200 5 429 l0 415 60 -79 c32 -43 180 -233 328 -423 l268 -345 187 -3
187 -2 -2 697 -3 698 -180 0 -180 0 -5 -423 -5 -422 -330 425 -330 425 -176 0
c-97 0 -179 -3 -182 -7z"/>
<path d="M6120 7488 c0 -6 54 -194 121 -417 67 -223 152 -510 189 -636 38
-127 77 -255 87 -285 l18 -55 185 0 185 0 135 397 c74 219 137 398 140 398 3
0 56 -172 119 -383 63 -210 118 -390 123 -399 8 -16 27 -18 187 -18 131 0 181
3 188 13 6 6 34 86 62 177 102 321 121 379 250 784 72 225 131 415 131 422 0
11 -36 14 -188 14 l-189 0 -129 -445 c-112 -387 -144 -483 -144 -433 0 15
-250 838 -262 861 -8 15 -26 17 -151 17 l-143 0 -121 -372 c-67 -205 -132
-406 -144 -445 -21 -67 -39 -94 -39 -58 0 7 -52 206 -115 441 -63 234 -115
428 -115 430 0 2 -85 4 -190 4 -138 0 -190 -3 -190 -12z"/>
<path d="M9975 7488 c-3 -7 -4 -323 -3 -703 l3 -690 185 0 185 0 0 263 c0 144
2 262 5 261 3 0 79 -118 170 -262 l165 -262 223 -3 c182 -2 222 0 222 11 0 8
-95 137 -210 287 l-210 274 52 19 c105 39 183 118 225 227 27 72 24 258 -6
332 -47 121 -165 211 -316 243 -94 20 -683 22 -690 3z m538 -294 c54 -18 106
-72 108 -112 5 -93 -12 -139 -63 -170 -37 -23 -139 -45 -181 -40 l-28 3 -2
168 -2 167 61 0 c33 0 81 -7 107 -16z"/>
<path d="M11240 6795 l0 -705 180 2 181 3 0 263 c0 144 3 262 7 261 4 0 82
-118 173 -262 l165 -262 222 -3 c182 -2 222 0 222 11 0 8 -94 137 -210 287
l-210 274 53 19 c104 39 182 118 224 227 27 72 24 258 -6 332 -31 79 -106 160
-184 198 -107 52 -168 60 -509 60 l-308 0 0 -705z m533 399 c27 -9 59 -30 77
-50 26 -30 30 -42 30 -95 0 -71 -17 -110 -62 -137 -38 -23 -139 -45 -183 -40
l-30 3 -3 168 -2 167 63 0 c35 0 84 -7 110 -16z"/>
<path d="M12500 6795 l0 -705 180 0 180 0 0 695 c0 382 1 698 3 703 1 4 -80 8
-180 10 l-183 2 0 -705z"/>
<path d="M13100 6795 l0 -705 398 2 397 3 0 155 0 155 -212 3 -213 2 0 115 0
115 203 2 202 3 0 155 0 155 -202 3 -203 2 0 115 0 115 215 0 216 0 -3 153 -3
152 -397 3 -398 2 0 -705z"/>
<path d="M6980 5587 c-179 -61 -294 -199 -307 -368 -10 -144 30 -261 122 -358
165 -173 460 -186 649 -29 54 45 110 136 131 212 26 95 18 232 -18 309 -51
112 -184 218 -308 246 -77 18 -197 13 -269 -12z m215 -198 c53 -13 132 -79
151 -126 20 -46 17 -140 -5 -188 -38 -84 -117 -135 -206 -135 -131 0 -222 88
-232 225 -4 50 -1 68 19 104 28 52 80 97 134 116 48 17 82 18 139 4z"/>
<path d="M11710 5594 c-204 -56 -325 -242 -307 -473 14 -179 109 -308 276
-372 74 -29 230 -32 311 -7 114 35 218 136 255 247 15 47 35 217 26 226 -2 3
-101 5 -218 5 l-214 0 3 -87 3 -88 88 -3 c86 -3 88 -3 82 -25 -26 -85 -122
-132 -218 -106 -59 15 -98 48 -131 109 -67 123 -34 298 71 370 54 37 139 40
195 7 26 -15 53 -42 67 -67 13 -23 28 -39 35 -37 85 36 192 81 195 83 9 8 -52
94 -94 133 -77 71 -142 95 -265 98 -71 2 -123 -2 -160 -13z"/>
<path d="M5325 5578 c-4 -12 -32 -174 -105 -603 -16 -99 -32 -190 -35 -202 -5
-23 -4 -23 105 -23 106 0 110 1 114 23 3 12 15 87 26 167 11 80 25 176 31 213
l11 68 93 -233 93 -233 47 0 47 0 97 232 c53 127 97 230 98 229 1 -1 14 -96
28 -211 14 -116 28 -220 31 -232 4 -22 8 -23 115 -23 l111 0 -6 28 c-3 15 -31
194 -61 397 -30 204 -57 380 -60 393 -5 22 -8 23 -113 20 l-107 -3 -85 -212
c-47 -117 -88 -214 -91 -217 -2 -3 -37 84 -78 192 -40 108 -80 207 -88 220
-12 20 -21 22 -114 22 -71 0 -101 -4 -104 -12z"/>
<path d="M8007 5582 c-3 -4 72 -192 167 -417 l172 -410 88 0 87 0 170 395 c93
217 172 405 175 418 l6 23 -118 -3 -118 -3 -97 -243 c-53 -134 -99 -245 -101
-248 -3 -2 -47 103 -98 233 -51 131 -97 244 -103 251 -11 13 -222 18 -230 4z"/>
<path d="M9327 5584 c-4 -4 -7 -193 -7 -421 l0 -413 110 0 110 0 -2 418 -3
417 -101 3 c-55 1 -103 0 -107 -4z"/>
<path d="M10080 5585 c0 -3 0 -191 0 -417 l0 -413 107 0 108 0 0 248 c0 136 2
247 5 246 3 0 91 -111 195 -247 l190 -247 113 -3 112 -3 -2 418 -3 418 -107 3
-108 3 0 -251 c0 -137 -3 -250 -7 -249 -5 0 -94 111 -198 247 l-190 247 -108
3 c-59 1 -107 0 -107 -3z"/>
<path d="M2370 5170 l0 -60 1140 0 1140 0 0 60 0 60 -1140 0 -1140 0 0 -60z"/>
<path d="M12752 5173 l3 -58 1138 -3 1137 -2 0 60 0 60 -1140 0 -1141 0 3 -57z"/>
</g>
</svg>
