<svg xmlns="http://www.w3.org/2000/svg" width="165.576" height="36.133" viewBox="0 0 165.576 36.133">
  <g id="Group_2589" data-name="Group 2589" transform="translate(-946 -47)">
    <path id="Path_3205" data-name="Path 3205" d="M13.072,0,16.34,9.045l9.8.245-7.784,5.836,2.791,9.2-8.079-5.439L4.993,24.323l2.791-9.2L0,9.291l9.8-.245Z" transform="translate(946 58.81)" fill="gold"/>
    <path id="Path_3206" data-name="Path 3206" d="M13.072,0,16.34,9.045l9.8.245-7.784,5.836,2.791,9.2-8.079-5.439L4.993,24.323l2.791-9.2L0,9.291l9.8-.245Z" transform="translate(980.858 52.905)" fill="gold"/>
    <path id="Path_3207" data-name="Path 3207" d="M13.072,0,16.34,9.045l9.8.245-7.784,5.836,2.791,9.2-8.079-5.439L4.993,24.323l2.791-9.2L0,9.291l9.8-.245Z" transform="translate(1015.716 47)" fill="gold"/>
    <path id="Path_3208" data-name="Path 3208" d="M13.072,0,16.34,9.045l9.8.245-7.784,5.836,2.791,9.2-8.079-5.439L4.993,24.323l2.791-9.2L0,9.291l9.8-.245Z" transform="translate(1050.574 52.905)" fill="gold"/>
    <path id="Path_3209" data-name="Path 3209" d="M13.072,0,16.34,9.045l9.8.245-7.784,5.836,2.791,9.2-8.079-5.439L4.993,24.323l2.791-9.2L0,9.291l9.8-.245Z" transform="translate(1085.432 58.81)" fill="gold"/>
  </g>
</svg>
