<?xml version="1.0" encoding="utf-8"?>
<!-- Generator: Adobe Illustrator 24.0.1, SVG Export Plug-In . SVG Version: 6.00 Build 0)  -->
<svg version="1.1" id="Layer_1" xmlns="http://www.w3.org/2000/svg" xmlns:xlink="http://www.w3.org/1999/xlink" x="0px" y="0px"
	 viewBox="0 0 1936.3 1098" style="enable-background:new 0 0 1936.3 1098;" xml:space="preserve">
<style type="text/css">
	.st0{filter:url(#Path_2919);}
	.st1{fill:#0F6BC7;}
	.st2{filter:url(#Path_3045);}
	.st3{filter:url(#Path_3046);}
	.st4{filter:url(#Path_3047);}
</style>
<filter  filterUnits="userSpaceOnUse" height="363.121" id="Path_3047" width="631.037" x="0" y="0">
	<feOffset  dy="3" input="SourceAlpha"></feOffset>
	<feGaussianBlur  result="blur-4" stdDeviation="3"></feGaussianBlur>
	<feFlood  flood-opacity="0.329"></feFlood>
	<feComposite  in2="blur-4" operator="in"></feComposite>
	<feComposite  in="SourceGraphic" operator="over"></feComposite>
</filter>
<filter  filterUnits="userSpaceOnUse" height="615.687" id="Path_3046" width="1079.667" x="0" y="0">
	<feOffset  dy="3" input="SourceAlpha"></feOffset>
	<feGaussianBlur  result="blur-3" stdDeviation="3"></feGaussianBlur>
	<feFlood  flood-opacity="0.329"></feFlood>
	<feComposite  in2="blur-3" operator="in"></feComposite>
	<feComposite  in="SourceGraphic" operator="over"></feComposite>
</filter>
<filter  filterUnits="userSpaceOnUse" height="873.667" id="Path_3045" width="1537.915" x="0.001" y="0">
	<feOffset  dy="3" input="SourceAlpha"></feOffset>
	<feGaussianBlur  result="blur-2" stdDeviation="3"></feGaussianBlur>
	<feFlood  flood-opacity="0.329"></feFlood>
	<feComposite  in2="blur-2" operator="in"></feComposite>
	<feComposite  in="SourceGraphic" operator="over"></feComposite>
</filter>
<filter  filterUnits="userSpaceOnUse" height="1097.964" id="Path_2919" width="1936.333" x="0.001" y="0">
	<feOffset  dy="3" input="SourceAlpha"></feOffset>
	<feGaussianBlur  result="blur" stdDeviation="3"></feGaussianBlur>
	<feFlood  flood-opacity="0.329"></feFlood>
	<feComposite  in2="blur" operator="in"></feComposite>
	<feComposite  in="SourceGraphic" operator="over"></feComposite>
</filter>
<g id="about-us_background" transform="translate(7.334 5.667)">
	<g transform="matrix(1, 0, 0, 1, -7.33, -5.67)" class="st0">
		<path id="Path_2919-2_1_" class="st1" d="M1918.3,0c0,0-25.7,495.7-634.3,525.6c-448,58.1-408.4,274.2-664,378.1S0,1080,0,1080V0
			H1918.3z"/>
	</g>
	<g transform="matrix(1, 0, 0, 1, -7.33, -5.67)" class="st2">
		<path id="Path_3045-2_1_" class="st1" d="M1519.9,0c0,0-20.3,392.7-502.6,416.4c-355,46-323.5,217.3-526.1,299.5S0,855.7,0,855.7
			V0H1519.9z"/>
	</g>
	<g transform="matrix(1, 0, 0, 1, -7.33, -5.67)" class="st3">
		<path id="Path_3046-2_1_" class="st1" d="M1061.7,0c0,0-14.2,274.3-351.1,290.9c-247.9,32.1-226,151.8-367.5,209.2
			S0,597.7,0,597.7V0L1061.7,0z"/>
	</g>
	<g transform="matrix(1, 0, 0, 1, -7.33, -5.67)" class="st4">
		<path id="Path_3047-2_1_" class="st1" d="M613,0c0,0-8.2,158.4-202.7,168c-143.2,18.6-130.5,87.6-212.2,120.8S0,345.1,0,345.1V0
			H613z"/>
	</g>
</g>
</svg>
