<svg xmlns="http://www.w3.org/2000/svg" width="1736.552" height="199.733" viewBox="0 0 1736.552 199.733">
  <g id="about-us-call" transform="translate(-132 -1965.6)">
    <g id="Group_1144" data-name="Group 1144" transform="translate(-61.667 43)" opacity="0.5">
      <path id="Path_2228" data-name="Path 2228" d="M6237.636,2055.594s119.7-114.26,303.7-111.594,280,174.667,450.667,177.333" transform="translate(-5970)" fill="none" stroke="#37c429" stroke-width="2" stroke-dasharray="9"/>
      <path id="Path_2229" data-name="Path 2229" d="M6962,2036.667s-100.667-95.333-284.667-92.667-280,174.667-450.667,177.333" transform="translate(-5205)" fill="none" stroke="#37c429" stroke-width="2" stroke-dasharray="11"/>
    </g>
    <path id="Path_3049" data-name="Path 3049" d="M20.6,7.6A21.318,21.318,0,0,0,14.2-7.5q-6.4-6.7-8.7-6.7t-2.3.5q0,.5,4.3,5.4T11.8-.5A7.022,7.022,0,0,1,9.1,4.8Q6.4,7.2,6.4,8.4q0,6,6,6a9.008,9.008,0,0,0,5.6-2A5.908,5.908,0,0,0,20.6,7.6ZM.4,7.6Q.4-.8-6.1-7.5t-9.5-6.7q-1.6,0-1.6.6.8,1,2.1,2.4t2.5,2.8Q-8.4-3.8-8.4-.7a7.2,7.2,0,0,1-2.7,5.5q-2.7,2.4-2.7,3.6,0,6,5.8,6a9.424,9.424,0,0,0,5.7-2A5.851,5.851,0,0,0,.4,7.6Z" transform="translate(368 1980) rotate(180)" fill="#41ba03" opacity="0.69"/>
    <path id="Path_3048" data-name="Path 3048" d="M20.6-87.6a21.318,21.318,0,0,1-6.4,15.1q-6.4,6.7-8.7,6.7t-2.3-.5q0-.5,4.3-5.4t4.3-7.8a7.022,7.022,0,0,0-2.7-5.3q-2.7-2.4-2.7-3.6,0-6,6-6a9.008,9.008,0,0,1,5.6,2A5.908,5.908,0,0,1,20.6-87.6ZM.4-87.6q0,8.4-6.5,15.1t-9.5,6.7q-1.6,0-1.6-.6.8-1,2.1-2.4t2.5-2.8q4.2-4.6,4.2-7.7a7.2,7.2,0,0,0-2.7-5.5q-2.7-2.4-2.7-3.6,0-6,5.8-6a9.424,9.424,0,0,1,5.7,2A5.851,5.851,0,0,1,.4-87.6Z" transform="translate(1596 2204)" fill="#41ba03" opacity="0.69"/>
    <path id="XMLID_1_" d="M127.566,68.925c-3.558-.776-7.816.587-9.349,3.9-.89,1.911-1.022,4.523-2.952,5.375-1.382.625-2.971-.076-4.3-.814-6.51-3.634-19.569-29.6-18.585-37,.189-1.5.606-3.2,1.911-3.937,1.836-1.041,4.012.416,6.075.833,3.577.757,7.192-1.855,8.706-5.167s1.344-7.154.833-10.769c-.606-4.22-1.741-8.554-4.542-11.753-7.987-9.084-19.777.076-24.49,7.741a42.235,42.235,0,0,0-5.488,16.295c-1.722,12.15,20.1,55.566,30.887,61.451a42.131,42.131,0,0,0,16.314,5.3c8.971.795,23.354-3.2,20.837-15.027-.889-4.164-3.69-7.665-6.719-10.655C134.095,72.123,131.124,69.7,127.566,68.925Z" transform="translate(56.708 2064.19)" fill="#41ba03" opacity="0.5"/>
    <g id="Delivery_truck_middle" data-name="Delivery truck middle" transform="translate(1713.435 2113.825)" opacity="0.5">
      <path id="Path_696" data-name="Path 696" d="M142.821,54.255,132.937,43.6c-1.63-1.774-4.581-2.863-7.77-2.867H110.915l2.637-7.819a2.479,2.479,0,0,0-1.039-2.717A6.408,6.408,0,0,0,108.6,29H38.365c-2.382.011-4.428,1.1-4.912,2.606L32.386,34.76c-.122.36.229.716.785.795a1.123,1.123,0,0,0,1.228-.508l1.067-3.167a3,3,0,0,1,2.9-1.577H108.6a3.817,3.817,0,0,1,2.344.732,1.474,1.474,0,0,1,.595,1.64l-2.818,8.353a.64.64,0,0,0-.141.209L98.736,70.7h-46.5a5.1,5.1,0,0,0-.342-1.212v-.143a5.312,5.312,0,0,0-.644-1.082l-.242-.169a8.442,8.442,0,0,0-.926-.964l-.181-.143a8.735,8.735,0,0,0-1.168-.834l-.2-.117a10.531,10.531,0,0,0-1.389-.691l-.221-.091a15.489,15.489,0,0,0-1.61-.521h-.2a15.523,15.523,0,0,0-1.792-.339h-.141a15.613,15.613,0,0,0-4.026,0h-.141a15.525,15.525,0,0,0-1.792.339h-.2a15.486,15.486,0,0,0-1.61.521l-.221.091a10.529,10.529,0,0,0-1.389.691l-.2.117a8.735,8.735,0,0,0-1.168.834l-.181.143a8.44,8.44,0,0,0-.926.964l-.121.156a5.31,5.31,0,0,0-.644,1.082v.143a5.346,5.346,0,0,0-.463,1.225h-7.67l3.644-6.959a.477.477,0,0,0-.125-.691,1.355,1.355,0,0,0-1.017-.224.894.894,0,0,0-.75.5L21.657,68.1h-.745a4.271,4.271,0,0,0-3.825,1.785L16,72H30.091c0,3.958,4.957,7.167,11.072,7.167S52.235,75.963,52.235,72h54.352c0,3.958,4.957,7.167,11.072,7.167S128.73,75.963,128.73,72h12.078l.242-.482c.682-1.348-.428-2.8-2.5-3.271l4.952-9.031A4.085,4.085,0,0,0,142.821,54.255ZM41.163,77.217c-5,0-9.059-2.626-9.059-5.864s4.056-5.864,9.059-5.864,9.059,2.626,9.059,5.864S46.161,77.21,41.163,77.217Zm76.5,0c-5,0-9.059-2.626-9.059-5.864s4.056-5.864,9.059-5.864,9.059,2.626,9.059,5.864S122.657,77.21,117.658,77.217Zm23.955-18.44L135.071,70.7H128.73a5.1,5.1,0,0,0-.342-1.212v-.143a5.691,5.691,0,0,0-.644-1.082L127.5,68.1a9.642,9.642,0,0,0-.926-.964l-.181-.143a8.736,8.736,0,0,0-1.168-.834l-.2-.13a12.365,12.365,0,0,0-1.389-.678l-.221-.091a12.9,12.9,0,0,0-1.61-.521h-.2a15.525,15.525,0,0,0-1.792-.339h-.141a15.457,15.457,0,0,0-4.026,0H115.5a15.524,15.524,0,0,0-1.792.339h-.2a12.9,12.9,0,0,0-1.61.521l-.221.091a12.366,12.366,0,0,0-1.389.678l-.2.13a8.732,8.732,0,0,0-1.168.834l-.181.143a9.642,9.642,0,0,0-.926.964l-.121.156a5.69,5.69,0,0,0-.644,1.082v.143a5.346,5.346,0,0,0-.463,1.225h-5.838l9.683-28.67h14.7a8.331,8.331,0,0,1,6.039,2.228l9.824,10.66h0a3.206,3.206,0,0,1,.624,3.857Z" transform="translate(11.058 -29)" fill="#41ba03"/>
      <path id="Path_697" data-name="Path 697" d="M80.128,42.642A5.921,5.921,0,0,0,75.76,41H68.03a1.046,1.046,0,0,0-.966.469l-4.026,9.122a.5.5,0,0,0,.161.573,1.229,1.229,0,0,0,.805.261H79.2A5.914,5.914,0,0,0,83.57,49.8a2.281,2.281,0,0,0,0-3.245Zm1.691,6.516a3.536,3.536,0,0,1-2.617.977H65.332l3.462-7.819H75.76a3.493,3.493,0,0,1,2.617.99l3.462,3.91a1.38,1.38,0,0,1-.02,1.929Z" transform="translate(58.673 -25.362)" fill="#41ba03"/>
      <path id="Path_698" data-name="Path 698" d="M31.033,59C28.253,59,26,60.459,26,62.258s2.253,3.258,5.033,3.258,5.033-1.459,5.033-3.258S33.812,59,31.033,59Zm0,5.213c-1.668,0-3.02-.875-3.02-1.955s1.352-1.955,3.02-1.955,3.02.875,3.02,1.955S32.7,64.213,31.033,64.213Z" transform="translate(21.188 -19.905)" fill="#41ba03"/>
      <path id="Path_699" data-name="Path 699" d="M69.033,59C66.253,59,64,60.459,64,62.258s2.253,3.258,5.033,3.258,5.033-1.459,5.033-3.258S71.812,59,69.033,59Zm0,5.213c-1.668,0-3.02-.875-3.02-1.955s1.352-1.955,3.02-1.955,3.02.875,3.02,1.955S70.7,64.213,69.033,64.213Z" transform="translate(59.683 -19.905)" fill="#41ba03"/>
      <path id="Path_700" data-name="Path 700" d="M21.176,38.606H91.045c1.754,0,3.176-.583,3.176-1.3S92.8,36,91.045,36H21.176C19.422,36,18,36.583,18,37.3S19.422,38.606,21.176,38.606Z" transform="translate(-14.824 -26.878)" fill="#41ba03"/>
      <path id="Path_701" data-name="Path 701" d="M79.341,47.3c0-.72-1.422-1.3-3.176-1.3H22.176C20.422,46,19,46.583,19,47.3s1.422,1.3,3.176,1.3h53.99C77.92,48.606,79.341,48.023,79.341,47.3Z" transform="translate(-12.648 -23.846)" fill="#41ba03"/>
      <path id="Path_702" data-name="Path 702" d="M83.517,42.3c0-.72-1.422-1.3-3.176-1.3H23.176C21.422,41,20,41.583,20,42.3s1.422,1.3,3.176,1.3H80.341C82.1,43.606,83.517,43.023,83.517,42.3Z" transform="translate(-10.472 -25.362)" fill="#41ba03"/>
      <ellipse id="Ellipse_14" data-name="Ellipse 14" cx="3.176" cy="1.303" rx="3.176" ry="1.303" transform="translate(0 15.638)" fill="#41ba03"/>
      <path id="Path_703" data-name="Path 703" d="M24.176,51C22.422,51,21,51.583,21,52.3s1.422,1.3,3.176,1.3H65.462c1.754,0,3.176-.583,3.176-1.3S67.216,51,65.462,51Z" transform="translate(-8.297 -22.33)" fill="#41ba03"/>
      <ellipse id="Ellipse_15" data-name="Ellipse 15" cx="3.176" cy="1.303" rx="3.176" ry="1.303" transform="translate(3.176 28.67)" fill="#41ba03"/>
    </g>
    <circle id="Ellipse_35" data-name="Ellipse 35" cx="7.5" cy="7.5" r="7.5" transform="translate(193 2096.2)" fill="#41ba03" opacity="0.5"/>
    <path id="arrow" d="M3.569,25.4,37.4,6.941,0,0,11.839,10.533Z" transform="matrix(0.695, 0.719, -0.719, 0.695, 1703.392, 2071.383)" fill="#41ba03" opacity="0.5"/>
  </g>
</svg>
