<svg xmlns="http://www.w3.org/2000/svg" width="206.276" height="223.294" viewBox="0 0 206.276 223.294">
  <g id="advantages_favorably_icon" data-name="advantages favorably icon" transform="translate(-450 -1668.743)" opacity="0.2">
    <g id="Group_956" data-name="Group 956" transform="translate(522.734 1831.198)">
      <path id="Path_1576" data-name="Path 1576" d="M712.464,2197.293a16.635,16.635,0,1,1-16.634-16.635A16.634,16.634,0,0,1,712.464,2197.293Z" transform="translate(-679.195 -2180.658)" fill="#41ba03"/>
      <path id="Path_1577" data-name="Path 1577" d="M716.011,2203.916a13.555,13.555,0,1,1-13.555-13.556A13.555,13.555,0,0,1,716.011,2203.916Z" transform="translate(-685.82 -2187.281)" fill="#41ba03"/>
      <path id="Path_1578" data-name="Path 1578" d="M719.732,2210.865a10.325,10.325,0,1,1-10.325-10.325A10.326,10.326,0,0,1,719.732,2210.865Z" transform="translate(-692.771 -2194.231)" fill="#41ba03"/>
      <path id="Path_1579" data-name="Path 1579" d="M724.9,2215.727a6.1,6.1,0,0,0-3.036-1.3l-1.406-.281a3.679,3.679,0,0,1-1.385-.493.949.949,0,0,1-.382-.8,1.087,1.087,0,0,1,.565-1.011,3.611,3.611,0,0,1,1.75-.327,8.114,8.114,0,0,1,1.9.241,11.777,11.777,0,0,1,2.056.709v-2.708a20.291,20.291,0,0,0-2.3-.477c-.227-.032-.445-.05-.665-.073v-1.492h-2.477v1.458a4.765,4.765,0,0,0-2.579.978,3.61,3.61,0,0,0-1.236,2.941,3.3,3.3,0,0,0,.889,2.426,5.494,5.494,0,0,0,2.809,1.314l1.278.283a3.935,3.935,0,0,1,1.557.582,1.246,1.246,0,0,1-.184,1.956,3.133,3.133,0,0,1-1.654.361,7.938,7.938,0,0,1-2.21-.33,12.508,12.508,0,0,1-2.372-.982v2.786a15.041,15.041,0,0,0,2.453.686c.417.081.835.136,1.251.176v1.464h2.477v-1.482a4.888,4.888,0,0,0,2.556-.959,3.837,3.837,0,0,0,1.256-3.152A3.311,3.311,0,0,0,724.9,2215.727Z" transform="translate(-704.112 -2199.124)" fill="#41ba03"/>
      <rect id="Rectangle_131" data-name="Rectangle 131" width="3.239" height="3.239" transform="matrix(0.707, -0.707, 0.707, 0.707, 4.021, 8.107)" fill="#41ba03"/>
    </g>
    <path id="Path_1580" data-name="Path 1580" d="M780.715,1878.029c-.684,23.515.777,30-8.192,30v-35.313L793.24,1856.5Z" transform="translate(-220.171 -128.17)" fill="#41ba03"/>
    <path id="Path_1581" data-name="Path 1581" d="M775.337,2264.655l37.523-16.341c14.078-6.684,16.044,2.986,5.591,8.583-11.56,6.187-34.251,15.887-34.251,15.887l-8.863-2.385Z" transform="translate(-222.092 -394.096)" fill="#41ba03"/>
    <g id="Group_958" data-name="Group 958" transform="translate(482.204 1844.633)">
      <g id="Group_957" data-name="Group 957" transform="translate(0 0)">
        <path id="Path_1582" data-name="Path 1582" d="M622.52,2270.4c-12.968-1.556-63.422-10.353-64.646-10.376L551.48,2260v-29.865l7.749-.112c13.569-3.575,17.4-9.2,36.094-6.153,4.992.824,30.544,2.222,43.486,3.823,8.637,1.069,10.814,11.548-7.306,12.259-19.149.743-28.077,1.076-28.077,1.076s17.4,7.177,23.151,9.326l41.305-14.743c11.381-5.3,13.13,4.393,5.609,8.618C667.041,2247.851,644.289,2261,622.52,2270.4Z" transform="translate(-551.48 -2222.992)" fill="#41ba03"/>
      </g>
    </g>
    <rect id="Rectangle_132" data-name="Rectangle 132" width="21.674" height="37.03" transform="translate(466.601 1847.783)" fill="#41ba03"/>
    <rect id="Rectangle_133" data-name="Rectangle 133" width="32.985" height="41.533" transform="translate(450 1845.533)" fill="#41ba03"/>
    <path id="Path_1583" data-name="Path 1583" d="M803.624,2243.014v6.406c4.681,2.323,11.664.31,11.664-3.2S808.319,2240.682,803.624,2243.014Z" transform="translate(-241.402 -391.345)" fill="#41ba03"/>
    <path id="Path_1584" data-name="Path 1584" d="M515.091,2249.607a3.561,3.561,0,1,1-3.562-3.562A3.561,3.561,0,0,1,515.091,2249.607Z" transform="translate(-39.573 -394.097)" fill="#41ba03"/>
    <path id="Path_1585" data-name="Path 1585" d="M837.048,1760.251l-15.763,14.866c-4.052,14.86-18.913,23.417-18.913,23.417-14.86,2.706-31.528,14.417-31.528,14.417-.817,1.6-1.529,3.225-2.209,4.718-.993,2.176-3.338,7.64-6.172,6.806-3.786-1.12-4.071-14.458.273-22.338l16.215-11.71c.843-11.1-1.489-20.844-18.914,4.053l-1.354,25.224c0,5.266-3.848,8.672-6.649,8.13-1.411-.268-2.554-1.54-2.811-4.076-.534-7.3-.073-1.019-2.25-30.625,15.53-35.43,15.139-31.4,45.041-40.773l25.672-15.075Z" transform="translate(-202.729 -46.79)" fill="#41ba03"/>
    <g id="Group_959" data-name="Group 959" transform="translate(522.649 1786.895)">
      <path id="Path_1586" data-name="Path 1586" d="M712.2,2057.688a16.635,16.635,0,1,1-16.635-16.635A16.635,16.635,0,0,1,712.2,2057.688Z" transform="translate(-678.927 -2041.053)" fill="#41ba03"/>
      <circle id="Ellipse_25" data-name="Ellipse 25" cx="13.555" cy="13.555" r="13.555" transform="matrix(0.036, -0.999, 0.999, 0.036, 2.598, 29.69)" fill="#41ba03"/>
      <path id="Path_1587" data-name="Path 1587" d="M719.458,2071.262a10.325,10.325,0,1,1-10.325-10.324A10.324,10.324,0,0,1,719.458,2071.262Z" transform="translate(-692.499 -2054.628)" fill="#41ba03"/>
      <path id="Path_1588" data-name="Path 1588" d="M724.627,2076.124a6.068,6.068,0,0,0-3.035-1.3l-1.406-.281a3.668,3.668,0,0,1-1.385-.493.946.946,0,0,1-.382-.8,1.091,1.091,0,0,1,.566-1.013,3.637,3.637,0,0,1,1.749-.326,8.129,8.129,0,0,1,1.9.241,11.813,11.813,0,0,1,2.056.71v-2.708a20.179,20.179,0,0,0-2.3-.478c-.226-.032-.446-.05-.666-.072V2068.1H719.24v1.46a4.74,4.74,0,0,0-2.58.978,3.608,3.608,0,0,0-1.235,2.939,3.3,3.3,0,0,0,.889,2.427,5.5,5.5,0,0,0,2.808,1.313l1.278.283a3.937,3.937,0,0,1,1.556.583,1.243,1.243,0,0,1-.184,1.955,3.127,3.127,0,0,1-1.653.36,7.926,7.926,0,0,1-2.21-.33,12.479,12.479,0,0,1-2.372-.982v2.787a15.152,15.152,0,0,0,2.454.686c.417.081.834.137,1.251.175v1.464h2.476v-1.484a4.867,4.867,0,0,0,2.556-.958,3.837,3.837,0,0,0,1.256-3.151A3.305,3.305,0,0,0,724.627,2076.124Z" transform="translate(-703.842 -2059.519)" fill="#41ba03"/>
      <rect id="Rectangle_134" data-name="Rectangle 134" width="3.239" height="3.239" transform="translate(4.019 8.107) rotate(-45)" fill="#41ba03"/>
    </g>
    <g id="Group_960" data-name="Group 960" transform="translate(555.33 1803.53)">
      <path id="Path_1589" data-name="Path 1589" d="M815.175,2110.105a16.634,16.634,0,1,1-16.634-16.634A16.636,16.636,0,0,1,815.175,2110.105Z" transform="translate(-781.906 -2093.472)" fill="#41ba03"/>
      <path id="Path_1590" data-name="Path 1590" d="M818.718,2116.728a13.555,13.555,0,1,1-13.555-13.555A13.555,13.555,0,0,1,818.718,2116.728Z" transform="translate(-788.528 -2100.095)" fill="#41ba03"/>
      <path id="Path_1591" data-name="Path 1591" d="M822.437,2123.678a10.325,10.325,0,1,1-10.324-10.325A10.325,10.325,0,0,1,822.437,2123.678Z" transform="translate(-795.478 -2107.044)" fill="#41ba03"/>
      <path id="Path_1592" data-name="Path 1592" d="M827.609,2128.541a6.1,6.1,0,0,0-3.038-1.3l-1.405-.281a3.674,3.674,0,0,1-1.385-.493.95.95,0,0,1-.383-.8,1.1,1.1,0,0,1,.565-1.012,3.642,3.642,0,0,1,1.75-.325,8.1,8.1,0,0,1,1.9.241,11.7,11.7,0,0,1,2.057.71v-2.708a19.686,19.686,0,0,0-2.305-.478c-.226-.032-.445-.051-.665-.073v-1.492h-2.478v1.46a4.734,4.734,0,0,0-2.579.978,3.608,3.608,0,0,0-1.235,2.94,3.293,3.293,0,0,0,.889,2.425,5.5,5.5,0,0,0,2.808,1.314l1.278.284a3.959,3.959,0,0,1,1.556.583,1.242,1.242,0,0,1-.184,1.955,3.128,3.128,0,0,1-1.654.36,7.9,7.9,0,0,1-2.208-.331,12.272,12.272,0,0,1-2.373-.981v2.786a15.122,15.122,0,0,0,2.453.687c.418.08.835.137,1.25.175v1.464H824.7v-1.483a4.89,4.89,0,0,0,2.554-.958,3.838,3.838,0,0,0,1.259-3.152A3.314,3.314,0,0,0,827.609,2128.541Z" transform="translate(-806.822 -2111.938)" fill="#41ba03"/>
      <rect id="Rectangle_135" data-name="Rectangle 135" width="3.239" height="3.239" transform="translate(4.019 8.105) rotate(-44.987)" fill="#41ba03"/>
    </g>
    <path id="Path_1593" data-name="Path 1593" d="M801.955,1989.243c-1.2,2.642-2.3,4.9-3.669,6.019a2.757,2.757,0,0,1-2.5.787,13.1,13.1,0,0,1,.331-1.692,9.558,9.558,0,0,1,3.887-5.739C800.573,1988.794,801.235,1989,801.955,1989.243Z" transform="translate(-236.05 -218.363)" fill="#41ba03"/>
    <path id="Path_1594" data-name="Path 1594" d="M756.543,1998.86a10.023,10.023,0,0,1-.52,3.284c-1.411-.268-2.554-1.54-2.811-4.077l-.4-5.412a1.291,1.291,0,0,1,.3-.029C755.008,1992.626,756.543,1995.42,756.543,1998.86Z" transform="translate(-206.718 -221.099)" fill="#41ba03"/>
    <rect id="Rectangle_136" data-name="Rectangle 136" width="21.674" height="37.03" transform="translate(601.601 1695.661) rotate(-41.222)" fill="#41ba03"/>
    <rect id="Rectangle_137" data-name="Rectangle 137" width="32.985" height="41.533" transform="matrix(0.752, -0.659, 0.659, 0.752, 604.096, 1690.48)" fill="#41ba03"/>
    <path id="Path_1595" data-name="Path 1595" d="M1050.328,1757.112a3.561,3.561,0,1,1,5.025.333A3.56,3.56,0,0,1,1050.328,1757.112Z" transform="translate(-409.212 -56.292)" fill="#41ba03"/>
  </g>
</svg>
