<svg xmlns="http://www.w3.org/2000/svg" width="264.601" height="222.875" viewBox="0 0 264.601 222.875">
  <g id="advantages_professional_icon" data-name="advantages professional icon" transform="translate(-282.498 -37.23)" opacity="0.2">
    <g id="Group_950" data-name="Group 950" transform="translate(282.498 37.23)">
      <path id="Path_1549" data-name="Path 1549" d="M399.17,82.726c1.662,4.4,8.427,9.776,16.219,12.612,28.584,10.411,40.839,9.644,49.936,36.279a126.609,126.609,0,0,1-44.459,30.529H325.752a126.547,126.547,0,0,1-41.306-27.292c.732-46.029,51.479-19.284,63.438-52.128,2.249-6.174,2.346-15.853.922-22.243l24.721.481,24.725-.481C396.828,66.873,396.85,76.579,399.17,82.726Z" transform="translate(-275.856 42.059)" fill="#41ba03" fill-rule="evenodd"/>
      <path id="Path_1550" data-name="Path 1550" d="M330.488,82.726c1.336,3.545,5.887,7.849,11.9,10.464,29.625,12.9,51.1,12.144,54.257,38.426a126.609,126.609,0,0,1-44.459,30.529H304.589V60.955l.256.009,24.725-.481C328.146,66.873,328.168,76.579,330.488,82.726Z" transform="translate(-207.173 42.059)" fill="#41ba03" fill-rule="evenodd"/>
      <path id="Path_1551" data-name="Path 1551" d="M297.9,66.7l29.7,3.18,30.071-3.374-2.778,93.748H300.979Z" transform="translate(-229.996 62.613)" fill="#41ba03" fill-rule="evenodd"/>
      <path id="Path_1552" data-name="Path 1552" d="M337.608,138.8c-.141.009-.278.009-.414.013-5.142.031-7.7-.053-10.487-1.23-2.7-1.147-4.008-3.8-7.717-7.373-3.157-3.038-8.828-6.143-10.209-9.454-1.68-4.03-1.283-8.418-2-14.279-2.928,1.61-6.063-6.773-6.69-9.525-.917-4.057-3.836-10.958-4.749-15.588-.52-2.65-.207-4.763.688-5.424,1.953-1.455,3.964-.6,6.919,3.528-.172-5.861-.256-10.8.489-15.05,4.044-23.191,60.727-36.2,67.072-.106.75,4.255.684,9.2.52,15.077,2.924-4.061,4.926-4.895,6.866-3.448.891.661,1.208,2.774.684,5.424-.913,4.63-3.836,11.531-4.749,15.588-.613,2.721-3.691,10.941-6.588,9.574-.644,5.68-.291,9.957-1.927,13.926-1.372,3.325-6.994,6.465-10.129,9.538-3.7,3.62-5,6.271-7.686,7.461C344.822,138.619,342.357,138.778,337.608,138.8Z" transform="translate(-239.553 -21.415)" fill="#41ba03" fill-rule="evenodd"/>
      <path id="Path_1553" data-name="Path 1553" d="M305.229,138.8c-.141.009-.278.009-.414.013h-.225V42.052c15.192-1.341,30.432,4.542,33.545,22.256.75,4.255.684,9.2.52,15.077,2.924-4.061,4.926-4.895,6.866-3.448.891.661,1.208,2.774.684,5.424-.913,4.63-3.836,11.531-4.749,15.588-.613,2.721-3.691,10.941-6.588,9.574-.644,5.68-.291,9.957-1.927,13.926-1.371,3.325-6.994,6.465-10.129,9.538-3.7,3.62-5,6.271-7.686,7.461C312.443,138.616,309.978,138.775,305.229,138.8Z" transform="translate(-207.173 -21.412)" fill="#41ba03" fill-rule="evenodd"/>
      <g id="Group_949" data-name="Group 949" transform="translate(67.235 118.532)">
        <path id="Path_1554" data-name="Path 1554" d="M329.3,64.109c.741,5.2,2.319,7.589,5.786,10.222L320.237,99.682,304.521,77.7C312.34,73.4,326.257,68.038,329.3,64.109Z" transform="translate(-274.641 -64.109)" fill="#41ba03" fill-rule="evenodd"/>
        <path id="Path_1555" data-name="Path 1555" d="M303.531,64.109c-.736,5.2-2.324,7.589-5.786,10.222l14.843,25.352L328.3,77.7C320.491,73.4,306.573,68.038,303.531,64.109Z" transform="translate(-297.745 -64.109)" fill="#41ba03" fill-rule="evenodd"/>
      </g>
      <path id="Path_1556" data-name="Path 1556" d="M350.395,66.434c-15.438,13.78-46.448,7.064-61.5,29.153-8.189,12.021-5.936,35.961-6.394,64.938H371.42C364.863,136.024,356.053,83.2,350.395,66.434Z" transform="translate(-282.498 62.35)" fill="#41ba03" fill-rule="evenodd"/>
      <path id="Path_1557" data-name="Path 1557" d="M312.261,67.465l7.713,11.375-.194,2.89-6.365,6.459,7.136,11.475-2.394,57.5H305.242L302.559,99.61l7.131-11.472-6.361-6.459-.194-2.892,7.687-11.367Z" transform="translate(-214.096 65.712)" fill="#41ba03" fill-rule="evenodd"/>
      <path id="Path_1558" data-name="Path 1558" d="M305.305,67.448l7.713,11.375-.194,2.89-6.365,6.459,7.136,11.475-2.394,57.5h-6.6V67.425Z" transform="translate(-207.141 65.729)" fill="#41ba03" fill-rule="evenodd"/>
      <path id="Path_1559" data-name="Path 1559" d="M310,66.434c-3.263,2.756-9.066,5.627-15.2,7.805l.309.229-.767,32.394,13.878-1.543-8.1,10.8,12.241,44.411h18.525C324.38,136.068,315.675,83.24,310,66.434Z" transform="translate(-242.103 62.35)" fill="#41ba03" fill-rule="evenodd"/>
      <path id="Path_1560" data-name="Path 1560" d="M308.59,74.428c-4.807,5.75-5.966,28.2-5.631,35.984-8.123-29.479-12.493-50.527,5.146-63.783,23.151-17.4,49.155-6.637,53.375.459,17,9.4,11.095,35.842,5.984,59.2-.123-8.987-4.392-30.467-7.726-39.547C346.787,58.592,321.07,82.758,308.59,74.428Z" transform="translate(-236.905 -37.23)" fill="#41ba03" fill-rule="evenodd"/>
      <path id="Path_1561" data-name="Path 1561" d="M304.589,37.248c13.516-.384,24.54,5.433,27.16,9.838,17,9.4,11.095,35.842,5.984,59.2-.123-8.987-4.392-30.467-7.726-39.547-6.4-4.026-15.919-.159-25.418,3.775Z" transform="translate(-207.173 -37.228)" fill="#41ba03" fill-rule="evenodd"/>
      <path id="Path_1562" data-name="Path 1562" d="M327.55,66.434c15.443,13.78,46.448,7.064,61.5,29.153,8.193,12.021,5.935,35.961,6.394,64.938H306.524C313.086,136.024,321.9,83.2,327.55,66.434Z" transform="translate(-200.576 62.35)" fill="#41ba03" fill-rule="evenodd"/>
      <path id="Path_1563" data-name="Path 1563" d="M327.426,66.434c1.976,1.671,14.993,7.96,14.892,8.035l.767,32.394-13.877-1.543,8.1,10.8-11.276,44.411H306.572C313.046,136.2,321.715,83.367,327.426,66.434Z" transform="translate(-200.412 62.35)" fill="#41ba03" fill-rule="evenodd"/>
    </g>
    <g id="Group_951" data-name="Group 951" transform="translate(450.507 138.708)">
      <path id="Path_1564" data-name="Path 1564" d="M333.6,109.186l-9.3,45.83-3.32,9.887,24.187,4.476,3.572-16.034,6.1-27.01c5.759-3.881,7.4-11.113,12.3-16.589,3.973-4.445,7.505-6.522,8.6-11.531.56-2.566.282-5.971-2-7.192,2.346-1.261,1.574-3.612,1.217-5.076-.406-1.632-.737-3.457-3.352-3.127,1.623-1.385,1.967-2.421,1.579-4.075-.331-1.411-1.173-3.651-2.439-4.229-.9-.41-2-.287-3.722-.256l-.357-1.583c1.777-1.72,5.124-3.281,5.759-5.375.838-2.752-1.539-8.656-7.607-6.654l-11.461,3.775-14.49,3.232c-2.844,4.264-4.414,8.326-7.514,13.2-2.884,4.551-.653,8.008-.309,13.525C331.453,100.834,331.828,105.949,333.6,109.186Z" transform="translate(-319.294 -60.242)" fill="#41ba03" fill-rule="evenodd"/>
      <path id="Path_1565" data-name="Path 1565" d="M353.822,106.205c4.679-3.779,6.249-2.981,7.342-7.995.56-2.562.282-5.966-2-7.188,2.346-1.261,1.574-3.612,1.217-5.076-.406-1.632-.737-3.457-3.352-3.127,1.623-1.385,1.967-2.421,1.579-4.075-.331-1.411-1.173-3.651-2.439-4.229-.9-.41-1.993-.287-3.722-.256l-.357-1.583c1.777-1.72,5.124-3.281,5.759-5.375.838-2.752-1.539-8.656-7.607-6.654L338.78,64.423l-7.774,1.971c-11.236,13.251-2.633,10.394-2.1,23.473.467,11.62-2.664,19.954,7.475,19.87C344.292,109.671,349.147,109.984,353.822,106.205Z" transform="translate(-304.713 -60.242)" fill="#41ba03" fill-rule="evenodd"/>
      <path id="Path_1566" data-name="Path 1566" d="M320.6,131.864l3.333-57.025,36.906,6.388-2.3,50.637Z" transform="translate(-320.598 -10.47)" fill="#41ba03" fill-rule="evenodd"/>
    </g>
    <g id="Group_954" data-name="Group 954" transform="translate(424.613 81.285)">
      <g id="Group_952" data-name="Group 952" transform="translate(23.357)">
        <path id="Path_1567" data-name="Path 1567" d="M389.642,47.766c.512,25.982-4.586,67.72-34.219,68.1s-35.08-42-34.568-68.1h68.787Z" transform="translate(-317.292 -45.358)" fill="#41ba03" fill-rule="evenodd"/>
        <path id="Path_1568" data-name="Path 1568" d="M324.052,47.22H391.9a4.041,4.041,0,0,1,4.031,4.03h0a4.041,4.041,0,0,1-4.031,4.031H324.052a4.043,4.043,0,0,1-4.03-4.031h0A4.043,4.043,0,0,1,324.052,47.22Z" transform="translate(-320.022 -47.22)" fill="#41ba03" fill-rule="evenodd"/>
        <rect id="Rectangle_124" data-name="Rectangle 124" width="16.123" height="35.601" transform="translate(29.897 64.452)" fill="#41ba03"/>
        <rect id="Rectangle_125" data-name="Rectangle 125" width="64.475" height="36.891" rx="0.688" transform="translate(5.721 98.555)" fill="#41ba03"/>
        <rect id="Rectangle_126" data-name="Rectangle 126" width="68.265" height="7.06" transform="translate(3.826 129.881)" fill="#41ba03"/>
        <rect id="Rectangle_127" data-name="Rectangle 127" width="36.354" height="19.585" transform="translate(19.781 104.999)" fill="#41ba03"/>
        <path id="Path_1569" data-name="Path 1569" d="M363.021,47.766c.512,25.982-4.586,67.72-34.219,68.1l-.172,0V47.766Z" transform="translate(-290.671 -45.358)" fill="#41ba03" fill-rule="evenodd"/>
        <path id="Path_1570" data-name="Path 1570" d="M328.63,47.22h33.92a4.041,4.041,0,0,1,4.031,4.03h0a4.041,4.041,0,0,1-4.031,4.031H328.63Z" transform="translate(-290.671 -47.22)" fill="#41ba03" fill-rule="evenodd"/>
        <rect id="Rectangle_128" data-name="Rectangle 128" width="8.061" height="35.601" transform="translate(37.959 64.452)" fill="#41ba03"/>
        <path id="Path_1571" data-name="Path 1571" d="M328.63,69.569h29.761a2.81,2.81,0,0,1,2.474,3.038v30.82a2.808,2.808,0,0,1-2.474,3.034H328.63V96.914l6.65-9.759-6.65-9.887Z" transform="translate(-290.671 28.984)" fill="#41ba03" fill-rule="evenodd"/>
        <rect id="Rectangle_129" data-name="Rectangle 129" width="34.132" height="7.06" transform="translate(37.959 129.881)" fill="#41ba03"/>
        <rect id="Rectangle_130" data-name="Rectangle 130" width="18.177" height="19.585" transform="translate(37.959 104.999)" fill="#41ba03"/>
      </g>
      <g id="Group_953" data-name="Group 953" transform="translate(0 4.29)">
        <path id="Path_1572" data-name="Path 1572" d="M346.093,64.734a10.749,10.749,0,0,1,.026-8.564c8.542-15.994,30.754-6.61,25.749,16.334-2.042,9.353-9.15,17.048-16.947,22.194-6.923,4.573-11.584,4.225-14.777,7.161-2.465,2.267-1.94,5.936,2.165,4.833a2.513,2.513,0,0,1,1.3,4.855,8.539,8.539,0,0,1-6.31-.467c-5.054-2.663-4.423-9.362-.56-12.916,2.752-2.527,8.872-2.558,16.537-7.942,6.425-4.507,11.73-11.315,13.331-18.971C371.246,49.009,348,48.74,346.093,64.734Z" transform="translate(-250.108 -48.193)" fill="#41ba03" fill-rule="evenodd"/>
        <path id="Path_1573" data-name="Path 1573" d="M341.222,64.734a10.749,10.749,0,0,0-.027-8.564c-8.537-15.994-30.749-6.61-25.744,16.334,2.037,9.353,9.146,17.048,16.942,22.194,6.928,4.573,11.584,4.225,14.782,7.161,2.465,2.267,1.936,5.936-2.165,4.833a2.513,2.513,0,1,0-1.3,4.855,8.532,8.532,0,0,0,6.306-.467c5.058-2.663,4.419-9.362.56-12.916-2.752-2.527-8.868-2.558-16.541-7.942-6.421-4.507-11.725-11.315-13.326-18.971C316.069,49.009,339.317,48.74,341.222,64.734Z" transform="translate(-314.725 -48.193)" fill="#41ba03" fill-rule="evenodd"/>
      </g>
    </g>
    <path id="Path_1574" data-name="Path 1574" d="M355.031,98.052c1.1-2.293.3-5.764-1.8-7.073-4.591,1.636-9.133,3.347-13.692,5.062a3.317,3.317,0,0,0-.992,5.181c1.376,1.363,6.257.56,9.547-.185,4.793-1.08,6.165-1.367,6.936-2.985Zm-1.671-7.391-.908.2-1.508.5L341.158,95c-3.126,1.336-7.461,3.329-9.675,2.487a3.28,3.28,0,0,1-2.377-3.519c-.026-1.768.463-3.034,2.13-3.532a178.2,178.2,0,0,0,20.386-7.814c1.953.075,2.262,1.7,2.624,3.162.339,1.389,1.054,3.581-.887,4.873Zm-2.143-8.286c-6.615,2.827-12.585,5.195-20.179,7.863-4.1.767-5.349-4.511-2.253-7.007,1.958-1.574,7.664-4.211,12.418-6.332,2.69-1.2,4.837-2.24,6.456-2.831a5.42,5.42,0,0,1,2.377.291c1.266.578,2.108,2.818,2.439,4.229a3.415,3.415,0,0,1-1.257,3.788Zm-4.37-10.623c1.83-1.433,4.33-2.827,4.868-4.608.781-2.571-1.923-8.158-4.948-6.579-2.143,1.116-5.062,2.774-7.814,4.317-4.154,2.328-7.832,4.679-6.628,8.317a3.473,3.473,0,0,0,4.926,2.249C341.242,73.962,343.345,73.366,346.846,71.752Z" transform="translate(151.927 78.625)" fill="#41ba03" fill-rule="evenodd"/>
    <path id="Path_1575" data-name="Path 1575" d="M332.1,61.917l-.128.026c-2.844,4.264-4.414,8.326-7.514,13.2-2.884,4.551-.653,8.008-.3,13.525.07,1.186.145,2.328.225,3.418q1.263-1.164,2.417-2.271c5.6-5.376,8.912-9.283,7.735-16.726,3.814,2.738,12.255,3.228,13.988.1,1.724-3.1-2.906-5.045-5.173-6.244a83.128,83.128,0,0,0-10.879-4.921C332.348,61.988,332.224,61.952,332.1,61.917Z" transform="translate(138.111 84.178)" fill="#41ba03" fill-rule="evenodd"/>
  </g>
</svg>
