<svg xmlns="http://www.w3.org/2000/svg" width="374.539" height="146.753" viewBox="0 0 374.539 146.753">
  <g id="advantages_fast_icon" data-name="advantages fast icon" opacity="0.2">
    <g id="Group_947" data-name="Group 947" transform="translate(83.411 0)">
      <path id="Path_1544" data-name="Path 1544" d="M549.376,408.471a21.305,21.305,0,1,1-21.3-21.307A21.3,21.3,0,0,1,549.376,408.471Zm-10.324,0a10.979,10.979,0,1,0-10.979,10.981A10.98,10.98,0,0,0,539.051,408.471Z" transform="translate(-320.061 -283.022)" fill="#41ba03"/>
      <path id="Path_1545" data-name="Path 1545" d="M634.772,408.471a21.305,21.305,0,1,1-21.3-21.307A21.3,21.3,0,0,1,634.772,408.471Zm-10.328,0a10.979,10.979,0,1,0-10.976,10.981A10.978,10.978,0,0,0,624.443,408.471Z" transform="translate(-512.796 -283.022)" fill="#41ba03"/>
      <path id="Path_1546" data-name="Path 1546" d="M683.046,384.945H613.989v24.1h50.3A24.875,24.875,0,0,1,683.046,384.945Z" transform="translate(-588.507 -283.593)" fill="#41ba03"/>
      <path id="Path_1547" data-name="Path 1547" d="M641.916,416.234V427.8h-6.368v.241h-52a24.747,24.747,0,1,0-49.495,0H476.343a24.878,24.878,0,0,0-18.756-24.1h64.821V311.006h47.369L603.4,365.1h32.153v51.137ZM543,372.483h-5.512v12.523H543Zm40.542-7.739-20.3-41.562H537.491v41.562Z" transform="translate(-350.788 -302.591)" fill="#41ba03"/>
      <rect id="Rectangle_123" data-name="Rectangle 123" width="158.089" height="89.478" transform="translate(0)" fill="#41ba03"/>
    </g>
    <path id="Path_1548" data-name="Path 1548" d="M735.738,316.743l-36.589-4.231,70.907-8.2v16.4h0v8.2h0v8.2h0v8.2h0v16.4l-48.9-8.2,23.4-3.923-27.8-4.278,25.591-3.938-29.993-4.262,27.79-3.95-32.192-4.251,29.988-3.96-34.39-4.241Z" transform="translate(-699.149 -304.311)" fill="#41ba03"/>
  </g>
</svg>
