<?xml version="1.0" encoding="utf-8"?>
<!-- Generator: Adobe Illustrator 24.0.1, SVG Export Plug-In . SVG Version: 6.00 Build 0)  -->
<svg version="1.1" id="Layer_1" xmlns="http://www.w3.org/2000/svg" xmlns:xlink="http://www.w3.org/1999/xlink" x="0px" y="0px"
	 viewBox="0 0 31.9 24.2" style="enable-background:new 0 0 31.9 24.2;" xml:space="preserve">
<style type="text/css">
	.st0{fill:#7CCF51;}
</style>
<g>
	<path class="st0" d="M14.9,5.6c0,4.8-1.8,9.2-5.5,12.9c-3.7,3.8-6.1,5.7-7.4,5.7C0.6,24.2,0,24,0,23.7c0-0.3,1.2-1.8,3.7-4.5
		c2.5-2.7,3.7-4.9,3.7-6.7c0-1.7-0.8-3.3-2.3-4.6c-1.5-1.3-2.3-2.3-2.3-3C2.9,1.7,4.5,0,7.8,0c1.7,0,3.3,0.5,4.8,1.6
		C14.1,2.7,14.9,4,14.9,5.6z M31.9,5.6c0,4.8-1.8,9.2-5.5,12.9c-3.7,3.8-6.1,5.7-7.4,5.7c-1.2,0-1.9-0.1-1.9-0.4
		c0-0.3,1.2-1.8,3.6-4.5c2.4-2.7,3.6-4.9,3.6-6.7c0-1.7-0.8-3.3-2.3-4.6c-1.5-1.3-2.3-2.3-2.3-3C19.9,1.7,21.6,0,25,0
		c1.6,0,3.1,0.6,4.6,1.7C31.2,2.8,31.9,4.1,31.9,5.6z"/>
</g>
</svg>
