<svg xmlns="http://www.w3.org/2000/svg" xmlns:xlink="http://www.w3.org/1999/xlink" width="159.198" height="144.72" viewBox="0 0 159.198 144.72">
  <defs>
    <clipPath id="clip-path">
      <path id="Path_267" data-name="Path 267" d="M180.473,213.231,157.86,200.09a10.957,10.957,0,0,1,4.955-8.61l22.613,13.141A10.934,10.934,0,0,0,180.473,213.231Z" transform="translate(-157.86 -191.48)"/>
    </clipPath>
  </defs>
  <g id="boxes_and_supplies_illustration" data-name="boxes and supplies illustration" transform="translate(-157.86 -162.7)">
    <g id="Group_380" data-name="Group 380" transform="translate(157.86 162.7)">
      <g id="Group_265" data-name="Group 265">
        <g id="Group_216" data-name="Group 216" transform="translate(51.147 100.561)">
          <path id="Path_251" data-name="Path 251" d="M197.05,240.57l2.85-1.7a2.488,2.488,0,0,0,1.052-2.266,6.991,6.991,0,0,0-.629-2.719l-2.85,1.71a6.71,6.71,0,0,1,.643,2.69,2.539,2.539,0,0,1-1.067,2.28Z" transform="translate(-190.911 -230.44)" fill="#2b3336"/>
          <path id="Path_252" data-name="Path 252" d="M197.849,241.66l2.85-1.7a2.488,2.488,0,0,0,1.052-2.266,7.852,7.852,0,0,0-3.581-6.169l-2.85,1.7a7.842,7.842,0,0,1,3.581,6.154A2.5,2.5,0,0,1,197.849,241.66Z" transform="translate(-191.709 -231.53)" fill="#2b3336"/>
          <g id="Group_215" data-name="Group 215" transform="translate(0 1.203)">
            <path id="Path_253" data-name="Path 253" d="M196.461,232.846c-1.988-1.14-3.6-.234-3.611,2.032a7.8,7.8,0,0,0,3.581,6.139c1.988,1.155,3.611.234,3.611-2.017A7.842,7.842,0,0,0,196.461,232.846Z" transform="translate(-192.85 -232.353)" fill="#353f43"/>
          </g>
        </g>
        <g id="Group_218" data-name="Group 218" transform="translate(25.142 115.47)">
          <path id="Path_254" data-name="Path 254" d="M179.27,250.77l2.85-1.7a2.488,2.488,0,0,0,1.052-2.266,6.99,6.99,0,0,0-.629-2.719l-2.85,1.71a6.709,6.709,0,0,1,.643,2.69,2.59,2.59,0,0,1-1.067,2.28Z" transform="translate(-173.116 -240.64)" fill="#2b3336"/>
          <path id="Path_255" data-name="Path 255" d="M180.069,251.86l2.85-1.7a2.488,2.488,0,0,0,1.052-2.266,7.852,7.852,0,0,0-3.581-6.169l-2.85,1.7a7.842,7.842,0,0,1,3.581,6.154A2.55,2.55,0,0,1,180.069,251.86Z" transform="translate(-173.915 -241.73)" fill="#2b3336"/>
          <g id="Group_217" data-name="Group 217" transform="translate(0 1.203)">
            <path id="Path_256" data-name="Path 256" d="M178.671,243.046c-1.988-1.14-3.6-.234-3.611,2.032a7.8,7.8,0,0,0,3.581,6.139c1.988,1.155,3.611.234,3.611-2.017A7.766,7.766,0,0,0,178.671,243.046Z" transform="translate(-175.06 -242.553)" fill="#353f43"/>
          </g>
        </g>
        <g id="Group_220" data-name="Group 220" transform="translate(0.716 102.929)">
          <path id="Path_257" data-name="Path 257" d="M162.55,242.19l2.85-1.7a2.488,2.488,0,0,0,1.052-2.266,6.991,6.991,0,0,0-.629-2.719l-2.85,1.71a6.709,6.709,0,0,1,.643,2.69,2.525,2.525,0,0,1-1.067,2.28Z" transform="translate(-156.411 -232.06)" fill="#2b3336"/>
          <path id="Path_258" data-name="Path 258" d="M163.349,243.28l2.85-1.7a2.488,2.488,0,0,0,1.052-2.266,7.852,7.852,0,0,0-3.581-6.169l-2.85,1.7A7.842,7.842,0,0,1,164.4,241,2.486,2.486,0,0,1,163.349,243.28Z" transform="translate(-157.209 -233.15)" fill="#2b3336"/>
          <g id="Group_219" data-name="Group 219" transform="translate(0 1.189)">
            <path id="Path_259" data-name="Path 259" d="M161.961,234.456c-1.988-1.14-3.6-.234-3.611,2.032a7.8,7.8,0,0,0,3.581,6.139c1.988,1.155,3.611.234,3.611-2.017A7.865,7.865,0,0,0,161.961,234.456Z" transform="translate(-158.35 -233.963)" fill="#353f43"/>
          </g>
        </g>
        <g id="Group_226" data-name="Group 226" transform="translate(0 22.395)">
          <g id="Group_225" data-name="Group 225">
            <path id="Path_260" data-name="Path 260" d="M183.7,178.734l20.786,12.089,1.813,1.052a4.167,4.167,0,0,1,2.675-.643.742.742,0,0,1,.249.044,2.962,2.962,0,0,1,.629.249l-.687-.395-2.207-1.3h-.015l-.38-.219-19.324-11.226a2.351,2.351,0,0,0-.629-.248A4.038,4.038,0,0,0,183.7,178.734Z" transform="translate(-145.928 -178.056)" fill="#2b7201"/>
            <path id="Path_261" data-name="Path 261" d="M157.86,197.37l.161,56.482a3.494,3.494,0,0,0,1.447,3.187l19.924,11.577,1.506.877,1.184.687a3.459,3.459,0,0,1-1.462-3.172v-.029l-.161-56.482-1.52-.877Z" transform="translate(-157.86 -169.138)" fill="#2b7201"/>
            <path id="Path_262" data-name="Path 262" d="M173.325,236.69h.132l.029,12.133a3.506,3.506,0,0,0,1.447,3.2l-1.623-.936v-14.4Z" transform="translate(-150.726 -150.982)" fill="#eff3fc"/>
            <g id="Group_221" data-name="Group 221" transform="translate(4.955 0.678)">
              <path id="Path_263" data-name="Path 263" d="M183.863,210.605,161.25,197.464l32.816-18.944,22.613,13.141Z" transform="translate(-161.25 -178.52)" fill="#41ba03"/>
            </g>
            <g id="Group_223" data-name="Group 223" transform="translate(0 19.623)">
              <path id="Path_264" data-name="Path 264" d="M180.473,213.231,157.86,200.09a10.957,10.957,0,0,1,4.955-8.61l22.613,13.141A10.934,10.934,0,0,0,180.473,213.231Z" transform="translate(-157.86 -191.48)" fill="#266302"/>
              <g id="Group_222" data-name="Group 222" clip-path="url(#clip-path)">
                <path id="Path_265" data-name="Path 265" d="M180.473,211.984,157.86,198.843a10.021,10.021,0,0,1,1.316-4.663l22.613,13.141a9.687,9.687,0,0,0-1.316,4.663Z" transform="translate(-157.86 -190.233)" fill="#3a9902"/>
                <path id="Path_266" data-name="Path 266" d="M181.373,208.553,158.76,195.412a10.217,10.217,0,0,1,3.64-3.932l22.613,13.141a10.21,10.21,0,0,0-3.64,3.932Z" transform="translate(-157.444 -191.48)" fill="#41ba03"/>
              </g>
            </g>
            <g id="Group_224" data-name="Group 224" transform="translate(22.599 13.135)">
              <path id="Path_268" data-name="Path 268" d="M211.106,187.726c2.748-1.593,5-.307,5,2.85l.161,56.482a10.923,10.923,0,0,1-4.97,8.6L178.48,274.6c-2.748,1.593-4.985.322-5-2.85l-.161-56.482a10.957,10.957,0,0,1,4.955-8.61Z" transform="translate(-173.32 -187.042)" fill="#3c9b04"/>
            </g>
          </g>
        </g>
        <g id="Group_228" data-name="Group 228" transform="translate(21.078 45.496)">
          <g id="Group_227" data-name="Group 227">
            <path id="Path_269" data-name="Path 269" d="M172.412,266.67a9.6,9.6,0,0,0,.322,3.567l1.506.877-.278-1.769V268.6l.132-56.95a10.423,10.423,0,0,1,4.648-8.054l13.4-7.777-.2-1.959-14.106,8.157a12.217,12.217,0,0,0-5.54,9.238,4.112,4.112,0,0,0-.015.424Z" transform="translate(-172.28 -193.86)" fill="#eff3fc"/>
          </g>
        </g>
        <g id="Group_230" data-name="Group 230" transform="translate(25.858 34.203)">
          <g id="Group_229" data-name="Group 229">
            <path id="Path_270" data-name="Path 270" d="M175.55,206.107l1.71.994,32.8-18.944a4.166,4.166,0,0,1,2.675-.643.743.743,0,0,1,.249.044,2.965,2.965,0,0,1,.629.248l-.687-.395-2.207-1.3h-.015a9.241,9.241,0,0,0-2.47.994l-1.286.745L176.3,205.6A7.548,7.548,0,0,0,175.55,206.107Z" transform="translate(-175.55 -186.11)" fill="#eff3fc"/>
          </g>
        </g>
        <g id="Group_236" data-name="Group 236" transform="translate(16.561)">
          <path id="Path_271" data-name="Path 271" d="M183.772,193.689a.979.979,0,0,0,.979-.979v-29.03a.994.994,0,0,0-.482-.848.977.977,0,0,0-.979,0l-11.475,6.622a.975.975,0,1,0,.965,1.7l10.013-5.774V192.71A.979.979,0,0,0,183.772,193.689Z" transform="translate(-168.204 -162.7)" fill="#a2a7ab"/>
          <g id="Group_235" data-name="Group 235" transform="translate(3.304 0.322)">
            <g id="Group_234" data-name="Group 234">
              <g id="Group_231" data-name="Group 231" transform="translate(0 5.072)">
                <path id="Path_272" data-name="Path 272" d="M173.423,170.614l-1.959-1.14-.015-3.084,1.959,1.14Z" transform="translate(-171.45 -166.39)" fill="#121315"/>
              </g>
              <g id="Group_232" data-name="Group 232">
                <path id="Path_273" data-name="Path 273" d="M173.409,169.132l-1.959-1.14,8.77-5.072,1.959,1.155Z" transform="translate(-171.45 -162.92)" fill="#1c1f22"/>
              </g>
              <g id="Group_233" data-name="Group 233" transform="translate(1.959 1.155)">
                <path id="Path_274" data-name="Path 274" d="M181.56,163.71l.015,3.084-8.771,5.058-.015-3.084Z" transform="translate(-172.79 -163.71)" fill="#1a1c1f"/>
              </g>
            </g>
          </g>
          <path id="Path_275" data-name="Path 275" d="M170.155,200.029a.979.979,0,0,0,.979-.979v-28.46l2.646-1.535a.973.973,0,1,0-.979-1.681l-3.128,1.813a.963.963,0,0,0-.482.848v29.016A.958.958,0,0,0,170.155,200.029Z" transform="translate(-169.19 -160.605)" fill="#a2a7ab"/>
        </g>
        <g id="Group_241" data-name="Group 241" transform="translate(7.236 67.814)">
          <g id="Group_240" data-name="Group 240">
            <g id="Group_237" data-name="Group 237" transform="translate(2.807 1.623)">
              <path id="Path_276" data-name="Path 276" d="M164.73,247.051l1.272-.745.1-36.076-1.272.731Z" transform="translate(-164.73 -210.23)" fill="#0f1112"/>
            </g>
            <g id="Group_238" data-name="Group 238" transform="translate(0.102)">
              <path id="Path_277" data-name="Path 277" d="M165.687,211.473l1.272-.731-2.792-1.623-1.286.745Z" transform="translate(-162.88 -209.12)" fill="#181b1d"/>
            </g>
            <g id="Group_239" data-name="Group 239" transform="translate(0 0.746)">
              <path id="Path_278" data-name="Path 278" d="M162.912,209.63l-.1,36.091,2.807,1.608.1-36.091Z" transform="translate(-162.81 -209.63)" fill="#16181a"/>
            </g>
          </g>
        </g>
        <g id="Group_252" data-name="Group 252" transform="translate(27.028 39.651)">
          <g id="Group_251" data-name="Group 251">
            <g id="Group_243" data-name="Group 243" transform="translate(33.006)">
              <g id="Group_242" data-name="Group 242">
                <path id="Path_279" data-name="Path 279" d="M201.123,190.526l-.979-.57a1.2,1.2,0,0,0-1.213.117l.979.57a1.17,1.17,0,0,1,1.213-.117Z" transform="translate(-198.93 -189.841)" fill="#2b7201"/>
              </g>
            </g>
            <g id="Group_245" data-name="Group 245" transform="translate(0.029 33.545)">
              <g id="Group_244" data-name="Group 244">
                <path id="Path_280" data-name="Path 280" d="M177.349,213.36l-.979-.57a1.176,1.176,0,0,0,.5,1.082l.979.57a1.205,1.205,0,0,1-.5-1.082Z" transform="translate(-176.37 -212.79)" fill="#2b7201"/>
              </g>
            </g>
            <g id="Group_246" data-name="Group 246" transform="translate(0 21.237)">
              <path id="Path_281" data-name="Path 281" d="M177.329,204.94l-.979-.57.029,12.308.979.57Z" transform="translate(-176.35 -204.37)" fill="#2b7201"/>
            </g>
            <g id="Group_247" data-name="Group 247" transform="translate(1.696 0.217)">
              <path id="Path_282" data-name="Path 282" d="M209.8,190.575l-.979-.585L177.51,208.072l.979.57Z" transform="translate(-177.51 -189.99)" fill="#2b7201"/>
            </g>
            <g id="Group_249" data-name="Group 249" transform="translate(0 18.299)">
              <g id="Group_248" data-name="Group 248">
                <path id="Path_283" data-name="Path 283" d="M179.025,202.93l-.979-.57a3.752,3.752,0,0,0-1.7,2.938l.979.57a3.775,3.775,0,0,1,1.7-2.938Z" transform="translate(-176.35 -202.36)" fill="#2b7201"/>
              </g>
            </g>
            <g id="Group_250" data-name="Group 250" transform="translate(0.979 0.548)">
              <path id="Path_284" data-name="Path 284" d="M178.716,208.538a3.752,3.752,0,0,0-1.7,2.938l.029,12.308c0,1.067.775,1.506,1.71.965l31.311-18.082a3.752,3.752,0,0,0,1.7-2.938l-.029-12.308c0-1.082-.775-1.506-1.71-.979Z" transform="translate(-177.02 -190.216)" fill="#41ba03"/>
            </g>
          </g>
        </g>
        <g id="Group_264" data-name="Group 264" transform="translate(26.984 59.341)">
          <g id="Group_263" data-name="Group 263">
            <g id="Group_254" data-name="Group 254" transform="translate(0.117 58.643)">
              <g id="Group_253" data-name="Group 253">
                <path id="Path_285" data-name="Path 285" d="M177.379,244.02l-.979-.57a1.16,1.16,0,0,0,.5,1.082l.979.57a1.176,1.176,0,0,1-.5-1.082Z" transform="translate(-176.4 -243.45)" fill="#872220"/>
              </g>
            </g>
            <g id="Group_256" data-name="Group 256" transform="translate(33.021)">
              <g id="Group_255" data-name="Group 255">
                <path id="Path_286" data-name="Path 286" d="M201.1,204.016l-.979-.57a1.2,1.2,0,0,0-1.213.117l.979.57a1.2,1.2,0,0,1,1.213-.117Z" transform="translate(-198.91 -203.331)" fill="#872220"/>
              </g>
            </g>
            <g id="Group_257" data-name="Group 257" transform="translate(0 21.252)">
              <path id="Path_287" data-name="Path 287" d="M177.314,218.44l-.994-.57.117,37.392.979.57Z" transform="translate(-176.32 -217.87)" fill="#2b7201"/>
            </g>
            <g id="Group_258" data-name="Group 258" transform="translate(1.696 0.232)">
              <path id="Path_288" data-name="Path 288" d="M209.785,204.06l-.979-.57L177.48,221.572l.994.57Z" transform="translate(-177.48 -203.49)" fill="#2b7201"/>
            </g>
            <g id="Group_260" data-name="Group 260" transform="translate(0.015 18.314)">
              <g id="Group_259" data-name="Group 259">
                <path id="Path_289" data-name="Path 289" d="M179,216.43l-.979-.57a3.752,3.752,0,0,0-1.7,2.938l.979.57a3.714,3.714,0,0,1,1.7-2.938Z" transform="translate(-176.33 -215.86)" fill="#2b7201"/>
              </g>
            </g>
            <g id="Group_261" data-name="Group 261" transform="translate(0.994 0.579)">
              <path id="Path_290" data-name="Path 290" d="M178.7,222.032a3.752,3.752,0,0,0-1.7,2.938l.1,37.391c0,1.067.775,1.506,1.71.979l31.311-18.082a3.752,3.752,0,0,0,1.7-2.938l-.1-37.392c0-1.067-.775-1.506-1.71-.979Z" transform="translate(-177 -203.728)" fill="#3a9902"/>
            </g>
            <g id="Group_262" data-name="Group 262" transform="translate(3.245 5.586)">
              <path id="Path_291" data-name="Path 291" d="M180.016,223.125a3.261,3.261,0,0,0-1.476,2.558l.029,10.729c0,.936.672,1.316,1.491.848l27.305-15.772a3.261,3.261,0,0,0,1.476-2.558l-.029-10.729c0-.936-.672-1.316-1.491-.848Z" transform="translate(-178.54 -207.153)" fill="#41ba03"/>
            </g>
          </g>
        </g>
      </g>
      <g id="Group_312" data-name="Group 312" transform="translate(93.14 40.952)">
        <g id="Group_281" data-name="Group 281" transform="translate(0.146)">
          <g id="Group_272" data-name="Group 272">
            <g id="Group_271" data-name="Group 271">
              <g id="Group_268" data-name="Group 268" transform="translate(1.229)">
                <g id="Group_267" data-name="Group 267">
                  <g id="Group_266" data-name="Group 266" transform="translate(10.538)">
                    <path id="Path_292" data-name="Path 292" d="M278.7,215.9l-.541-.292-2.865-1.593-37.377-20.654-2.865-1.593-.862-.468c-2.47-1.359-4.473-.161-4.415,2.646l.6,31.238a9.874,9.874,0,0,0,4.6,7.616l.965.541,2.865,1.579,37.377,20.669,2.865,1.579.424.249c2.485,1.359,4.488.161,4.444-2.66l-.249-12.235-.365-18.973A9.742,9.742,0,0,0,278.7,215.9Zm3.537,25.6.234,11.577c.044,2.69-1.842,3.815-4.2,2.529l-.409-.234-2.7-1.491L239.8,234.3l-2.7-1.491-.921-.512a9.335,9.335,0,0,1-4.341-7.192l-.57-29.542c-.058-2.675,1.842-3.8,4.181-2.514l.819.439,2.7,1.506,35.36,19.558,2.7,1.506.512.278a9.289,9.289,0,0,1,4.371,7.192Z" transform="translate(-229.769 -190.736)" fill="#3d1e0c"/>
                  </g>
                  <path id="Path_293" data-name="Path 293" d="M284.816,221.244l-5.262,3.289-1.2.76-4.005,2.514a9.791,9.791,0,0,0-4.122-5.087l-40.783-22.555-3.727-2.046c-.117-.058-.234-.132-.351-.175a1.626,1.626,0,0,0-.234-.1,3.472,3.472,0,0,0-1.257-.292,2.3,2.3,0,0,0-1.316.336l.219-.132,5.993-3.508,1.316-.789L234.3,191h.029a4.387,4.387,0,0,1,.731.1l.029.015c3.844,1.637,45.753,25.04,45.753,25.04A8.632,8.632,0,0,1,284.816,221.244Z" transform="translate(-222.56 -190.614)" fill="#643114"/>
                  <path id="Path_294" data-name="Path 294" d="M268.995,214.194l.6,31.223a3.107,3.107,0,0,1-1.242,2.88l-4.239,2.66-1.3.819L257.9,254.86a3.15,3.15,0,0,0,1.243-2.894l-.614-31.223a3.829,3.829,0,0,0-.029-.57,8.218,8.218,0,0,0-.482-1.944l4.005-2.5,1.2-.76,5.262-3.289a9.632,9.632,0,0,1,.468,1.944A3.748,3.748,0,0,1,268.995,214.194Z" transform="translate(-206.242 -181.065)" fill="#643114"/>
                </g>
              </g>
              <g id="Group_269" data-name="Group 269" transform="translate(0 6.868)">
                <path id="Path_295" data-name="Path 295" d="M275.25,228.244l.365,18.973.249,12.235c.044,2.836-1.944,4.02-4.444,2.66l-.424-.249-2.865-1.579-37.377-20.669-2.865-1.579-.965-.541a9.851,9.851,0,0,1-4.6-7.616l-.6-31.238c-.058-2.821,1.93-4.005,4.415-2.646l.862.468,2.865,1.593,37.377,20.654,2.865,1.593.541.292A10.014,10.014,0,0,1,275.25,228.244Z" transform="translate(-221.719 -195.434)" fill="#3d1e0c"/>
              </g>
              <g id="Group_270" data-name="Group 270" transform="translate(1.462 8.711)">
                <path id="Path_296" data-name="Path 296" d="M273.355,227.706l.336,17.95.234,11.577c.044,2.675-1.842,3.8-4.2,2.514l-.409-.234-2.7-1.491-35.36-19.558-2.7-1.491-.906-.512a9.312,9.312,0,0,1-4.356-7.192l-.57-29.542c-.058-2.66,1.827-3.786,4.166-2.5l.8.439,2.7,1.506,35.36,19.544,2.7,1.506.512.278A9.316,9.316,0,0,1,273.355,227.706Z" transform="translate(-222.719 -196.696)" fill="#552a11"/>
              </g>
            </g>
          </g>
          <g id="Group_274" data-name="Group 274" transform="translate(7.456 2.827)">
            <g id="Group_273" data-name="Group 273">
              <path id="Path_297" data-name="Path 297" d="M277.791,225.282l.672,34.453-1.3.819-.687-35.257a3.7,3.7,0,0,0-.088-.775v-.015a8.843,8.843,0,0,0-3.976-5.891L228,194.117l-1.184-.658,1.316-.789,1.184.643,43.736,24.148a10.224,10.224,0,0,1,4.546,6.286v.015A7.72,7.72,0,0,1,277.791,225.282Z" transform="translate(-226.82 -192.67)" fill="#3d1e0c"/>
            </g>
          </g>
          <g id="Group_280" data-name="Group 280" transform="translate(25.743 6.759)">
            <g id="Group_279" data-name="Group 279">
              <g id="Group_275" data-name="Group 275" transform="translate(1.944 3.201)">
                <path id="Path_298" data-name="Path 298" d="M240.66,198.676l1.827-1.126.088,4.561-1.842,1.126Z" transform="translate(-240.66 -197.55)" fill="#2f1709"/>
              </g>
              <g id="Group_276" data-name="Group 276" transform="translate(11.036 6.066)">
                <path id="Path_299" data-name="Path 299" d="M246.88,200.636l1.842-1.126.132,6.709-1.842,1.126Z" transform="translate(-246.88 -199.51)" fill="#2f1709"/>
              </g>
              <g id="Group_277" data-name="Group 277">
                <path id="Path_300" data-name="Path 300" d="M239.33,196.486l1.842-1.126,11.036,6.066-1.842,1.126Z" transform="translate(-239.33 -195.36)" fill="#351a0a"/>
              </g>
              <g id="Group_278" data-name="Group 278" transform="translate(0 1.126)">
                <path id="Path_301" data-name="Path 301" d="M250.366,202.2l.132,6.709-1.9-1.038-.088-4.561-7.236-3.976.073,4.561-1.886-1.038-.132-6.724Z" transform="translate(-239.33 -196.13)" fill="#211006"/>
              </g>
            </g>
          </g>
        </g>
        <g id="Group_289" data-name="Group 289" transform="translate(6.081 9.492)">
          <g id="Group_286" data-name="Group 286" transform="translate(1.302)">
            <g id="Group_285" data-name="Group 285">
              <g id="Group_282" data-name="Group 282" transform="translate(3.201 1.754)">
                <path id="Path_302" data-name="Path 302" d="M228.86,198.883l.745-.453.8,40.213-.745.453Z" transform="translate(-228.86 -198.43)" fill="#2a1508"/>
              </g>
              <g id="Group_283" data-name="Group 283">
                <path id="Path_303" data-name="Path 303" d="M226.67,197.669l.745-.439,3.2,1.754-.745.453Z" transform="translate(-226.67 -197.23)" fill="#271308"/>
              </g>
              <g id="Group_284" data-name="Group 284" transform="translate(0 0.439)">
                <path id="Path_304" data-name="Path 304" d="M229.871,199.3l.8,40.213-3.2-1.769-.8-40.213Z" transform="translate(-226.67 -197.53)" fill="#371b0b"/>
              </g>
            </g>
          </g>
          <path id="Path_305" data-name="Path 305" d="M229.194,201.27a2.3,2.3,0,0,0-1.1-1.8c-.585-.322-1.052-.044-1.038.629a2.3,2.3,0,0,0,1.1,1.8C228.741,202.22,229.209,201.943,229.194,201.27Z" transform="translate(-225.188 -196.256)" fill="#fec111"/>
          <path id="Path_306" data-name="Path 306" d="M228.457,203.932a1,1,0,0,0-.468-.775c-.249-.132-.453-.015-.439.263a1,1,0,0,0,.468.775C228.266,204.341,228.471,204.224,228.457,203.932Z" transform="translate(-224.962 -194.518)" fill="#2a1508"/>
          <path id="Path_307" data-name="Path 307" d="M228.517,206.532a1,1,0,0,0-.468-.775c-.248-.132-.453-.015-.439.263a1,1,0,0,0,.468.775C228.326,206.941,228.517,206.824,228.517,206.532Z" transform="translate(-224.935 -193.318)" fill="#2a1508"/>
          <path id="Path_308" data-name="Path 308" d="M228.576,209.482a1,1,0,0,0-.468-.775c-.248-.132-.453-.015-.439.263a1,1,0,0,0,.468.775C228.386,209.891,228.591,209.774,228.576,209.482Z" transform="translate(-224.907 -191.955)" fill="#2a1508"/>
          <path id="Path_309" data-name="Path 309" d="M228.637,212.082a1,1,0,0,0-.468-.775c-.248-.132-.453-.015-.439.263a1,1,0,0,0,.468.775C228.446,212.491,228.637,212.374,228.637,212.082Z" transform="translate(-224.879 -190.755)" fill="#2a1508"/>
          <path id="Path_310" data-name="Path 310" d="M228.7,215a1,1,0,0,0-.468-.775c-.249-.132-.453-.015-.439.263a1,1,0,0,0,.468.775C228.506,215.411,228.711,215.294,228.7,215Z" transform="translate(-224.851 -189.407)" fill="#2a1508"/>
          <path id="Path_311" data-name="Path 311" d="M228.757,217.6a1,1,0,0,0-.468-.775c-.249-.132-.453-.015-.439.263a1,1,0,0,0,.468.775C228.566,218.011,228.757,217.894,228.757,217.6Z" transform="translate(-224.824 -188.206)" fill="#2a1508"/>
          <path id="Path_312" data-name="Path 312" d="M228.817,220.582a1,1,0,0,0-.468-.775c-.249-.132-.453-.015-.439.263a1,1,0,0,0,.468.775C228.626,220.991,228.831,220.859,228.817,220.582Z" transform="translate(-224.796 -186.83)" fill="#2a1508"/>
          <path id="Path_313" data-name="Path 313" d="M229.684,223.79a2.3,2.3,0,0,0-1.1-1.8c-.585-.322-1.052-.044-1.038.629a2.3,2.3,0,0,0,1.1,1.8C229.246,224.74,229.7,224.463,229.684,223.79Z" transform="translate(-224.962 -185.858)" fill="#fec111"/>
          <g id="Group_287" data-name="Group 287" transform="translate(0 22.844)">
            <path id="Path_314" data-name="Path 314" d="M231.861,222.713a1.765,1.765,0,0,1-.819-.219h0l-3.625-1.988a3.311,3.311,0,0,1-1.564-2.573l-.073-3.64a1.27,1.27,0,0,1,2-1.213l3.625,1.988a3.311,3.311,0,0,1,1.564,2.573l.073,3.64a1.374,1.374,0,0,1-.6,1.272A1.172,1.172,0,0,1,231.861,222.713Zm-.322-1.155c.2.1.322.1.351.073s.1-.117.088-.351l-.073-3.64a2.232,2.232,0,0,0-1.009-1.666l-3.625-1.988c-.2-.1-.322-.1-.351-.073s-.1.117-.088.351l.073,3.64a2.232,2.232,0,0,0,1.009,1.666l3.625,1.988Z" transform="translate(-225.78 -212.858)" fill="#a2a7ab"/>
          </g>
          <g id="Group_288" data-name="Group 288" transform="translate(2.793 21.502)">
            <path id="Path_315" data-name="Path 315" d="M228.3,216.311a.525.525,0,0,1-.541-.512l-.073-3.318a.526.526,0,0,1,1.052-.029l.073,3.318A.515.515,0,0,1,228.3,216.311Z" transform="translate(-227.69 -211.94)" fill="#657377"/>
          </g>
        </g>
        <g id="Group_297" data-name="Group 297" transform="translate(39.702 28.349)">
          <g id="Group_294" data-name="Group 294" transform="translate(1.302)">
            <g id="Group_293" data-name="Group 293">
              <g id="Group_290" data-name="Group 290" transform="translate(3.216 1.754)">
                <path id="Path_316" data-name="Path 316" d="M251.87,211.783l.731-.453.8,40.213-.745.453Z" transform="translate(-251.87 -211.33)" fill="#2a1508"/>
              </g>
              <g id="Group_291" data-name="Group 291">
                <path id="Path_317" data-name="Path 317" d="M249.67,210.583l.745-.453,3.2,1.754-.731.453Z" transform="translate(-249.67 -210.13)" fill="#271308"/>
              </g>
              <g id="Group_292" data-name="Group 292" transform="translate(0 0.453)">
                <path id="Path_318" data-name="Path 318" d="M252.886,212.194l.789,40.213-3.2-1.754-.8-40.213Z" transform="translate(-249.67 -210.44)" fill="#371b0b"/>
              </g>
            </g>
          </g>
          <path id="Path_319" data-name="Path 319" d="M252.194,214.17a2.3,2.3,0,0,0-1.1-1.8c-.585-.322-1.052-.044-1.038.629a2.3,2.3,0,0,0,1.1,1.8C251.741,215.12,252.209,214.843,252.194,214.17Z" transform="translate(-248.188 -209.156)" fill="#fec111"/>
          <path id="Path_320" data-name="Path 320" d="M251.456,216.832a1,1,0,0,0-.468-.775c-.249-.132-.453-.015-.439.263a1,1,0,0,0,.468.775C251.266,217.241,251.471,217.124,251.456,216.832Z" transform="translate(-247.962 -207.418)" fill="#2a1508"/>
          <path id="Path_321" data-name="Path 321" d="M251.517,219.442a1,1,0,0,0-.468-.775c-.249-.132-.453-.015-.439.263a1,1,0,0,0,.468.775C251.326,219.851,251.517,219.719,251.517,219.442Z" transform="translate(-247.935 -206.213)" fill="#2a1508"/>
          <path id="Path_322" data-name="Path 322" d="M251.577,222.392a1,1,0,0,0-.468-.775c-.248-.132-.453-.015-.439.263a1,1,0,0,0,.468.775C251.386,222.786,251.591,222.669,251.577,222.392Z" transform="translate(-247.907 -204.851)" fill="#2a1508"/>
          <path id="Path_323" data-name="Path 323" d="M251.637,224.992a1,1,0,0,0-.468-.775c-.248-.132-.453-.015-.439.263a1,1,0,0,0,.468.775C251.447,225.4,251.637,225.27,251.637,224.992Z" transform="translate(-247.879 -203.65)" fill="#2a1508"/>
          <path id="Path_324" data-name="Path 324" d="M251.7,227.912a1,1,0,0,0-.468-.775c-.248-.132-.453-.015-.439.263a1,1,0,0,0,.468.775C251.506,228.306,251.711,228.189,251.7,227.912Z" transform="translate(-247.851 -202.302)" fill="#2a1508"/>
          <path id="Path_325" data-name="Path 325" d="M251.757,230.512a1,1,0,0,0-.468-.775c-.249-.132-.453-.015-.439.263a1,1,0,0,0,.468.775C251.566,230.921,251.757,230.789,251.757,230.512Z" transform="translate(-247.824 -201.101)" fill="#2a1508"/>
          <path id="Path_326" data-name="Path 326" d="M251.816,233.482a1,1,0,0,0-.468-.775c-.249-.132-.453-.015-.439.263a1,1,0,0,0,.468.775C251.626,233.891,251.831,233.774,251.816,233.482Z" transform="translate(-247.796 -199.73)" fill="#2a1508"/>
          <path id="Path_327" data-name="Path 327" d="M252.684,236.7a2.3,2.3,0,0,0-1.1-1.8c-.585-.322-1.052-.044-1.038.629a2.3,2.3,0,0,0,1.1,1.8C252.231,237.65,252.7,237.358,252.684,236.7Z" transform="translate(-247.962 -198.753)" fill="#fec111"/>
          <g id="Group_295" data-name="Group 295" transform="translate(0 22.859)">
            <path id="Path_328" data-name="Path 328" d="M254.861,235.623a1.764,1.764,0,0,1-.819-.219h0l-3.625-1.988a3.312,3.312,0,0,1-1.564-2.573l-.073-3.64a1.27,1.27,0,0,1,2-1.213l3.625,1.988a3.311,3.311,0,0,1,1.564,2.573l.073,3.64a1.374,1.374,0,0,1-.6,1.272A1.345,1.345,0,0,1,254.861,235.623Zm-.322-1.155c.2.1.322.1.351.073s.1-.117.088-.351l-.073-3.64a2.232,2.232,0,0,0-1.009-1.666l-3.625-1.988c-.2-.1-.322-.1-.351-.073s-.1.117-.088.351l.073,3.64a2.232,2.232,0,0,0,1.009,1.666l3.625,1.988Z" transform="translate(-248.78 -225.768)" fill="#a2a7ab"/>
          </g>
          <g id="Group_296" data-name="Group 296" transform="translate(2.793 21.517)">
            <path id="Path_329" data-name="Path 329" d="M251.3,229.221a.524.524,0,0,1-.541-.512l-.073-3.318a.526.526,0,0,1,1.052-.029l.073,3.318A.524.524,0,0,1,251.3,229.221Z" transform="translate(-250.69 -224.85)" fill="#657377"/>
          </g>
        </g>
        <g id="Group_298" data-name="Group 298" transform="translate(0 6.914)">
          <path id="Path_330" data-name="Path 330" d="M270.545,220.628l-.541-.292-2.865-1.593-37.377-20.655-2.865-1.593-.862-.468c-2.47-1.359-4.473-.161-4.415,2.646l.6,31.238a9.874,9.874,0,0,0,4.6,7.616l.965.541,2.865,1.579,37.377,20.669,2.865,1.579.424.248c2.485,1.359,4.488.161,4.444-2.66l-.249-12.235-.365-18.973A9.742,9.742,0,0,0,270.545,220.628Zm3.537,25.6.234,11.577c.044,2.69-1.842,3.815-4.2,2.529l-.409-.234-2.7-1.491-35.36-19.573-2.7-1.491-.921-.512a9.335,9.335,0,0,1-4.341-7.192l-.57-29.542c-.058-2.675,1.842-3.8,4.181-2.514l.819.439,2.7,1.506,35.36,19.558,2.7,1.506.512.278a9.289,9.289,0,0,1,4.371,7.192Z" transform="translate(-221.619 -195.466)" fill="#3d1e0c"/>
        </g>
        <g id="Group_299" data-name="Group 299" transform="translate(51.843 29.532)">
          <rect id="Rectangle_24" data-name="Rectangle 24" width="14.559" height="1.316" transform="translate(0 7.579) rotate(-31.373)" fill="#3d1e0c"/>
        </g>
        <g id="Group_300" data-name="Group 300" transform="translate(1.331 0.181)">
          <path id="Path_331" data-name="Path 331" d="M235.993,191.269l-4.707,2.88-1.3.789-4.838,2.938-1.93,1.184-.687-1.126.044-.015.219-.132,5.993-3.508,1.33-.775,4.2-2.47.307-.175Z" transform="translate(-222.53 -190.86)" fill="#3d1e0c"/>
        </g>
        <g id="Group_305" data-name="Group 305" transform="translate(11.14 4.583)">
          <g id="Group_304" data-name="Group 304">
            <g id="Group_301" data-name="Group 301" transform="translate(0 1.928)">
              <path id="Path_332" data-name="Path 332" d="M231.476,197.193l-2.236-1.242.365-.76,2,1.111Z" transform="translate(-229.24 -195.19)" fill="#de8e0e"/>
            </g>
            <g id="Group_302" data-name="Group 302" transform="translate(0.38)">
              <path id="Path_333" data-name="Path 333" d="M231.488,196.91,229.5,195.8l3.07-1.871a.45.45,0,0,1,.409-.015l1.783.994Z" transform="translate(-229.5 -193.871)" fill="#fec111"/>
            </g>
            <g id="Group_303" data-name="Group 303" transform="translate(2.182 1.051)">
              <path id="Path_334" data-name="Path 334" d="M234.193,194.59l.249.512a.149.149,0,0,1-.029.219l-3.537,2.149a.092.092,0,0,1-.132-.117l.175-.76Z" transform="translate(-230.733 -194.59)" fill="#fa0"/>
            </g>
          </g>
        </g>
        <g id="Group_310" data-name="Group 310" transform="translate(47.683 24.477)">
          <g id="Group_309" data-name="Group 309">
            <g id="Group_306" data-name="Group 306" transform="translate(0 1.928)">
              <path id="Path_335" data-name="Path 335" d="M256.476,210.8l-2.236-1.228.365-.775,2,1.111Z" transform="translate(-254.24 -208.8)" fill="#de8e0e"/>
            </g>
            <g id="Group_307" data-name="Group 307" transform="translate(0.365)">
              <path id="Path_336" data-name="Path 336" d="M256.493,210.52l-2-1.111,3.084-1.871a.448.448,0,0,1,.409-.015l1.783.994Z" transform="translate(-254.49 -207.481)" fill="#fec111"/>
            </g>
            <g id="Group_308" data-name="Group 308" transform="translate(2.182 1.051)">
              <path id="Path_337" data-name="Path 337" d="M259.193,208.2l.249.512a.149.149,0,0,1-.029.219l-3.537,2.149a.092.092,0,0,1-.132-.117l.175-.76Z" transform="translate(-255.733 -208.2)" fill="#fa0"/>
            </g>
          </g>
        </g>
        <g id="Group_311" data-name="Group 311" transform="translate(1.594 8.736)" opacity="0.2">
          <path id="Path_338" data-name="Path 338" d="M255.468,245.575c-22.745-4.531-33.869-26.078-29.659-48.764-1.813-.453-3.143.687-3.1,2.924l.57,29.542a9.312,9.312,0,0,0,4.356,7.192l.906.512,2.7,1.491,35.36,19.558,2.7,1.491.409.234c2.353,1.286,4.239.161,4.2-2.514l-.146-6.9A162.638,162.638,0,0,0,255.468,245.575Z" transform="translate(-222.709 -196.713)" fill="#552a11"/>
        </g>
      </g>
      <g id="Group_326" data-name="Group 326" transform="translate(41.42 49.341)">
        <g id="Group_321" data-name="Group 321">
          <g id="Group_319" data-name="Group 319">
            <g id="Group_318" data-name="Group 318">
              <g id="Group_313" data-name="Group 313" transform="translate(48.048 27.963)">
                <path id="Path_339" data-name="Path 339" d="M259.858,215.62l-.1,35.55L219.09,274.806l.1-35.55Z" transform="translate(-219.09 -215.62)" fill="#c5975b"/>
              </g>
              <g id="Group_315" data-name="Group 315" transform="translate(0 23.636)">
                <g id="Group_314" data-name="Group 314">
                  <path id="Path_340" data-name="Path 340" d="M234.37,240.623l-.1,35.55L186.22,248.21l.088-35.55Z" transform="translate(-186.22 -212.66)" fill="#daaf6a"/>
                </g>
              </g>
              <g id="Group_317" data-name="Group 317" transform="translate(0.088)">
                <g id="Group_316" data-name="Group 316">
                  <path id="Path_341" data-name="Path 341" d="M275.008,224.453,234.342,248.09,186.28,220.126l40.68-23.636Z" transform="translate(-186.28 -196.49)" fill="#efd996"/>
                </g>
              </g>
            </g>
          </g>
          <g id="Group_320" data-name="Group 320" transform="translate(16.518 9.194)">
            <path id="Path_342" data-name="Path 342" d="M205.94,202.78l-8.42,4.9,48.062,27.949,8.405-4.882Z" transform="translate(-197.52 -202.78)" fill="#f7ecea"/>
          </g>
          <path id="Path_343" data-name="Path 343" d="M230.41,226.792l8.39-4.882V230.4l-8.39,4.853Z" transform="translate(-165.815 -184.752)" fill="#c2ab9d"/>
        </g>
        <g id="Group_323" data-name="Group 323" transform="translate(76.011 52.883)">
          <g id="Group_322" data-name="Group 322" transform="translate(2.12 2.693)">
            <path id="Path_344" data-name="Path 344" d="M246.029,238.54v.833l-6.359,3.669v-.833Z" transform="translate(-239.67 -232.649)" fill="#5c4123"/>
            <path id="Path_345" data-name="Path 345" d="M243.632,240.62l-.716.424v-4.473l-.716.409,1.067-2.47,1.082,1.228-.716.409Z" transform="translate(-238.502 -234.51)" fill="#5c4123"/>
            <path id="Path_346" data-name="Path 346" d="M241.453,241.88l-.716.424v-4.473l-.716.409,1.067-2.47L242.169,237l-.716.409Z" transform="translate(-239.508 -233.928)" fill="#5c4123"/>
          </g>
          <path id="Path_347" data-name="Path 347" d="M238.22,246.28v-6.242A4.523,4.523,0,0,1,240.4,236.6l6.242-3.6c1.2-.7,2.178-.278,2.178.921v6.242a4.523,4.523,0,0,1-2.178,3.435l-6.242,3.6C239.2,247.888,238.22,247.479,238.22,246.28Zm2.178-9.238a3.6,3.6,0,0,0-1.739,2.748v6.242c0,.965.775,1.286,1.739.731l6.242-3.6a3.6,3.6,0,0,0,1.739-2.748v-6.242c0-.965-.775-1.286-1.739-.731Z" transform="translate(-238.22 -232.668)" fill="#5c4123"/>
        </g>
        <g id="Group_324" data-name="Group 324" transform="translate(63.732 59.972)">
          <path id="Path_348" data-name="Path 348" d="M230.723,245.936a.076.076,0,0,0,.029-.058,3.506,3.506,0,0,1,1.3-1.038c.76-.439,1.3-.6,1.3-.468,0,.015.015.029.029.015a.076.076,0,0,0,.029-.058c0-.132.439-.512,1.082-.906v3.45l.015.409c.073.424.453.482.906.219a1.884,1.884,0,0,0,.921-1.418c0-.132-.088-.175-.2-.1a.421.421,0,0,0-.2.336,1,1,0,0,1-.512.731c-.555.322-.5-.351-.5-.351v-3.523c.658-.351,1.1-.468,1.1-.351,0,.015.015.029.029.015a.076.076,0,0,0,.029-.058,3.365,3.365,0,0,1,1.3-1.038c.775-.439,1.3-.6,1.3-.468,0,.015.015.029.029.015a.076.076,0,0,0,.029-.058c-.058-1.549-1.725-2.163-3.757-1.14h0c0-.1-.132-.117-.292-.029s-.292.263-.292.365h0c-2.017,1.316-3.684,3.844-3.742,5.467C230.679,245.936,230.694,245.936,230.723,245.936Z" transform="translate(-229.437 -236.563)" fill="#5c4123"/>
          <path id="Path_349" data-name="Path 349" d="M229.82,251.13v-6.242A4.523,4.523,0,0,1,232,241.453l6.242-3.6c1.2-.7,2.178-.278,2.178.921v6.242a4.523,4.523,0,0,1-2.178,3.435l-6.242,3.6C230.8,252.738,229.82,252.329,229.82,251.13ZM232,241.892a3.6,3.6,0,0,0-1.74,2.748v6.242c0,.965.775,1.286,1.74.731l6.242-3.6a3.6,3.6,0,0,0,1.739-2.748v-6.242c0-.965-.789-1.286-1.739-.731Z" transform="translate(-229.82 -237.518)" fill="#5c4123"/>
        </g>
        <g id="Group_325" data-name="Group 325" transform="translate(51.454 67.062)">
          <path id="Path_350" data-name="Path 350" d="M223.91,248.375c.029.965.687,1.389,1.52.979v3.084l-1.067.614v.395l2.412-1.389v-.395l-1.067.614v-3.084a3.732,3.732,0,0,0,1.52-2.733v-2.28l-3.3,1.9v2.295Z" transform="translate(-220.27 -241.531)" fill="#5c4123"/>
          <path id="Path_351" data-name="Path 351" d="M221.42,255.98v-6.242A4.523,4.523,0,0,1,223.6,246.3l6.242-3.6c1.2-.7,2.178-.278,2.178.921v6.242a4.523,4.523,0,0,1-2.178,3.435l-6.242,3.6C222.4,257.588,221.42,257.179,221.42,255.98Zm2.178-9.238a3.6,3.6,0,0,0-1.739,2.748v6.242c0,.965.789,1.286,1.739.731l6.242-3.6a3.6,3.6,0,0,0,1.739-2.748v-6.242c0-.965-.789-1.286-1.739-.731Z" transform="translate(-221.42 -242.368)" fill="#5c4123"/>
        </g>
      </g>
      <g id="Group_328" data-name="Group 328" transform="translate(57.19 58.807)" opacity="0.5">
        <g id="Group_327" data-name="Group 327">
          <path id="Path_352" data-name="Path 352" d="M264.63,218.3l-41.207,23.286L197.01,226.236,238.2,202.95Z" transform="translate(-197.01 -202.95)" fill="#d2bd95"/>
        </g>
      </g>
      <g id="Group_344" data-name="Group 344" transform="translate(45.208 27.929)">
        <g id="Group_343" data-name="Group 343">
          <g id="Group_336" data-name="Group 336">
            <g id="Group_335" data-name="Group 335">
              <g id="Group_330" data-name="Group 330" transform="translate(0 26.311)">
                <g id="Group_329" data-name="Group 329">
                  <path id="Path_353" data-name="Path 353" d="M220.091,245.236l-12.7-7.367-6.446-3.757-12.059-7-.073-27.291,12.133,7.06.8.468,18.272,10.612Z" transform="translate(-188.81 -199.82)" fill="#bb884f"/>
                </g>
              </g>
              <g id="Group_332" data-name="Group 332" transform="translate(31.208 18.126)">
                <g id="Group_331" data-name="Group 331">
                  <path id="Path_354" data-name="Path 354" d="M255.81,221.511l-19.573,11.3-6.476,3.742-19.529,11.27-.073-27.276,19.6-11.329,6.476-3.727,19.5-11.27Z" transform="translate(-210.16 -194.22)" fill="#e0b477"/>
                </g>
              </g>
              <g id="Group_334" data-name="Group 334">
                <g id="Group_333" data-name="Group 333">
                  <path id="Path_355" data-name="Path 355" d="M265.6,199.946l-19.5,11.27-6.475,3.727-19.6,11.329-31.208-18.14L208.3,196.876l6.49-3.742,19.6-11.314Z" transform="translate(-188.81 -181.82)" fill="#efcd90"/>
                </g>
              </g>
            </g>
          </g>
          <g id="Group_339" data-name="Group 339" transform="translate(18.623 11.84)" opacity="0.5">
            <g id="Group_338" data-name="Group 338">
              <g id="Group_337" data-name="Group 337">
                <path id="Path_356" data-name="Path 356" d="M239.351,207.987l-6.476,3.742L201.55,193.662l6.49-3.742Z" transform="translate(-201.55 -189.92)" fill="#e4cdbf"/>
              </g>
            </g>
          </g>
          <path id="Path_357" data-name="Path 357" d="M229.456,202.28v27.335l-6.476,3.742V206.022Z" transform="translate(-173.032 -172.373)" fill="#e4cdbf" opacity="0.5"/>
          <path id="Path_358" data-name="Path 358" d="M230.036,201.93v27.335l-6.476,3.742V205.672Z" transform="translate(-172.764 -172.534)" fill="#c2ab9d"/>
          <g id="Group_340" data-name="Group 340" transform="translate(19.485 11.314)">
            <path id="Path_359" data-name="Path 359" d="M239.941,207.642l-6.476,3.727L202.14,193.3l6.49-3.742Z" transform="translate(-202.14 -189.56)" fill="#f7ecea"/>
          </g>
          <g id="Group_341" data-name="Group 341" transform="translate(12.922 7.499)" opacity="0.6">
            <path id="Path_360" data-name="Path 360" d="M243.227,186.95l6.461,3.757-45.577,26.311-6.461-3.757Z" transform="translate(-197.65 -186.95)" fill="#f7ecea"/>
          </g>
          <path id="Path_361" data-name="Path 361" d="M204.1,208.707v27.232L197.65,232.2V204.95l.8.468Z" transform="translate(-184.728 -171.14)" fill="#c2ab9d" opacity="0.6"/>
          <g id="Group_342" data-name="Group 342" transform="translate(12.133 7.046)">
            <path id="Path_362" data-name="Path 362" d="M242.687,186.64l6.461,3.757-45.577,26.311-6.461-3.742Z" transform="translate(-197.11 -186.64)" fill="#f7ecea"/>
          </g>
          <path id="Path_363" data-name="Path 363" d="M203.556,208.392v27.247l-6.446-3.757V204.65l.8.468Z" transform="translate(-184.977 -171.278)" fill="#c2ab9d"/>
        </g>
      </g>
      <g id="Group_363" data-name="Group 363" transform="translate(9.495 82.685)">
        <path id="Path_364" data-name="Path 364" d="M195.995,229.46,172.11,243.274l23.885,13.872Z" transform="translate(-160.775 -214.61)" fill="#e0b477"/>
        <g id="Group_345" data-name="Group 345" transform="translate(3.149 14.85)">
          <path id="Path_365" data-name="Path 365" d="M166.51,244.209l8.186-.936,23.885-13.814-8.171.936Z" transform="translate(-166.51 -229.46)" fill="#bb884f"/>
        </g>
        <g id="Group_346" data-name="Group 346" transform="translate(35.22 14.85)">
          <path id="Path_366" data-name="Path 366" d="M220.974,244.545l-8.186-.95L188.45,229.46l8.186.936Z" transform="translate(-188.45 -229.46)" fill="#bb884f"/>
        </g>
        <path id="Path_367" data-name="Path 367" d="M212.788,243.6,188.45,229.46v27.686l.453.263Z" transform="translate(-153.23 -214.61)" fill="#5c4123"/>
        <g id="Group_351" data-name="Group 351">
          <g id="Group_350" data-name="Group 350">
            <g id="Group_349" data-name="Group 349">
              <g id="Group_348" data-name="Group 348">
                <g id="Group_347" data-name="Group 347">
                  <path id="Path_368" data-name="Path 368" d="M207.168,223.568a9.651,9.651,0,0,1-.38,1.71,9.774,9.774,0,0,1-1.009,2.324c-.512.819-1.213,1.447-2.134,1.242a3.572,3.572,0,0,1-1.14-.658,12.954,12.954,0,0,0-1.666-.892c-.2-.1-.395-.19-.585-.307-4.648-2.587,2.543-6.329,4.941-7.309.263-.1.5-.2.7-.263.322-.117.745-.2.994.044a.505.505,0,0,1,.146.307v.015a.132.132,0,0,1,.015.073,11.025,11.025,0,0,1,.2,2.69v.015c-.015.249-.029.5-.058.745A1.806,1.806,0,0,0,207.168,223.568Z" transform="translate(-148.487 -219.301)" fill="#818181"/>
                  <path id="Path_369" data-name="Path 369" d="M206.133,223.577a7.2,7.2,0,0,1-.307,1.374,8.4,8.4,0,0,1-.8,1.871,1.693,1.693,0,0,1-1.71,1.009,2.461,2.461,0,0,1-.906-.526,8.953,8.953,0,0,0-1.33-.716,4.743,4.743,0,0,1-.468-.249c-3.727-2.076,2.046-5.087,3.961-5.862q.307-.132.57-.219c.263-.088.6-.161.789.029a.436.436,0,0,1,.117.249v.015a.088.088,0,0,1,.015.058,8.891,8.891,0,0,1,.161,2.163v.015c-.015.2-.029.395-.044.6A.4.4,0,0,0,206.133,223.577Z" transform="translate(-148.183 -218.9)" fill="#cfacaa"/>
                  <path id="Path_370" data-name="Path 370" d="M190.021,223.939a10.109,10.109,0,0,0,.439,1.739,11.268,11.268,0,0,0,1.082,2.339,2.117,2.117,0,0,0,2.193,1.213,3.633,3.633,0,0,0,1.126-.7,11.376,11.376,0,0,1,1.637-.95c.2-.1.395-.2.585-.322,4.59-2.777-2.763-6.373-5.2-7.309a7.061,7.061,0,0,0-.716-.249c-.322-.1-.76-.175-.994.073a.649.649,0,0,0-.146.322v.015a.132.132,0,0,0-.015.073,10.8,10.8,0,0,0-.1,2.748v.015a7.13,7.13,0,0,0,.088.76A1.459,1.459,0,0,0,190.021,223.939Z" transform="translate(-152.579 -219.16)" fill="#818181"/>
                  <path id="Path_371" data-name="Path 371" d="M190.386,223.96a7.584,7.584,0,0,0,.351,1.4,8.334,8.334,0,0,0,.877,1.9c.439.658,1.038,1.169,1.783.979a2.571,2.571,0,0,0,.906-.57,10.893,10.893,0,0,1,1.33-.775c.161-.088.322-.175.468-.263,3.713-2.251-2.251-5.175-4.224-5.935-.219-.088-.409-.146-.585-.2-.263-.088-.614-.146-.8.058a.435.435,0,0,0-.117.263v.015a.088.088,0,0,0-.015.058,9.435,9.435,0,0,0-.088,2.222v.015c.015.2.044.409.073.614A.649.649,0,0,1,190.386,223.96Z" transform="translate(-152.404 -218.786)" fill="#cfacaa"/>
                  <path id="Path_372" data-name="Path 372" d="M176.334,224.789c-.263-.117-.526-.234-.8-.336a9.162,9.162,0,0,0-10.7,3.128,1.7,1.7,0,0,0-.468.906,1.421,1.421,0,0,0,.716,1.257,3.385,3.385,0,0,0,2.938.146c2.178-.745,3.435-1.14,5.8-.555a8.844,8.844,0,0,1,5.54,4.751c1.389,2.733.848,9.267.819,12.323-.029,4.5-1.988,7.762-.833,10.115.322.643,4.444-.76,5.394-.8,1.681-.073,1.783-8.522,2.046-10.305a21.443,21.443,0,0,0-2.163-13.112A17.2,17.2,0,0,0,176.334,224.789Z" transform="translate(-164.356 -217.219)" fill="#585657"/>
                  <path id="Path_373" data-name="Path 373" d="M207.943,242.521a40.342,40.342,0,0,0-2.163,7.279,21.856,21.856,0,0,1-.57,3.9c-.672,2.12.307,6.256-1.535,7.484a8.209,8.209,0,0,1-1.593.716c-.629.219-1.4.468-2.28.7-1.4.38-3.1.76-4.955,1.1a55.581,55.581,0,0,1-11.767.906c-5.014-.219-6.2-7.5-6.563-10.232-1.009-7.6,3.347-14.062,9.838-17.541,7.294-3.917,13.492-9.282,13.053-10.145l4.458,3.23c2.456.263,4.341,2.485,4.926,4.9.015.073.029.132.044.2A14.51,14.51,0,0,1,207.943,242.521Z" transform="translate(-158.808 -215.889)" fill="#5d5d5d"/>
                  <path id="Path_374" data-name="Path 374" d="M196.745,238.01a9.051,9.051,0,0,0-4.224,5.613,28.393,28.393,0,0,0-.526,14.281c.322-.073.614-.161.906-.234.877-.234,1.652-.482,2.28-.7a7.8,7.8,0,0,0,1.593-.716c1.842-1.242.862-5.379,1.535-7.484a23.266,23.266,0,0,0,.57-3.9,39.367,39.367,0,0,1,2.149-7.221A5.94,5.94,0,0,0,196.745,238.01Z" transform="translate(-151.906 -210.94)" fill="#4b4b4b"/>
                  <path id="Path_375" data-name="Path 375" d="M207.944,242.516c-.015.029-.015.044-.029.073a5.869,5.869,0,0,0-4.283.38,9.051,9.051,0,0,0-4.224,5.613,28.393,28.393,0,0,0-.526,14.281c-1.213.307-2.573.6-4.034.862a55.581,55.581,0,0,1-11.767.906c-5.014-.219-6.2-7.5-6.563-10.232-.892-6.695,2.383-12.5,7.6-16.167a21.828,21.828,0,0,1,2.236-1.374c.453-.248.892-.5,1.33-.745.76-.439,1.52-.892,2.251-1.345s1.447-.936,2.134-1.4c.745-.512,1.447-1.009,2.1-1.506.512-.38,1.009-.76,1.462-1.126,2.485-1.988,3.991-3.6,3.757-4.034l4.458,3.23c2.456.263,4.341,2.485,4.926,4.9.015.073.029.146.044.2A14.315,14.315,0,0,1,207.944,242.516Z" transform="translate(-158.808 -215.884)" fill="#5d5d5d"/>
                  <path id="Path_376" data-name="Path 376" d="M190.806,241.048a74.845,74.845,0,0,0-8.259-5.394,4.731,4.731,0,0,0-.877-.395,21.828,21.828,0,0,1,2.236-1.374c.453-.248.892-.5,1.33-.745,1.433,1.637,2.865,3.289,4.283,4.926C190.28,238.914,191.069,239.952,190.806,241.048Z" transform="translate(-156.361 -212.911)" fill="#4b4b4b"/>
                  <path id="Path_377" data-name="Path 377" d="M192.969,239.646a.318.318,0,0,1-.1.278.234.234,0,0,1-.219-.015,3.142,3.142,0,0,1-1.14-1.052,45.886,45.886,0,0,0-5.847-6.183c.745-.468,1.447-.936,2.134-1.4.76.8,1.549,1.579,2.295,2.4C191.595,235.348,192.939,237.38,192.969,239.646Z" transform="translate(-154.518 -213.774)" fill="#4b4b4b"/>
                  <path id="Path_378" data-name="Path 378" d="M192.906,237.29c-.263-.015-.439-.278-.585-.5q-1.8-2.96-3.6-5.905c-.058-.1-.117-.19-.175-.292.512-.38,1.009-.76,1.462-1.126a17.476,17.476,0,0,1,1.14,1.433,12.763,12.763,0,0,1,1.725,3A4.682,4.682,0,0,1,192.906,237.29Z" transform="translate(-153.184 -214.605)" fill="#4b4b4b"/>
                  <path id="Path_379" data-name="Path 379" d="M192.46,243.709c-.278,1.184-.585,2.324-.862,3.464-.058.248-1.1-7.674-9.092-7.148-4.078.263,8,12.513,8.215,15,.161,1.608.409,3.172.7,4.736l.994-.175c1.462-.263,2.836-.555,4.034-.862a28.392,28.392,0,0,1,.526-14.281,9.1,9.1,0,0,1,4.224-5.613,5.869,5.869,0,0,1,4.283-.38c.015-.029.015-.044.029-.073a24.343,24.343,0,0,0,.76-2.733,27.252,27.252,0,0,0-9.677,2.353A7.674,7.674,0,0,0,192.46,243.709Z" transform="translate(-156.363 -211.756)" fill="#4b4b4b"/>
                  <path id="Path_380" data-name="Path 380" d="M193.01,249.9c.248,1.476,3.07-5.672,3.727-4.327,1.272,2.631.19,13.9.892,16.737.058.19.1.38.146.57a5.049,5.049,0,0,0,.541,1.535,3.3,3.3,0,0,0,3.815,1.1c1.126-.38,2.763-1.871,2.017-3.172a2.35,2.35,0,0,0-1.374-1.009.848.848,0,0,1-.307-.146c-.015-.015-.044-.029-.058-.058a.64.64,0,0,1-.117-.365c-1.3-8.186,6.592-20.464.365-30.755-.424-.7-3.8,5.175-4.385,5.789l-2.558,2.675C195.173,242.389,192.367,246,193.01,249.9Z" transform="translate(-151.168 -214.384)" fill="#5d5d5d"/>
                  <path id="Path_381" data-name="Path 381" d="M196.1,234.75a4.111,4.111,0,0,0-1.038,0,5.42,5.42,0,0,0-3.274,1.871,9.619,9.619,0,0,0-1.316,2.163c-.292,8.3.482,19.719,1.023,21.736.1.38.19.745.278,1.126a5.051,5.051,0,0,0,.541,1.535,3.3,3.3,0,0,0,3.815,1.1c1.126-.38,2.763-1.871,2.017-3.172a2.349,2.349,0,0,0-1.374-1.009.8.8,0,0,1-.365-.19c-.015-.015-.015-.015-.015-.029a.7.7,0,0,1-.1-.351c-.307-2.529.248-13.2,1.491-15.714C199.489,240.276,199.782,236.5,196.1,234.75Z" transform="translate(-152.327 -212.182)" fill="#5d5d5d"/>
                  <path id="Path_382" data-name="Path 382" d="M201.81,235.906a10.85,10.85,0,0,1,1.608-2.763,2.154,2.154,0,0,0-.468-.541c-1.754-1.462-5.248-2.178-7.455-2.763l-2.017,2.485c-.088.2-.19.409-.278.614A14.386,14.386,0,0,1,195.6,238c.453,1.549-.307,5.175,2.5,5.175C200.743,243.171,200.845,238.157,201.81,235.906Z" transform="translate(-151.037 -214.434)" fill="#c5c3ce"/>
                  <path id="Path_383" data-name="Path 383" d="M196.14,252.446c.058.19.1.38.146.57a5.049,5.049,0,0,0,.541,1.535,3.3,3.3,0,0,0,3.815,1.1c1.126-.38,2.763-1.871,2.017-3.172a2.349,2.349,0,0,0-1.374-1.009.848.848,0,0,1-.307-.146A5.8,5.8,0,0,1,196.14,252.446Z" transform="translate(-149.679 -204.516)" fill="#c3c1cc"/>
                  <path id="Path_384" data-name="Path 384" d="M204.178,222.02a10.614,10.614,0,0,0-5.16-.731v-.029a10.166,10.166,0,0,0-3.187.76,8.518,8.518,0,0,0-5.072,8.829,5.757,5.757,0,0,0,.307,1.169,1.741,1.741,0,0,1,.058-.95,13.12,13.12,0,0,0,1.359,3.654c-.1-.365-.2-.731-.292-1.1a8.618,8.618,0,0,0,1.754,3.04,8.063,8.063,0,0,0,5.818,2.763,8.376,8.376,0,0,0,8.054-5.8c-.1.365-.2.731-.292,1.1a13.12,13.12,0,0,0,1.359-3.654,1.517,1.517,0,0,1,.058.95,8.1,8.1,0,0,0,.307-1.169A8.518,8.518,0,0,0,204.178,222.02Z" transform="translate(-152.207 -218.411)" fill="#818181"/>
                  <path id="Path_385" data-name="Path 385" d="M191.15,252.573c.1.38.19.745.278,1.126a5.051,5.051,0,0,0,.541,1.535,3.3,3.3,0,0,0,3.815,1.1c1.126-.38,2.763-1.871,2.017-3.172a2.349,2.349,0,0,0-1.374-1.009.8.8,0,0,1-.365-.19c-.015-.015-.015-.015-.015-.029a5.4,5.4,0,0,1-3.6.965A5.469,5.469,0,0,1,191.15,252.573Z" transform="translate(-151.983 -204.234)" fill="#c3c1cc"/>
                  <path id="Path_386" data-name="Path 386" d="M198.282,225.885c.073.351.76.512,1.535.351s1.345-.585,1.272-.936-.76-.512-1.535-.351S198.209,225.534,198.282,225.885Z" transform="translate(-148.693 -216.721)" fill="#c5c3ce"/>
                  <path id="Path_387" data-name="Path 387" d="M196.619,225.885c-.073.351-.76.512-1.535.351s-1.345-.585-1.272-.936.76-.512,1.535-.351S196.692,225.534,196.619,225.885Z" transform="translate(-150.757 -216.721)" fill="#c5c3ce"/>
                  <path id="Path_388" data-name="Path 388" d="M190.579,240.647A7.738,7.738,0,0,0,187.2,238.8a10.731,10.731,0,0,0-2.982-.132,8.244,8.244,0,0,0-7.163,4.122,10.8,10.8,0,0,0-1.1,7.762c.658,2.763,1.052,4.458,2.719,6.753-.453.249-.8,2.251.351,2.836,1.228.614,8.887,2.4,10.349,1.871,1.052-.38,1.462-2.266.585-2.763-1.052-.6-2.4-.249-3.537-.658a11.8,11.8,0,0,1,2.543-1.447,9.952,9.952,0,0,0,5.1-7.82A10.536,10.536,0,0,0,190.579,240.647Z" transform="translate(-159.13 -210.375)" fill="#5d5d5d"/>
                </g>
              </g>
            </g>
          </g>
        </g>
        <g id="Group_358" data-name="Group 358" transform="translate(6.409 28.664)">
          <g id="Group_354" data-name="Group 354">
            <g id="Group_352" data-name="Group 352" transform="translate(4.795)">
              <path id="Path_389" data-name="Path 389" d="M196.49,253.045l-.117,19.237L172.02,258.147l.132-19.237Z" transform="translate(-172.02 -238.91)" fill="#bb884f"/>
            </g>
            <path id="Path_390" data-name="Path 390" d="M196.49,250.833l-4.531,10.612L172.02,250.526V243.7Z" transform="translate(-167.225 -236.698)" fill="#bb884f" opacity="0.2"/>
            <g id="Group_353" data-name="Group 353">
              <path id="Path_391" data-name="Path 391" d="M198,253.045l-5.482,8.522-23.783-14.72,4.926-7.937Z" transform="translate(-168.74 -238.91)" fill="#cb9558"/>
            </g>
          </g>
          <g id="Group_357" data-name="Group 357" transform="translate(28.811 0.322)">
            <g id="Group_355" data-name="Group 355" transform="translate(0.336)">
              <path id="Path_392" data-name="Path 392" d="M212.682,239.13l-.117,19.237L188.68,272.18l.117-19.237Z" transform="translate(-188.68 -239.13)" fill="#e0b477"/>
            </g>
            <path id="Path_393" data-name="Path 393" d="M188.45,252.094l4.181,10.261,20.07-10.919-.687-9.706Z" transform="translate(-188.45 -237.929)" fill="#bb884f"/>
            <g id="Group_356" data-name="Group 356" transform="translate(0.453)">
              <path id="Path_394" data-name="Path 394" d="M188.76,252.943l5.028,8.844,24.353-14.135-5.5-8.522Z" transform="translate(-188.76 -239.13)" fill="#f5d09c"/>
            </g>
          </g>
        </g>
        <path id="Path_395" data-name="Path 395" d="M192.772,227.8a2.163,2.163,0,0,1,3.669-.439c.219.263.57.789.234,1.082a.076.076,0,0,1-.117,0c-.19-.219-.278-.512-.453-.731a1.913,1.913,0,0,0-1.052-.658,2.366,2.366,0,0,0-2.193.789C192.816,227.888,192.743,227.844,192.772,227.8Z" transform="translate(-151.237 -215.962)" fill="#2b2b2b"/>
        <path id="Path_396" data-name="Path 396" d="M202.351,227.915a2.168,2.168,0,0,0-3.64-.643c-.234.248-.614.76-.292,1.067a.091.091,0,0,0,.117.015c.2-.2.307-.482.5-.7a1.845,1.845,0,0,1,1.082-.585,2.343,2.343,0,0,1,2.149.921C202.307,228,202.38,227.959,202.351,227.915Z" transform="translate(-148.684 -215.959)" fill="#2b2b2b"/>
        <g id="Group_360" data-name="Group 360" transform="translate(35.732 13.616)">
          <g id="Group_359" data-name="Group 359">
            <path id="Path_397" data-name="Path 397" d="M193,228.914c.336.044.687.117,1.023.19a7.014,7.014,0,0,1,1.52.555c.307.146.877.322.994.687-1.345-.336-2.617-.892-3.991-1.169a26.587,26.587,0,0,0-3.581-.409,2.185,2.185,0,0,1,1.067-.146c.848.029,1.7.132,2.529.234C192.712,228.885,192.858,228.9,193,228.914Z" transform="translate(-188.721 -228.616)" fill="#c5c3ce"/>
            <path id="Path_398" data-name="Path 398" d="M192.557,230.3c.336-.088.672-.175,1.009-.234a7.514,7.514,0,0,1,1.623-.1c.351.015.936-.058,1.184.234-1.374.234-2.763.219-4.122.512a28.372,28.372,0,0,0-3.45,1.038,2.2,2.2,0,0,1,.921-.555c.789-.307,1.608-.555,2.412-.789C192.279,230.372,192.425,230.328,192.557,230.3Z" transform="translate(-188.8 -227.998)" fill="#c5c3ce"/>
            <path id="Path_399" data-name="Path 399" d="M192.724,231.578a9.107,9.107,0,0,1,.921-.468,8.179,8.179,0,0,1,1.535-.5c.336-.073.892-.292,1.2-.073-1.272.555-2.617.892-3.874,1.52a27.384,27.384,0,0,0-3.084,1.856,2.225,2.225,0,0,1,.76-.76,25.305,25.305,0,0,1,2.149-1.359C192.475,231.724,192.592,231.651,192.724,231.578Z" transform="translate(-188.514 -227.771)" fill="#c5c3ce"/>
            <path id="Path_400" data-name="Path 400" d="M193.153,233.011a8.8,8.8,0,0,1,.731-.745,6.9,6.9,0,0,1,1.3-.95c.292-.175.76-.555,1.126-.439-1.023.921-2.207,1.666-3.2,2.66a25.944,25.944,0,0,0-2.339,2.733,2.313,2.313,0,0,1,.482-.965c.5-.687,1.052-1.33,1.608-1.973C192.963,233.216,193.065,233.113,193.153,233.011Z" transform="translate(-187.89 -227.582)" fill="#c5c3ce"/>
          </g>
        </g>
        <g id="Group_362" data-name="Group 362" transform="translate(52.308 13.616)">
          <g id="Group_361" data-name="Group 361">
            <path id="Path_401" data-name="Path 401" d="M204.1,228.914c-.336.044-.687.117-1.023.19a7.014,7.014,0,0,0-1.52.555c-.307.146-.877.322-.994.687,1.345-.336,2.617-.892,3.991-1.169a26.586,26.586,0,0,1,3.581-.409,2.185,2.185,0,0,0-1.067-.146c-.848.029-1.7.132-2.529.234C204.375,228.885,204.229,228.9,204.1,228.914Z" transform="translate(-199.946 -228.616)" fill="#c5c3ce"/>
            <path id="Path_402" data-name="Path 402" d="M204.535,230.3c-.336-.088-.672-.175-1.009-.234a7.514,7.514,0,0,0-1.623-.1c-.351.015-.936-.058-1.184.234,1.374.234,2.763.219,4.122.512a28.37,28.37,0,0,1,3.45,1.038,2.2,2.2,0,0,0-.921-.555c-.789-.307-1.608-.555-2.412-.789C204.813,230.372,204.681,230.328,204.535,230.3Z" transform="translate(-199.872 -227.998)" fill="#c5c3ce"/>
            <path id="Path_403" data-name="Path 403" d="M204.184,231.578a9.106,9.106,0,0,0-.921-.468,8.179,8.179,0,0,0-1.535-.5c-.336-.073-.892-.292-1.2-.073,1.272.555,2.617.892,3.874,1.52a27.382,27.382,0,0,1,3.084,1.856,2.225,2.225,0,0,0-.76-.76,25.3,25.3,0,0,0-2.149-1.359Q204.36,231.687,204.184,231.578Z" transform="translate(-199.96 -227.771)" fill="#c5c3ce"/>
            <path id="Path_404" data-name="Path 404" d="M203.3,233.011a8.8,8.8,0,0,0-.731-.745,6.905,6.905,0,0,0-1.3-.95c-.292-.175-.76-.555-1.126-.439,1.023.921,2.207,1.666,3.2,2.66a25.944,25.944,0,0,1,2.339,2.733,2.313,2.313,0,0,0-.482-.965c-.5-.687-1.052-1.33-1.608-1.973C203.487,233.216,203.4,233.113,203.3,233.011Z" transform="translate(-200.14 -227.582)" fill="#c5c3ce"/>
          </g>
        </g>
        <path id="Path_405" data-name="Path 405" d="M198.667,230.837c0,1.111-1.228,2.017-2.733,2.017s-2.733-.906-2.733-2.017,1.228-2.017,2.733-2.017S198.667,229.726,198.667,230.837Z" transform="translate(-151.037 -214.906)" fill="#c5c3ce"/>
        <path id="Path_406" data-name="Path 406" d="M197.26,230.837c0,1.111,1.228,2.017,2.733,2.017s2.733-.906,2.733-2.017-1.228-2.017-2.733-2.017S197.26,229.726,197.26,230.837Z" transform="translate(-149.162 -214.906)" fill="#c5c3ce"/>
        <path id="Path_407" data-name="Path 407" d="M196.15,232.459a1.381,1.381,0,1,0,1.33-1.009C196.735,231.465,196.15,231.9,196.15,232.459Z" transform="translate(-149.675 -213.691)" fill="#c5c3ce"/>
        <path id="Path_408" data-name="Path 408" d="M199.234,229.789c0,.541-1.652,1.169-1.652,1.169s-1.652-.629-1.652-1.169.745-.979,1.652-.979S199.234,229.263,199.234,229.789Z" transform="translate(-149.776 -214.91)" fill="#2b2b2b"/>
      </g>
      <g id="Group_365" data-name="Group 365" transform="translate(61.578 32.305)" opacity="0.5">
        <g id="Group_364" data-name="Group 364">
          <path id="Path_409" data-name="Path 409" d="M252.355,200.158l-25.917,15L200.01,199.808l25.931-15Z" transform="translate(-200.01 -184.81)" fill="#d2bd95"/>
        </g>
      </g>
      <g id="Group_373" data-name="Group 373" transform="translate(63.129 11.709)">
        <g id="Group_371" data-name="Group 371">
          <g id="Group_370" data-name="Group 370">
            <g id="Group_366" data-name="Group 366" transform="translate(23.213 13.477)">
              <path id="Path_410" data-name="Path 410" d="M239.826,179.93l-.117,23.315-22.759,13.17.117-23.315Z" transform="translate(-216.95 -179.93)" fill="#e0b477"/>
            </g>
            <g id="Group_367" data-name="Group 367" transform="translate(0 13.17)">
              <path id="Path_411" data-name="Path 411" d="M224.4,193.2l-.117,23.315L201.07,203.035l.117-23.315Z" transform="translate(-201.07 -179.72)" fill="#bb884f"/>
            </g>
            <g id="Group_369" data-name="Group 369" transform="translate(0.117)">
              <g id="Group_368" data-name="Group 368">
                <path id="Path_412" data-name="Path 412" d="M247.122,184.187l-22.759,13.17L201.15,183.88l22.774-13.17Z" transform="translate(-201.15 -170.71)" fill="#efcd90"/>
              </g>
            </g>
          </g>
        </g>
        <g id="Group_372" data-name="Group 372" transform="translate(9.326 5.116)">
          <path id="Path_413" data-name="Path 413" d="M212.157,174.21l-4.707,2.733,23.2,13.477,4.707-2.719Z" transform="translate(-207.45 -174.21)" fill="#f7ecea"/>
        </g>
        <path id="Path_414" data-name="Path 414" d="M223.335,186.159l4.692-2.719v4.736l-4.707,2.7Z" transform="translate(-190.796 -164.832)" fill="#c2ab9d"/>
      </g>
      <g id="Group_379" data-name="Group 379" transform="translate(108.344 77.244)">
        <g id="Group_376" data-name="Group 376">
          <g id="Group_374" data-name="Group 374" transform="translate(5.294 47.873)">
            <path id="Path_415" data-name="Path 415" d="M239.878,250.406a15.336,15.336,0,0,1,4.3-1.593,20.973,20.973,0,0,1,4.678-.482,20.723,20.723,0,0,1,4.634.57,16.33,16.33,0,0,1,4.224,1.7c-.672-.409-2.631.058-5.145,1.213a8.562,8.562,0,0,0-7.791-.073c-2.193,1.228-2.266,3.245-.161,4.517a8.562,8.562,0,0,0,7.791.073c2.193-1.228,2.266-3.245.161-4.517,2.514-1.155,4.458-1.623,5.145-1.213.322.2.76.482,1.052.716a9.147,9.147,0,0,1,1.184,1.082,7.588,7.588,0,0,1,.877,1.169,6.821,6.821,0,0,1,.555,1.242c.716,2.383-.57,4.911-3.8,6.709-5.16,2.88-13.375,2.792-18.33-.19-2.953-1.783-4.093-4.2-3.42-6.461a5.854,5.854,0,0,1,.555-1.286,6.972,6.972,0,0,1,.877-1.169A10.391,10.391,0,0,1,239.878,250.406Z" transform="translate(-235.642 -248.329)" fill="#2b7201"/>
          </g>
          <path id="Path_416" data-name="Path 416" d="M257.294,232.552v0Zm11.022,15.1a.185.185,0,0,0-.015-.088,15.39,15.39,0,0,0-.453-2.383c0-.015,0-.015-.015-.029-.073-.248-.132-.468-.175-.6-.015-.044-.029-.073-.044-.117-.073-.234-.175-.5-.292-.8s-.249-.6-.424-.965c-.044-.073-.073-.161-.117-.249-.058-.132-.132-.263-.2-.409s-.161-.307-.278-.512h0c-.044-.073-.088-.132-.132-.2a.524.524,0,0,0-.1-.146c-.058-.1-.132-.2-.19-.307-.015-.029-.044-.058-.058-.088-.132-.2-.263-.395-.365-.526-.044-.058-.073-.1-.117-.161-.175-.234-.351-.482-.541-.716-.044-.044-.073-.088-.117-.132-.073-.088-.132-.161-.19-.234l-.2-.249c-.117-.132-.234-.263-.365-.395-.073-.073-.146-.146-.219-.234-.015,0-.015-.015-.029-.029l-.029-.029-.117-.117a.177.177,0,0,0-.073-.073.387.387,0,0,0-.088-.073c-.307-.292-.555-.526-.745-.687a2.858,2.858,0,0,0-.307-.263l-.015-.015c-.073-.058-.146-.117-.234-.175-.1-.088-.19-.161-.292-.234-.029-.029-.058-.044-.088-.073-.146-.117-.278-.219-.409-.307-.234-.175-.482-.336-.716-.5l-.132-.088c-.336-.219-.614-.395-.629-.395-.439-.263-.775-.453-1.111-.629s-.7-.351-1.184-.57h0c-.044-.015-.073-.029-.117-.044-.015-.058-.015-.1-.029-.175a1.981,1.981,0,0,1-.029-.292c-.015-.117-.015-.219-.029-.336v-.015a1.589,1.589,0,0,1-.015-.263c-.015-.175-.029-.38-.044-.643v.161a2.618,2.618,0,0,1-.409,1.345,19.875,19.875,0,0,0-13.331.044,2.788,2.788,0,0,1-.424-1.345.712.712,0,0,1-.015.175c0,.088-.015.161-.015.234v.029a10.78,10.78,0,0,1-.117,1.126c-.044.015-.073.029-.117.044-.19.088-.424.2-.658.307-.2.1-.395.19-.6.307a1.121,1.121,0,0,0-.263.146c-.19.1-.409.234-.614.351h-.015l-.219.132c-.19.117-.424.263-.687.438-.058.044-.1.073-.146.1-.234.161-.5.351-.76.555l-.263.2c-.058.058-.132.1-.19.161-.146.117-.278.234-.409.336-.058.058-.132.1-.19.161q-.373.329-.7.658l-.088.088-.117.117-.117.117-.058.058-.175.175c-.117.117-.219.234-.322.336a.637.637,0,0,1-.088.1l-.146.175-.058.058c-.175.19-.322.38-.468.555-.015.015-.015.029-.044.044-.19.249-.453.6-.629.862-.029.044-.073.117-.1.161-.263.409-.512.819-.731,1.2-.015.029-.044.073-.058.1a6.252,6.252,0,0,0-.322.643c-.278.57-.482,1.067-.629,1.462s-.263.789-.38,1.2c-.029.088-.044.175-.073.263v.015a14.49,14.49,0,0,0-.38,2.076v.015c-.029.234-.044.5-.058.775-.015.234-.029.468-.029.7v.175c0,.249,0,.512.015.833,0,.058.015.132.015.2s.015.117.015.175a1.183,1.183,0,0,1,.015.234c.044.5.117,1.067.234,1.71a.054.054,0,0,0,.015.044c.058.336.175.8.263,1.14a.634.634,0,0,0,.015.073c.175.6.365,1.126.526,1.549v.015a.111.111,0,0,0,.029.058c0,.015.015.044.015.058.058.132.117.278.175.424.146.322.234.512.234.512l.044.088c.088.175.175.365.263.512.146.292.424.76.775,1.316.015.029.044.058.058.088.2.322.5.7.76,1.052.088.1.175.2.263.322a.32.32,0,0,0,.058.073l.015.015.249.292a15.12,15.12,0,0,0,1.535,1.52,2.384,2.384,0,0,0,.292.249l.015.015c.292.248.6.482.921.716a.806.806,0,0,0,.132.1c.336.249.775.541,1.316.862.336.2.76.439,1.082.6a1.364,1.364,0,0,1,.146.073c.175.088.365.175.555.263.38.175.6.263,1.126.468.015,0,.044.015.058.015a.781.781,0,0,1,.161.073c.175.058.658.234,1.4.439.453.132.95.248,1.447.351h.015a19.014,19.014,0,0,0,2.748.336c.307.015.541.015.716.029h.1c.409.015.555.015.965,0,.512-.015.775-.029,1.169-.073.044,0,.073-.015.1-.015.146-.015.322-.044.541-.058a15.159,15.159,0,0,0,1.783-.307.111.111,0,0,0,.059-.015.634.634,0,0,0,.073-.015l.994-.249c.1-.029.19-.058.278-.088s.19-.058.292-.088q.285-.088.526-.175c.058-.015.117-.044.175-.058.731-.263,1.242-.5,1.637-.672.015-.015.044-.015.058-.029a.868.868,0,0,0,.117-.058c.175-.073.409-.2.687-.351.015-.015.044-.015.058-.029h0c.2-.117.439-.248.687-.395.1-.058.175-.117.263-.161.117-.073.234-.146.351-.234.161-.1.307-.2.453-.307.058-.044.117-.073.175-.117.541-.38.994-.76,1.374-1.082h0c.336-.307.629-.57.833-.775.073-.073.19-.2.322-.336a1.375,1.375,0,0,1,.146-.146c.073-.073.146-.161.219-.249a15.866,15.866,0,0,0,1.769-2.383c.015-.015.029-.058.044-.073.088-.146.175-.307.263-.453.044-.073.088-.146.132-.234s.088-.161.132-.234c.161-.307.365-.731.5-1.052.058-.132.1-.263.161-.424.1-.263.2-.526.307-.819.015-.058.044-.117.058-.19a1.284,1.284,0,0,0,.073-.219,3.825,3.825,0,0,0,.132-.482v-.029c0-.015.015-.029.015-.058a16.319,16.319,0,0,0,.365-1.754c.015-.088.029-.219.059-.395.029-.278.058-.57.073-.892.029-.38.044-.775.044-1.111v-.015A5.213,5.213,0,0,0,268.315,247.652Z" transform="translate(-232.02 -207.965)" fill="#41ba03"/>
          <path id="Path_417" data-name="Path 417" d="M253.734,221.18a3.594,3.594,0,0,1-2.178,2.967,10.993,10.993,0,0,1-10.013-.1,3.464,3.464,0,0,1-1.973-2.836s.058,15.831.044,16.065a3.507,3.507,0,0,0,1.973,2.807,10.993,10.993,0,0,0,10.013.1,3.576,3.576,0,0,0,2.178-2.953C253.764,237.025,253.734,221.18,253.734,221.18Z" transform="translate(-228.534 -212.993)" fill="#3a9902"/>
          <path id="Path_418" data-name="Path 418" d="M256.143,221.661a4.718,4.718,0,0,0-.234-1.433,5.118,5.118,0,0,0-.629-1.242,6.173,6.173,0,0,0-.892-1.023,7.314,7.314,0,0,0-1.184-.877,11.89,11.89,0,0,0-5.8-1.506,13.576,13.576,0,0,0-3.04.307,10.545,10.545,0,0,0-2.836,1.052,6.911,6.911,0,0,0-2.324,2.032,5.223,5.223,0,0,0-.687,1.4,4.176,4.176,0,0,0-.146.614c-.029.219-.044.5-.058.716v.307a4.682,4.682,0,0,0,.745,2.5,6.546,6.546,0,0,0,2.193,2.076,10.189,10.189,0,0,0,2.207.965,12.5,12.5,0,0,0,2.383.468,13.167,13.167,0,0,0,3.055-.044,11.237,11.237,0,0,0,2.4-.541,8.629,8.629,0,0,0,3.552-2.222,5.158,5.158,0,0,0,.979-1.593,4.749,4.749,0,0,0,.234-.789,3.774,3.774,0,0,0,.088-.877Z" transform="translate(-229.116 -215.579)" fill="#3a9902"/>
          <g id="Group_375" data-name="Group 375" transform="translate(11.424 0.414)">
            <path id="Path_419" data-name="Path 419" d="M251.332,217.043c2.558,1.535,2.47,3.991-.19,5.467a10.344,10.344,0,0,1-9.443-.1c-2.558-1.535-2.47-3.991.19-5.467A10.433,10.433,0,0,1,251.332,217.043Z" transform="translate(-239.835 -215.862)" fill="#2b7201"/>
          </g>
        </g>
        <g id="Group_378" data-name="Group 378" transform="translate(0.127 28.081)">
          <g id="Group_377" data-name="Group 377">
            <path id="Path_420" data-name="Path 420" d="M257.868,244.628c-5.292,2.953-13.711,2.88-18.8-.19-4.151-2.5-4.795-6.2-2.017-9.092.307-.19.629-.38.965-.555a5.083,5.083,0,0,0-1.549,3.2c-.117,1.842,1.009,3.7,3.391,5.131,4.663,2.807,12.381,2.88,17.234.175a6.988,6.988,0,0,0,3.917-5.365c.161-1.067-.029-2.207.058-2.134.175.146.439.38.745.687a.388.388,0,0,0,.088.073l.073.073A7.783,7.783,0,0,1,257.868,244.628Z" transform="translate(-230.601 -234.79)" fill="#006187"/>
            <path id="Path_421" data-name="Path 421" d="M264.33,251.158a11.591,11.591,0,0,1-3.581,2.953c-6.446,3.6-16.693,3.494-22.876-.234a11.1,11.1,0,0,1-3.07-2.617l-.307-.395c-.292-.424-.672-.979-.936-1.418a10.691,10.691,0,0,0,3.8,3.61c6.446,3.888,17.132,3.991,23.856.249a11.112,11.112,0,0,0,4.312-3.947c-.336.541-.8,1.272-1.2,1.8Z" transform="translate(-231.436 -228.062)" fill="#006187"/>
            <path id="Path_422" data-name="Path 422" d="M260.467,248.026c-6.329,3.523-16.357,3.42-22.423-.234-4.721-2.85-5.642-7.016-2.821-10.378l.058-.058.146-.175.409-.453.175-.175.058-.058c.073-.073.146-.161.234-.234a9.711,9.711,0,0,1,.95-.789c-2.938,3.04-2.266,6.958,2.12,9.589,5.365,3.23,14.237,3.318,19.836.2,3.347-1.871,5.072-5.306,4.356-8.127l.2.249c.058.073.132.146.19.234.044.044.073.088.117.132.19.234.365.482.541.716.044.058.073.1.117.161.1.132.219.322.365.526.015.029.044.058.058.088.058.1.132.2.19.307a.525.525,0,0,0,.1.146c.044.073.088.132.132.2h0C265.817,242.647,263.99,246.053,260.467,248.026Z" transform="translate(-231.403 -234.476)" fill="#006187"/>
            <path id="Path_423" data-name="Path 423" d="M267.624,247.64c-.219.629-.526,1.462-.789,2.061a10.759,10.759,0,0,1-4.721,4.634c-6.885,3.844-17.819,3.727-24.411-.249a10.32,10.32,0,0,1-4.21-4.3,18.328,18.328,0,0,1-.936-2.514c-.1-.439-.249-1.023-.336-1.462.395,2.222,2.032,4.4,4.926,6.125,6.885,4.151,18.3,4.268,25.478.263,3.216-1.8,5.043-4.108,5.452-6.49-.117.585-.278,1.359-.453,1.93Z" transform="translate(-232.055 -229.748)" fill="#006187"/>
            <path id="Path_424" data-name="Path 424" d="M233.5,246.516c-.541,1.93-1.023,1.009-1.067.892-.716-1.52-.19-6.476.965-6.081.2.073.307.351.365.512a10.861,10.861,0,0,1-.263,4.678Z" transform="translate(-232.107 -231.782)" fill="#006187"/>
            <path id="Path_425" data-name="Path 425" d="M237.73,249.214c-.409,1.637-2.12,2.295-3.464,0-1.491-2.543-.322-5.379,1.447-4.9a1.92,1.92,0,0,1,.6.307,4.808,4.808,0,0,1,1.418,4.59Z" transform="translate(-231.425 -230.416)" fill="#006187"/>
            <path id="Path_426" data-name="Path 426" d="M243.375,250.475c-.365,2.266-3.406,2.953-5.16.526-1.7-2.324.044-4.911,2.339-4.561.088.015.2.044.278.058a3.663,3.663,0,0,1,2.543,3.976Z" transform="translate(-229.6 -229.425)" fill="#006187"/>
            <path id="Path_427" data-name="Path 427" d="M249.151,250.221c-.146,2.69-3.742,3.844-5.584,1.769a3.078,3.078,0,0,1,2.4-4.97,3.152,3.152,0,0,1,3.187,3.2Z" transform="translate(-227.132 -229.143)" fill="#006187"/>
            <path id="Path_428" data-name="Path 428" d="M254.133,248.474c.146,2.7-3.04,4.838-4.868,3.26-1.506-1.286-.862-4.59,1.579-5.525a2.456,2.456,0,0,1,3.289,2.266Z" transform="translate(-224.557 -229.573)" fill="#006187"/>
            <path id="Path_429" data-name="Path 429" d="M256.968,245.559c.439,2.573-1.418,5.408-2.821,4.356-1.184-.892-1.169-4.283.351-5.832,1.272-1.038,2.251.19,2.47,1.476Z" transform="translate(-222.319 -230.679)" fill="#006187"/>
            <path id="Path_430" data-name="Path 430" d="M257.075,242.234c.482,1.944.424,5.028-.088,4.795-.453-.219-1.359-4.034-1.126-5.8.19-.906.57-.482.716-.249a3.17,3.17,0,0,1,.5,1.257Z" transform="translate(-221.155 -232.075)" fill="#006187"/>
          </g>
        </g>
      </g>
    </g>
  </g>
</svg>
