<svg xmlns="http://www.w3.org/2000/svg" width="31.819" height="26.75" viewBox="0 0 31.819 26.75">
  <g id="check_icon" data-name="check icon" transform="translate(-478 -1504)">
    <circle id="Ellipse_107" data-name="Ellipse 107" cx="12.5" cy="12.5" r="12.5" transform="translate(478 1505.75)" fill="#41ba03"/>
    <g id="arrow" transform="translate(807.381 1417.3)">
      <path id="Path_2979" data-name="Path 2979" d="M126.2,97.609c.488.326.954.7,1.419,1.047.465.372.907.744,1.349,1.14.884.768,1.745,1.6,2.559,2.466a32.587,32.587,0,0,1,2.326,2.721c.372.488.721.977,1.047,1.489.163.256.326.512.488.791l.442.791-1.907.093a33.4,33.4,0,0,1,10.514-15.933,30.616,30.616,0,0,1,3.117-2.28,27.749,27.749,0,0,1,6.885-3.233,72.328,72.328,0,0,0-5.908,4.559c-.93.814-1.814,1.651-2.675,2.512s-1.675,1.768-2.466,2.675a43.846,43.846,0,0,0-4.233,5.885,50.01,50.01,0,0,0-3.3,6.49l-.954,2.28-.954-2.186-.326-.768c-.116-.256-.233-.488-.372-.744q-.384-.733-.837-1.465c-.279-.488-.6-.977-.907-1.442-.326-.488-.651-.954-.977-1.419-.675-.954-1.372-1.861-2.093-2.791-.349-.465-.721-.907-1.116-1.349C126.991,98.493,126.6,98.074,126.2,97.609Z" transform="translate(-452 0)" fill="#fff"/>
    </g>
  </g>
</svg>
