<svg xmlns="http://www.w3.org/2000/svg" width="472.333" height="369.028" viewBox="0 0 472.333 369.028">
  <g id="client_support_illustration" data-name="client support illustration" transform="translate(0 -30.464)">
    <g id="Artboard" transform="translate(0 0.131)">
      <g id="Customer-Support-Illustration-final-01" transform="translate(0 0)">
        <path id="Path" d="M199.134,375.826S40.148,388.946,9.859,323.619s13.3-95.827,75.014-109.063,75.016-30.5,49.963-46.037S2.782,139.431,16.369,107.65s242.31-50.9,332.326-23.5,97.377,71.595,6.228,92.081,2.757,25.579,44.725,32c66.805,10.214,85.993,48.966,63.985,105.09C440.979,371.091,295.773,373.988,199.134,375.826Z" transform="translate(0 12.062)" fill="#41ba03" fill-rule="evenodd" opacity="0.7"/>
        <circle id="Oval" cx="8.204" cy="8.204" r="8.204" transform="translate(45.71 230.739)" fill="#3e89fc"/>
        <ellipse id="Oval-2" data-name="Oval" cx="3.516" cy="4.102" rx="3.516" ry="4.102" transform="translate(80.871 235.427)" fill="#8fb7ff"/>
        <circle id="Oval-3" data-name="Oval" cx="5.274" cy="5.274" r="5.274" transform="translate(174.634 110.019)" fill="#3e89fc"/>
        <circle id="Oval-4" data-name="Oval" cx="8.79" cy="8.79" r="8.79" transform="translate(171.118 135.804)" fill="#3e89fc"/>
        <g id="Group" transform="translate(2.749 49.443)">
          <circle id="Ellipse_129" data-name="Ellipse 129" cx="7" cy="7" r="7" transform="translate(45.251 160.557)" fill="#79ce4d"/>
          <path id="Shape" d="M254.225,85.259c-.428-.324-.846-.671-1.242-1.035A18.043,18.043,0,0,1,247.167,70.9a18.285,18.285,0,0,1,.96-5.863,17.582,17.582,0,0,1,13.881-11.813,17.11,17.11,0,0,1,11.787,2.457,17.869,17.869,0,0,1,7.382,9.483,18.3,18.3,0,0,1,.914,5.736,17.678,17.678,0,0,1-17.461,17.879A17.093,17.093,0,0,1,254.225,85.259Zm22.912-16.942a9.313,9.313,0,1,0-9.312,9.338A9.325,9.325,0,0,0,277.137,68.318Z" transform="translate(42.118 8.752)" fill="#403882"/>
          <path id="Shape-2" data-name="Shape" d="M243.224,109a4.7,4.7,0,1,0,.142,1.174A5.091,5.091,0,0,0,243.224,109Zm20.5-19.15c0,.931-.016,1.833-.055,2.7-.367,8.795-2.462,14.479-3.953,17.468a15.463,15.463,0,0,1-1.52,2.561s-15.135,14.207-25.61,16.59a17.924,17.924,0,0,1-8.347-.591c-10.866-2.9-24.55-12.472-27.611-17.4-3.942-6.355-10.995-48.756-10.995-48.756-.152-.769-.282-1.527-.395-2.272,7.793-5.025,13.728-3.66,13.728-3.66l-.445-2.926c-5.626-1.07-10.691,1.584-13.623,3.649-2.185-25.7,19.36-36.9,19.36-36.9A155.836,155.836,0,0,0,223.8,50.487a36.771,36.771,0,0,0-6.049,1.752l-.209,2.857a52.04,52.04,0,0,1,8.742-1.786c9.133,9.992,20.432,18.168,32.58,17.359a18.288,18.288,0,0,0-.96,5.863A18.043,18.043,0,0,0,263.723,89.853Zm-39.39-12.264c1.208-.087,2.073-1.977,1.921-4.227s-1.248-4-2.452-3.92-2.072,1.972-1.92,4.227S223.124,77.669,224.333,77.589Zm-13.621,18.59s.881-11.495-1-16.867c0,0-1.729,8.575-5.478,13.154C204.235,92.466,208.006,95.889,210.711,96.178ZM199.743,80.3c1.2-.081,2.067-1.972,1.921-4.221s-1.248-4.008-2.457-3.926-2.067,1.977-1.921,4.227S198.535,80.387,199.743,80.3Z" transform="translate(31.378 3.124)" fill="#fda181"/>
          <path id="Path-2" data-name="Path" d="M252.082,82.345c.039-.868.055-1.769.055-2.7.4.364.815.711,1.242,1.035C253.03,81.148,252.6,81.709,252.082,82.345Z" transform="translate(42.964 13.332)" fill="#e22953" fill-rule="evenodd"/>
          <path id="Path-3" data-name="Path" d="M231.541,93a4.589,4.589,0,0,1,4.416,3.5,5.028,5.028,0,0,1,.141,1.174A4.562,4.562,0,1,1,231.541,93Z" transform="translate(38.645 15.63)" fill-rule="evenodd"/>
          <path id="Path-4" data-name="Path" d="M291.862,78.509c16.3,16.688,38.318,47.681,11.543,65.16l-.016.1c-17.925-3.36-41.6-6.054-41.6-6.054-11.379-2.852-13.1-26.339-13.351-32.445a8.955,8.955,0,0,0,.316-2.6c1.491-2.99,3.586-8.674,3.953-17.468.513-.636.948-1.2,1.3-1.665a17.092,17.092,0,0,0,10.4,3.522,17.679,17.679,0,0,0,17.462-17.879,18.3,18.3,0,0,0-.915-5.736l1.214-.387C283.594,67.939,286.26,72.779,291.862,78.509Z" transform="translate(42.337 10.478)" fill="#e22953" fill-rule="evenodd"/>
          <path id="Shape-3" data-name="Shape" d="M311.158,304.751c-1.1-.185-2.2-.369-3.32-.56-27.351-4.655-62-11.328-76.823-14.213l3.813-32.821,14.683,1.22,7.945.659,38.177-57.493-22.7-25.129,20.076-21.355L264.786,127.94l-.135-.018.135-1.167s23.674,2.693,41.6,6.054c9.4,1.77,17.218,3.718,19.224,5.563,5.823,5.367,12.515,8.645,18.919,62.878s12.221,106.971,0,107.862C340.711,309.389,327.513,307.492,311.158,304.751Zm-9.127-101.589c-2.055,20.724-4.878,48.994-5.969,59.084l8.325.694S302.9,232.472,302.031,203.162Z" transform="translate(39.339 21.437)" fill="#004195"/>
          <path id="Path-5" data-name="Path" d="M235.288,266.689c14.825,2.886,49.472,9.558,76.823,14.212v.226L206.176,270.419c2.128-3.909,3.857-6.863,4.388-6.644,1.451.6,13.549-.034,17.976-1.658h.006l-.519,3.15S230.714,265.8,235.288,266.689Z" transform="translate(35.066 44.725)" fill="#050f66" fill-rule="evenodd"/>
          <path id="Path-6" data-name="Path" d="M314.5,279.909l-.294,24.066H260.679l-1.745-13.634-66.64-2.683.006-.076a12.338,12.338,0,0,0,5.811-.89c1.847-.948,6.75-10.681,10.453-17.492Z" transform="translate(32.678 45.944)" fill="#004195" fill-rule="evenodd"/>
          <path id="Path-7" data-name="Path" d="M294.839,251.723l-8.325-.694c1.091-10.089,3.915-38.36,5.969-59.083C293.354,221.256,294.839,251.723,294.839,251.723Z" transform="translate(48.888 32.653)" fill="#050f66" fill-rule="evenodd"/>
          <path id="Path-8" data-name="Path" d="M254.64,190.622l7.3-62.871.136.018L290.3,154.887l-20.076,21.355,22.7,25.129-38.177,57.493-7.945-.659Z" transform="translate(42.054 21.608)" fill="#0f6bc7" fill-rule="evenodd"/>
          <path id="Path-9" data-name="Path" d="M278.672,69.5l-1.214.387a17.869,17.869,0,0,0-7.382-9.483s3.958-11.414-1.3-34.85a65.317,65.317,0,0,1,3.676,8.945C277.8,50.671,275.961,60.165,278.672,69.5Z" transform="translate(45.836 4.027)" fill="#e22953" fill-rule="evenodd"/>
          <path id="Path-10" data-name="Path" d="M266.16,58.1a9.338,9.338,0,1,1-9.313,9.339A9.324,9.324,0,0,1,266.16,58.1Z" transform="translate(43.784 9.626)" fill="#fdb813" fill-rule="evenodd"/>
          <path id="Path-11" data-name="Path" d="M271.14,28.318c5.258,23.436,1.3,34.85,1.3,34.85a17.11,17.11,0,0,0-11.787-2.457v-.006s4.9-30.872-5.6-51.191A48.751,48.751,0,0,1,271.14,28.318Z" transform="translate(43.474 1.267)" fill="#403882" fill-rule="evenodd"/>
          <path id="Path-12" data-name="Path" d="M269.366,11.1c10.5,20.319,5.6,51.191,5.6,51.191v.006a17.582,17.582,0,0,0-13.881,11.813c-12.148.81-23.448-7.367-32.58-17.359,5.049-.6,11.357-.567,16.3,1.972l.154-2.1c-5.886-4.267-13.639-3.781-18.937-2.689a155.836,155.836,0,0,1-19.546-30.178s-21.544,11.206-19.36,36.9a21.291,21.291,0,0,0-2.642,2.151l1.123,2.082c.627-.474,1.248-.9,1.858-1.3.114.746.244,1.5.395,2.272,0,0,7.055,42.4,11,48.756,3.061,4.933,16.744,14.5,27.611,17.4l-.006.035,2.778,8.7,1.971,6.158L222,151.78s-.729.231-2.011.676a199.127,199.127,0,0,0-30.325,13.218l-.26-.485c-34.925-23.841-6.987-67.543-6.987-67.543s5.823-12.316,0-28.6-13.582-24.234-6.985-42.112,32.207-17.48,32.207-17.48,15.915-12.316,36.093-8.344C253.146,2.955,261.888,5.94,269.366,11.1Z" transform="translate(29.158 -0.316)" fill="#e22953" fill-rule="evenodd"/>
          <path id="Path-13" data-name="Path" d="M264.53,126.755l-.136,1.167-7.3,62.871L232.514,161.91Z" transform="translate(39.597 21.437)" fill="#8fb7ff" fill-rule="evenodd"/>
          <path id="Path-14" data-name="Path" d="M266.544,131.518l-32.015,35.155-11.752-36.752-1.971-6.158s29-11.992,32.388-24.691C253.446,105.178,255.163,128.666,266.544,131.518Z" transform="translate(37.583 16.674)" fill="#fda181" fill-rule="evenodd"/>
          <path id="Path-15" data-name="Path" d="M237.522,252l-5.84-.485-.389,2.364v.012c-.9,0-7.546-.15-14.745-.006v-.006L215.355,178.1l20.111-21.353,24.584,28.881-7.844,67.585Z" transform="translate(36.645 26.597)" fill="#3e89fc" fill-rule="evenodd"/>
          <path id="Path-16" data-name="Path" d="M192.266,284.943l5.5.225,18.665.752,66.64,2.683,1.745,13.634L51.995,290.616V279.294Z" transform="translate(8.54 47.68)" fill="#0f6bc7" fill-rule="evenodd"/>
          <path id="Path-17" data-name="Path" d="M253.6,99.455c-3.388,12.7-32.388,24.69-32.388,24.69l-2.779-8.7.006-.034a17.938,17.938,0,0,0,8.347.59c10.476-2.383,25.61-16.589,25.61-16.589a15.465,15.465,0,0,0,1.52-2.561A8.955,8.955,0,0,1,253.6,99.455Z" transform="translate(37.175 16.293)" fill="#f47451" fill-rule="evenodd"/>
          <path id="Path-18" data-name="Path" d="M235.894,238.086l-3.813,32.821c-4.574-.891-7.262-1.423-7.262-1.423l.519-3.15,4.326-26.357c.13,0,.136-.006,0-.012l.389-2.364Z" transform="translate(38.273 40.507)" fill="#8fb7ff" fill-rule="evenodd"/>
          <path id="Path-19" data-name="Path" d="M237,48.857l-.154,2.1c-4.941-2.538-11.249-2.573-16.3-1.972q-1.271-1.388-2.485-2.822C223.366,45.075,231.119,44.589,237,48.857Z" transform="translate(37.112 7.443)" fill="#231f20" fill-rule="evenodd"/>
          <path id="Path-20" data-name="Path" d="M223.838,125.393l11.752,36.752L215.479,183.5l-.842-53.238Z" transform="translate(36.522 21.203)" fill="#8fb7ff" fill-rule="evenodd"/>
          <path id="Path-21" data-name="Path" d="M228.953,239.618c.136.007.13.012,0,.012Z" transform="translate(38.985 40.854)" fill="#fdcadd" fill-rule="evenodd"/>
          <path id="Path-22" data-name="Path" d="M210.056,274.3c-3.7,6.811-8.606,16.543-10.453,17.492a12.341,12.341,0,0,1-5.811.89,23.233,23.233,0,0,1-5.54-.89c-2.914-.891,3.2-28.9,3.2-28.9s-5.241,1.2-7.568,0c-1.745-.891,5.631-10.612,12.932-16.827a27.337,27.337,0,0,1,7.014-4.626,31.931,31.931,0,0,1,7.884-1.329c3.162-.266,6.793-.406,10.289-.469,7.2-.145,13.848.006,14.745.006l-4.326,26.356h-.006c-4.428,1.626-16.525,2.255-17.976,1.66C213.913,267.434,212.185,270.389,210.056,274.3Z" transform="translate(31.186 40.846)" fill="#fda181" fill-rule="evenodd"/>
          <path id="Path-23" data-name="Path" d="M220.8,66.15c.152,2.249-.713,4.14-1.921,4.227s-2.3-1.677-2.451-3.92.706-4.14,1.92-4.227S220.657,63.9,220.8,66.15Z" transform="translate(36.828 10.335)" fill="#231f20" fill-rule="evenodd"/>
          <path id="Path-24" data-name="Path" d="M218.987,46.057q1.211,1.431,2.485,2.822a52.1,52.1,0,0,0-8.742,1.787l.209-2.857A36.927,36.927,0,0,1,218.987,46.057Z" transform="translate(36.193 7.554)" fill="#231f20" fill-rule="evenodd"/>
          <path id="Path-25" data-name="Path" d="M219.922,182.785l1.192,75.77v.007c-3.5.063-7.127.2-10.289.468l-.04-.475-21.975-50.34L205.4,186.463l-9.312-11.917,20.98-44.322c1.282-.445,2.01-.676,2.01-.676Z" transform="translate(32.078 21.917)" fill="#0f6bc7" fill-rule="evenodd"/>
          <path id="Path-26" data-name="Path" d="M187.141,221.757c-3.332,17.868-7.7,41.435-10.443,56.829l-2.287,7.4-15.548-77.766.47-.1s4.653-34.867,14.74-50.357c3.411-5.245,10.261-10.183,17.823-14.415a199.11,199.11,0,0,1,30.327-13.219l-20.98,44.322,9.312,11.917-16.593,21.753,21.975,50.34.04.475a32.045,32.045,0,0,0-7.884,1.329,27.337,27.337,0,0,0-7.014,4.626s-9.442-11.478-13.193-20.123a7.832,7.832,0,0,1-.384-1.173C186.5,239.617,186.594,231.129,187.141,221.757Z" transform="translate(26.926 22.017)" fill="#004195" fill-rule="evenodd"/>
          <path id="Path-27" data-name="Path" d="M206.85,70.651c1.881,5.372,1,16.867,1,16.867-2.705-.289-6.478-3.712-6.478-3.712C205.123,79.226,206.85,70.651,206.85,70.651Z" transform="translate(34.24 11.785)" fill="#f47451" fill-rule="evenodd"/>
          <path id="Path-28" data-name="Path" d="M199.825,68.469c.146,2.249-.718,4.14-1.921,4.221s-2.31-1.671-2.457-3.92.713-4.14,1.921-4.227S199.677,66.22,199.825,68.469Z" transform="translate(33.217 10.733)" fill="#231f20" fill-rule="evenodd"/>
          <path id="Path-29" data-name="Path" d="M198.5,48.718l.447,2.926s-5.935-1.365-13.729,3.66c-.152-1-.265-1.977-.339-2.937C187.8,50.3,192.871,47.648,198.5,48.718Z" transform="translate(31.401 7.969)" fill="#231f20" fill-rule="evenodd"/>
          <path id="Path-30" data-name="Path" d="M185.262,51.795c.073.96.186,1.937.339,2.937-.611.393-1.232.821-1.858,1.3l-1.124-2.082A21.258,21.258,0,0,1,185.262,51.795Z" transform="translate(31.013 8.541)" fill="#231f20" fill-rule="evenodd"/>
          <path id="Path-31" data-name="Path" d="M184.884,230.14l-10.8,34.995c2.745-15.394,7.111-38.961,10.443-56.829C183.976,217.679,183.878,226.167,184.884,230.14Z" transform="translate(29.544 35.467)" fill="#050f66" fill-rule="evenodd"/>
          <path id="Path-32" data-name="Path" d="M176.5,280.224l4.439,22.216v0l-5.5-.225L149.82,179.006l6.409-.134,4.191,20.956,15.547,77.765Z" transform="translate(25.37 30.403)" fill="#287cd1" fill-rule="evenodd"/>
          <path id="Shape-4" data-name="Shape" d="M170.281,178.986,195.9,302.2,55.626,296.551,30.89,181.929ZM112.049,255.96c5.524-1.157,8.867-7.772,7.466-14.774s-7.013-11.738-12.537-10.575-8.872,7.772-7.471,14.774S106.521,257.121,112.049,255.96Z" transform="translate(4.909 30.423)" fill="#3e89fc"/>
          <path id="Shape-5" data-name="Shape" d="M141.019,60.4l25.317,115.9-66.352,2.787-5.631-23.378,8.923-.861-9.019-41.118-9.68,1.417L73.61,69.633Zm10.572,104.381-3.49-15.9-19.4,2.787,3.106,14.7Zm-37.849-59.869-6.709-30.282L84.539,77.346l7.37,29.212Z" transform="translate(12.259 10.022)" fill="#fffcf8"/>
          <path id="Path-33" data-name="Path" d="M140.014,135.9l3.49,15.9-19.789,1.59-3.106-14.7Z" transform="translate(20.345 23.011)" fill="#fdb813" fill-rule="evenodd"/>
          <path id="Path-34" data-name="Path" d="M139.516,53.191l1.847,8.454L73.955,70.873l-2.343-9.737Z" transform="translate(11.915 8.781)" fill="#3e89fc" fill-rule="evenodd"/>
          <path id="Path-35" data-name="Path" d="M105.428,72.545l6.71,30.282L90.3,104.469l-7.37-29.212Z" transform="translate(13.863 12.111)" fill="#3e89fc" fill-rule="evenodd"/>
          <path id="Path-36" data-name="Path" d="M109.49,233.634c1.4,7-1.942,13.617-7.466,14.774s-11.142-3.574-12.543-10.577,1.943-13.617,7.471-14.774S108.089,226.631,109.49,233.634Z" transform="translate(14.935 37.975)" fill="#fff" fill-rule="evenodd"/>
          <path id="Path-37" data-name="Path" d="M92.648,105.9l9.019,41.119-8.923.861-9.776-40.563Z" transform="translate(13.869 17.85)" fill="#3e89fc" fill-rule="evenodd"/>
          <path id="Shape-6" data-name="Shape" d="M92.587,148.406l-8.714.838L50.3,152.476,39.828,114.5l50.561-7.39,9.776,40.563Zm-1.83-19.868a2.621,2.621,0,1,0-2.62,2.677A2.654,2.654,0,0,0,90.757,128.538Zm-16.3,2.434a2.618,2.618,0,1,0-2.62,2.683A2.654,2.654,0,0,0,74.459,130.972ZM60.2,132.817a2.621,2.621,0,1,0-2.62,2.677A2.654,2.654,0,0,0,60.2,132.817Z" transform="translate(6.447 18.058)" fill="#3e89fc"/>
          <path id="Path-38" data-name="Path" d="M86.122,142.345,87.2,161.912s-6.884-13.178-9.793-18.729Z" transform="translate(12.912 24.119)" fill="#3e89fc" fill-rule="evenodd"/>
          <path id="Path-39" data-name="Path" d="M81.43,123.1a2.681,2.681,0,1,1-2.62,2.683A2.654,2.654,0,0,1,81.43,123.1Z" transform="translate(13.154 20.809)" fill="#231f20" fill-rule="evenodd"/>
          <path id="Path-40" data-name="Path" d="M67.523,125.181a2.684,2.684,0,1,1-2.615,2.683A2.654,2.654,0,0,1,67.523,125.181Z" transform="translate(10.762 21.166)" fill="#231f20" fill-rule="evenodd"/>
          <path id="Path-41" data-name="Path" d="M58.114,56.437,67.534,87.6,34.452,93.3a19.8,19.8,0,0,0-15.373-7.1,20.328,20.328,0,0,0-8.731,1.943L3.955,69.719Z" transform="translate(0.275 9.339)" fill="#fffcf8" fill-rule="evenodd"/>
          <path id="Path-42" data-name="Path" d="M55.358,126.755a2.681,2.681,0,1,1-2.62,2.683A2.654,2.654,0,0,1,55.358,126.755Z" transform="translate(8.668 21.437)" fill="#231f20" fill-rule="evenodd"/>
          <path id="Path-43" data-name="Path" d="M56.547,50.991l1.932,6.383L4.32,70.656,1.835,63.5Z" transform="translate(-0.089 8.402)" fill="#3e89fc" fill-rule="evenodd"/>
          <path id="Path-44" data-name="Path" d="M35.072,88.65a17.29,17.29,0,0,1,3.981,11c0,9.992-8.663,18.1-19.354,18.1S.346,109.64.346,99.648A18.01,18.01,0,0,1,10.968,83.493l3.055,8.789,9.77-1.683-5.4,14.1L9.37,99.649,6.75,104.7l14.26,6.852L31.655,94.265,26.323,90.16Z" transform="translate(-0.346 13.994)" fill="#3e89fc" fill-rule="evenodd"/>
          <path id="Path-45" data-name="Path" d="M33.513,88.936l-8.748,1.509-1.824-1.4-.706,1.844-9.77,1.683L9.41,83.777a20.328,20.328,0,0,1,8.731-1.943A19.808,19.808,0,0,1,33.513,88.936Z" transform="translate(1.214 13.709)" fill="#3e89fc" fill-rule="evenodd"/>
          <path id="Path-46" data-name="Path" d="M30.716,93.286,20.07,110.57,5.81,103.718l2.62-5.048,9.019,5.048,5.405-14.1,2.53-.44Z" transform="translate(0.595 14.973)" fill="#fdb813" fill-rule="evenodd"/>
          <path id="Path-47" data-name="Path" d="M22.882,89.387l-2.53.44.705-1.845Z" transform="translate(3.096 14.766)" fill="#ffc962" fill-rule="evenodd"/>
        </g>
        <g id="Group-2" data-name="Group" transform="translate(116.197 141.841)">
          <path id="Path-48" data-name="Path" d="M134.5,23.036a1.052,1.052,0,0,1-1.009-.786,1.073,1.073,0,0,1,.733-1.314A30.472,30.472,0,0,0,137.5,19.8c9.157-3.775,16.472-11.708,20.017-16.1.466-.576.894-1.125,1.274-1.631.683-.9,1.047-1.447,1.05-1.452a1.032,1.032,0,0,1,1.453-.282,1.085,1.085,0,0,1,.277,1.485c-.016.024-.4.6-1.122,1.553-.393.523-.838,1.093-1.32,1.689-3.671,4.548-11.261,12.77-20.849,16.723a32.548,32.548,0,0,1-3.5,1.211A1.06,1.06,0,0,1,134.5,23.036Z" transform="translate(22.795 -0.151)" fill-rule="evenodd"/>
          <path id="Path-49" data-name="Path" d="M3.808,52.576a.535.535,0,0,1-.061-1.065l40.339-4.857a.525.525,0,0,1,.581.468.532.532,0,0,1-.458.593L3.87,52.572A.5.5,0,0,1,3.808,52.576Z" transform="translate(0.4 7.849)" fill-rule="evenodd"/>
          <path id="Path-50" data-name="Path" d="M2.484,43.2a.527.527,0,0,1-.518-.465.532.532,0,0,1,.45-.6l36.755-4.95a.534.534,0,0,1,.137,1.06L2.553,43.2A.512.512,0,0,1,2.484,43.2Z" transform="translate(0.173 6.22)" fill-rule="evenodd"/>
          <path id="Path-51" data-name="Path" d="M.663,33.761a.536.536,0,0,1-.055-1.067L36.487,28.73a.525.525,0,0,1,.576.474.532.532,0,0,1-.464.589L.72,33.757A.523.523,0,0,1,.663,33.761Z" transform="translate(-0.141 4.765)" fill-rule="evenodd"/>
          <path id="Path-52" data-name="Path" d="M13.9,12.125a.535.535,0,0,1-.049-1.067L31.891,9.327a.535.535,0,0,1,.1,1.064L13.953,12.122Z" transform="translate(2.137 1.427)" fill-rule="evenodd"/>
          <path id="Path-53" data-name="Path" d="M12.083,4.522a.535.535,0,0,1-.048-1.067L30.844,1.673a.535.535,0,0,1,.1,1.064L12.132,4.52Z" transform="translate(1.824 0.11)" fill-rule="evenodd"/>
        </g>
        <path id="Path-54" data-name="Path" d="M187.347,276.567c-1.253-18.028.646-36.023,1-54.044a.466.466,0,1,0-.925,0c-.35,18.021-2.249,36.016-1,54.044C186.47,277.256,187.395,277.262,187.347,276.567Z" transform="translate(32 38.04)" fill-rule="evenodd"/>
        <path id="Path-55" data-name="Path" d="M295.344,294.85c-.279-25.46-1.364-50.884-1.642-76.345-.007-.673-.709-.674-.7,0,.278,25.46,1.363,50.884,1.642,76.345C294.649,295.522,295.351,295.524,295.344,294.85Z" transform="translate(50.409 37.352)" fill-rule="evenodd"/>
        <path id="Path-56" data-name="Path" d="M259.8,97.6c4.871-2.488,10.536-1.542,14.858,1.979.551.449,1.069-.611.523-1.056a14.449,14.449,0,0,0-15.9-1.979C258.66,96.857,259.189,97.91,259.8,97.6Z" transform="translate(44.559 16.191)" fill-rule="evenodd"/>
        <path id="Path-57" data-name="Path" d="M18.515,114.86a.5.5,0,0,1-.507-.362.454.454,0,0,1,.415-.516l31.785-4.975a.518.518,0,0,1,.6.355.452.452,0,0,1-.415.515l-31.785,4.976A.634.634,0,0,1,18.515,114.86Z" transform="translate(3.097 18.599)" fill-rule="evenodd"/>
        <path id="Path-58" data-name="Path" d="M19.548,122.86a.536.536,0,0,1-.541-.421.508.508,0,0,1,.457-.57l34.063-4.864a.546.546,0,0,1,.628.414.506.506,0,0,1-.457.57l-34.063,4.865A.74.74,0,0,1,19.548,122.86Z" transform="translate(3.269 19.976)" fill-rule="evenodd"/>
        <circle id="Oval-5" data-name="Oval" cx="2.93" cy="2.93" r="2.93" transform="translate(271.914 256.524)" fill="#8fb7ff"/>
        <circle id="Oval-6" data-name="Oval" cx="2.93" cy="2.93" r="2.93" transform="translate(269.57 282.309)" fill="#8fb7ff"/>
        <circle id="Oval-7" data-name="Oval" cx="2.93" cy="2.93" r="2.93" transform="translate(268.398 309.266)" fill="#8fb7ff"/>
        <path id="Path-59" data-name="Path" d="M210,134.065s16-1.331,22.269-6.065c0,0-5.415,16.522-11.134,15.157S210,134.065,210,134.065Z" transform="translate(36.129 21.868)" fill="#fff" fill-rule="evenodd"/>
        <circle id="Ellipse_127" data-name="Ellipse 127" cx="17" cy="17" r="17" transform="translate(413 66)" fill="#79ce4d"/>
        <path id="Path_3029" data-name="Path 3029" d="M40.333,12.333c17.121,0,48,1.546,48,18.667S48.121,62,31,62A31,31,0,0,1,0,31C0,13.879,23.213,12.333,40.333,12.333Z" transform="translate(18 18)" fill="#79ce4d"/>
      </g>
    </g>
  </g>
</svg>
