<svg xmlns="http://www.w3.org/2000/svg" width="126.58" height="150" viewBox="0 0 126.58 150">
  <g id="customer_save_number_illustration" data-name="customer save number illustration" transform="translate(0 0)">
    <g id="money_save" data-name="money save">
      <path id="Path_560" data-name="Path 560" d="M3382.294,2589.09v9.738h-14.219a2.2,2.2,0,0,1-2.205-2.194v-7.407a.806.806,0,0,1,.008-.137Z" transform="translate(-3316.865 -2507.819)" fill="#f9ef75"/>
      <path id="Path_561" data-name="Path 561" d="M3398.761,2581.179h-32.84a2.191,2.191,0,0,1,2.2-2.059h28.449A2.192,2.192,0,0,1,3398.761,2581.179Z" transform="translate(-3316.905 -2499.908)" fill="#fbf4a4"/>
      <path id="Path_562" data-name="Path 562" d="M3461.866,2589.226v7.407a2.2,2.2,0,0,1-2.205,2.194h-14.23v-9.738h16.427A.756.756,0,0,1,3461.866,2589.226Z" transform="translate(-3380 -2507.819)" fill="#f8da47"/>
      <path id="Path_563" data-name="Path 563" d="M3351.4,2646.24v9.738h-14.219a2.2,2.2,0,0,1-2.2-2.194v-7.407a.58.58,0,0,1,.011-.136Z" transform="translate(-3292.353 -2553.171)" fill="#f9ef75"/>
      <path id="Path_564" data-name="Path 564" d="M3367.871,2638.328H3335.03a2.188,2.188,0,0,1,2.195-2.058h28.449A2.19,2.19,0,0,1,3367.871,2638.328Z" transform="translate(-3292.392 -2545.26)" fill="#fbf4a4"/>
      <path id="Path_565" data-name="Path 565" d="M3430.975,2646.376v7.407a2.2,2.2,0,0,1-2.2,2.194h-14.23v-9.737h16.424A.6.6,0,0,1,3430.975,2646.376Z" transform="translate(-3355.488 -2553.171)" fill="#f8da47"/>
      <path id="Path_566" data-name="Path 566" d="M3369.055,2703.39v9.738h-14.22a2.2,2.2,0,0,1-2.2-2.194v-7.407a.751.751,0,0,1,.008-.136Z" transform="translate(-3306.358 -2598.522)" fill="#f9ef75"/>
      <path id="Path_567" data-name="Path 567" d="M3385.511,2695.479h-32.84a2.188,2.188,0,0,1,2.194-2.058h28.449A2.184,2.184,0,0,1,3385.511,2695.479Z" transform="translate(-3306.39 -2590.611)" fill="#fbf4a4"/>
      <path id="Path_568" data-name="Path 568" d="M3448.634,2703.526v7.407a2.2,2.2,0,0,1-2.205,2.194H3432.2v-9.738h16.424A.71.71,0,0,1,3448.634,2703.526Z" transform="translate(-3369.502 -2598.522)" fill="#f8da47"/>
      <path id="Path_569" data-name="Path 569" d="M3369.055,2760.541v9.738h-14.22a2.2,2.2,0,0,1-2.2-2.2v-7.405a.751.751,0,0,1,.008-.136Z" transform="translate(-3306.358 -2643.873)" fill="#f9ef75"/>
      <path id="Path_570" data-name="Path 570" d="M3385.511,2752.628h-32.84a2.188,2.188,0,0,1,2.194-2.058h28.449A2.185,2.185,0,0,1,3385.511,2752.628Z" transform="translate(-3306.39 -2635.962)" fill="#fbf4a4"/>
      <path id="Path_571" data-name="Path 571" d="M3448.634,2760.677v7.405a2.2,2.2,0,0,1-2.205,2.2H3432.2v-9.738h16.424A.71.71,0,0,1,3448.634,2760.677Z" transform="translate(-3369.502 -2643.873)" fill="#f8da47"/>
      <path id="Path_572" data-name="Path 572" d="M3369.055,2817.68v9.738h-14.22a2.2,2.2,0,0,1-2.2-2.194v-7.405a.762.762,0,0,1,.008-.138Z" transform="translate(-3306.358 -2689.216)" fill="#f9ef75"/>
      <path id="Path_573" data-name="Path 573" d="M3385.511,2809.768h-32.84a2.188,2.188,0,0,1,2.194-2.058h28.449A2.187,2.187,0,0,1,3385.511,2809.768Z" transform="translate(-3306.39 -2681.304)" fill="#fbf4a4"/>
      <path id="Path_574" data-name="Path 574" d="M3448.634,2817.809v7.405a2.2,2.2,0,0,1-2.205,2.194H3432.2v-9.738h16.424A.744.744,0,0,1,3448.634,2817.809Z" transform="translate(-3369.502 -2689.208)" fill="#f8da47"/>
      <path id="Path_575" data-name="Path 575" d="M3369.055,2874.83v9.738h-14.22a2.2,2.2,0,0,1-2.2-2.195v-7.4a.766.766,0,0,1,.008-.138Z" transform="translate(-3306.358 -2734.568)" fill="#f9ef75"/>
      <path id="Path_576" data-name="Path 576" d="M3385.511,2866.918h-32.84a2.189,2.189,0,0,1,2.194-2.058h28.449A2.186,2.186,0,0,1,3385.511,2866.918Z" transform="translate(-3306.39 -2726.656)" fill="#fbf4a4"/>
      <path id="Path_577" data-name="Path 577" d="M3448.634,2874.959v7.4a2.2,2.2,0,0,1-2.205,2.195H3432.2v-9.738h16.424A.741.741,0,0,1,3448.634,2874.959Z" transform="translate(-3369.502 -2734.561)" fill="#f8da47"/>
      <path id="Path_578" data-name="Path 578" d="M3144.925,2703.39v9.738h-14.219a2.2,2.2,0,0,1-2.2-2.194v-7.407a.8.8,0,0,1,.008-.136Z" transform="translate(-3128.501 -2598.522)" fill="#f9ef75"/>
      <path id="Path_579" data-name="Path 579" d="M3161.381,2695.479h-32.84a2.188,2.188,0,0,1,2.194-2.058h28.45A2.185,2.185,0,0,1,3161.381,2695.479Z" transform="translate(-3128.533 -2590.611)" fill="#fbf4a4"/>
      <path id="Path_580" data-name="Path 580" d="M3224.5,2703.526v7.407a2.2,2.2,0,0,1-2.205,2.194H3208.07v-9.738H3224.5A.751.751,0,0,1,3224.5,2703.526Z" transform="translate(-3191.644 -2598.522)" fill="#f8da47"/>
      <path id="Path_581" data-name="Path 581" d="M3144.925,2760.541v9.738h-14.219a2.2,2.2,0,0,1-2.2-2.2v-7.405a.8.8,0,0,1,.008-.136Z" transform="translate(-3128.501 -2643.873)" fill="#f9ef75"/>
      <path id="Path_582" data-name="Path 582" d="M3161.381,2752.628h-32.84a2.188,2.188,0,0,1,2.194-2.058h28.45A2.186,2.186,0,0,1,3161.381,2752.628Z" transform="translate(-3128.533 -2635.962)" fill="#fbf4a4"/>
      <path id="Path_583" data-name="Path 583" d="M3224.5,2760.677v7.405a2.2,2.2,0,0,1-2.205,2.2H3208.07v-9.738H3224.5A.751.751,0,0,1,3224.5,2760.677Z" transform="translate(-3191.644 -2643.873)" fill="#f8da47"/>
      <path id="Path_584" data-name="Path 584" d="M3144.925,2817.68v9.738h-14.219a2.2,2.2,0,0,1-2.2-2.194v-7.405a.809.809,0,0,1,.008-.138Z" transform="translate(-3128.501 -2689.216)" fill="#f9ef75"/>
      <path id="Path_585" data-name="Path 585" d="M3161.381,2809.768h-32.84a2.188,2.188,0,0,1,2.194-2.058h28.45A2.188,2.188,0,0,1,3161.381,2809.768Z" transform="translate(-3128.533 -2681.304)" fill="#fbf4a4"/>
      <path id="Path_586" data-name="Path 586" d="M3224.5,2817.809v7.405a2.2,2.2,0,0,1-2.205,2.194H3208.07v-9.738H3224.5A.787.787,0,0,1,3224.5,2817.809Z" transform="translate(-3191.644 -2689.208)" fill="#f8da47"/>
      <path id="Path_587" data-name="Path 587" d="M3144.925,2874.83v9.738h-14.219a2.2,2.2,0,0,1-2.2-2.195v-7.4a.813.813,0,0,1,.008-.138Z" transform="translate(-3128.501 -2734.568)" fill="#f9ef75"/>
      <path id="Path_588" data-name="Path 588" d="M3161.381,2866.918h-32.84a2.188,2.188,0,0,1,2.194-2.058h28.45A2.187,2.187,0,0,1,3161.381,2866.918Z" transform="translate(-3128.533 -2726.656)" fill="#fbf4a4"/>
      <path id="Path_589" data-name="Path 589" d="M3224.5,2874.959v7.4a2.2,2.2,0,0,1-2.205,2.195H3208.07v-9.738H3224.5A.783.783,0,0,1,3224.5,2874.959Z" transform="translate(-3191.644 -2734.561)" fill="#f8da47"/>
      <path id="Path_590" data-name="Path 590" d="M3572.355,2589.09v9.738h-14.22a2.2,2.2,0,0,1-2.2-2.194v-7.407a.759.759,0,0,1,.008-.137Z" transform="translate(-3467.688 -2507.819)" fill="#f9ef75"/>
      <path id="Path_591" data-name="Path 591" d="M3588.811,2581.179h-32.84a2.189,2.189,0,0,1,2.194-2.059h28.449A2.191,2.191,0,0,1,3588.811,2581.179Z" transform="translate(-3467.718 -2499.908)" fill="#fbf4a4"/>
      <path id="Path_592" data-name="Path 592" d="M3651.924,2589.226v7.407a2.2,2.2,0,0,1-2.206,2.194h-14.227v-9.738h16.424A.715.715,0,0,1,3651.924,2589.226Z" transform="translate(-3530.823 -2507.819)" fill="#f8da47"/>
      <path id="Path_593" data-name="Path 593" d="M3572.355,2531.94v9.738h-14.22a2.2,2.2,0,0,1-2.2-2.194v-7.407a.752.752,0,0,1,.008-.136Z" transform="translate(-3467.688 -2462.468)" fill="#f9ef75"/>
      <path id="Path_594" data-name="Path 594" d="M3588.811,2524.028h-32.84a2.189,2.189,0,0,1,2.194-2.058h28.449A2.191,2.191,0,0,1,3588.811,2524.028Z" transform="translate(-3467.718 -2454.556)" fill="#fbf4a4"/>
      <path id="Path_595" data-name="Path 595" d="M3651.924,2532.086v7.407a2.2,2.2,0,0,1-2.206,2.194h-14.227v-9.738h16.424A.712.712,0,0,1,3651.924,2532.086Z" transform="translate(-3530.823 -2462.476)" fill="#f8da47"/>
      <path id="Path_596" data-name="Path 596" d="M3550.285,2474.8v9.738h-14.219a2.2,2.2,0,0,1-2.2-2.194v-7.408a.8.8,0,0,1,.008-.136Z" transform="translate(-3450.174 -2417.124)" fill="#f9ef75"/>
      <path id="Path_597" data-name="Path 597" d="M3566.741,2466.889H3533.9a2.189,2.189,0,0,1,2.194-2.059h28.449A2.187,2.187,0,0,1,3566.741,2466.889Z" transform="translate(-3450.204 -2409.212)" fill="#fbf4a4"/>
      <path id="Path_598" data-name="Path 598" d="M3629.864,2474.937v7.407a2.2,2.2,0,0,1-2.205,2.195h-14.228V2474.8h16.425A.8.8,0,0,1,3629.864,2474.937Z" transform="translate(-3513.316 -2417.124)" fill="#f8da47"/>
      <path id="Path_599" data-name="Path 599" d="M3581.245,2646.24v9.738h-14.219a2.2,2.2,0,0,1-2.2-2.194v-7.407a.747.747,0,0,1,.008-.136Z" transform="translate(-3474.743 -2553.171)" fill="#f9ef75"/>
      <path id="Path_600" data-name="Path 600" d="M3597.7,2638.328h-32.84a2.188,2.188,0,0,1,2.194-2.058H3595.5A2.187,2.187,0,0,1,3597.7,2638.328Z" transform="translate(-3474.773 -2545.26)" fill="#fbf4a4"/>
      <path id="Path_601" data-name="Path 601" d="M3660.814,2646.376v7.407a2.2,2.2,0,0,1-2.2,2.194h-14.229v-9.737h16.425A.744.744,0,0,1,3660.814,2646.376Z" transform="translate(-3537.877 -2553.171)" fill="#f8da47"/>
      <path id="Path_602" data-name="Path 602" d="M3598.9,2703.39v9.738h-14.22a2.2,2.2,0,0,1-2.2-2.194v-7.407a.751.751,0,0,1,.008-.136Z" transform="translate(-3488.748 -2598.522)" fill="#f9ef75"/>
      <path id="Path_603" data-name="Path 603" d="M3615.351,2695.479h-32.84a2.19,2.19,0,0,1,2.194-2.058h28.449A2.188,2.188,0,0,1,3615.351,2695.479Z" transform="translate(-3488.78 -2590.611)" fill="#fbf4a4"/>
      <path id="Path_604" data-name="Path 604" d="M3678.455,2703.526v7.407a2.2,2.2,0,0,1-2.2,2.194h-14.23v-9.738h16.426A.751.751,0,0,1,3678.455,2703.526Z" transform="translate(-3551.875 -2598.522)" fill="#f8da47"/>
      <path id="Path_605" data-name="Path 605" d="M3598.9,2760.541v9.738h-14.22a2.2,2.2,0,0,1-2.2-2.2v-7.405a.751.751,0,0,1,.008-.136Z" transform="translate(-3488.748 -2643.873)" fill="#f9ef75"/>
      <path id="Path_606" data-name="Path 606" d="M3615.351,2752.628h-32.84a2.19,2.19,0,0,1,2.194-2.058h28.449A2.188,2.188,0,0,1,3615.351,2752.628Z" transform="translate(-3488.78 -2635.962)" fill="#fbf4a4"/>
      <path id="Path_607" data-name="Path 607" d="M3678.455,2760.677v7.405a2.2,2.2,0,0,1-2.2,2.2h-14.23v-9.738h16.426A.751.751,0,0,1,3678.455,2760.677Z" transform="translate(-3551.875 -2643.873)" fill="#f8da47"/>
      <path id="Path_608" data-name="Path 608" d="M3598.9,2817.68v9.738h-14.22a2.2,2.2,0,0,1-2.2-2.194v-7.405a.762.762,0,0,1,.008-.138Z" transform="translate(-3488.748 -2689.216)" fill="#f9ef75"/>
      <path id="Path_609" data-name="Path 609" d="M3615.351,2809.768h-32.84a2.19,2.19,0,0,1,2.194-2.058h28.449A2.191,2.191,0,0,1,3615.351,2809.768Z" transform="translate(-3488.78 -2681.304)" fill="#fbf4a4"/>
      <path id="Path_610" data-name="Path 610" d="M3678.455,2817.809v7.405a2.2,2.2,0,0,1-2.2,2.194h-14.23v-9.738h16.426A.787.787,0,0,1,3678.455,2817.809Z" transform="translate(-3551.875 -2689.208)" fill="#f8da47"/>
      <path id="Path_611" data-name="Path 611" d="M3598.9,2874.83v9.738h-14.22a2.2,2.2,0,0,1-2.2-2.195v-7.4a.766.766,0,0,1,.008-.138Z" transform="translate(-3488.748 -2734.568)" fill="#f9ef75"/>
      <path id="Path_612" data-name="Path 612" d="M3615.351,2866.918h-32.84a2.19,2.19,0,0,1,2.194-2.058h28.449A2.19,2.19,0,0,1,3615.351,2866.918Z" transform="translate(-3488.78 -2726.656)" fill="#fbf4a4"/>
      <path id="Path_613" data-name="Path 613" d="M3678.455,2874.959v7.4a2.2,2.2,0,0,1-2.2,2.195h-14.23v-9.738h16.426A.783.783,0,0,1,3678.455,2874.959Z" transform="translate(-3551.875 -2734.561)" fill="#f8da47"/>
      <path id="Path_614" data-name="Path 614" d="M3249.183,2197.467l-6.945,2.04,2.029,2.535-47.062,37.426-14.749-9.788-52.176,41.3,5.186,5.926,47.225-38.205,14.753,10.582,49.655-43.7,2,2.5,3.514-6.325,3.517-6.325Z" transform="translate(-3129.913 -2195.43)" fill="#41ba03"/>
    </g>
  </g>
</svg>
