<svg xmlns="http://www.w3.org/2000/svg" xmlns:xlink="http://www.w3.org/1999/xlink" width="89.778" height="145" viewBox="0 0 89.778 145">
  <defs>
    <clipPath id="clip-path">
      <path id="Path_444" data-name="Path 444" d="M206.982,260.2l-2.292,1.353a2.047,2.047,0,0,1,2.053.207l2.292-1.369A2.039,2.039,0,0,0,206.982,260.2Z" transform="translate(-204.69 -260.006)"/>
    </clipPath>
    <clipPath id="clip-path-2">
      <path id="Path_449" data-name="Path 449" d="M208.027,268.384l2.292-1.369a1.939,1.939,0,0,0,.844-1.815,6.312,6.312,0,0,0-2.881-4.95l-2.292,1.369a6.288,6.288,0,0,1,2.881,4.95A2.008,2.008,0,0,1,208.027,268.384Z" transform="translate(-205.99 -260.25)"/>
    </clipPath>
    <clipPath id="clip-path-3">
      <path id="Path_456" data-name="Path 456" d="M226.142,270.893l-2.292,1.353a2.047,2.047,0,0,1,2.053.207l2.292-1.369A2.04,2.04,0,0,0,226.142,270.893Z" transform="translate(-223.85 -270.696)"/>
    </clipPath>
    <clipPath id="clip-path-4">
      <path id="Path_461" data-name="Path 461" d="M227.177,279.09l2.292-1.369a1.939,1.939,0,0,0,.844-1.815,6.365,6.365,0,0,0-2.881-4.966l-2.292,1.369a6.288,6.288,0,0,1,2.881,4.95A1.985,1.985,0,0,1,227.177,279.09Z" transform="translate(-225.14 -270.94)"/>
    </clipPath>
    <clipPath id="clip-path-5">
      <path id="Path_468" data-name="Path 468" d="M216.812,253.8l-2.292,1.353a2.047,2.047,0,0,1,2.053.207l2.292-1.369A2.04,2.04,0,0,0,216.812,253.8Z" transform="translate(-214.52 -253.606)"/>
    </clipPath>
    <clipPath id="clip-path-6">
      <path id="Path_473" data-name="Path 473" d="M217.847,262l2.292-1.369a1.939,1.939,0,0,0,.844-1.815,6.341,6.341,0,0,0-2.881-4.966l-2.292,1.369a6.288,6.288,0,0,1,2.881,4.95A1.985,1.985,0,0,1,217.847,262Z" transform="translate(-215.81 -253.85)"/>
    </clipPath>
    <clipPath id="clip-path-7">
      <path id="Path_479" data-name="Path 479" d="M241.272,263.8l-2.292,1.353a2.047,2.047,0,0,1,2.053.207l2.292-1.369A2.039,2.039,0,0,0,241.272,263.8Z" transform="translate(-238.98 -263.606)"/>
    </clipPath>
    <clipPath id="clip-path-8">
      <path id="Path_484" data-name="Path 484" d="M242.317,271.984l2.292-1.369a1.939,1.939,0,0,0,.844-1.815,6.312,6.312,0,0,0-2.881-4.95l-2.292,1.369a6.288,6.288,0,0,1,2.881,4.95A2.008,2.008,0,0,1,242.317,271.984Z" transform="translate(-240.28 -263.85)"/>
    </clipPath>
    <clipPath id="clip-path-9">
      <path id="Path_488" data-name="Path 488" d="M204.33,260.737v-2.2c0,1.21.8,2.419,2.388,3.343v2.2C205.126,263.156,204.33,261.946,204.33,260.737Z" transform="translate(-204.33 -258.54)"/>
    </clipPath>
    <clipPath id="clip-path-10">
      <path id="Path_492" data-name="Path 492" d="M245.48,264.27v2.2a4.005,4.005,0,0,1-2.34,3.295v-2.2A4.005,4.005,0,0,0,245.48,264.27Z" transform="translate(-243.14 -264.27)"/>
    </clipPath>
  </defs>
  <g id="expert_packing_illustration" data-name="expert packing illustration" transform="translate(-188.213 -185.08)">
    <g id="Group_547" data-name="Group 547" transform="translate(188.213 185.08)">
      <g id="Group_504" data-name="Group 504">
        <g id="Group_385" data-name="Group 385" transform="translate(21.092 20.016)">
          <g id="Group_383" data-name="Group 383" transform="translate(3.678 17.371)">
            <g id="Group_381" data-name="Group 381" transform="translate(17.802 8.231)">
              <path id="Path_431" data-name="Path 431" d="M214.96,217.067a4.822,4.822,0,0,1,2.419-3.327,16.557,16.557,0,0,1,2.515,1.321c1.448.907,2.961,2.149,3.231,3.374.589,2.626-.478,3.008-1.639,3.1C219.719,221.651,217.029,217.1,214.96,217.067Z" transform="translate(-214.96 -213.74)" fill="#deb09d"/>
            </g>
            <g id="Group_382" data-name="Group 382">
              <path id="Path_432" data-name="Path 432" d="M209.481,208.937l15.551,7.29-2.2,4.95-16.57-6.526a.477.477,0,0,1-.127-.064c-1.7-.987-2.992-2.1-2.037-3.82C205.072,209.032,207.73,207.966,209.481,208.937Z" transform="translate(-203.776 -208.569)" fill="#c1cdeb"/>
            </g>
          </g>
          <g id="Group_384" data-name="Group 384">
            <path id="Path_433" data-name="Path 433" d="M204.5,217.687a3.413,3.413,0,0,0,3.884,2.865h0a3.409,3.409,0,0,0,2.849-3.9l-2.992-16.092a3.413,3.413,0,0,0-3.884-2.865h0a3.409,3.409,0,0,0-2.849,3.9Z" transform="translate(-201.465 -197.655)" fill="#c1cdeb"/>
          </g>
        </g>
        <g id="Group_386" data-name="Group 386" transform="translate(13.743 110.262)">
          <path id="Path_434" data-name="Path 434" d="M201.133,254.426s-4.743-1.082-4.25,5.237c.016.271,3.311,1.719,3.311,1.719a2.563,2.563,0,0,1,1.624.111,6.748,6.748,0,0,1,1.433,1.13c2.69,2.021,7.322,1.815,8.372.446,1.512-1.958-2.308-4.393-5.666-5.969A29.394,29.394,0,0,1,201.133,254.426Z" transform="translate(-196.847 -254.356)" fill="#212428"/>
        </g>
        <g id="Group_390" data-name="Group 390" transform="translate(0.263 49.31)">
          <g id="Group_387" data-name="Group 387" transform="translate(0 44.233)">
            <path id="Path_435" data-name="Path 435" d="M194.589,244.645s-3.868-3.088-6.208,2.913c-.1.255,2.276,3.04,2.276,3.04a2.754,2.754,0,0,1,1.448.812,6.908,6.908,0,0,1,.812,1.671c1.576,3.04,5.889,4.9,7.465,4.107,2.244-1.13-.175-5.046-2.547-7.974A29.988,29.988,0,0,1,194.589,244.645Z" transform="translate(-188.378 -243.851)" fill="#212428"/>
          </g>
          <g id="Group_388" data-name="Group 388" transform="translate(2.346)">
            <path id="Path_436" data-name="Path 436" d="M192.682,265.259c1.464,1.019,5.062,1.671,6.462.732,0,0,8.85-11.747,10.521-17.254,2.117-7.019,3.565-26.486,3.565-26.486s-10.457-8.484-12.177-5.587c-3.9,6.574,1.019,25.849-.446,27.377-2.419,2.515-10.744,16.681-10.744,16.681C189.705,261.884,191.09,264.16,192.682,265.259Z" transform="translate(-189.852 -216.061)" fill="#348a0b"/>
          </g>
          <g id="Group_389" data-name="Group 389" transform="translate(9.251 28.553)" opacity="0.2">
            <path id="Path_437" data-name="Path 437" d="M198.233,237.183c-.207-1.066-.414-2.133-.684-3.183-.844,1.051-2.053,2.833-3.359,4.855a9.114,9.114,0,0,1,.875,2.626,37.581,37.581,0,0,1,.382,4.011c.127,1.719.382,3.438.589,5.157.191,1.544.4,3.088.6,4.632.3-.4,1.592-2.133,3.168-4.425A94.176,94.176,0,0,0,198.233,237.183Z" transform="translate(-194.19 -234)" fill="#348a0b"/>
          </g>
        </g>
        <g id="Group_391" data-name="Group 391" transform="translate(4.761 54.509)">
          <path id="Path_438" data-name="Path 438" d="M204.106,279.72a7.91,7.91,0,0,1-4.011-1.385s-2.149-23.318-2.021-28.316c.127-4.727-9.916-21.9-5.937-29.4,1.56-2.945,15.328.064,15.328.064l-3.39,6.669,3.963,19.148,1.608,31.293A8.942,8.942,0,0,1,204.106,279.72Z" transform="translate(-191.204 -219.328)" fill="#41ba03"/>
        </g>
        <g id="Group_392" data-name="Group 392" transform="translate(28.092 83.231)">
          <rect id="Rectangle_25" data-name="Rectangle 25" width="24.051" height="2.547" transform="matrix(0.866, -0.5, 0.5, 0.866, 0, 12.025)" fill="#036991"/>
        </g>
        <g id="Group_393" data-name="Group 393" transform="translate(28.103 66.737)">
          <path id="Path_439" data-name="Path 439" d="M207.143,244.3l-1.273-2.2,27.5-15.089v3.168Z" transform="translate(-205.87 -227.01)" fill="#036991"/>
        </g>
        <g id="Group_408" data-name="Group 408" transform="translate(25.398 118.039)">
          <g id="Group_407" data-name="Group 407">
            <g id="Group_398" data-name="Group 398" transform="translate(0.828 1.216)">
              <path id="Path_440" data-name="Path 440" d="M206.982,260.2l-2.292,1.353a2.047,2.047,0,0,1,2.053.207l2.292-1.369A2.039,2.039,0,0,0,206.982,260.2Z" transform="translate(-204.69 -260.006)" fill="#2b3336"/>
              <g id="Group_397" data-name="Group 397" clip-path="url(#clip-path)">
                <g id="Group_394" data-name="Group 394" transform="translate(1.178 0.038)">
                  <path id="Path_441" data-name="Path 441" d="M206.321,261.733l2.292-1.369a2.675,2.675,0,0,0-.891-.334l-2.292,1.353a3.327,3.327,0,0,1,.891.35Z" transform="translate(-205.43 -260.03)" fill="#2b3336"/>
                </g>
                <g id="Group_395" data-name="Group 395" transform="translate(0.064 -0.011)">
                  <path id="Path_442" data-name="Path 442" d="M205.844,261.4l2.292-1.353a1.614,1.614,0,0,0-1.114.111l-2.292,1.369a1.611,1.611,0,0,1,1.114-.127Z" transform="translate(-204.73 -259.999)" fill="#2b3336"/>
                </g>
                <g id="Group_396" data-name="Group 396" transform="translate(0.016 0.149)">
                  <path id="Path_443" data-name="Path 443" d="M204.748,261.469l2.292-1.369c-.016.016-.032.032-.048.032l-2.292,1.353a.16.16,0,0,1,.048-.016Z" transform="translate(-204.7 -260.1)" fill="#2b3336"/>
                </g>
              </g>
            </g>
            <g id="Group_403" data-name="Group 403" transform="translate(2.897 1.604)">
              <path id="Path_445" data-name="Path 445" d="M208.027,268.384l2.292-1.369a1.939,1.939,0,0,0,.844-1.815,6.312,6.312,0,0,0-2.881-4.95l-2.292,1.369a6.288,6.288,0,0,1,2.881,4.95A2.008,2.008,0,0,1,208.027,268.384Z" transform="translate(-205.99 -260.25)" fill="#2b3336"/>
              <g id="Group_402" data-name="Group 402" clip-path="url(#clip-path-2)">
                <g id="Group_399" data-name="Group 399" transform="translate(2.037 2.77)">
                  <path id="Path_446" data-name="Path 446" d="M207.27,267.354l2.292-1.369a1.939,1.939,0,0,0,.844-1.815,5.571,5.571,0,0,0-.509-2.181l-2.292,1.369a5.436,5.436,0,0,1,.509,2.165,2.019,2.019,0,0,1-.844,1.83Z" transform="translate(-207.27 -261.99)" fill="#2b3336"/>
                </g>
                <g id="Group_400" data-name="Group 400" transform="translate(1.401 1.21)">
                  <path id="Path_447" data-name="Path 447" d="M207.841,263.939l2.292-1.369a7.967,7.967,0,0,0-.971-1.56l-2.292,1.353a7.632,7.632,0,0,1,.971,1.576Z" transform="translate(-206.87 -261.01)" fill="#2b3336"/>
                </g>
                <g id="Group_401" data-name="Group 401" transform="translate(0 -0.016)">
                  <path id="Path_448" data-name="Path 448" d="M207.391,262.819l2.292-1.353a5.319,5.319,0,0,0-1.4-1.226l-2.292,1.369a5.84,5.84,0,0,1,1.4,1.21Z" transform="translate(-205.99 -260.24)" fill="#2b3336"/>
                </g>
              </g>
            </g>
            <g id="Group_405" data-name="Group 405" transform="translate(0 2.565)">
              <g id="Group_404" data-name="Group 404">
                <path id="Path_450" data-name="Path 450" d="M207.067,261.246c-1.608-.907-2.9-.191-2.9,1.639a6.266,6.266,0,0,0,2.881,4.934c1.592.923,2.9.191,2.913-1.624A6.372,6.372,0,0,0,207.067,261.246Z" transform="translate(-204.17 -260.854)" fill="#353f43"/>
              </g>
            </g>
            <g id="Group_406" data-name="Group 406" transform="translate(0.715)">
              <path id="Path_451" data-name="Path 451" d="M208.838,263.6l-1.226,2.865c-.366.844-1.273.318-1.639-.939l-1.226-4.282c-.366-1.273.1-2.324.812-1.91l2.467,1.417A2.75,2.75,0,0,1,208.838,263.6Z" transform="translate(-204.619 -259.242)" fill="#7d8086"/>
            </g>
          </g>
        </g>
        <g id="Group_423" data-name="Group 423" transform="translate(55.878 135.07)">
          <g id="Group_422" data-name="Group 422">
            <g id="Group_413" data-name="Group 413" transform="translate(0.844 1.2)">
              <path id="Path_452" data-name="Path 452" d="M226.142,270.893l-2.292,1.353a2.047,2.047,0,0,1,2.053.207l2.292-1.369A2.04,2.04,0,0,0,226.142,270.893Z" transform="translate(-223.85 -270.696)" fill="#2b3336"/>
              <g id="Group_412" data-name="Group 412" clip-path="url(#clip-path-3)">
                <g id="Group_409" data-name="Group 409" transform="translate(1.162 0.054)">
                  <path id="Path_453" data-name="Path 453" d="M225.471,272.433l2.292-1.369a2.675,2.675,0,0,0-.891-.334l-2.292,1.353a3.134,3.134,0,0,1,.891.35Z" transform="translate(-224.58 -270.73)" fill="#2b3336"/>
                </g>
                <g id="Group_410" data-name="Group 410" transform="translate(0.064 0.005)">
                  <path id="Path_454" data-name="Path 454" d="M225,272.1l2.292-1.353a1.614,1.614,0,0,0-1.114.111l-2.292,1.369A1.527,1.527,0,0,1,225,272.1Z" transform="translate(-223.89 -270.699)" fill="#2b3336"/>
                </g>
                <g id="Group_411" data-name="Group 411" transform="translate(0 0.165)">
                  <path id="Path_455" data-name="Path 455" d="M223.9,272.169l2.292-1.369c-.016.016-.032.032-.048.032l-2.292,1.353c.016,0,.032-.016.048-.016Z" transform="translate(-223.85 -270.8)" fill="#2b3336"/>
                </g>
              </g>
            </g>
            <g id="Group_418" data-name="Group 418" transform="translate(2.897 1.588)">
              <path id="Path_457" data-name="Path 457" d="M227.177,279.09l2.292-1.369a1.939,1.939,0,0,0,.844-1.815,6.365,6.365,0,0,0-2.881-4.966l-2.292,1.369a6.288,6.288,0,0,1,2.881,4.95A1.985,1.985,0,0,1,227.177,279.09Z" transform="translate(-225.14 -270.94)" fill="#2b3336"/>
              <g id="Group_417" data-name="Group 417" clip-path="url(#clip-path-4)">
                <g id="Group_414" data-name="Group 414" transform="translate(2.037 2.785)">
                  <path id="Path_458" data-name="Path 458" d="M226.42,278.054l2.292-1.369a1.939,1.939,0,0,0,.844-1.815,5.571,5.571,0,0,0-.509-2.181l-2.292,1.369a5.436,5.436,0,0,1,.509,2.165,1.985,1.985,0,0,1-.844,1.83Z" transform="translate(-226.42 -272.69)" fill="#2b3336"/>
                </g>
                <g id="Group_415" data-name="Group 415" transform="translate(1.401 1.226)">
                  <path id="Path_459" data-name="Path 459" d="M226.991,274.639l2.292-1.369a7.966,7.966,0,0,0-.971-1.56l-2.292,1.353a7.237,7.237,0,0,1,.971,1.576Z" transform="translate(-226.02 -271.71)" fill="#2b3336"/>
                </g>
                <g id="Group_416" data-name="Group 416">
                  <path id="Path_460" data-name="Path 460" d="M226.541,273.519l2.292-1.353a5.318,5.318,0,0,0-1.4-1.226l-2.292,1.369a5.252,5.252,0,0,1,1.4,1.21Z" transform="translate(-225.14 -270.94)" fill="#2b3336"/>
                </g>
              </g>
            </g>
            <g id="Group_420" data-name="Group 420" transform="translate(0 2.564)">
              <g id="Group_419" data-name="Group 419">
                <path id="Path_462" data-name="Path 462" d="M226.217,271.946c-1.608-.907-2.9-.191-2.9,1.639a6.266,6.266,0,0,0,2.881,4.934c1.592.923,2.9.191,2.913-1.623A6.347,6.347,0,0,0,226.217,271.946Z" transform="translate(-223.32 -271.554)" fill="#353f43"/>
              </g>
            </g>
            <g id="Group_421" data-name="Group 421" transform="translate(0.715)">
              <path id="Path_463" data-name="Path 463" d="M227.988,274.3l-1.226,2.865c-.366.844-1.273.318-1.639-.939l-1.226-4.282c-.366-1.273.1-2.324.812-1.91l2.467,1.417A2.74,2.74,0,0,1,227.988,274.3Z" transform="translate(-223.769 -269.942)" fill="#7d8086"/>
            </g>
          </g>
        </g>
        <g id="Group_437" data-name="Group 437" transform="translate(41.028 109.069)">
          <g id="Group_436" data-name="Group 436">
            <g id="Group_428" data-name="Group 428" transform="translate(0.844)">
              <path id="Path_464" data-name="Path 464" d="M216.812,253.8l-2.292,1.353a2.047,2.047,0,0,1,2.053.207l2.292-1.369A2.04,2.04,0,0,0,216.812,253.8Z" transform="translate(-214.52 -253.606)" fill="#2b3336"/>
              <g id="Group_427" data-name="Group 427" clip-path="url(#clip-path-5)">
                <g id="Group_424" data-name="Group 424" transform="translate(1.162 0.054)">
                  <path id="Path_465" data-name="Path 465" d="M216.141,255.343l2.292-1.369a2.674,2.674,0,0,0-.891-.334l-2.292,1.353a3.136,3.136,0,0,1,.891.35Z" transform="translate(-215.25 -253.64)" fill="#2b3336"/>
                </g>
                <g id="Group_425" data-name="Group 425" transform="translate(0.064 0.005)">
                  <path id="Path_466" data-name="Path 466" d="M215.674,255.011l2.292-1.353a1.614,1.614,0,0,0-1.114.111l-2.292,1.369a1.527,1.527,0,0,1,1.114-.127Z" transform="translate(-214.56 -253.609)" fill="#2b3336"/>
                </g>
                <g id="Group_426" data-name="Group 426" transform="translate(0 0.149)">
                  <path id="Path_467" data-name="Path 467" d="M214.568,255.069l2.292-1.369c-.016.016-.032.032-.048.032l-2.292,1.353c.016.016.032-.016.048-.016Z" transform="translate(-214.52 -253.7)" fill="#2b3336"/>
                </g>
              </g>
            </g>
            <g id="Group_433" data-name="Group 433" transform="translate(2.897 0.388)">
              <path id="Path_469" data-name="Path 469" d="M217.847,262l2.292-1.369a1.939,1.939,0,0,0,.844-1.815,6.341,6.341,0,0,0-2.881-4.966l-2.292,1.369a6.288,6.288,0,0,1,2.881,4.95A1.985,1.985,0,0,1,217.847,262Z" transform="translate(-215.81 -253.85)" fill="#2b3336"/>
              <g id="Group_432" data-name="Group 432" clip-path="url(#clip-path-6)">
                <g id="Group_429" data-name="Group 429" transform="translate(2.037 2.785)">
                  <path id="Path_470" data-name="Path 470" d="M217.09,260.964l2.292-1.369a1.939,1.939,0,0,0,.844-1.815,5.57,5.57,0,0,0-.509-2.181l-2.292,1.369a5.436,5.436,0,0,1,.509,2.165,1.985,1.985,0,0,1-.844,1.831Z" transform="translate(-217.09 -255.6)" fill="#2b3336"/>
                </g>
                <g id="Group_430" data-name="Group 430" transform="translate(1.401 1.226)">
                  <path id="Path_471" data-name="Path 471" d="M217.661,257.549l2.292-1.369a7.967,7.967,0,0,0-.971-1.56l-2.292,1.353a6.364,6.364,0,0,1,.971,1.576Z" transform="translate(-216.69 -254.62)" fill="#2b3336"/>
                </g>
                <g id="Group_431" data-name="Group 431" transform="translate(0 0)">
                  <path id="Path_472" data-name="Path 472" d="M217.211,256.429l2.292-1.353a5.319,5.319,0,0,0-1.4-1.226l-2.292,1.369a5.251,5.251,0,0,1,1.4,1.21Z" transform="translate(-215.81 -253.85)" fill="#2b3336"/>
                </g>
              </g>
            </g>
            <g id="Group_435" data-name="Group 435" transform="translate(0 1.365)">
              <g id="Group_434" data-name="Group 434">
                <path id="Path_474" data-name="Path 474" d="M216.887,254.856c-1.592-.907-2.9-.191-2.9,1.639a6.266,6.266,0,0,0,2.881,4.934c1.592.923,2.9.191,2.913-1.623A6.347,6.347,0,0,0,216.887,254.856Z" transform="translate(-213.99 -254.464)" fill="#353f43"/>
              </g>
            </g>
          </g>
        </g>
        <g id="Group_451" data-name="Group 451" transform="translate(79.975 124.985)">
          <g id="Group_450" data-name="Group 450">
            <g id="Group_442" data-name="Group 442" transform="translate(0.828)">
              <path id="Path_475" data-name="Path 475" d="M241.272,263.8l-2.292,1.353a2.047,2.047,0,0,1,2.053.207l2.292-1.369A2.039,2.039,0,0,0,241.272,263.8Z" transform="translate(-238.98 -263.606)" fill="#2b3336"/>
              <g id="Group_441" data-name="Group 441" clip-path="url(#clip-path-7)">
                <g id="Group_438" data-name="Group 438" transform="translate(1.178 0.038)">
                  <path id="Path_476" data-name="Path 476" d="M240.611,265.333l2.292-1.369a2.673,2.673,0,0,0-.891-.334l-2.292,1.353a3.323,3.323,0,0,1,.891.35Z" transform="translate(-239.72 -263.63)" fill="#2b3336"/>
                </g>
                <g id="Group_439" data-name="Group 439" transform="translate(0.064 -0.011)">
                  <path id="Path_477" data-name="Path 477" d="M240.134,265l2.292-1.353a1.614,1.614,0,0,0-1.114.111l-2.292,1.369a1.538,1.538,0,0,1,1.114-.127Z" transform="translate(-239.02 -263.599)" fill="#2b3336"/>
                </g>
                <g id="Group_440" data-name="Group 440" transform="translate(0.016 0.149)">
                  <path id="Path_478" data-name="Path 478" d="M239.038,265.069l2.292-1.369c-.016.016-.032.032-.048.032l-2.292,1.353a.16.16,0,0,1,.048-.016Z" transform="translate(-238.99 -263.7)" fill="#2b3336"/>
                </g>
              </g>
            </g>
            <g id="Group_447" data-name="Group 447" transform="translate(2.897 0.388)">
              <path id="Path_480" data-name="Path 480" d="M242.317,271.984l2.292-1.369a1.939,1.939,0,0,0,.844-1.815,6.312,6.312,0,0,0-2.881-4.95l-2.292,1.369a6.288,6.288,0,0,1,2.881,4.95A2.008,2.008,0,0,1,242.317,271.984Z" transform="translate(-240.28 -263.85)" fill="#2b3336"/>
              <g id="Group_446" data-name="Group 446" clip-path="url(#clip-path-8)">
                <g id="Group_443" data-name="Group 443" transform="translate(2.037 2.77)">
                  <path id="Path_481" data-name="Path 481" d="M241.56,270.954l2.292-1.369a1.939,1.939,0,0,0,.844-1.815,5.571,5.571,0,0,0-.509-2.181l-2.292,1.369a5.436,5.436,0,0,1,.509,2.165,2.019,2.019,0,0,1-.844,1.831Z" transform="translate(-241.56 -265.59)" fill="#2b3336"/>
                </g>
                <g id="Group_444" data-name="Group 444" transform="translate(1.401 1.21)">
                  <path id="Path_482" data-name="Path 482" d="M242.131,267.539l2.292-1.369a7.965,7.965,0,0,0-.971-1.56l-2.292,1.353a7.632,7.632,0,0,1,.971,1.576Z" transform="translate(-241.16 -264.61)" fill="#2b3336"/>
                </g>
                <g id="Group_445" data-name="Group 445" transform="translate(0 -0.016)">
                  <path id="Path_483" data-name="Path 483" d="M241.681,266.419l2.292-1.353a5.319,5.319,0,0,0-1.4-1.226l-2.292,1.369a5.555,5.555,0,0,1,1.4,1.21Z" transform="translate(-240.28 -263.84)" fill="#2b3336"/>
                </g>
              </g>
            </g>
            <g id="Group_449" data-name="Group 449" transform="translate(0 1.349)">
              <g id="Group_448" data-name="Group 448">
                <path id="Path_485" data-name="Path 485" d="M241.357,264.846c-1.592-.907-2.9-.191-2.9,1.639a6.266,6.266,0,0,0,2.881,4.934c1.592.923,2.9.191,2.913-1.624A6.372,6.372,0,0,0,241.357,264.846Z" transform="translate(-238.46 -264.454)" fill="#353f43"/>
              </g>
            </g>
          </g>
        </g>
        <g id="Group_470" data-name="Group 470" transform="translate(25.65 102.926)">
          <g id="Group_469" data-name="Group 469">
            <g id="Group_454" data-name="Group 454" transform="translate(0 13.995)">
              <path id="Path_486" data-name="Path 486" d="M204.33,260.737v-2.2c0,1.21.8,2.419,2.388,3.343v2.2C205.126,263.156,204.33,261.946,204.33,260.737Z" transform="translate(-204.33 -258.54)" fill="#036991"/>
              <g id="Group_453" data-name="Group 453" clip-path="url(#clip-path-9)">
                <g id="Group_452" data-name="Group 452">
                  <path id="Path_487" data-name="Path 487" d="M206.718,261.883v2.2c-1.592-.923-2.388-2.133-2.388-3.343v-2.2c0,1.21.8,2.419,2.388,3.343Z" transform="translate(-204.33 -258.54)" fill="#036991"/>
                </g>
              </g>
            </g>
            <g id="Group_458" data-name="Group 458" transform="translate(61.774 23.115)">
              <path id="Path_489" data-name="Path 489" d="M245.48,264.27v2.2a4.005,4.005,0,0,1-2.34,3.295v-2.2A4.005,4.005,0,0,0,245.48,264.27Z" transform="translate(-243.14 -264.27)" fill="#036991"/>
              <g id="Group_457" data-name="Group 457" clip-path="url(#clip-path-10)">
                <g id="Group_455" data-name="Group 455" transform="translate(2.101)">
                  <path id="Path_490" data-name="Path 490" d="M244.7,264.27v2.2a2.752,2.752,0,0,1-.239,1.114v-2.2a2.752,2.752,0,0,0,.239-1.114Z" transform="translate(-244.46 -264.27)" fill="#036991"/>
                </g>
                <g id="Group_456" data-name="Group 456" transform="translate(0 1.114)">
                  <path id="Path_491" data-name="Path 491" d="M245.257,264.97v2.2a4.755,4.755,0,0,1-2.117,2.181v-2.2a4.837,4.837,0,0,0,2.117-2.181Z" transform="translate(-243.14 -264.97)" fill="#036991"/>
                </g>
              </g>
            </g>
            <g id="Group_460" data-name="Group 460" transform="translate(45.714 26.41)">
              <g id="Group_459" data-name="Group 459">
                <path id="Path_493" data-name="Path 493" d="M249.11,266.34v2.2l-16.06,9.327.016-2.2Z" transform="translate(-233.05 -266.34)" fill="#036991"/>
              </g>
            </g>
            <g id="Group_462" data-name="Group 462" transform="translate(2.388 17.338)">
              <g id="Group_461" data-name="Group 461">
                <path id="Path_494" data-name="Path 494" d="M237.712,279.04l-.016,2.2-31.866-18.4v-2.2Z" transform="translate(-205.83 -260.64)" fill="#036991"/>
              </g>
            </g>
            <g id="Group_466" data-name="Group 466" transform="translate(34.269 35.738)">
              <g id="Group_465" data-name="Group 465">
                <g id="Group_463" data-name="Group 463" transform="translate(5.587)">
                  <path id="Path_495" data-name="Path 495" d="M235.243,272.2v2.2a11.735,11.735,0,0,1-5.873,1.369v-2.2a11.735,11.735,0,0,0,5.873-1.369Z" transform="translate(-229.37 -272.2)" fill="#036991"/>
                </g>
                <g id="Group_464" data-name="Group 464">
                  <path id="Path_496" data-name="Path 496" d="M231.447,273.569v2.2a11.61,11.61,0,0,1-5.587-1.369v-2.2a11.611,11.611,0,0,0,5.587,1.369Z" transform="translate(-225.86 -272.2)" fill="#036991"/>
                </g>
              </g>
            </g>
            <g id="Group_468" data-name="Group 468" transform="translate(0.002)">
              <g id="Group_467" data-name="Group 467">
                <path id="Path_497" data-name="Path 497" d="M266.071,269.52c3.168,1.83,3.183,4.807.032,6.637l-16.044,9.327a12.645,12.645,0,0,1-11.46,0l-31.882-18.4c-3.167-1.83-3.183-4.807-.032-6.637l16.044-9.327a12.645,12.645,0,0,1,11.46,0Z" transform="translate(-204.331 -249.748)" fill="#019ae6"/>
              </g>
            </g>
          </g>
        </g>
        <g id="Group_472" data-name="Group 472" transform="translate(16.665 56.793)">
          <g id="Group_471" data-name="Group 471">
            <path id="Path_498" data-name="Path 498" d="M210.361,283.662a1.42,1.42,0,0,0,1.417-1.417v-47.1a14.782,14.782,0,0,0-6.59-11.572l-4.361-2.61a1.414,1.414,0,1,0-1.464,2.419l4.361,2.61a11.836,11.836,0,0,1,5.221,9.152v47.1A1.41,1.41,0,0,0,210.361,283.662Z" transform="translate(-198.683 -220.763)" fill="#0583aa"/>
          </g>
        </g>
        <g id="Group_474" data-name="Group 474" transform="translate(44.089 47.371)">
          <g id="Group_473" data-name="Group 473">
            <path id="Path_499" data-name="Path 499" d="M227.591,277.742a1.42,1.42,0,0,0,1.417-1.417v-47.1a14.783,14.783,0,0,0-6.59-11.572l-4.361-2.61a1.414,1.414,0,0,0-1.464,2.419l4.361,2.61a11.836,11.836,0,0,1,5.221,9.152v47.1A1.441,1.441,0,0,0,227.591,277.742Z" transform="translate(-215.913 -214.843)" fill="#0583aa"/>
          </g>
        </g>
        <g id="Group_499" data-name="Group 499" transform="translate(4.668)">
          <g id="Group_496" data-name="Group 496" transform="translate(0 0.59)">
            <g id="Group_478" data-name="Group 478" transform="translate(0 18.51)">
              <g id="Group_477" data-name="Group 477">
                <g id="Group_475" data-name="Group 475" transform="translate(0.254)">
                  <path id="Path_500" data-name="Path 500" d="M213.422,209.034c-.032,1-.191,2.4-.382,4.059-.159,1.433-.35,3.04-.493,4.759a51.709,51.709,0,0,0-.175,7.051c.048,1.035.191,7.481.239,8.07.111,1.544-19.8,6.988-21.265,5.078-.3-.4,1.21-9.8,1.878-16.188.7-6.59-.987-9.662-1.369-14.134,0-.08-.016-.143-.016-.223-.191-2.563-.207-4.345.35-5.73.127-.318-.159-.446.032-.716a6.682,6.682,0,0,1,1.974-1h0a20.24,20.24,0,0,1,3.024-1.273,37.3,37.3,0,0,1,9.471-1.7h.1c.175,0,.35.016.525.032.08.016.175.016.255.032a8.9,8.9,0,0,1,1.273.223,14.32,14.32,0,0,1,1.544.478c.016,0,.032.016.048.016a4.567,4.567,0,0,1,1.926,1.162C214.217,201.409,213.469,207.442,213.422,209.034Z" transform="translate(-191.305 -197.08)" fill="#c1cdeb"/>
                </g>
                <g id="Group_476" data-name="Group 476" transform="translate(0 12.72)">
                  <path id="Path_501" data-name="Path 501" d="M197.344,222.419c.462-4.7-1.751-12.352,2.945-14.309,3.231-1.353,13.1-4.743,13.1-1.99,0,1.433-.732,21.536-.7,22.125.111,1.544-19.8,6.988-21.265,5.078a18.414,18.414,0,0,1-.048-6.43C194.018,226.684,197.058,225.873,197.344,222.419Z" transform="translate(-191.146 -205.072)" fill="#41ba03"/>
                </g>
                <path id="Path_502" data-name="Path 502" d="M206.664,210.1a1.141,1.141,0,0,1,.939.255,18.609,18.609,0,0,1,.573,5.666c-.525,6.048-11.062,5.364-11.19-.509a12.042,12.042,0,0,1,.08-3.549C197.623,210.165,205.12,210.165,206.664,210.1Z" transform="translate(-187.747 -189.378)" fill="#348a0b"/>
              </g>
            </g>
            <g id="Group_479" data-name="Group 479" transform="translate(16.258 18.542)">
              <path id="Path_503" data-name="Path 503" d="M206.183,214.052c-.669,1.608-1.783-.509-2.865-1.242.478-1.7,1.337-11.81-1.958-15.71.08.016.175.016.255.032a8.89,8.89,0,0,1,1.273.223,14.326,14.326,0,0,1,1.544.478C206.644,202.575,206.708,212.778,206.183,214.052Z" transform="translate(-201.36 -197.1)" fill="#41ba03"/>
            </g>
            <g id="Group_482" data-name="Group 482" transform="translate(7.647 16.855)">
              <g id="Group_481" data-name="Group 481">
                <g id="Group_480" data-name="Group 480">
                  <path id="Path_504" data-name="Path 504" d="M198.847,201.324c-1.178-.271-2.451-1-2.658-1.735a21.315,21.315,0,0,1-.239-3.549h7.1s.1,2.674-.016,3.549C202.906,200.672,200.614,201.754,198.847,201.324Z" transform="translate(-195.95 -196.04)" fill="#e0b29d"/>
                </g>
              </g>
            </g>
            <g id="Group_485" data-name="Group 485" transform="translate(7.647 16.871)">
              <g id="Group_484" data-name="Group 484">
                <g id="Group_483" data-name="Group 483">
                  <path id="Path_505" data-name="Path 505" d="M197.749,199.568a5.565,5.565,0,0,0,2.642,1.194,7.317,7.317,0,0,0,1.56.064,1.878,1.878,0,0,0,1.082-1.226c.111-.875.016-3.549.016-3.549h-7.1s0,1.066.064,2.085C196.6,198.581,197.16,199.09,197.749,199.568Z" transform="translate(-195.95 -196.05)" fill="#e0b29d" opacity="0.3"/>
                </g>
              </g>
            </g>
            <g id="Group_492" data-name="Group 492" transform="translate(2.659)">
              <g id="Group_489" data-name="Group 489">
                <g id="Group_486" data-name="Group 486" transform="translate(2.241 3.319)">
                  <path id="Path_506" data-name="Path 506" d="M204.691,204.557a4.4,4.4,0,0,1-3.327.477,8.45,8.45,0,0,1-4.138-2.212c-1.019-1-2.674-4.918-2.913-6.494-.032-.271-.064-.525-.08-.764-.223-4.282,3.677-4.982,6.765-6.972,3.263-2.117,7.1-1.162,7.067,3.868C208.049,197.474,207.54,202.663,204.691,204.557Z" transform="translate(-194.224 -187.536)" fill="#e9c2b0"/>
                </g>
                <g id="Group_487" data-name="Group 487" transform="translate(4.096 3.323)" opacity="0.2">
                  <path id="Path_507" data-name="Path 507" d="M200.324,188.591c-1.671,1.082-3.565,1.783-4.934,2.865a13.872,13.872,0,0,0,1.114,3.327,22.806,22.806,0,0,0,1.13,2.133,5.654,5.654,0,0,0,1.114,1.48c1.194,1,3.12.621,4.5.334a14.657,14.657,0,0,1,2.435-.589c1.719-.032,0,2.738-.366,3.327a5.388,5.388,0,0,1-6.43,2.2c-.875-.3-1.719-.7-2.563-1.066.08.1.143.175.207.239a8.581,8.581,0,0,0,4.138,2.212,4.408,4.408,0,0,0,3.327-.478c2.849-1.894,3.359-7.083,3.374-12.1C207.423,187.445,203.587,186.474,200.324,188.591Z" transform="translate(-195.39 -187.539)" fill="#e9c2b0"/>
                </g>
                <g id="Group_488" data-name="Group 488">
                  <path id="Path_508" data-name="Path 508" d="M208.914,193.535c-.271-.016.064-2.1-3.247.366-1.958,1.448-3.979-1.385-4.743-.493-.669.78-.35,1.242-.255,2.706.048.7-1.942,2.069-2.292,1.926-.6-.239.446.7.127,1.146-.844,1.178-.828,3.932-.668,4.616a9.649,9.649,0,0,1-2.228-2.706c-.08-.159-.175-.318-.255-.478a7.3,7.3,0,0,1-1-1.592,15.76,15.76,0,0,1-1.369-3.9c-1.13-6.558,3.916-7,3.916-7s4.138-4.759,9.184-1.576C208.771,188.235,209.376,193.567,208.914,193.535Z" transform="translate(-192.816 -185.451)" fill="#664133"/>
                </g>
              </g>
              <g id="Group_490" data-name="Group 490" transform="translate(2.872 11.11)">
                <path id="Path_509" data-name="Path 509" d="M197.994,195.979c-.557.525-1.7.207-2.547-.7s-1.082-2.069-.525-2.594,1.7-.207,2.547.7C198.328,194.292,198.551,195.454,197.994,195.979Z" transform="translate(-194.621 -192.431)" fill="#e9c2b0"/>
              </g>
              <g id="Group_491" data-name="Group 491" transform="translate(3.735 11.917)" opacity="0.2">
                <path id="Path_510" data-name="Path 510" d="M196.607,194.708c-.286.207-.8.016-1.146-.462-.35-.462-.4-1.019-.111-1.226s.8-.016,1.146.462C196.846,193.944,196.893,194.5,196.607,194.708Z" transform="translate(-195.163 -192.938)" fill="#e9c2b0"/>
              </g>
            </g>
            <g id="Group_493" data-name="Group 493" transform="translate(3.461 20.213)">
              <path id="Path_511" data-name="Path 511" d="M203.013,212.746c-.032,1.576-1.671,1.815-2.833,1.544-2.324-13.291-6.86-15.042-6.86-15.042a15.9,15.9,0,0,1,2.69-1.1C199.719,200.713,203.029,211.377,203.013,212.746Z" transform="translate(-193.32 -198.15)" fill="#41ba03"/>
            </g>
            <g id="Group_494" data-name="Group 494" transform="translate(10.655 33.615)">
              <path id="Path_512" data-name="Path 512" d="M200,207.6a1.083,1.083,0,1,1-1.082-1.035A1.064,1.064,0,0,1,200,207.6Z" transform="translate(-197.84 -206.57)" fill="#f4aa35"/>
            </g>
            <g id="Group_495" data-name="Group 495" transform="translate(18.805 32.819)">
              <path id="Path_513" data-name="Path 513" d="M205.125,207.1a1.083,1.083,0,1,1-1.082-1.035A1.064,1.064,0,0,1,205.125,207.1Z" transform="translate(-202.96 -206.07)" fill="#f4aa35"/>
            </g>
          </g>
          <g id="Group_497" data-name="Group 497" transform="translate(2.633)">
            <path id="Path_514" data-name="Path 514" d="M204.213,197.129a11.777,11.777,0,0,0,4.95-1.576c.191-.684.716-1.051.716-1.8a9,9,0,0,0-8.754-8.675A8.321,8.321,0,0,0,192.8,193.4a7.6,7.6,0,0,0,.064,1.21c3.279-.207,4.393,2.006,6.367,2.531C201,197.623,202.287,197.272,204.213,197.129Z" transform="translate(-192.8 -185.08)" fill="#44a511"/>
          </g>
          <g id="Group_498" data-name="Group 498" transform="translate(9.091 8.041)">
            <path id="Path_515" data-name="Path 515" d="M199.822,196.4a8.007,8.007,0,0,0,2.308-.1,16.561,16.561,0,0,0,4.314-1.433c1-.462,2.053-.891,3.008-1.448a.944.944,0,0,0,.239-1.448,9.356,9.356,0,0,0-2.244-1.8c-.764-.366-9.009,1.576-10.585,3.979a7.665,7.665,0,0,0,2.149,2.037A3.8,3.8,0,0,0,199.822,196.4Z" transform="translate(-196.857 -190.132)" fill="#41ba03"/>
          </g>
        </g>
        <g id="Group_503" data-name="Group 503" transform="translate(0 22.84)">
          <g id="Group_500" data-name="Group 500" transform="translate(18.332 33.123)">
            <path id="Path_516" data-name="Path 516" d="M202.118,220.24c-1.433.621-2.356,2.913-2.388,3.772a19.006,19.006,0,0,0,2.34,2.006c1.5,1.1,3.343,2.117,4.711,1.894,2.9-.462,2.849-1.687,2.451-2.9C208.659,223.185,202.977,222.309,202.118,220.24Z" transform="translate(-199.73 -220.24)" fill="#deb09d"/>
          </g>
          <g id="Group_501" data-name="Group 501" transform="translate(0.097 21.504)">
            <path id="Path_517" data-name="Path 517" d="M211.316,225.817l-17.907-12.383a.12.12,0,0,0-.064-.032,3.37,3.37,0,1,0-3.39,5.826l17.907,11.826Z" transform="translate(-188.274 -212.94)" fill="#c1cdeb"/>
          </g>
          <g id="Group_502" data-name="Group 502">
            <path id="Path_518" data-name="Path 518" d="M188.224,223.465c-.271,4.68,4.282,5.157,6.7.669l2.61-20.326a3.939,3.939,0,0,0-3.454-4.361h0c-2.149-.239-4.091,2.324-4.345,4.489Z" transform="translate(-188.213 -199.43)" fill="#c1cdeb"/>
          </g>
        </g>
      </g>
      <g id="Group_518" data-name="Group 518" transform="translate(32.383 87.872)">
        <g id="Group_513" data-name="Group 513">
          <g id="Group_511" data-name="Group 511">
            <g id="Group_510" data-name="Group 510">
              <g id="Group_505" data-name="Group 505" transform="translate(27.409 15.949)">
                <path id="Path_519" data-name="Path 519" d="M249.035,250.31l-.064,20.278L225.78,284.07l.048-20.278Z" transform="translate(-225.78 -250.31)" fill="#c5975b"/>
              </g>
              <g id="Group_507" data-name="Group 507" transform="translate(0 13.482)">
                <g id="Group_506" data-name="Group 506">
                  <path id="Path_520" data-name="Path 520" d="M236.017,264.709l-.048,20.278L208.56,269.038l.064-20.278Z" transform="translate(-208.56 -248.76)" fill="#daaf6a"/>
                </g>
              </g>
              <g id="Group_509" data-name="Group 509" transform="translate(0.064)">
                <g id="Group_508" data-name="Group 508">
                  <path id="Path_521" data-name="Path 521" d="M259.2,256.239l-9.025,5.253-4.807,2.785-9.375,5.444L233.033,268,215.253,257.64l-6.653-3.868,9.359-5.444,4.807-2.785,9.025-5.253,6.733,3.916,17.8,10.362Z" transform="translate(-208.6 -240.29)" fill="#efd996"/>
                </g>
              </g>
            </g>
          </g>
          <g id="Group_512" data-name="Group 512" transform="translate(9.423 5.253)">
            <path id="Path_522" data-name="Path 522" d="M219.287,243.59l-4.807,2.785,27.409,15.949,4.807-2.785Z" transform="translate(-214.48 -243.59)" fill="#f7ecea"/>
          </g>
          <path id="Path_523" data-name="Path 523" d="M231.71,256.4l4.791-2.785v4.839l-4.791,2.77Z" transform="translate(-194.862 -232.409)" fill="#c2ab9d"/>
        </g>
        <g id="Group_515" data-name="Group 515" transform="translate(43.358 30.161)">
          <g id="Group_514" data-name="Group 514" transform="translate(1.21 1.53)">
            <path id="Path_524" data-name="Path 524" d="M240.189,262.32v.478l-3.629,2.085v-.477Z" transform="translate(-236.56 -258.946)" fill="#5c4123"/>
            <path id="Path_525" data-name="Path 525" d="M238.7,263.7l-.414.239v-2.563l-.4.239.6-1.417.6.716-.4.239Z" transform="translate(-235.773 -260.2)" fill="#5c4123"/>
            <path id="Path_526" data-name="Path 526" d="M237.568,264.362l-.414.239v-2.563l-.414.239.621-1.417.6.716-.4.223Z" transform="translate(-236.454 -259.81)" fill="#5c4123"/>
          </g>
          <path id="Path_527" data-name="Path 527" d="M240.607,259.432l-3.565,2.053a2.583,2.583,0,0,0-1.242,1.958v3.549c0,.684.557.923,1.242.525l3.565-2.053a2.583,2.583,0,0,0,1.242-1.958v-3.55C241.848,259.272,241.291,259.034,240.607,259.432Zm.987,4.234a2.1,2.1,0,0,1-.987,1.576l-3.565,2.053c-.541.318-.987.127-.987-.414v-3.565a2.1,2.1,0,0,1,.987-1.576l3.565-2.053c.541-.318.987-.127.987.414Z" transform="translate(-235.8 -259.239)" fill="#5c4123"/>
        </g>
        <g id="Group_516" data-name="Group 516" transform="translate(36.354 34.204)">
          <path id="Path_528" data-name="Path 528" d="M231.864,266.5c.016,0,.016-.016.016-.032,0-.08.3-.334.748-.589.43-.255.748-.35.748-.271,0,.016.016.016.016,0,.016,0,.016-.016.016-.032a1.888,1.888,0,0,1,.621-.525v1.958l.016.239c.048.239.255.271.525.127a1.063,1.063,0,0,0,.525-.812c0-.064-.048-.1-.111-.064a.243.243,0,0,0-.111.191.535.535,0,0,1-.286.414c-.318.175-.286-.207-.286-.207v-2.006c.366-.207.621-.271.621-.191,0,.016.016.016.016,0,.016,0,.016-.016.016-.032,0-.08.3-.334.748-.589s.748-.35.748-.271c0,.016.016.016.016,0,.016,0,.016-.016.016-.032-.032-.875-.987-1.226-2.133-.653h0c0-.064-.08-.064-.175-.016a.3.3,0,0,0-.175.207h0a4.767,4.767,0,0,0-2.133,3.12C231.849,266.5,231.849,266.5,231.864,266.5Z" transform="translate(-231.132 -261.149)" fill="#5c4123"/>
          <path id="Path_529" data-name="Path 529" d="M236.207,261.972l-3.565,2.053a2.583,2.583,0,0,0-1.242,1.958v3.565c0,.684.557.923,1.242.525l3.565-2.053a2.583,2.583,0,0,0,1.242-1.958V262.5C237.448,261.813,236.891,261.574,236.207,261.972Zm.987,4.234a2.1,2.1,0,0,1-.987,1.576l-3.565,2.053c-.541.318-.987.127-.987-.414v-3.565a2.1,2.1,0,0,1,.987-1.576l3.565-2.053c.541-.318.987-.127.987.414Z" transform="translate(-231.4 -261.779)" fill="#5c4123"/>
        </g>
        <g id="Group_517" data-name="Group 517" transform="translate(29.351 38.246)">
          <path id="Path_530" data-name="Path 530" d="M228.31,267.673c.016.557.382.8.86.557v1.751l-.6.35v.223l1.369-.8v-.223l-.6.35v-1.751a2.1,2.1,0,0,0,.859-1.56V265.27l-1.878,1.082Z" transform="translate(-226.225 -263.756)" fill="#5c4123"/>
          <path id="Path_531" data-name="Path 531" d="M231.807,264.512l-3.565,2.053A2.583,2.583,0,0,0,227,268.523v3.55c0,.684.557.923,1.242.525l3.565-2.053a2.583,2.583,0,0,0,1.242-1.958v-3.565C233.048,264.353,232.491,264.114,231.807,264.512Zm.987,4.234a2.1,2.1,0,0,1-.987,1.576l-3.565,2.053c-.541.318-.987.127-.987-.414v-3.549a2.1,2.1,0,0,1,.987-1.576l3.565-2.053c.541-.318.987-.127.987.414Z" transform="translate(-227 -264.319)" fill="#5c4123"/>
        </g>
      </g>
      <g id="Group_520" data-name="Group 520" transform="translate(39.037 91.789)" opacity="0.6">
        <g id="Group_519" data-name="Group 519">
          <path id="Path_532" data-name="Path 532" d="M253.87,253.112l-8.452,4.871-.6.35-3.088,1.783-1.735,1-9.407,5.428-.032.016L212.74,256.216l.064-.032,9.391-5.428,1.671-.955,3.152-1.815.541-.318,8.516-4.918Z" transform="translate(-212.74 -242.75)" fill="#c2ab9d"/>
        </g>
      </g>
      <g id="Group_536" data-name="Group 536" transform="translate(34.548 75.634)">
        <g id="Group_535" data-name="Group 535">
          <g id="Group_528" data-name="Group 528">
            <g id="Group_527" data-name="Group 527">
              <g id="Group_522" data-name="Group 522" transform="translate(0 15.01)">
                <g id="Group_521" data-name="Group 521">
                  <path id="Path_533" data-name="Path 533" d="M227.763,267.943l-7.242-4.2-3.677-2.133-6.892-4.011-.032-15.567,6.924,4.027.462.271,10.41,6.048Z" transform="translate(-209.92 -242.03)" fill="#bb884f"/>
                </g>
              </g>
              <g id="Group_524" data-name="Group 524" transform="translate(17.795 10.346)">
                <g id="Group_523" data-name="Group 523">
                  <path id="Path_534" data-name="Path 534" d="M247.14,254.667l-11.158,6.446-3.709,2.133-11.126,6.43L221.1,254.11l11.174-6.446,3.709-2.133,11.11-6.43Z" transform="translate(-221.1 -239.1)" fill="#e0b477"/>
                </g>
              </g>
              <g id="Group_526" data-name="Group 526">
                <g id="Group_525" data-name="Group 525">
                  <path id="Path_535" data-name="Path 535" d="M253.708,242.946l-11.11,6.43-3.709,2.133-11.174,6.446-17.8-10.346,11.11-6.415,3.709-2.133,11.174-6.462Z" transform="translate(-209.92 -232.6)" fill="#efcd90"/>
                </g>
              </g>
            </g>
          </g>
          <g id="Group_531" data-name="Group 531" transform="translate(10.617 6.765)" opacity="0.5">
            <g id="Group_530" data-name="Group 530">
              <g id="Group_529" data-name="Group 529">
                <path id="Path_536" data-name="Path 536" d="M238.158,247.164l-3.709,2.133L216.59,238.983l3.709-2.133Z" transform="translate(-216.59 -236.85)" fill="#e4cdbf"/>
              </g>
            </g>
          </g>
          <path id="Path_537" data-name="Path 537" d="M231.519,243.33v15.583l-3.709,2.133V245.463Z" transform="translate(-199.334 -226.251)" fill="#e4cdbf" opacity="0.5"/>
          <path id="Path_538" data-name="Path 538" d="M231.813,243.14v15.6l-3.693,2.133v-15.6Z" transform="translate(-199.151 -226.363)" fill="#c2ab9d"/>
          <g id="Group_532" data-name="Group 532" transform="translate(11.11 6.462)">
            <path id="Path_539" data-name="Path 539" d="M238.468,246.974l-3.709,2.133L216.9,238.793l3.709-2.133Z" transform="translate(-216.9 -236.66)" fill="#f7ecea"/>
          </g>
          <g id="Group_533" data-name="Group 533" transform="translate(7.37 4.282)" opacity="0.6">
            <path id="Path_540" data-name="Path 540" d="M240.543,235.29l3.693,2.149-26.008,15.01L214.55,250.3Z" transform="translate(-214.55 -235.29)" fill="#f7ecea"/>
          </g>
          <path id="Path_541" data-name="Path 541" d="M218.227,246.869V262.4l-3.677-2.133V244.72l.462.271Z" transform="translate(-207.18 -225.429)" fill="#c2ab9d" opacity="0.6"/>
          <g id="Group_534" data-name="Group 534" transform="translate(6.924 4.027)">
            <path id="Path_542" data-name="Path 542" d="M240.262,235.13l3.677,2.149-25.992,15.01-3.677-2.149Z" transform="translate(-214.27 -235.13)" fill="#f7ecea"/>
          </g>
          <path id="Path_543" data-name="Path 543" d="M217.947,246.709v15.535l-3.677-2.133V244.56l.462.271Z" transform="translate(-207.346 -225.523)" fill="#c2ab9d"/>
        </g>
      </g>
      <g id="Group_538" data-name="Group 538" transform="translate(44.561 78.977)">
        <g id="Group_537" data-name="Group 537">
          <path id="Path_544" data-name="Path 544" d="M244.447,242.977l-13.991,8.086-14.246-8.277L230.2,234.7Z" transform="translate(-216.21 -234.7)" fill="#e4cdbf"/>
        </g>
      </g>
      <g id="Group_546" data-name="Group 546" transform="translate(44.768 66.466)">
        <g id="Group_544" data-name="Group 544">
          <g id="Group_543" data-name="Group 543">
            <g id="Group_539" data-name="Group 539" transform="translate(13.243 7.608)">
              <path id="Path_545" data-name="Path 545" d="M237.712,231.62l-.064,13.291-12.988,7.513.064-13.291Z" transform="translate(-224.66 -231.62)" fill="#e0b477"/>
            </g>
            <g id="Group_540" data-name="Group 540" transform="translate(0 7.417)">
              <path id="Path_546" data-name="Path 546" d="M229.647,239.2l-.064,13.291-13.243-7.688L216.4,231.5Z" transform="translate(-216.34 -231.5)" fill="#bb884f"/>
            </g>
            <g id="Group_542" data-name="Group 542" transform="translate(0.127)">
              <g id="Group_541" data-name="Group 541">
                <path id="Path_547" data-name="Path 547" d="M242.635,234.528l-12.972,7.513-13.243-7.688,12.988-7.513Z" transform="translate(-216.42 -226.84)" fill="#efcd90"/>
              </g>
            </g>
          </g>
        </g>
        <g id="Group_545" data-name="Group 545" transform="translate(5.316 2.833)">
          <path id="Path_548" data-name="Path 548" d="M222.37,228.62l-2.69,1.56,13.243,7.688,2.674-1.56Z" transform="translate(-219.68 -228.62)" fill="#f7ecea"/>
        </g>
        <path id="Path_549" data-name="Path 549" d="M228,235.01l2.674-1.56v2.706L228,237.7Z" transform="translate(-209.441 -222.929)" fill="#c2ab9d"/>
      </g>
    </g>
  </g>
</svg>
