<?xml version="1.0" encoding="utf-8"?>
<!-- Generator: Adobe Illustrator 24.0.1, SVG Export Plug-In . SVG Version: 6.00 Build 0)  -->
<svg version="1.1" id="Layer_1" xmlns="http://www.w3.org/2000/svg" xmlns:xlink="http://www.w3.org/1999/xlink" x="0px" y="0px"
	 viewBox="0 0 1660.4 730.8" style="enable-background:new 0 0 1660.4 730.8;" xml:space="preserve">
<style type="text/css">
	.st0{opacity:0.1;fill:#41BA03;enable-background:new    ;}
	.st1{font-family:'SegoeUI';}
	.st2{font-size:65.1325px;}
	.st3{font-size:76.9303px;}
	.st4{fill:none;stroke:#DDDDDD;stroke-width:2.506;stroke-miterlimit:10;}
	.st5{fill:#C1C1C1;}
	.st6{font-family:'Montserrat-Regular';}
	.st7{font-size:18.2371px;}
	.st8{font-family:'Montserrat-SemiBold';}
	.st9{fill:#FFFFFF;}
	.st10{fill:#FFB617;}
	.st11{fill:#FF9805;}
	.st12{fill:#41BA03;}
	.st13{fill:#019AE6;}
	.st14{fill:none;stroke:#41BA03;stroke-width:2;stroke-miterlimit:10;}
</style>
<g id="experience_illustration" transform="translate(-58 -42)">
	<text transform="matrix(1.1811 0 0 1 1247.2529 104.2331)" class="st0 st1 st2">WE ARE</text>
	<text transform="matrix(6.123234e-17 0.8466 -1 5.184194e-17 1655.0723 59.2927)" class="st0 st1 st3">STILL GROWING</text>
	<g id="Group_2499" transform="translate(53.979 111.1)">
		<g id="Group_2499-2" transform="translate(-216.079 250.211)">
			<path id="Path_2999" class="st4" d="M220.1,355.3"/>
			<line id="Line_49" class="st4" x1="220.1" y1="355.3" x2="1836.3" y2="355.3"/>
			<g id="Group_2498" transform="translate(199.266 -223.102)">
				<g id="Group_2484">
					<g id="Group_2483">
						<text transform="matrix(1.1811 0 0 1 55.5576 610.4211)" class="st5 st6 st7">‘05</text>
						<text transform="matrix(1.1811 0 0 1 156.3945 610.4211)" class="st5 st6 st7">‘06</text>
						<text transform="matrix(1.1811 0 0 1 259.6875 610.4211)" class="st5 st6 st7">‘07</text>
						<text transform="matrix(1.1811 0 0 1 359.8887 610.4211)" class="st5 st6 st7">‘08</text>
						<text transform="matrix(1.1811 0 0 1 460.3711 610.4211)" class="st5 st6 st7">‘09</text>
						<text transform="matrix(1.1811 0 0 1 561.46 610.4211)" class="st5 st6 st7">‘10</text>
						<text transform="matrix(1.1811 0 0 1 667.0078 610.4211)" class="st5 st6 st7">‘11</text>
						<text transform="matrix(1.1811 0 0 1 763.1055 610.4211)" class="st5 st6 st7">‘12</text>
						<text transform="matrix(1.1811 0 0 1 864.7373 610.4211)" class="st5 st6 st7">‘13</text>
						<text transform="matrix(1.1811 0 0 1 964.9121 610.4211)" class="st5 st6 st7">‘14</text>
						<text transform="matrix(1.1811 0 0 1 1065.2568 610.4211)" class="st5 st6 st7">‘15</text>
						<text transform="matrix(1.1811 0 0 1 1164.5566 610.4211)" class="st5 st6 st7">‘16</text>
						<text transform="matrix(1.1811 0 0 1 1264.9219 610.4211)" class="st5 st6 st7">‘17</text>
						<text transform="matrix(1.1811 0 0 1 1365.6563 610.4211)" class="st5 st6 st7">‘18</text>
						<text transform="matrix(1.1811 0 0 1 1466.4229 610.4211)" class="st5 st6 st7">‘19</text>
						<text transform="matrix(1.1811 0 0 1 44.6563 533.4788)" class="st5 st6 st7">30</text>
						<text transform="matrix(1.1811 0 0 1 327.541 498.3518)" class="st5 st6 st7">584</text>
						<text transform="matrix(1.1811 0 0 1 515.6777 458.6096)" class="st5 st6 st7">2,477</text>
						<text transform="matrix(1.1811 0 0 1 720.5059 398.8459)" class="st5 st6 st7">7,691</text>
						<text transform="matrix(1.1811 0 0 1 1110.3291 221.1531)" class="st5 st6 st7">17,055</text>
						<text transform="matrix(1.1811 0 0 1 1369.2939 47.4363)" class="st5 st6 st7">45,032</text>
						<text transform="matrix(1.1811 0 0 1 1576.4365 609.7522)" class="st5 st8 st7">YEAR</text>
						<text transform="matrix(1.1811 0 0 1 1516.5195 36.5866)" class="st5 st8 st7">MOVES</text>
					</g>
				</g>
				<g id="Group_2497" transform="translate(47.91 12.356)">
					<g id="Group_2485" transform="translate(0 375.375)">
						<path id="Path_3000" class="st9" d="M69.2,165.2"/>
						<path id="Path_3006" class="st10" d="M11.5,179.6h32.9v10.9H11.5V179.6z"/>
					</g>
					<g id="Group_2486" transform="translate(65.011 375.374)">
						<path id="Path_3007" class="st11" d="M46.5,171.7h32.9v19H46.5V171.7z"/>
					</g>
					<g id="Group_2487" transform="translate(131.578 363.549)">
						<path id="Path_3008" class="st12" d="M82.4,169.4h32.9v33.1H82.4V169.4z"/>
					</g>
					<g id="Group_2488" transform="translate(196.588 347.995)">
						<path id="Path_3009" class="st13" d="M117.4,168.6h32.9V218h-32.9V168.6z"/>
					</g>
					<path id="Path_3010" class="st10" d="M414.3,492.5h32.9V566h-32.9V492.5z"/>
					<g id="Group_2489" transform="translate(326.773 312.792)">
						<path id="Path_3011" class="st11" d="M187.5,159.3h32.9v93.9h-32.9V159.3z"/>
					</g>
					<g id="Group_2490" transform="translate(391.784 304.605)">
						<path id="Path_3012" class="st12" d="M222.5,156.7h32.9v104.7h-32.9V156.7z"/>
					</g>
					<path id="Path_3014" class="st10" d="M814.7,390.9h32.9V566h-32.9V390.9z"/>
					<g id="Group_2491" transform="translate(586.98 208.798)">
						<path id="Path_3015" class="st11" d="M327.7,134.3h32.9v222.9h-32.9V134.3z"/>
					</g>
					<g id="Group_2492" transform="translate(651.99 173.562)">
						<path id="Path_3016" class="st12" d="M362.7,125h32.9v267.6h-32.9V125z"/>
					</g>
					<g id="Group_2493" transform="translate(717.001 143.276)">
						<path id="Path_3017" class="st13" d="M397.7,109.3h32.9v313.4h-32.9V109.3z"/>
					</g>
					<path id="Path_3018" class="st10" d="M1215,199h32.9v367H1215V199z"/>
					<g id="Group_2494" transform="translate(847.186 65.815)">
						<path id="Path_3019" class="st11" d="M467.8,71.5h32.9v428.7h-32.9V71.5z"/>
					</g>
					<g id="Group_2495" transform="translate(912.196)">
						<rect id="Rectangle_623" x="502.8" y="51.6" class="st12" width="32.9" height="514.4"/>
					</g>
					<g id="Group_2496" transform="translate(456.795 276.94)">
						<path id="Path_3013" class="st13" d="M257.5,149.2h32.9v139.9h-32.9V149.2z"/>
					</g>
				</g>
			</g>
		</g>
		<g id="Group_2509">
			<g id="Group_2508">
				<path id="Path_3020" class="st14" d="M5.5,576.7C219.2,567.2,565,527.6,937.9,367c212.2-91.4,413-226.1,537.7-321.5"/>
				<g id="Group_2507">
					<path id="Path_3021" class="st12" d="M1499.7,27l-21.5,37.8l-4.5-18l-20.6-5.6L1499.7,27z"/>
				</g>
			</g>
		</g>
	</g>
</g>
</svg>
