<svg xmlns="http://www.w3.org/2000/svg" width="131.168" height="150" viewBox="0 0 131.168 150">
  <g id="experience_number_illustration" data-name="experience number illustration" transform="translate(0 0)">
    <path id="Path_658" data-name="Path 658" d="M310.935,237.679c1.128,2.968,5.669,6.589,10.923,8.488,19.235,7,27.487,6.5,33.6,24.427a84.787,84.787,0,0,1-29.92,20.539H261.513A84.931,84.931,0,0,1,233.7,272.761c.5-30.986,34.64-12.97,42.684-35.082,1.514-4.155,1.573-10.685.623-14.959l16.652.326,16.652-.326C309.362,226.994,309.392,233.524,310.935,237.679Z" transform="translate(-227.942 -153.657)" fill="#f0c17d" fill-rule="evenodd"/>
    <path id="Path_659" data-name="Path 659" d="M271.272,237.718c.89,2.374,3.947,5.283,8.014,7.034,19.945,8.7,34.4,8.162,36.506,25.851a84.778,84.778,0,0,1-29.918,20.539H253.85V223.026h.178l16.651-.327C269.7,227.033,269.729,233.563,271.272,237.718Z" transform="translate(-188.275 -153.697)" fill="#e0af6a" fill-rule="evenodd"/>
    <path id="Path_660" data-name="Path 660" d="M272.959,269.344h-.267c-3.473.03-5.194-.03-7.064-.831-1.81-.772-2.7-2.552-5.194-4.957-2.137-2.048-5.936-4.126-6.856-6.352-1.128-2.7-.861-5.669-1.336-9.616-1.959,1.1-4.1-4.571-4.511-6.411-.623-2.731-2.582-7.361-3.205-10.507-.356-1.781-.148-3.205.475-3.651,1.306-.979,2.671-.416,4.66,2.374a51.708,51.708,0,0,1,.326-10.121c2.731-15.612,40.869-24.367,45.143-.059a54.2,54.2,0,0,1,.356,10.151c1.959-2.731,3.324-3.295,4.63-2.315.594.445.8,1.87.475,3.651-.623,3.116-2.582,7.776-3.205,10.507-.416,1.84-2.493,7.361-4.422,6.441-.445,3.829-.208,6.708-1.306,9.379-.92,2.226-4.719,4.363-6.826,6.411-2.493,2.434-3.354,4.215-5.164,5.016C277.826,269.225,276.164,269.315,272.959,269.344Z" transform="translate(-206.974 -190.323)" fill="#ffdba7" fill-rule="evenodd"/>
    <path id="Path_661" data-name="Path 661" d="M254.266,269.338h-.416V204.22c10.24-.89,20.479,3.057,22.587,14.988a54.216,54.216,0,0,1,.356,10.151c1.959-2.731,3.324-3.294,4.63-2.315.594.445.8,1.87.475,3.651-.623,3.116-2.582,7.776-3.205,10.507-.416,1.84-2.493,7.361-4.422,6.441-.445,3.829-.208,6.708-1.306,9.379-.92,2.226-4.719,4.363-6.826,6.411-2.493,2.434-3.354,4.215-5.164,5.016C259.133,269.219,257.471,269.308,254.266,269.338Z" transform="translate(-188.279 -190.317)" fill="#f0c17d" fill-rule="evenodd"/>
    <path id="Path_662" data-name="Path 662" d="M253.689,224.494c-3.235,3.858-4.007,18.966-3.8,24.219-5.461-19.826-8.4-34.013,3.473-42.917,15.582-11.724,33.093-4.452,35.913.3,11.456,6.322,7.479,24.13,4.036,39.831-.089-6.055-2.968-20.509-5.194-26.623C279.421,213.809,262.088,230.1,253.689,224.494Z" transform="translate(-205.453 -199.431)" fill="#703100" fill-rule="evenodd"/>
    <path id="Path_663" data-name="Path 663" d="M253.85,199.469c9.112-.267,16.5,3.651,18.283,6.619,11.456,6.322,7.479,24.13,4.036,39.831-.089-6.055-2.968-20.509-5.194-26.623-4.3-2.7-10.714-.119-17.1,2.552V199.469Z" transform="translate(-188.279 -199.456)" fill="#4f2200" fill-rule="evenodd"/>
    <path id="Path_664" data-name="Path 664" d="M317.217,228.66a2.085,2.085,0,0,0,.3.237l.178-.03v.178c10.537,8.756,30.959,4.571,40.933,19.233,5.521,8.1,4.007,24.189,4.3,43.689H231.76c.3-19.5-1.217-35.616,4.3-43.689,10.122-14.87,31.019-10.358,41.407-19.618l.119.386,19.858,2.137,19.68-2.2Z" transform="translate(-231.76 -141.968)" fill="#019ae6" fill-rule="evenodd"/>
    <path id="Path_665" data-name="Path 665" d="M273.716,228.66a2.1,2.1,0,0,0,.3.237l.178-.03v.178c10.536,8.756,30.956,4.571,40.929,19.233,5.521,8.1,4.007,24.189,4.3,43.689H253.86V231.123h.119l19.678-2.2Z" transform="translate(-188.255 -141.968)" fill="#019ae6" fill-rule="evenodd"/>
    <g id="Group_580" data-name="Group 580" transform="translate(45.268 79.802)">
      <path id="Path_666" data-name="Path 666" d="M270.46,226.34c.5,3.5,1.573,5.1,3.888,6.886l-10,17.066L253.78,235.511C259.033,232.6,268.412,228.982,270.46,226.34Z" transform="translate(-233.687 -226.34)" fill="#047aa8" fill-rule="evenodd"/>
      <path id="Path_667" data-name="Path 667" d="M250.9,226.34c-.5,3.5-1.573,5.1-3.888,6.886l10,17.066,10.566-14.781C262.3,232.6,252.946,228.982,250.9,226.34Z" transform="translate(-247.01 -226.34)" fill="#047aa8" fill-rule="evenodd"/>
    </g>
    <g id="Group_583" data-name="Group 583" transform="translate(30.666 88.919)">
      <g id="Group_581" data-name="Group 581" transform="translate(0)">
        <path id="Path_668" data-name="Path 668" d="M254.051,229.41h.386l26.118,39.059H265.448l-23.358-34.9C246.453,232.556,250.608,231.4,254.051,229.41Z" transform="translate(-242.09 -229.41)" fill="#41ba03" fill-rule="evenodd"/>
        <path id="Path_669" data-name="Path 669" d="M247.577,229.98l24.991,37.367h-4.9l-24.1-36.032Q245.618,230.737,247.577,229.98Z" transform="translate(-239.177 -228.288)" fill="#047aa8" fill-rule="evenodd"/>
      </g>
      <g id="Group_582" data-name="Group 582" transform="translate(31.372)">
        <path id="Path_670" data-name="Path 670" d="M279.164,229.41h-.326L252.66,268.469h15.107l23.388-34.9C286.762,232.556,282.607,231.428,279.164,229.41Z" transform="translate(-252.66 -229.41)" fill="#41ba03" fill-rule="evenodd"/>
        <path id="Path_671" data-name="Path 671" d="M279.39,229.99l-25.02,37.338h4.9l24.13-36Q281.349,230.747,279.39,229.99Z" transform="translate(-249.295 -228.269)" fill="#047aa8" fill-rule="evenodd"/>
      </g>
    </g>
    <g id="Group_584" data-name="Group 584" transform="translate(47.633 110.11)">
      <path id="Path_672" data-name="Path 672" d="M265.743,236.55c1.692,0,1.87,2.731,3.384,3.057,1.514.356,3.265-1.87,4.6-1.247,1.543.742.5,3.265,1.721,4.215,1.217.979,3.74-.267,4.689.861,1.068,1.336-.979,3.146-.3,4.541s3.5,1.395,3.829,2.82c.386,1.662-2.226,2.4-2.226,3.977,0,1.543,2.552,2.76,2.226,4.215-.386,1.662-3.057,1.217-3.74,2.612s1.1,3.591.178,4.749c-1.068,1.336-3.265-.238-4.482.742s-.564,3.71-1.9,4.363c-1.543.742-2.849-1.632-4.363-1.306-1.514.356-2.137,3.087-3.591,3.116-1.692,0-1.87-2.7-3.384-3.057s-3.265,1.87-4.6,1.247c-1.543-.742-.5-3.265-1.722-4.215-1.217-.979-3.74.267-4.689-.861-1.069-1.336.979-3.146.3-4.541s-3.5-1.395-3.829-2.82c-.386-1.662,2.226-2.4,2.226-3.977,0-1.543-2.552-2.76-2.226-4.215.386-1.662,3.057-1.217,3.74-2.612s-1.1-3.591-.178-4.749c1.068-1.336,3.294.237,4.482-.742,1.217-.979.594-3.71,1.9-4.363,1.543-.742,2.849,1.632,4.363,1.306S264.289,236.58,265.743,236.55Z" transform="translate(-247.807 -236.55)" fill="#fdb813" fill-rule="evenodd"/>
      <path id="Path_673" data-name="Path 673" d="M253.9,236.55c1.573.148,1.751,2.731,3.205,3.057,1.514.356,3.265-1.87,4.6-1.247,1.543.742.5,3.265,1.721,4.215,1.217.979,3.74-.267,4.689.861,1.068,1.336-.979,3.146-.3,4.541s3.5,1.395,3.829,2.82c.386,1.662-2.226,2.4-2.226,3.977,0,1.543,2.552,2.76,2.226,4.215-.386,1.662-3.057,1.217-3.74,2.612s1.1,3.591.178,4.749c-1.068,1.336-3.265-.238-4.482.742s-.564,3.71-1.9,4.363c-1.543.742-2.849-1.632-4.363-1.306-1.454.327-2.078,2.909-3.443,3.116V236.55Z" transform="translate(-235.816 -236.55)" fill="#fc9e0a" fill-rule="evenodd"/>
      <path id="Path_674" data-name="Path 674" d="M262.431,238.38a12.94,12.94,0,1,1-12.941,12.94,12.933,12.933,0,0,1,12.941-12.94Zm0,1.9a11.041,11.041,0,1,0,11.041,11.041A11.058,11.058,0,0,0,262.431,240.28Z" transform="translate(-244.494 -232.949)" fill="#fc9e0a" fill-rule="evenodd"/>
      <path id="Path_675" data-name="Path 675" d="M253.9,238.38a12.941,12.941,0,0,1,0,25.881v-1.9a11.042,11.042,0,0,0,0-22.082v-1.9Z" transform="translate(-235.815 -232.949)" fill="#ed8200" fill-rule="evenodd"/>
    </g>
  </g>
</svg>
