<svg xmlns="http://www.w3.org/2000/svg" xmlns:xlink="http://www.w3.org/1999/xlink" width="190.701" height="190.832" viewBox="0 0 190.701 190.832">
  <defs>
    <linearGradient id="linear-gradient" x1="0.5" x2="0.5" y2="1" gradientUnits="objectBoundingBox">
      <stop offset="0" stop-color="#0f6bc7"/>
      <stop offset="1" stop-color="#41ba03"/>
    </linearGradient>
  </defs>
  <g id="first_step_icon" data-name="first step icon" transform="translate(-1525.317 -2785)">
    <path id="Icon_zocial-call" data-name="Icon zocial-call" d="M143.459,30.546a10.35,10.35,0,0,0-2.635-5.62L119.748,3.85q-2.462-2.108-3.688.7L99.023,36.518a4.6,4.6,0,0,0,.878,5.445l7.728,7.728a8.74,8.74,0,0,1,2.459,5.445q0,5.269-5.445,13.524A115.492,115.492,0,0,1,93.929,82.715L88.485,88.33c-1.641,1.641-3.743,3.661-6.328,6.059a106.036,106.036,0,0,1-12.728,9.484q-8.867,5.887-13.963,5.884a7.646,7.646,0,0,1-5.62-2.283l-9.139-9.133a3.86,3.86,0,0,0-5.264-.7L4.7,115.729A2.567,2.567,0,0,0,3.3,117.574a2.243,2.243,0,0,0,.7,2.02L25.075,140.67A10.322,10.322,0,0,0,30.69,143.3q8.612,1.235,19.413-2.371a87.832,87.832,0,0,0,20.017-9.572q9.221-5.969,17.124-12.113T99.89,108.7l4.567-4.4q1.754-1.754,4.654-4.83t10.11-12.113a176.4,176.4,0,0,0,12.47-17.651,102.969,102.969,0,0,0,9.133-19.583Q144.685,39.155,143.459,30.546Z" transform="translate(1572.264 2832.218)" opacity="0.2" fill="url(#linear-gradient)"/>
    <path id="Icon_zocial-call-2" data-name="Icon zocial-call" d="M97.848,21.567a6.983,6.983,0,0,0-1.777-3.792L81.852,3.556q-1.661-1.422-2.488.474L67.869,25.6a3.1,3.1,0,0,0,.592,3.673l5.214,5.214a5.9,5.9,0,0,1,1.659,3.673q0,3.555-3.673,9.124a77.918,77.918,0,0,1-7.228,9.483L60.76,60.551c-1.107,1.107-2.525,2.47-4.269,4.088a71.539,71.539,0,0,1-8.587,6.4q-5.982,3.971-9.42,3.97a5.158,5.158,0,0,1-3.792-1.54l-6.165-6.162a2.6,2.6,0,0,0-3.551-.474l-20.74,12.2a1.732,1.732,0,0,0-.948,1.244,1.513,1.513,0,0,0,.474,1.363L17.98,95.863a6.964,6.964,0,0,0,3.788,1.774,28.666,28.666,0,0,0,13.1-1.6,59.256,59.256,0,0,0,13.5-6.458q6.221-4.027,11.553-8.172t8.532-7.11l3.081-2.966q1.183-1.183,3.14-3.259T81.5,59.9a119.009,119.009,0,0,0,8.413-11.909,69.469,69.469,0,0,0,6.162-13.212Q98.676,27.375,97.848,21.567Z" transform="translate(1547.592 2807.576)" opacity="0.15" fill="url(#linear-gradient)"/>
    <path id="Icon_zocial-call-3" data-name="Icon zocial-call" d="M68.026,15.7a4.781,4.781,0,0,0-1.217-2.6L57.073,3.364q-1.137-.974-1.7.325L47.5,18.454a2.124,2.124,0,0,0,.406,2.515l3.57,3.57a4.037,4.037,0,0,1,1.136,2.515q0,2.434-2.515,6.247a53.35,53.35,0,0,1-4.949,6.493l-2.515,2.594c-.758.758-1.729,1.691-2.923,2.8a48.982,48.982,0,0,1-5.88,4.381q-4.1,2.719-6.45,2.718a3.532,3.532,0,0,1-2.6-1.055l-4.221-4.219a1.783,1.783,0,0,0-2.431-.325l-14.2,8.357a1.186,1.186,0,0,0-.649.852,1.036,1.036,0,0,0,.325.933l9.736,9.736a4.768,4.768,0,0,0,2.594,1.214,19.628,19.628,0,0,0,8.968-1.1,40.573,40.573,0,0,0,9.247-4.422q4.259-2.757,7.91-5.6T47.9,51.8l2.109-2.031q.81-.81,2.15-2.231t4.67-5.6a81.485,81.485,0,0,0,5.76-8.154,47.565,47.565,0,0,0,4.219-9.046A19.244,19.244,0,0,0,68.026,15.7Z" transform="translate(1522.05 2782.053)" opacity="0.1" fill="url(#linear-gradient)"/>
  </g>
</svg>
