<svg id="footer-deliveri-truck-icon" xmlns="http://www.w3.org/2000/svg" width="81.488" height="26.357" viewBox="0 0 81.488 26.357">
  <path id="Path_696" data-name="Path 696" d="M16.65,42.267l5.192-5.6a5.644,5.644,0,0,1,4.082-1.506h7.487l-1.385-4.108a1.3,1.3,0,0,1,.546-1.428A3.366,3.366,0,0,1,34.628,29h36.9a2.629,2.629,0,0,1,2.58,1.369l.56,1.657c.064.189-.12.376-.412.418a.59.59,0,0,1-.645-.267l-.56-1.664a1.575,1.575,0,0,0-1.523-.828h-36.9a2.005,2.005,0,0,0-1.232.384.775.775,0,0,0-.312.862l1.481,4.388a.336.336,0,0,1,.074.11L39.81,50.907H64.238a2.68,2.68,0,0,1,.18-.637V50.2a2.791,2.791,0,0,1,.338-.568l.127-.089a4.435,4.435,0,0,1,.486-.507l.1-.075a4.589,4.589,0,0,1,.613-.438l.106-.062a5.533,5.533,0,0,1,.73-.363l.116-.048a8.138,8.138,0,0,1,.846-.274h.106a8.154,8.154,0,0,1,.941-.178H69a8.2,8.2,0,0,1,2.115,0h.074a8.156,8.156,0,0,1,.941.178h.106a8.137,8.137,0,0,1,.846.274l.116.048a5.532,5.532,0,0,1,.73.363l.106.062a4.588,4.588,0,0,1,.613.438l.1.075a4.434,4.434,0,0,1,.486.507l.063.082a2.789,2.789,0,0,1,.338.568v.075a2.809,2.809,0,0,1,.243.644H79.9l-1.914-3.656a.25.25,0,0,1,.066-.363.712.712,0,0,1,.534-.118.47.47,0,0,1,.394.262L80.3,49.538h.391a2.243,2.243,0,0,1,2.009.938l.571,1.116h-7.4c0,2.08-2.6,3.765-5.816,3.765s-5.816-1.686-5.816-3.765H35.685c0,2.08-2.6,3.765-5.816,3.765s-5.816-1.686-5.816-3.765H17.708l-.127-.253c-.358-.708.225-1.472,1.311-1.718l-2.6-4.744A2.146,2.146,0,0,1,16.65,42.267Zm53.4,12.063c2.628,0,4.759-1.379,4.759-3.081s-2.131-3.081-4.759-3.081S65.3,49.548,65.3,51.249,67.429,54.326,70.054,54.33Zm-40.185,0c2.628,0,4.759-1.379,4.759-3.081s-2.131-3.081-4.759-3.081-4.759,1.379-4.759,3.081S27.243,54.326,29.869,54.33ZM17.285,44.643l3.437,6.264h3.331a2.679,2.679,0,0,1,.18-.637V50.2a2.989,2.989,0,0,1,.338-.568l.127-.089a5.065,5.065,0,0,1,.486-.507l.1-.075a4.589,4.589,0,0,1,.613-.438L26,48.449a6.5,6.5,0,0,1,.73-.356l.116-.048a6.779,6.779,0,0,1,.846-.274H27.8a8.154,8.154,0,0,1,.941-.178h.074a8.12,8.12,0,0,1,2.115,0H31a8.156,8.156,0,0,1,.941.178h.106a6.779,6.779,0,0,1,.846.274l.116.048a6.494,6.494,0,0,1,.73.356l.106.068a4.588,4.588,0,0,1,.613.438l.1.075a5.065,5.065,0,0,1,.486.507l.063.082a2.989,2.989,0,0,1,.338.568v.075a2.809,2.809,0,0,1,.243.644h3.067L33.666,35.846h-7.72a4.377,4.377,0,0,0-3.173,1.171l-5.161,5.6h0a1.684,1.684,0,0,0-.328,2.026Z" transform="translate(-16 -29)" fill="#fff"/>
  <path id="Path_697" data-name="Path 697" d="M65.167,41.863A3.111,3.111,0,0,1,67.462,41h4.061a.549.549,0,0,1,.508.246l2.115,4.792a.264.264,0,0,1-.085.3.646.646,0,0,1-.423.137H65.654a3.107,3.107,0,0,1-2.295-.856,1.2,1.2,0,0,1,0-1.7Zm-.888,3.423a1.858,1.858,0,0,0,1.375.513H72.94l-1.819-4.108H67.462a1.835,1.835,0,0,0-1.375.52l-1.819,2.054a.725.725,0,0,0,.011,1.013Z" transform="translate(-56.596 -32.785)" fill="#fff"/>
  <path id="Path_698" data-name="Path 698" d="M28.644,59c1.46,0,2.644.766,2.644,1.711s-1.184,1.711-2.644,1.711S26,61.657,26,60.711,27.184,59,28.644,59Zm0,2.738c.876,0,1.586-.46,1.586-1.027s-.71-1.027-1.586-1.027-1.586.46-1.586,1.027S27.768,61.738,28.644,61.738Z" transform="translate(25.411 -38.462)" fill="#fff"/>
  <path id="Path_699" data-name="Path 699" d="M66.644,59c1.46,0,2.644.766,2.644,1.711s-1.184,1.711-2.644,1.711S64,61.657,64,60.711,65.184,59,66.644,59Zm0,2.738c.876,0,1.586-.46,1.586-1.027s-.71-1.027-1.586-1.027-1.586.46-1.586,1.027S65.768,61.738,66.644,61.738Z" transform="translate(-52.775 -38.462)" fill="#fff"/>
  <path id="Path_700" data-name="Path 700" d="M56.373,37.369h-36.7c-.921,0-1.668-.307-1.668-.685S18.747,36,19.668,36h36.7c.921,0,1.668.307,1.668.685S57.294,37.369,56.373,37.369Z" transform="translate(21.778 -31.208)" fill="#fff"/>
  <path id="Path_701" data-name="Path 701" d="M19,46.685c0-.378.747-.685,1.668-.685H49.031c.921,0,1.668.307,1.668.685s-.747.685-1.668.685H20.668C19.747,47.369,19,47.063,19,46.685Z" transform="translate(27.452 -34.362)" fill="#fff"/>
  <path id="Path_702" data-name="Path 702" d="M20,41.685c0-.378.747-.685,1.668-.685H51.7c.921,0,1.668.307,1.668.685s-.747.685-1.668.685H21.668C20.747,42.369,20,42.063,20,41.685Z" transform="translate(23.115 -32.785)" fill="#fff"/>
  <ellipse id="Ellipse_14" data-name="Ellipse 14" cx="1.668" cy="0.685" rx="1.668" ry="0.685" transform="translate(78.151 8.215)" fill="#fff"/>
  <path id="Path_703" data-name="Path 703" d="M44.357,51c.921,0,1.668.307,1.668.685s-.747.685-1.668.685H22.668c-.921,0-1.668-.307-1.668-.685S21.747,51,22.668,51Z" transform="translate(28.788 -35.939)" fill="#fff"/>
  <ellipse id="Ellipse_15" data-name="Ellipse 15" cx="1.668" cy="0.685" rx="1.668" ry="0.685" transform="translate(76.482 15.061)" fill="#fff"/>
</svg>
