<?xml version="1.0" encoding="utf-8"?>
<!-- Generator: Adobe Illustrator 24.0.1, SVG Export Plug-In . SVG Version: 6.00 Build 0)  -->
<svg version="1.1" id="Layer_1" xmlns="http://www.w3.org/2000/svg" xmlns:xlink="http://www.w3.org/1999/xlink" x="0px" y="0px"
	 viewBox="0 0 1922 199.4" style="enable-background:new 0 0 1922 199.4;" xml:space="preserve">
<style type="text/css">
	.st0{fill:#3AA404;}
	.st1{fill:#41BA03;}
</style>
<g id="footer_illustration" transform="translate(14.501 -5637.104)">
	<path id="Subtraction_17" class="st0" d="M1907.5,5835.5h-1921v-123.3c4.2-2.4,8.8-4.2,13.5-5.3c9.6-2.5,20.5-5.5,32.1-8.7h0l0.1,0
		l0.2,0l0.1,0c19-5.2,40.4-11.1,64.4-17.2c27.9-7.1,53.6-12.9,78.6-18c14.7-3,29.3-5.7,43.5-8c15.4-2.6,30.8-4.9,45.8-6.7
		c16.1-2,32.1-3.7,47.6-5c16.6-1.3,33.1-2.2,49.1-2.7c6.3-0.2,12.8-0.3,19.4-0.3c29.9,0,63.2,1.7,104.6,5.4
		c37,3.3,76.4,7.9,118.2,12.7h0l0.2,0l0.1,0l0.1,0h0c55.9,6.4,113.8,13.1,178.1,18.4c73.5,6.1,141.7,9.2,208.7,9.5
		c6.2,0,12.2,0,17.7,0c221.9,0,358.2-20.4,467.7-36.8l0.2,0l0.2,0l0,0c21.7-3.2,42.2-6.3,62.2-9c16.6-2.3,36.6-3.4,59.5-3.4
		c30.2,0,66.1,2,106.5,5.9c32.3,3.1,67.7,7.5,105.1,13.1c43.4,6.4,79.9,12.9,97.7,16.2L1907.5,5835.5L1907.5,5835.5z"/>
	<path id="Subtraction_20" class="st1" d="M1907.5,5836.5h-1922v-101.9c23.2-5,50.5-13.5,82.1-23.2l0.1,0h0l0,0
		c70.7-21.9,158.7-49.1,250.9-52.5c8.4-0.3,17.2-0.5,26.1-0.5c32,0,67.6,1.9,112.3,6.1c40,3.7,82.7,8.8,127.8,14.1l0.1,0l0.1,0
		c59.6,7.1,121.1,14.4,189.1,20.3c77.6,6.7,149.3,10.2,219.2,10.6c4.6,0,9.2,0,13.5,0c75.5,0,150.9-4.2,226-12.7
		c29.8-3.3,60.7-7.4,94.4-12.4c29.8-4.4,57.7-9,84.6-13.4l0,0l0.1,0h0h0c73.7-12.1,137.4-22.5,198.7-23.7c4.3-0.1,8.8-0.1,13.4-0.1
		c34.7,0,75.1,2.4,120,7.2c35.9,3.8,74.8,9.2,115.6,15.9c15.7,2.6,31.8,5.4,47.9,8.4L1907.5,5836.5L1907.5,5836.5z"/>
</g>
</svg>
