<?xml version="1.0" encoding="utf-8"?>
<!-- Generator: Adobe Illustrator 24.0.1, SVG Export Plug-In . SVG Version: 6.00 Build 0)  -->
<svg version="1.1" id="Layer_1" xmlns="http://www.w3.org/2000/svg" xmlns:xlink="http://www.w3.org/1999/xlink" x="0px" y="0px"
	 viewBox="0 0 611.7 403.7" style="enable-background:new 0 0 611.7 403.7;" xml:space="preserve">
<style type="text/css">
	.st0{fill:#EBF3FA;}
	.st1{fill:#F8FBFF;}
	.st2{fill:#C4D9ED;}
	.st3{fill:#D5E7F7;}
	.st4{fill:#DCEAF9;}
	.st5{opacity:0.8;}
	.st6{fill:#ADC9E0;}
	.st7{fill:#ABC6DD;}
	.st8{fill:#0F50C7;}
	.st9{opacity:0.3;fill:#0F50C7;enable-background:new    ;}
	.st10{fill:#0F3CC7;}
	.st11{fill:#0F78C7;}
	.st12{fill:#0F4BC7;}
	.st13{fill:#0F6BC7;}
	.st14{fill:#A2C2DD;}
	.st15{fill:#0F55C7;}
	.st16{opacity:0.3;fill:#0F5AC7;enable-background:new    ;}
	.st17{fill:#41BA03;}
	.st18{fill:#A8D29F;}
	.st19{fill:url(#Rectangle_529_1_);}
	.st20{fill:#FFB27D;}
	.st21{fill:#FFC197;}
	.st22{opacity:0.3;fill:#E2915A;enable-background:new    ;}
	.st23{fill:#418203;}
	.st24{opacity:0.4;fill:#418203;enable-background:new    ;}
	.st25{opacity:0.4;fill:#419603;enable-background:new    ;}
	.st26{fill:#FBECDB;}
	.st27{fill:#FCE6D2;}
	.st28{fill:#41A503;}
	.st29{fill:#E0B477;}
	.st30{fill:none;stroke:#019AE6;stroke-width:3;stroke-linecap:round;stroke-dasharray:8;}
</style>
<g id="Group_2406" transform="translate(-155.21 -144.79)">
	<path id="Path_2824" class="st0" d="M722.1,472.1c0,0-28.6,0.1-72.3,0.1c-127.8,0.2-384.6,0.7-429.4,0.4
		c-60.1-0.3-101.7-157.8,10.7-147.1c122.1,11.6,32.8-59.3,104.7-71.1c78.3-12.8,94,36.5,150.2,16.4c76.8-27.5,118.5-18,145.3,2.1
		c29.3,22.1,40.5,56.8,60.2,68.9c0.4,0.3,0.9,0.5,1.3,0.8c38.2,21.2,55.6,41.7,61.3,60C766.7,443.1,722.1,472.1,722.1,472.1z"/>
	<path id="Path_2825" class="st1" d="M691.6,341.9l-289.9,49.9L380,365.5L631.3,273C660.7,295,671.9,329.7,691.6,341.9z"/>
	<path id="Path_2826" class="st1" d="M540.2,279.8l-286.9,93.7c8.4-6.2-11-40,0.4-51.3L540.2,279.8z"/>
	<path id="Path_2827" class="st1" d="M575.5,264c-3.8,0-6.9,3.1-6.9,7c0,3.9,3.1,7,6.9,7s6.9-3.1,6.9-7l0,0
		C582.4,267.2,579.3,264,575.5,264z"/>
	<g id="Group_2377" transform="translate(308.509 334.436)">
		<g id="Group_2294" transform="translate(297.703 0)">
			<rect id="Rectangle_261" x="-120.3" y="-47.5" class="st2" width="32.8" height="161.2"/>
			<rect id="Rectangle_262" x="-112.9" y="-47.5" class="st3" width="32.8" height="161.2"/>
			<rect id="Rectangle_263" x="-112.9" y="-47.6" class="st2" width="32.8" height="9.4"/>
			<rect id="Rectangle_264" x="-112.9" y="-27.3" class="st2" width="32.8" height="9.4"/>
			<rect id="Rectangle_265" x="-112.9" y="-7.2" class="st2" width="32.8" height="9.4"/>
			<rect id="Rectangle_266" x="-112.9" y="13.1" class="st2" width="32.8" height="9.4"/>
			<rect id="Rectangle_267" x="-112.9" y="33.2" class="st2" width="32.8" height="9.4"/>
			<rect id="Rectangle_268" x="-112.9" y="53.5" class="st2" width="32.8" height="9.4"/>
			<rect id="Rectangle_269" x="-112.9" y="73.7" class="st2" width="32.8" height="9.4"/>
			<rect id="Rectangle_270" x="-112.9" y="93.9" class="st2" width="32.8" height="9.4"/>
		</g>
		<g id="Group_2295" transform="translate(370.246 31.234)">
			<rect id="Rectangle_271" x="-140.5" y="-55.9" class="st2" width="32.8" height="138.4"/>
			<rect id="Rectangle_272" x="-133.1" y="-55.9" class="st3" width="32.8" height="138.4"/>
			<rect id="Rectangle_273" x="-133.1" y="-56" class="st2" width="32.8" height="8"/>
			<rect id="Rectangle_274" x="-133.1" y="-38.6" class="st2" width="32.8" height="8"/>
			<rect id="Rectangle_275" x="-133.1" y="-21.3" class="st2" width="32.8" height="8"/>
			<rect id="Rectangle_276" x="-133.1" y="-4" class="st2" width="32.8" height="8"/>
			<rect id="Rectangle_277" x="-133.1" y="13.4" class="st2" width="32.8" height="8"/>
			<rect id="Rectangle_278" x="-133.1" y="30.7" class="st2" width="32.8" height="8"/>
			<rect id="Rectangle_279" x="-133.1" y="48.1" class="st2" width="32.8" height="8"/>
			<rect id="Rectangle_280" x="-133.1" y="65.5" class="st2" width="32.8" height="8"/>
		</g>
		<rect id="Rectangle_281" x="159.8" y="108.8" class="st4" width="13.7" height="20.2"/>
		<path id="Path_2828" class="st3" d="M164,81.2v56.2H18.7h-1l-37.1-0.4c0-0.1-0.1-0.1-0.1-0.2c-0.1-0.1-0.1-0.2-0.2-0.4
			c0-0.1-0.1-0.1-0.1-0.1c-0.1-0.2-0.2-0.4-0.4-0.7c-0.1-0.3-0.4-0.7-0.6-1.1l0,0c-0.8-1.5-1.8-3.5-3-6.1c-0.4-0.8-0.8-1.8-1.2-2.7
			c-0.1-0.4-0.4-0.7-0.5-1.2l0,0c-0.1-0.4-0.4-0.7-0.5-1.2v-0.1c-0.1-0.3-0.2-0.5-0.4-0.8c-0.1-0.3-0.2-0.6-0.4-0.9
			c-0.6-1.5-1.2-3.1-1.9-4.8c0-0.1,0-0.1-0.1-0.1l0,0c-0.4-1.1-0.8-2.3-1.2-3.4c-0.2-0.7-0.4-1.3-0.6-2c0-0.1,0-0.1-0.1-0.1
			c-0.1-0.3-0.2-0.6-0.3-0.9c-0.1-0.2-0.1-0.5-0.2-0.7c-0.1-0.5-0.3-1-0.5-1.6c-0.2-0.7-0.4-1.4-0.6-2.1c-0.3-0.9-0.5-1.9-0.8-2.9
			c-0.1-0.3-0.1-0.6-0.2-0.9c-0.2-0.9-0.4-1.8-0.6-2.7c-0.1-0.3-0.1-0.6-0.2-0.9c-0.1-0.2-0.1-0.4-0.1-0.6c-0.4-1.5-0.6-2.9-0.9-4.5
			c-0.3-1.7-0.6-3.4-0.9-5c-0.2-1.6-0.4-3.2-0.6-4.8c-0.2-1.5-0.4-3.1-0.4-4.7c-0.3-3.7-0.4-7.5-0.4-11.3c0.1-6.9,0.9-13.9,2.3-20.7
			c0.1-0.2,0.1-0.5,0.1-0.7c0.4-1.7,0.8-3.4,1.2-5c0.4-1.2,0.7-2.6,1.2-3.8c0.3-0.9,0.6-1.8,0.9-2.8c0.7-2.1,1.6-4.2,2.5-6.3h0.8
			v-1.8C-22.8,14.5-15.2,3.8-5.7-5.3c0.2-0.2,0.4-0.4,0.6-0.6h0.6v21.5h18.8v-35.1h20.7V3.5h4.8v-27.2h20.7v50.9h26.2v29.7h10v7.5
			h22.5V51.5H132v-35h15.9v64.6L164,81.2z"/>
		<rect id="Rectangle_282" x="39.8" y="-20.2" class="st2" width="20.8" height="5.2"/>
		<rect id="Rectangle_283" x="39.8" y="-10.4" class="st2" width="20.8" height="5.2"/>
		<rect id="Rectangle_284" x="39.8" y="-1.7" class="st2" width="20.8" height="5.2"/>
		<rect id="Rectangle_285" x="14.4" y="-1.7" class="st2" width="20.8" height="5.2"/>
		<rect id="Rectangle_286" x="14.4" y="-10.4" class="st2" width="20.8" height="5.2"/>
		<rect id="Rectangle_287" x="14.4" y="-19.2" class="st2" width="20.8" height="5.2"/>
		<rect id="Rectangle_288" x="14.4" y="6.8" class="st2" width="46.2" height="5.2"/>
		<rect id="Rectangle_289" x="14.4" y="15.3" class="st2" width="46.2" height="5.2"/>
		<rect id="Rectangle_290" x="131.9" y="16.6" class="st2" width="16.1" height="8"/>
		<rect id="Rectangle_291" x="131.9" y="28.5" class="st2" width="16.1" height="8"/>
		<rect id="Rectangle_292" x="131.9" y="40.4" class="st2" width="16.1" height="8"/>
		<rect id="Rectangle_293" x="131.9" y="52.8" class="st2" width="16.1" height="8"/>
		<rect id="Rectangle_294" x="131.9" y="65" class="st2" width="16.1" height="8"/>
		<rect id="Rectangle_295" x="131.9" y="77" class="st2" width="16.1" height="8"/>
		<rect id="Rectangle_296" x="131.9" y="89.7" class="st2" width="16.1" height="8"/>
		<rect id="Rectangle_297" x="14.4" y="23.6" class="st2" width="46.2" height="3.3"/>
		<rect id="Rectangle_298" x="126.2" y="16.6" class="st2" width="5.9" height="35"/>
		<rect id="Rectangle_299" x="107.2" y="51.6" class="st2" width="12" height="12.9"/>
		<path id="Path_2829" class="st2" d="M14.4-19.2v5.2V6.8V12v3.8h-4.1v-34.6l0.6-0.4L14.4-19.2L14.4-19.2z"/>
		<rect id="Rectangle_300" x="37.3" y="-23.7" class="st2" width="2.5" height="27.1"/>
		<g id="Group_2339" transform="translate(3.16 109.392)" class="st5">
			<g id="Group_2302" transform="translate(3.573 0)">
				<g id="Group_2298" transform="translate(75.632)">
					<g id="Group_2296" transform="translate(43.773)">
						<rect id="Rectangle_301" x="-47.1" y="-77" class="st2" width="3.5" height="5"/>
						<rect id="Rectangle_302" x="-53.7" y="-77" class="st2" width="3.5" height="5"/>
						<rect id="Rectangle_303" x="-60.1" y="-77" class="st2" width="3.5" height="5"/>
						<rect id="Rectangle_304" x="-66.3" y="-77" class="st2" width="3.5" height="5"/>
						<rect id="Rectangle_305" x="-72.5" y="-77" class="st2" width="3.5" height="5"/>
					</g>
					<g id="Group_2297" transform="translate(0)">
						<rect id="Rectangle_306" x="-34.9" y="-77" class="st2" width="3.5" height="5"/>
						<rect id="Rectangle_307" x="-41.5" y="-77" class="st2" width="3.5" height="5"/>
						<rect id="Rectangle_308" x="-47.9" y="-77" class="st2" width="3.5" height="5"/>
						<rect id="Rectangle_309" x="-54.1" y="-77" class="st2" width="3.5" height="5"/>
						<rect id="Rectangle_310" x="-60.3" y="-77" class="st2" width="3.5" height="5"/>
					</g>
				</g>
				<g id="Group_2301">
					<g id="Group_2299" transform="translate(31.594)">
						<rect id="Rectangle_311" x="-22.7" y="-77" class="st2" width="3.5" height="5"/>
						<rect id="Rectangle_312" x="-29.2" y="-77" class="st2" width="3.5" height="5"/>
						<rect id="Rectangle_313" x="-35.7" y="-77" class="st2" width="3.5" height="5"/>
						<rect id="Rectangle_314" x="-41.8" y="-77" class="st2" width="3.5" height="5"/>
						<rect id="Rectangle_315" x="-48" y="-77" class="st2" width="3.5" height="5"/>
					</g>
					<g id="Group_2300">
						<rect id="Rectangle_316" x="-22.7" y="-77" class="st2" width="3.5" height="5"/>
						<rect id="Rectangle_317" x="-29.2" y="-77" class="st2" width="3.5" height="5"/>
						<rect id="Rectangle_318" x="-35.7" y="-77" class="st2" width="3.5" height="5"/>
						<path id="Path_2830" class="st2" d="M-38.3-74.8v2.8h-0.9C-38.9-72.9-38.6-73.9-38.3-74.8z"/>
					</g>
				</g>
			</g>
			<g id="Group_2309" transform="translate(0.262 12.117)">
				<g id="Group_2305" transform="translate(78.943 0.001)">
					<g id="Group_2303" transform="translate(43.773 0)">
						<rect id="Rectangle_319" x="-47.1" y="-80.3" class="st2" width="3.5" height="5"/>
						<rect id="Rectangle_320" x="-53.7" y="-80.3" class="st2" width="3.5" height="5"/>
						<rect id="Rectangle_321" x="-60.1" y="-80.3" class="st2" width="3.5" height="5"/>
						<rect id="Rectangle_322" x="-66.3" y="-80.3" class="st2" width="3.5" height="5"/>
						<rect id="Rectangle_323" x="-72.5" y="-80.3" class="st2" width="3.5" height="5"/>
					</g>
					<g id="Group_2304" transform="translate(0 0)">
						<rect id="Rectangle_324" x="-34.9" y="-80.3" class="st2" width="3.5" height="5"/>
						<rect id="Rectangle_325" x="-41.5" y="-80.3" class="st2" width="3.5" height="5"/>
						<rect id="Rectangle_326" x="-47.9" y="-80.3" class="st2" width="3.5" height="5"/>
						<rect id="Rectangle_327" x="-54.1" y="-80.3" class="st2" width="3.5" height="5"/>
						<rect id="Rectangle_328" x="-60.3" y="-80.3" class="st2" width="3.5" height="5"/>
					</g>
				</g>
				<g id="Group_2308">
					<g id="Group_2306" transform="translate(34.906 0.001)">
						<rect id="Rectangle_329" x="-22.7" y="-80.3" class="st2" width="3.5" height="5"/>
						<rect id="Rectangle_330" x="-29.2" y="-80.3" class="st2" width="3.5" height="5"/>
						<rect id="Rectangle_331" x="-35.7" y="-80.3" class="st2" width="3.5" height="5"/>
						<rect id="Rectangle_332" x="-41.8" y="-80.3" class="st2" width="3.5" height="5"/>
						<rect id="Rectangle_333" x="-48" y="-80.3" class="st2" width="3.5" height="5"/>
					</g>
					<g id="Group_2307">
						<rect id="Rectangle_334" x="-19.4" y="-80.3" class="st2" width="3.5" height="5"/>
						<rect id="Rectangle_335" x="-25.9" y="-80.3" class="st2" width="3.5" height="5"/>
						<rect id="Rectangle_336" x="-32.4" y="-80.3" class="st2" width="3.5" height="5"/>
						<path id="Path_2831" class="st2" d="M-35-80.3v5h-3.3c0.4-1.7,0.8-3.4,1.2-5H-35z"/>
					</g>
				</g>
			</g>
			<g id="Group_2316" transform="translate(0 24.049)">
				<g id="Group_2312" transform="translate(79.204)">
					<g id="Group_2310" transform="translate(43.773)">
						<rect id="Rectangle_337" x="-47.1" y="-83.5" class="st2" width="3.5" height="5"/>
						<rect id="Rectangle_338" x="-53.7" y="-83.5" class="st2" width="3.5" height="5"/>
						<rect id="Rectangle_339" x="-60.1" y="-83.5" class="st2" width="3.5" height="5"/>
						<rect id="Rectangle_340" x="-66.3" y="-83.5" class="st2" width="3.5" height="5"/>
						<rect id="Rectangle_341" x="-72.5" y="-83.5" class="st2" width="3.5" height="5"/>
					</g>
					<g id="Group_2311" transform="translate(0)">
						<rect id="Rectangle_342" x="-34.9" y="-83.5" class="st2" width="3.5" height="5"/>
						<rect id="Rectangle_343" x="-41.5" y="-83.5" class="st2" width="3.5" height="5"/>
						<rect id="Rectangle_344" x="-47.9" y="-83.5" class="st2" width="3.5" height="5"/>
						<rect id="Rectangle_345" x="-54.1" y="-83.5" class="st2" width="3.5" height="5"/>
						<rect id="Rectangle_346" x="-60.3" y="-83.5" class="st2" width="3.5" height="5"/>
					</g>
				</g>
				<g id="Group_2315">
					<g id="Group_2313" transform="translate(35.167)">
						<rect id="Rectangle_347" x="-22.7" y="-83.5" class="st2" width="3.5" height="5"/>
						<rect id="Rectangle_348" x="-29.2" y="-83.5" class="st2" width="3.5" height="5"/>
						<rect id="Rectangle_349" x="-35.7" y="-83.5" class="st2" width="3.5" height="5"/>
						<rect id="Rectangle_350" x="-41.8" y="-83.5" class="st2" width="3.5" height="5"/>
						<rect id="Rectangle_351" x="-48" y="-83.5" class="st2" width="3.5" height="5"/>
					</g>
					<g id="Group_2314">
						<rect id="Rectangle_352" x="-19.1" y="-83.5" class="st2" width="3.5" height="5"/>
						<rect id="Rectangle_353" x="-25.7" y="-83.5" class="st2" width="3.5" height="5"/>
						<rect id="Rectangle_354" x="-32.1" y="-83.5" class="st2" width="3.5" height="5"/>
						<rect id="Rectangle_355" x="-38.2" y="-83.5" class="st2" width="3.5" height="5"/>
					</g>
				</g>
			</g>
			<g id="Group_2338" transform="translate(0 36.727)">
				<g id="Group_2323" transform="translate(0 0)">
					<g id="Group_2319" transform="translate(79.204)">
						<g id="Group_2317" transform="translate(43.773)">
							<rect id="Rectangle_356" x="-47.1" y="-86.9" class="st2" width="3.5" height="5"/>
							<rect id="Rectangle_357" x="-53.7" y="-86.9" class="st2" width="3.5" height="5"/>
							<rect id="Rectangle_358" x="-60.1" y="-86.9" class="st2" width="3.5" height="5"/>
							<rect id="Rectangle_359" x="-66.3" y="-86.9" class="st2" width="3.5" height="5"/>
							<rect id="Rectangle_360" x="-72.5" y="-86.9" class="st2" width="3.5" height="5"/>
						</g>
						<g id="Group_2318" transform="translate(0)">
							<rect id="Rectangle_361" x="-34.9" y="-86.9" class="st2" width="3.5" height="5"/>
							<rect id="Rectangle_362" x="-41.5" y="-86.9" class="st2" width="3.5" height="5"/>
							<rect id="Rectangle_363" x="-47.9" y="-86.9" class="st2" width="3.5" height="5"/>
							<rect id="Rectangle_364" x="-54.1" y="-86.9" class="st2" width="3.5" height="5"/>
							<rect id="Rectangle_365" x="-60.3" y="-86.9" class="st2" width="3.5" height="5"/>
						</g>
					</g>
					<g id="Group_2322">
						<g id="Group_2320" transform="translate(35.167)">
							<rect id="Rectangle_366" x="-22.7" y="-86.9" class="st2" width="3.5" height="5"/>
							<rect id="Rectangle_367" x="-29.2" y="-86.9" class="st2" width="3.5" height="5"/>
							<rect id="Rectangle_368" x="-35.7" y="-86.9" class="st2" width="3.5" height="5"/>
							<rect id="Rectangle_369" x="-41.8" y="-86.9" class="st2" width="3.5" height="5"/>
							<rect id="Rectangle_370" x="-48" y="-86.9" class="st2" width="3.5" height="5"/>
						</g>
						<g id="Group_2321">
							<rect id="Rectangle_371" x="-19.1" y="-86.9" class="st2" width="3.5" height="5"/>
							<rect id="Rectangle_372" x="-25.7" y="-86.9" class="st2" width="3.5" height="5"/>
							<rect id="Rectangle_373" x="-32.1" y="-86.9" class="st2" width="3.5" height="5"/>
							<rect id="Rectangle_374" x="-38.2" y="-86.9" class="st2" width="3.5" height="5"/>
						</g>
					</g>
				</g>
				<g id="Group_2330" transform="translate(0 12.117)">
					<g id="Group_2326" transform="translate(79.204 0)">
						<g id="Group_2324" transform="translate(43.773)">
							<rect id="Rectangle_375" x="-47.1" y="-90.2" class="st2" width="3.5" height="5"/>
							<rect id="Rectangle_376" x="-53.7" y="-90.2" class="st2" width="3.5" height="5"/>
							<rect id="Rectangle_377" x="-60.1" y="-90.2" class="st2" width="3.5" height="5"/>
							<rect id="Rectangle_378" x="-66.3" y="-90.2" class="st2" width="3.5" height="5"/>
							<rect id="Rectangle_379" x="-72.5" y="-90.2" class="st2" width="3.5" height="5"/>
						</g>
						<g id="Group_2325" transform="translate(0)">
							<rect id="Rectangle_380" x="-34.9" y="-90.2" class="st2" width="3.5" height="5"/>
							<rect id="Rectangle_381" x="-41.5" y="-90.2" class="st2" width="3.5" height="5"/>
							<rect id="Rectangle_382" x="-47.9" y="-90.2" class="st2" width="3.5" height="5"/>
							<rect id="Rectangle_383" x="-54.1" y="-90.2" class="st2" width="3.5" height="5"/>
							<rect id="Rectangle_384" x="-60.3" y="-90.2" class="st2" width="3.5" height="5"/>
						</g>
					</g>
					<g id="Group_2329" transform="translate(0 0)">
						<g id="Group_2327" transform="translate(35.167)">
							<rect id="Rectangle_385" x="-22.7" y="-90.2" class="st2" width="3.5" height="5"/>
							<rect id="Rectangle_386" x="-29.2" y="-90.2" class="st2" width="3.5" height="5"/>
							<rect id="Rectangle_387" x="-35.7" y="-90.2" class="st2" width="3.5" height="5"/>
							<rect id="Rectangle_388" x="-41.8" y="-90.2" class="st2" width="3.5" height="5"/>
							<rect id="Rectangle_389" x="-48" y="-90.2" class="st2" width="3.5" height="5"/>
						</g>
						<g id="Group_2328">
							<rect id="Rectangle_390" x="-19.1" y="-90.2" class="st2" width="3.5" height="5"/>
							<rect id="Rectangle_391" x="-25.7" y="-90.2" class="st2" width="3.5" height="5"/>
							<rect id="Rectangle_392" x="-32.1" y="-90.2" class="st2" width="3.5" height="5"/>
							<rect id="Rectangle_393" x="-38.2" y="-90.2" class="st2" width="3.5" height="5"/>
						</g>
					</g>
				</g>
				<g id="Group_2337" transform="translate(0 24.049)">
					<g id="Group_2333" transform="translate(79.204 0)">
						<g id="Group_2331" transform="translate(43.773)">
							<rect id="Rectangle_394" x="-47.1" y="-93.4" class="st2" width="3.5" height="5"/>
							<rect id="Rectangle_395" x="-53.7" y="-93.4" class="st2" width="3.5" height="5"/>
							<rect id="Rectangle_396" x="-60.1" y="-93.4" class="st2" width="3.5" height="5"/>
							<rect id="Rectangle_397" x="-66.3" y="-93.4" class="st2" width="3.5" height="5"/>
							<rect id="Rectangle_398" x="-72.5" y="-93.4" class="st2" width="3.5" height="5"/>
						</g>
						<g id="Group_2332" transform="translate(0)">
							<rect id="Rectangle_399" x="-34.9" y="-93.4" class="st2" width="3.5" height="5"/>
							<rect id="Rectangle_400" x="-41.5" y="-93.4" class="st2" width="3.5" height="5"/>
							<rect id="Rectangle_401" x="-47.9" y="-93.4" class="st2" width="3.5" height="5"/>
							<rect id="Rectangle_402" x="-54.1" y="-93.4" class="st2" width="3.5" height="5"/>
							<rect id="Rectangle_403" x="-60.3" y="-93.4" class="st2" width="3.5" height="5"/>
						</g>
					</g>
					<g id="Group_2336" transform="translate(0 0)">
						<g id="Group_2334" transform="translate(35.167)">
							<rect id="Rectangle_404" x="-22.7" y="-93.4" class="st2" width="3.5" height="5"/>
							<rect id="Rectangle_405" x="-29.2" y="-93.4" class="st2" width="3.5" height="5"/>
							<rect id="Rectangle_406" x="-35.7" y="-93.4" class="st2" width="3.5" height="5"/>
							<rect id="Rectangle_407" x="-41.8" y="-93.4" class="st2" width="3.5" height="5"/>
							<rect id="Rectangle_408" x="-48" y="-93.4" class="st2" width="3.5" height="5"/>
						</g>
						<g id="Group_2335">
							<rect id="Rectangle_409" x="-19.1" y="-93.4" class="st2" width="3.5" height="5"/>
							<rect id="Rectangle_410" x="-25.7" y="-93.4" class="st2" width="3.5" height="5"/>
							<rect id="Rectangle_411" x="-32.1" y="-93.4" class="st2" width="3.5" height="5"/>
							<rect id="Rectangle_412" x="-38.2" y="-93.4" class="st2" width="3.5" height="5"/>
						</g>
					</g>
				</g>
			</g>
		</g>
		<rect id="Rectangle_413" x="25.7" y="92.5" class="st2" width="81.5" height="44.5"/>
		<rect id="Rectangle_414" x="87.5" y="114.8" class="st2" width="81.5" height="22.3"/>
		<path id="Path_2832" class="st2" d="M19.2,99.4V137h-38.5c0-0.1-0.1-0.1-0.1-0.2c-0.1-0.1-0.1-0.2-0.2-0.4c0-0.1-0.1-0.1-0.1-0.1
			c-0.1-0.2-0.2-0.4-0.4-0.7c-0.1-0.3-0.4-0.7-0.6-1.1l0,0c-0.8-1.5-1.8-3.5-3-6.1c-0.4-0.8-0.8-1.8-1.2-2.7
			c-0.1-0.4-0.4-0.7-0.5-1.2l0,0c-0.1-0.4-0.4-0.7-0.5-1.2v-0.1c-0.1-0.3-0.2-0.5-0.4-0.8c-0.1-0.3-0.2-0.6-0.4-0.9
			c-0.6-1.5-1.2-3.1-1.9-4.8c0-0.1,0-0.1-0.1-0.1l0,0c-0.4-1.1-0.8-2.3-1.2-3.4c-0.2-0.7-0.4-1.3-0.6-2c0-0.1,0-0.1-0.1-0.1
			c-0.1-0.3-0.2-0.6-0.3-0.9c-0.1-0.2-0.1-0.5-0.2-0.7c-0.1-0.5-0.3-1-0.5-1.6c-0.2-0.7-0.4-1.4-0.6-2.1c-0.3-0.9-0.5-1.9-0.8-2.9
			c-0.1-0.3-0.1-0.6-0.2-0.9c-0.2-0.9-0.4-1.8-0.6-2.7L19.2,99.4z"/>
		<rect id="Rectangle_415" x="86.5" y="97.7" class="st3" width="15.2" height="8.3"/>
		<rect id="Rectangle_416" x="67.1" y="97.7" class="st3" width="15.2" height="8.3"/>
		<rect id="Rectangle_417" x="47.9" y="97.7" class="st3" width="15.2" height="8.3"/>
		<rect id="Rectangle_418" x="29.2" y="97.7" class="st3" width="15.2" height="8.3"/>
		<rect id="Rectangle_419" x="18.7" y="92.5" class="st6" width="7.8" height="44.9"/>
		<rect id="Rectangle_420" x="144.3" y="13.1" class="st4" width="0.4" height="3.5"/>
		<rect id="Rectangle_421" x="129.1" y="13.1" class="st4" width="0.4" height="3.5"/>
		<path id="Path_2833" class="st3" d="M-36.5,83.7c0.2,1.6,0.4,3.2,0.6,4.8c0.3,1.7,0.6,3.4,0.9,5c0.3,1.5,0.6,3,0.9,4.5
			c0.1,0.2,0.1,0.4,0.1,0.6c0.1,0.3,0.1,0.6,0.2,0.9c0.2,0.9,0.4,1.8,0.6,2.7c0.1,0.3,0.1,0.6,0.2,0.9c0.3,1,0.5,2,0.8,2.9
			c0.2,0.7,0.4,1.4,0.6,2.1c0.1,0.5,0.3,1.1,0.5,1.6c0.1,0.2,0.1,0.5,0.2,0.7c0.1,0.3,0.2,0.6,0.3,0.9c0,0.1,0,0.1,0.1,0.1
			c0.2,0.7,0.4,1.3,0.6,2c0.4,1.2,0.8,2.3,1.2,3.4l0,0c0,0.1,0,0.1,0.1,0.1c0.6,1.7,1.2,3.3,1.9,4.8c0.1,0.3,0.2,0.6,0.4,0.9
			s0.2,0.6,0.4,0.8v0.1V83.8L-36.5,83.7z"/>
		<g id="Group_2343" transform="translate(3.292 193.15)">
			<path id="Path_2834" class="st3" d="M-29.2-94.6v24.9v-0.1c-0.1-0.3-0.2-0.5-0.4-0.8s-0.2-0.6-0.4-0.9c-0.6-1.5-1.2-3.1-1.9-4.8
				c0-0.1,0-0.1-0.1-0.1l0,0c-0.4-1.1-0.8-2.3-1.2-3.4c-0.2-0.7-0.4-1.3-0.6-2c0-0.1,0-0.1-0.1-0.1c-0.1-0.3-0.2-0.6-0.3-0.9
				c-0.1-0.2-0.1-0.5-0.2-0.7c-0.1-0.5-0.3-1-0.5-1.6c-0.2-0.7-0.4-1.4-0.6-2.1c-0.3-0.9-0.5-1.9-0.8-2.9c-0.1-0.3-0.1-0.6-0.2-0.9
				c-0.2-0.9-0.4-1.8-0.6-2.7c-0.1-0.3-0.1-0.6-0.2-0.9L-29.2-94.6z"/>
			<path id="Path_2835" class="st2" d="M-29.2-99.6v12.4h-6.1c-0.3-0.9-0.5-1.9-0.8-2.9c-0.1-0.3-0.1-0.6-0.2-0.9
				c-0.2-0.9-0.4-1.8-0.6-2.7c-0.1-0.3-0.1-0.6-0.2-0.9c-0.1-0.2-0.1-0.4-0.1-0.6c-0.4-1.5-0.6-2.9-0.9-4.5H-29.2z"/>
			<g id="Group_2342" transform="translate(5.607 21.971)">
				<g id="Group_2341">
					<g id="Group_2340">
						<path id="Path_2836" class="st2" d="M-38.6-105.5v3.7c-0.2-0.7-0.4-1.3-0.6-2c0-0.1,0-0.1-0.1-0.1c-0.1-0.3-0.2-0.6-0.3-0.9
							c-0.1-0.2-0.1-0.5-0.2-0.7H-38.6z"/>
					</g>
				</g>
			</g>
			<rect id="Rectangle_422" x="-35.9" y="-96.1" class="st6" width="2.4" height="4.2"/>
		</g>
		<g id="Group_2354" transform="translate(264.485 193.151)">
			<rect id="Rectangle_423" x="-111" y="-94.6" class="st3" width="55.9" height="38.1"/>
			<rect id="Rectangle_424" x="-111" y="-99.6" class="st2" width="55.9" height="12.3"/>
			<g id="Group_2353" transform="translate(3.832 21.969)">
				<g id="Group_2346" transform="translate(0 0)">
					<g id="Group_2344" transform="translate(35.777)">
						<rect id="Rectangle_425" x="-101.3" y="-105.5" class="st2" width="2.9" height="4.1"/>
						<rect id="Rectangle_426" x="-106.7" y="-105.5" class="st2" width="2.9" height="4.1"/>
						<rect id="Rectangle_427" x="-112" y="-105.5" class="st2" width="2.9" height="4.1"/>
						<rect id="Rectangle_428" x="-117" y="-105.5" class="st2" width="2.9" height="4.1"/>
						<rect id="Rectangle_429" x="-122" y="-105.5" class="st2" width="2.9" height="4.1"/>
					</g>
					<g id="Group_2345">
						<rect id="Rectangle_430" x="-91.4" y="-105.5" class="st2" width="2.9" height="4.1"/>
						<rect id="Rectangle_431" x="-96.8" y="-105.5" class="st2" width="2.9" height="4.1"/>
						<rect id="Rectangle_432" x="-102" y="-105.5" class="st2" width="2.9" height="4.1"/>
						<rect id="Rectangle_433" x="-107" y="-105.5" class="st2" width="2.9" height="4.1"/>
						<rect id="Rectangle_434" x="-112.1" y="-105.5" class="st2" width="2.9" height="4.1"/>
					</g>
				</g>
				<g id="Group_2349" transform="translate(0 9.904)">
					<g id="Group_2347" transform="translate(35.777 0)">
						<rect id="Rectangle_435" x="-101.3" y="-108.2" class="st2" width="2.9" height="4.1"/>
						<rect id="Rectangle_436" x="-106.7" y="-108.2" class="st2" width="2.9" height="4.1"/>
						<rect id="Rectangle_437" x="-112" y="-108.2" class="st2" width="2.9" height="4.1"/>
						<rect id="Rectangle_438" x="-117" y="-108.2" class="st2" width="2.9" height="4.1"/>
						<rect id="Rectangle_439" x="-122" y="-108.2" class="st2" width="2.9" height="4.1"/>
					</g>
					<g id="Group_2348" transform="translate(0 0)">
						<rect id="Rectangle_440" x="-91.4" y="-108.2" class="st2" width="2.9" height="4.1"/>
						<rect id="Rectangle_441" x="-96.8" y="-108.2" class="st2" width="2.9" height="4.1"/>
						<rect id="Rectangle_442" x="-102" y="-108.2" class="st2" width="2.9" height="4.1"/>
						<rect id="Rectangle_443" x="-107" y="-108.2" class="st2" width="2.9" height="4.1"/>
						<rect id="Rectangle_444" x="-112.1" y="-108.2" class="st2" width="2.9" height="4.1"/>
					</g>
				</g>
				<g id="Group_2352" transform="translate(0 19.656)">
					<g id="Group_2350" transform="translate(35.777 0)">
						<rect id="Rectangle_445" x="-101.3" y="-110.8" class="st2" width="2.9" height="4.1"/>
						<rect id="Rectangle_446" x="-106.7" y="-110.8" class="st2" width="2.9" height="4.1"/>
						<rect id="Rectangle_447" x="-112" y="-110.8" class="st2" width="2.9" height="4.1"/>
						<rect id="Rectangle_448" x="-117" y="-110.8" class="st2" width="2.9" height="4.1"/>
						<rect id="Rectangle_449" x="-122" y="-110.8" class="st2" width="2.9" height="4.1"/>
					</g>
					<g id="Group_2351" transform="translate(0 0)">
						<rect id="Rectangle_450" x="-91.4" y="-110.8" class="st2" width="2.9" height="4.1"/>
						<rect id="Rectangle_451" x="-96.8" y="-110.8" class="st2" width="2.9" height="4.1"/>
						<rect id="Rectangle_452" x="-102" y="-110.8" class="st2" width="2.9" height="4.1"/>
						<rect id="Rectangle_453" x="-107" y="-110.8" class="st2" width="2.9" height="4.1"/>
						<rect id="Rectangle_454" x="-112.1" y="-110.8" class="st2" width="2.9" height="4.1"/>
					</g>
				</g>
			</g>
			<rect id="Rectangle_455" x="-61.7" y="-96.1" class="st6" width="2.4" height="4.2"/>
			<rect id="Rectangle_456" x="-85.7" y="-96.1" class="st6" width="2.4" height="4.2"/>
			<rect id="Rectangle_457" x="-104.8" y="-96.1" class="st6" width="2.4" height="4.2"/>
		</g>
		<g id="Group_2365" transform="translate(346.886 193.151)">
			<rect id="Rectangle_458" x="-134" y="-94.6" class="st3" width="55.9" height="38.1"/>
			<rect id="Rectangle_459" x="-134" y="-99.6" class="st2" width="55.9" height="12.3"/>
			<g id="Group_2364" transform="translate(3.831 21.969)">
				<g id="Group_2357" transform="translate(0 0)">
					<g id="Group_2355" transform="translate(35.777)">
						<rect id="Rectangle_460" x="-124.3" y="-105.5" class="st2" width="2.9" height="4.1"/>
						<rect id="Rectangle_461" x="-129.7" y="-105.5" class="st2" width="2.9" height="4.1"/>
						<rect id="Rectangle_462" x="-135" y="-105.5" class="st2" width="2.9" height="4.1"/>
						<rect id="Rectangle_463" x="-139.9" y="-105.5" class="st2" width="2.9" height="4.1"/>
						<rect id="Rectangle_464" x="-145" y="-105.5" class="st2" width="2.9" height="4.1"/>
					</g>
					<g id="Group_2356">
						<rect id="Rectangle_465" x="-114.3" y="-105.5" class="st2" width="2.9" height="4.1"/>
						<rect id="Rectangle_466" x="-119.7" y="-105.5" class="st2" width="2.9" height="4.1"/>
						<rect id="Rectangle_467" x="-125" y="-105.5" class="st2" width="2.9" height="4.1"/>
						<rect id="Rectangle_468" x="-130" y="-105.5" class="st2" width="2.9" height="4.1"/>
						<rect id="Rectangle_469" x="-135" y="-105.5" class="st2" width="2.9" height="4.1"/>
					</g>
				</g>
				<g id="Group_2360" transform="translate(0 9.904)">
					<g id="Group_2358" transform="translate(35.777 0)">
						<rect id="Rectangle_470" x="-124.3" y="-108.2" class="st2" width="2.9" height="4.1"/>
						<rect id="Rectangle_471" x="-129.7" y="-108.2" class="st2" width="2.9" height="4.1"/>
						<rect id="Rectangle_472" x="-135" y="-108.2" class="st2" width="2.9" height="4.1"/>
						<rect id="Rectangle_473" x="-139.9" y="-108.2" class="st2" width="2.9" height="4.1"/>
						<rect id="Rectangle_474" x="-145" y="-108.2" class="st2" width="2.9" height="4.1"/>
					</g>
					<g id="Group_2359" transform="translate(0 0)">
						<rect id="Rectangle_475" x="-114.3" y="-108.2" class="st2" width="2.9" height="4.1"/>
						<rect id="Rectangle_476" x="-119.7" y="-108.2" class="st2" width="2.9" height="4.1"/>
						<rect id="Rectangle_477" x="-125" y="-108.2" class="st2" width="2.9" height="4.1"/>
						<rect id="Rectangle_478" x="-130" y="-108.2" class="st2" width="2.9" height="4.1"/>
						<rect id="Rectangle_479" x="-135" y="-108.2" class="st2" width="2.9" height="4.1"/>
					</g>
				</g>
				<g id="Group_2363" transform="translate(0 19.656)">
					<g id="Group_2361" transform="translate(35.777 0)">
						<rect id="Rectangle_480" x="-124.3" y="-110.8" class="st2" width="2.9" height="4.1"/>
						<rect id="Rectangle_481" x="-129.7" y="-110.8" class="st2" width="2.9" height="4.1"/>
						<rect id="Rectangle_482" x="-135" y="-110.8" class="st2" width="2.9" height="4.1"/>
						<rect id="Rectangle_483" x="-139.9" y="-110.8" class="st2" width="2.9" height="4.1"/>
						<rect id="Rectangle_484" x="-145" y="-110.8" class="st2" width="2.9" height="4.1"/>
					</g>
					<g id="Group_2362" transform="translate(0 0)">
						<rect id="Rectangle_485" x="-114.3" y="-110.8" class="st2" width="2.9" height="4.1"/>
						<rect id="Rectangle_486" x="-119.7" y="-110.8" class="st2" width="2.9" height="4.1"/>
						<rect id="Rectangle_487" x="-125" y="-110.8" class="st2" width="2.9" height="4.1"/>
						<rect id="Rectangle_488" x="-130" y="-110.8" class="st2" width="2.9" height="4.1"/>
						<rect id="Rectangle_489" x="-135" y="-110.8" class="st2" width="2.9" height="4.1"/>
					</g>
				</g>
			</g>
			<rect id="Rectangle_490" x="-84.7" y="-96.1" class="st6" width="2.4" height="4.2"/>
			<rect id="Rectangle_491" x="-108.6" y="-96.1" class="st6" width="2.4" height="4.2"/>
			<rect id="Rectangle_492" x="-127.7" y="-96.1" class="st6" width="2.4" height="4.2"/>
		</g>
		<g id="Group_2376" transform="translate(509.166 193.151)">
			<rect id="Rectangle_493" x="-179.2" y="-94.6" class="st3" width="55.9" height="38.1"/>
			<rect id="Rectangle_494" x="-179.2" y="-99.6" class="st2" width="55.9" height="12.3"/>
			<g id="Group_2375" transform="translate(3.832 21.969)">
				<g id="Group_2368" transform="translate(0 0)">
					<g id="Group_2366" transform="translate(35.777)">
						<rect id="Rectangle_495" x="-169.5" y="-105.5" class="st2" width="2.9" height="4.1"/>
						<rect id="Rectangle_496" x="-174.9" y="-105.5" class="st2" width="2.9" height="4.1"/>
						<rect id="Rectangle_497" x="-180.2" y="-105.5" class="st2" width="2.9" height="4.1"/>
						<rect id="Rectangle_498" x="-185.1" y="-105.5" class="st2" width="2.9" height="4.1"/>
						<rect id="Rectangle_499" x="-190.2" y="-105.5" class="st2" width="2.9" height="4.1"/>
					</g>
					<g id="Group_2367">
						<rect id="Rectangle_500" x="-159.5" y="-105.5" class="st2" width="2.9" height="4.1"/>
						<rect id="Rectangle_501" x="-164.9" y="-105.5" class="st2" width="2.9" height="4.1"/>
						<rect id="Rectangle_502" x="-170.2" y="-105.5" class="st2" width="2.9" height="4.1"/>
						<rect id="Rectangle_503" x="-175.2" y="-105.5" class="st2" width="2.9" height="4.1"/>
						<rect id="Rectangle_504" x="-180.2" y="-105.5" class="st2" width="2.9" height="4.1"/>
					</g>
				</g>
				<g id="Group_2371" transform="translate(0 9.904)">
					<g id="Group_2369" transform="translate(35.777 0)">
						<rect id="Rectangle_505" x="-169.5" y="-108.2" class="st2" width="2.9" height="4.1"/>
						<rect id="Rectangle_506" x="-174.9" y="-108.2" class="st2" width="2.9" height="4.1"/>
						<rect id="Rectangle_507" x="-180.2" y="-108.2" class="st2" width="2.9" height="4.1"/>
						<rect id="Rectangle_508" x="-185.1" y="-108.2" class="st2" width="2.9" height="4.1"/>
						<rect id="Rectangle_509" x="-190.2" y="-108.2" class="st2" width="2.9" height="4.1"/>
					</g>
					<g id="Group_2370" transform="translate(0 0)">
						<rect id="Rectangle_510" x="-159.5" y="-108.2" class="st2" width="2.9" height="4.1"/>
						<rect id="Rectangle_511" x="-164.9" y="-108.2" class="st2" width="2.9" height="4.1"/>
						<rect id="Rectangle_512" x="-170.2" y="-108.2" class="st2" width="2.9" height="4.1"/>
						<rect id="Rectangle_513" x="-175.2" y="-108.2" class="st2" width="2.9" height="4.1"/>
						<rect id="Rectangle_514" x="-180.2" y="-108.2" class="st2" width="2.9" height="4.1"/>
					</g>
				</g>
				<g id="Group_2374" transform="translate(0 19.656)">
					<g id="Group_2372" transform="translate(35.777 0)">
						<rect id="Rectangle_515" x="-169.5" y="-110.8" class="st2" width="2.9" height="4.1"/>
						<rect id="Rectangle_516" x="-174.9" y="-110.8" class="st2" width="2.9" height="4.1"/>
						<rect id="Rectangle_517" x="-180.2" y="-110.8" class="st2" width="2.9" height="4.1"/>
						<rect id="Rectangle_518" x="-185.1" y="-110.8" class="st2" width="2.9" height="4.1"/>
						<rect id="Rectangle_519" x="-190.2" y="-110.8" class="st2" width="2.9" height="4.1"/>
					</g>
					<g id="Group_2373" transform="translate(0 0)">
						<rect id="Rectangle_520" x="-159.5" y="-110.8" class="st2" width="2.9" height="4.1"/>
						<rect id="Rectangle_521" x="-164.9" y="-110.8" class="st2" width="2.9" height="4.1"/>
						<rect id="Rectangle_522" x="-170.2" y="-110.8" class="st2" width="2.9" height="4.1"/>
						<rect id="Rectangle_523" x="-175.2" y="-110.8" class="st2" width="2.9" height="4.1"/>
						<rect id="Rectangle_524" x="-180.2" y="-110.8" class="st2" width="2.9" height="4.1"/>
					</g>
				</g>
			</g>
			<rect id="Rectangle_525" x="-129.9" y="-96.1" class="st6" width="2.4" height="4.2"/>
			<rect id="Rectangle_526" x="-153.8" y="-96.1" class="st6" width="2.4" height="4.2"/>
			<rect id="Rectangle_527" x="-173" y="-96.1" class="st6" width="2.4" height="4.2"/>
		</g>
	</g>
	<path id="Path_2837" class="st7" d="M632.5,462.8c0-0.2,0-0.4,0-0.7c0-1.4,0-2.8,0-3.9c-0.1-1.8-0.5-3.4-1.4-5c-0.6-1-1.2-2-2-2.8
		l-2.2-1.8l-7.4-6l-0.1-0.1c0.1-0.1,0.3-0.4,0.4-0.6c0.1-0.4,0.2-0.7,0.2-1.1v-4.3c0-1.3-1.1-2.4-2.4-2.4h-0.7
		c-0.4,0-0.9,0.1-1.2,0.4l-5.1-11c-0.3-1.4-0.6-2.7-1.2-4c-1.4-3.7-5.3-6.2-9.7-6.2H562l0,0l0,0v0.1h-50.1v54.7h6.2
		c0.6,2.8,2.2,4.9,4.3,4.9h2.8c2,0,3.7-2,4.3-4.9h13c0.6,2.8,2.2,4.9,4.3,4.9h2.8c2,0,3.7-2,4.3-4.9h29.2c-0.1-0.6-0.1-1.2-0.1-1.8
		c0-0.1,0-0.1,0-0.1l0.1,1.9h1.4c0.6,2.8,2.2,4.9,4.3,4.9h2.8c2,0,3.7-2,4.3-4.9h21c0.6,2.8,2.2,4.9,4.3,4.9h2.8c2,0,3.8-2.1,4.3-5
		C630.5,467.7,632.5,465.5,632.5,462.8z"/>
	<g id="Group_2384" transform="translate(309.687 372.385)">
		<g id="Group_2378" transform="translate(376.113 75.409)">
			<path id="Path_2838" class="st8" d="M-127.9-71.7v11.3c0,3.5-2.8,6.4-6.3,6.4l0,0h-2c-3.5,0-6.3-2.8-6.3-6.4v-11.3
				c0-1.2,0.3-2.3,0.9-3.3l0,0c1.2-1.9,3.2-3.1,5.3-3.1h2C-130.7-78.1-127.9-75.3-127.9-71.7z"/>
			<path id="Path_2839" class="st9" d="M-128.6-57.6c-1.1,2.1-3.2,3.5-5.6,3.5h-2c-3.5,0-6.3-2.8-6.3-6.4v-11.3
				c0-1.2,0.3-2.3,0.9-3.3C-141.4-74.3-138.7-58.8-128.6-57.6z"/>
		</g>
		<path id="Path_2840" class="st10" d="M149,86.5h30.9V54.9h-32.3L149,86.5z"/>
		<path id="Path_2841" class="st11" d="M246.5,19.7L94.4,23.5v-81.2h99.9c9.5,0,18.3,5.4,22.6,14l6.6,12.9L246.5,19.7z"/>
		<g id="Group_2379" transform="translate(263.933 165.711)">
			<path id="Path_2842" class="st12" d="M-103.7-84.4c0,8.6,4.4,18,4.4,18h7.4c6.5,0,11.8-8.1,11.8-18s-12.7-18-19.2-18
				C-105.9-102.4-103.7-94.3-103.7-84.4z"/>
			<ellipse id="Ellipse_83" class="st13" cx="-99.4" cy="-84.4" rx="11.8" ry="18"/>
			<ellipse id="Ellipse_84" class="st10" cx="-99.3" cy="-84.4" rx="8.9" ry="13.6"/>
		</g>
		<g id="Group_2380" transform="translate(381.945 165.711)">
			<path id="Path_2843" class="st12" d="M-136.6-84.4c0,8.6,4.4,18,4.4,18h7.4c6.5,0,11.8-8.1,11.8-18s-12.7-18-19.2-18
				C-138.8-102.4-136.6-94.3-136.6-84.4z"/>
			<path id="Path_2844" class="st13" d="M-144-84.4c0,10,5.3,18,11.8,18c6.5,0,11.8-8.1,11.8-18s-5.3-18-11.8-18
				C-138.8-102.4-144-94.3-144-84.4z"/>
			<path id="Path_2845" class="st10" d="M-141-84.4c0,7.5,4,13.6,8.9,13.6c4.9,0,8.9-6.1,8.9-13.6c0-7.5-4-13.6-8.9-13.6
				C-137-98-141-91.9-141-84.4z"/>
		</g>
		<g id="Group_2381" transform="translate(110.942 165.711)">
			<path id="Path_2846" class="st12" d="M-61.1-84.4c0,8.6,4.4,18,4.4,18h7.4c6.5,0,11.8-8.1,11.8-18s-12.7-18-19.2-18
				S-61.1-94.3-61.1-84.4z"/>
			<path id="Path_2847" class="st13" d="M-68.6-84.4c0,10,5.3,18,11.8,18s11.8-8.1,11.8-18s-5.3-18-11.8-18S-68.6-94.3-68.6-84.4z"
				/>
			<path id="Path_2848" class="st10" d="M-65.5-84.4c0,7.5,4,13.6,8.9,13.6s8.9-6.1,8.9-13.6c0-7.5-4-13.6-8.9-13.6
				S-65.5-91.9-65.5-84.4z"/>
		</g>
		<path id="Path_2849" class="st11" d="M280.6,72.8c0,7.5-6,13.7-13.4,13.7l0,0h-87.2c0.3-1.5,0.4-3.1,0.4-4.6
			c0-11.7-6.9-21.2-15.4-21.2s-15.4,9.5-15.4,21.2c0,1.5,0.1,3.1,0.4,4.6H98.8c0,0-2-23-1.8-34.6c0.2-10.1,0.2-29.7-0.4-34.6
			c0-0.7,49.1-0.8,61.5-0.9c1.7,0,2.7,0,2.8,0l0.1,0.1l0.2,0.1c2.3,1.6,15.1,10.7,23.1,16.1c7,4.7,58.8,6.6,79.1,7.2
			c5.1,0.1,8.2,0.2,8.2,0.2c2,2.3,3.8,4.7,5.3,7.5c2.2,3.9,3.5,8.5,3.6,13c0,3.1,0,6.8,0,10.4C280.6,71.6,280.6,72.3,280.6,72.8z"/>
		<path id="Path_2850" class="st14" d="M234.3,16.4h-68.3c-1.6,0-3-0.9-3.7-2.4l-16.9-38.1c-0.4-0.9,0-2,0.9-2.5
			c0.2-0.1,0.5-0.1,0.7-0.1h72.1c1.6,0,3,0.9,3.7,2.4l12.1,28.1l3,7c0.9,2-0.1,4.5-2.1,5.3C235.4,16.4,234.8,16.4,234.3,16.4z"/>
		<path id="Path_2851" class="st8" d="M202.4,71c0,1.2-0.1,2.3-0.1,3.3c-0.5,6.6-7.1,12.1-7.1,12.1h-15.3c0.9-5.2,0.2-10.6-1.8-15.5
			c-2.7-6.1-7.6-10.3-13.3-10.3c-5.6,0-10.5,4.1-13.3,10.3c-2,4.9-2.7,10.2-1.8,15.5H94.5V-57.8h44.4v28.6c0,0,13.3,31.6,19.3,45.6
			c1.5,3.5,2.5,5.8,2.8,6.4c1.3,2.6,32.2,18.4,37.4,23.1C201.2,48.5,202.6,62,202.4,71z"/>
		<path id="Path_2852" class="st14" d="M139.4-19.9L154,16.4h-25c0,0-5.1-0.9-5.8-11.5c-0.7-11.3-0.7-30.8-0.7-30.8l11-0.1
			C137.6-25.3,138.2-22.9,139.4-19.9z"/>
		<path id="Path_2853" class="st11" d="M271.7,40.1h-81l-29.6-23.5l-0.1-0.1h81.7l23.2,18.9L271.7,40.1z"/>
		<path id="Path_2854" class="st2" d="M277,47.6c-0.4,0.7-1,1.2-1.7,1.4l-11.3,2.1c-0.9,0.2-1.7-1.5-1.4-3.2l1.1-7.7v-0.2l0.2-1.6
			c0.2-1.4,0.8-2.4,1.5-2.7l0.6-0.2l5.8,4.7C273.7,42.4,275.5,44.9,277,47.6z"/>
		<path id="Path_2855" class="st8" d="M201.2,54l-7.3-0.7c-2.5-0.2-4.6-2.2-5.1-4.7l-1.7-9.4c-0.1-0.1-0.1-0.3,0-0.4
			c5.2,3.1,9.6,5.8,11.3,7.2C199.6,47.1,200.5,50.1,201.2,54z"/>
		<path id="Path_2856" class="st2" d="M215.1,55.4L201.3,54l0,0l-7.3-0.7c-2.5-0.2-4.6-2.2-5.1-4.7l-1.7-9.4c-0.1-0.1-0.1-0.3,0-0.4
			l0,0c-0.1-1.8,1.3-3.1,3-3.2c0.2,0,0.5,0,0.7,0.1l21.6,4.5c1.4,0.3,2.5,1.3,2.8,2.7l2.5,9.5c0.4,1.4-0.4,2.8-1.8,3.1
			C215.7,55.4,215.4,55.4,215.1,55.4z"/>
		<path id="Path_2857" class="st11" d="M223.4-30.9H139c-0.4-4-1.2-7.9-2.5-11.7c-1.9-5.5-5.1-11.7-10.8-15.2h69
			c11.3,0,21.2,6.1,25.2,15.2c0.2,0.4,0.4,0.7,0.5,1.1C221.7-38.1,222.7-34.5,223.4-30.9z"/>
		<path id="Path_2858" class="st14" d="M201.2,54l-7.4-0.7c-2.5-0.2-4.6-2.2-5.1-4.7l-1.7-9.4c-0.1-0.1-0.1-0.3,0-0.4
			c5.2,3.1,9.6,5.8,11.3,7.3C199.6,47.1,200.5,50.1,201.2,54z"/>
		<path id="Path_2859" class="st9" d="M280.6,72.8c0,7.5-6.3,13.7-14.1,13.7h-86.5c0.9-5.2,0.2-10.6-1.8-15.5h102.4
			C280.6,71.6,280.6,72.3,280.6,72.8z"/>
		<path id="Path_2860" class="st9" d="M149.4,81.9c0,1.5,0.1,3.1,0.4,4.6H94.5V71h57.1C150.1,74.5,149.4,78.2,149.4,81.9z"/>
		<path id="Path_2861" class="st9" d="M223.6,40.8h33.1c1.1,0,1.9,1.5,1.7,3.1l-1.2,11.7c-0.1,1.7-1.2,3-2.2,3h-27.3
			c-1.7,0-3.3-1.8-3.8-4.3l-1.9-9.9C221.6,42.5,222.4,40.8,223.6,40.8z"/>
		<path id="Path_2862" class="st2" d="M235,3.8c-39-2-65.5-23.2-73.4-30.5h57.7c1.6,0,3,0.9,3.7,2.4L235,3.8z"/>
		<rect id="Rectangle_528" x="-37.7" y="-57.8" class="st15" width="147.8" height="144.3"/>
		<path id="Path_2863" class="st12" d="M146.5-2.2c0,0,1.3,14.7-5.9,18.7H154L146.5-2.2z"/>
		<path id="Path_2864" class="st12" d="M148.5,7.7c0,0-3-2.2-3.2-3.9V14h4L148.5,7.7z"/>
		<g id="Group_2382" transform="translate(233.317 75.409)">
			<path id="Path_2865" class="st11" d="M-88.1-71.7v11.3c0,3.5-2.8,6.4-6.3,6.4l0,0h-2c-3.5,0-6.3-2.8-6.3-6.4v-11.3
				c0-1.2,0.3-2.3,0.9-3.3l0,0c1.2-1.9,3.2-3.1,5.3-3.1h2C-90.9-78.1-88.1-75.3-88.1-71.7z"/>
			<path id="Path_2866" class="st9" d="M-88.8-57.6c-1.1,2.1-3.2,3.5-5.6,3.5h-2c-3.5,0-6.3-2.8-6.3-6.4v-11.3
				c0-1.2,0.3-2.3,0.9-3.3C-101.6-74.3-99-58.8-88.8-57.6z"/>
		</g>
		<path id="Path_2867" class="st10" d="M10.6,86.5h-36.4c-0.8-3.3-3.1-27,17.3-27C10.1,59.6,11.4,81.1,10.6,86.5z"/>
		<g id="Group_2383" transform="translate(22.022 165.711)">
			<path id="Path_2868" class="st12" d="M-36.4-84.4c0,8.6,4.4,18,4.4,18h7.4c6.5,0,11.8-8.1,11.8-18s-12.7-18-19.2-18
				S-36.4-94.3-36.4-84.4z"/>
			<path id="Path_2869" class="st13" d="M-43.8-84.4c0,10,5.3,18,11.8,18s11.8-8.1,11.8-18s-5.3-18-11.8-18S-43.8-94.3-43.8-84.4z"
				/>
			<path id="Path_2870" class="st10" d="M-40.8-84.4c0,7.5,4,13.6,8.9,13.6s8.9-6.1,8.9-13.6c0-7.5-4-13.6-8.9-13.6
				S-40.8-91.9-40.8-84.4z"/>
		</g>
		<path id="Path_2871" class="st16" d="M223.4-30.9H139c-0.4-4-1.2-7.9-2.5-11.7h83.3c0.2,0.4,0.4,0.7,0.5,1.1
			C221.7-38.1,222.7-34.5,223.4-30.9z"/>
	</g>
	<path id="Path_2872" class="st17" d="M461.3,225.3c-15.2,0-27.6,12.5-27.6,28l0,0c0,15.4,27.6,49.8,27.6,49.8s27.6-34.3,27.6-49.8
		C488.9,237.9,476.5,225.3,461.3,225.3z M461.3,266.1c-7.1,0-12.9-5.8-12.9-13.1s5.8-13.1,12.9-13.1s12.9,5.8,12.9,13.1l0,0
		C474.2,260.2,468.4,266.1,461.3,266.1L461.3,266.1z"/>
	<path id="Path_2874" class="st18" d="M722.1,472.1c0,0-28.6,0.1-72.3,0.1c-0.6-0.3-1-0.4-1-0.4s4.9-27.3,30.5-33.2
		c25.6-5.8,25.9-30.9,41.9-35.9c13.1-4.1,24.9,1.3,32.9-0.1C766.7,443.1,722.1,472.1,722.1,472.1z"/>
	
		<linearGradient id="Rectangle_529_1_" gradientUnits="userSpaceOnUse" x1="-202.4172" y1="182.3016" x2="-203.1408" y2="182.3016" gradientTransform="matrix(804.148 0 0 3.11 163537.6094 -93.9499)">
		<stop  offset="0" style="stop-color:#0F6BC7"/>
		<stop  offset="1" style="stop-color:#41BA03"/>
	</linearGradient>
	<path id="Rectangle_529" class="st19" d="M185.2,471.8h577.9c0.6,0,1.2,0.5,1.2,1.2l0,0c0,0.7-0.5,1.2-1.2,1.2H185.2
		c-0.6,0-1.2-0.5-1.2-1.2l0,0C184.1,472.4,184.6,471.8,185.2,471.8z"/>
	<g id="Group_2403" transform="translate(238.653 267.97)">
		<g id="Group_2386" transform="translate(0 73.384)">
			<path id="Path_2875" class="st20" d="M103.6,31.1c0,0-0.4,0.4-0.9,1c-2.2,2.4-8.2,9.1-14.8,16.6c-1.6,1.8-3.2,3.7-4.8,5.5
				c-2.4,2.8-4.8,5.6-6.9,8.3l0,0c-0.6,0.8-1.3,1.6-1.9,2.3c-1.3,1.6-2.5,3.2-3.6,4.7c-3.3,4.5-5.7,8-6.1,9.9
				c-2.7,11.3,2.5,43.3,3.9,51.1H-4.9c2.2-16.2,5.3-39.1,5.7-42.6c0.6-5.5-18.3-29.1-18.6-46.2C-18.1,24.4-6.9,12.2-5.1-4.8
				c0.9-8-0.1-18.3-1.4-27.2c-0.6-4.7-1.4-8.9-2-12.1c-0.3-1.5,0.1-2.9,1.2-4c0.2-0.3,0.5-0.5,0.9-0.7c1.2-0.8,2.8-0.9,4.1-0.4
				c4.2,1.8,8.9,6.6,10,18.6c0,0,3.5,2.3,9.2,5.9c2.3,1.5,5,3.1,7.9,5c2.2,1.5,4.7,3,7.2,4.6c0.1,0.1,0.4,0.2,0.5,0.3
				c1,0.7,2,1.3,3.1,2l0,0c0.4,0.2,0.7,0.5,1.2,0.7c0.6,0.4,1.4,0.9,2.1,1.3c0.1,0.1,0.3,0.2,0.4,0.3c4.6,3,9.5,6.1,14.3,9.2l0,0
				c0.8,0.4,1.6,1,2.4,1.5c0.6,0.4,1.2,0.8,1.9,1.2c0.8,0.5,1.6,1,2.4,1.5l0,0c5.5,3.5,10.9,7,15.9,10.2c0.8,0.5,1.6,1,2.4,1.5
				c0.6,0.4,1.2,0.8,1.8,1.2c0.8,0.5,1.6,1,2.3,1.5l0,0c9.7,6.1,17.1,11,19.8,12.7C103.1,30.9,103.6,31.1,103.6,31.1z"/>
			<path id="Path_2876" class="st21" d="M-2.8-36.1c0.1,2-1.3,3.7-3.2,4.1L-6.5-32c-0.6-4.7-1.4-8.9-2-12.1
				c-0.3-1.5-0.7-3.1-0.6-4.7c3.2-1.6,4.4,2.3,4.8,3.8C-3.6-42-3.1-39.1-2.8-36.1z"/>
		</g>
		<path id="Path_2877" class="st22" d="M83,127.6c-2.4,2.8-4.8,5.6-6.9,8.3l0,0c-0.6,0.8-1.3,1.6-1.9,2.3c-1.3,1.6-2.5,3.2-3.6,4.7
			c-3.3,4.5-5.7,8-6.1,9.8c-2.7,11.3,2.5,43.3,3.9,51.1H20.7c8.8-13.3,10-36.8,10-47.6c0-2.7,0.9-6,2.3-9.4
			c2.7-6.6,7.2-14.1,11.4-20.2c3.9-5.7,7.4-10.3,8.9-12.1l0,0c0.4-0.5,0.7-0.9,0.7-0.9l26.3-1.1l0,0l0.4,1.9l0.3,1.6l1.2,6.6
			L83,127.6z"/>
		<g id="Group_2401" transform="translate(26.997)">
			<g id="Group_2390">
				<path id="Path_2878" class="st23" d="M74.5,139.7L-4.2,148c-2.5,0.2-4.7-1.5-5-4.1L-25.4-15.5c-0.2-2.5,1.5-4.7,4-5l78.7-8.3
					c2.5-0.2,4.7,1.5,5,4.1l16.2,159.3C78.9,137.2,77.1,139.5,74.5,139.7z"/>
				<path id="Path_2879" class="st17" d="M83,138.8l-78.7,8.3c-2.5,0.2-4.7-1.5-5-4.1L-16.9-16.4c-0.2-2.5,1.5-4.7,4-5l78.7-8.3
					c2.5-0.2,4.7,1.5,5,4.1l16.2,159.3C87.3,136.3,85.5,138.6,83,138.8z"/>
				<g id="Group_2387" transform="translate(52.332 12.551)">
					<path id="Path_2880" class="st24" d="M-11.3-32.2c-0.1-0.5-0.5-0.9-1-0.8l-22.8,2.4c-0.5,0.1-0.9,0.4-0.8,0.9
						c0.1,0.5,0.4,0.9,0.9,0.8c0,0,0,0,0.1,0l22.8-2.4C-11.6-31.3-11.3-31.7-11.3-32.2z"/>
					<path id="Path_2881" class="st24" d="M-39.2-30.2c-0.5,0.1-0.9,0.5-0.8,1c0.1,0.5,0.5,0.9,1,0.8c0.5-0.1,0.9-0.5,0.8-1l0,0
						C-38.2-29.9-38.7-30.3-39.2-30.2z"/>
				</g>
				<path id="Path_2882" class="st25" d="M49.6,132.9c-0.4-3.2-3.2-5.6-6.3-5.2c-3.2,0.4-5.5,3.2-5.1,6.4c0.4,3.2,3.2,5.6,6.3,5.2
					C47.6,139,49.9,136.1,49.6,132.9L49.6,132.9z"/>
				<polygon id="Rectangle_530" class="st26" points="-8.6,-8.3 64.3,-15.9 78.2,120.3 5.3,128 				"/>
				<polygon id="Rectangle_531" class="st27" points="3.7,112.1 76.6,104.5 78.2,120.4 5.3,128 				"/>
				<g id="Group_2388" transform="translate(71.53 190.819)">
					<path id="Path_2883" class="st28" d="M-44.4-75.5l37.6-3.9c0.4-0.1,0.7-0.4,0.7-0.9c-0.1-0.4-0.4-0.7-0.9-0.7l0,0l-37.6,3.9
						c-0.4,0.1-0.7,0.4-0.7,0.9l0,0l0,0C-45.2-75.8-44.9-75.4-44.4-75.5L-44.4-75.5z"/>
					<path id="Path_2884" class="st28" d="M-5.8-76.8c-0.1-0.4-0.4-0.7-0.9-0.7l0,0l-37.6,3.9c-0.4,0.1-0.7,0.4-0.7,0.9
						c0.1,0.4,0.4,0.7,0.9,0.7l37.6-3.9C-6-76-5.7-76.4-5.8-76.8L-5.8-76.8z"/>
				</g>
				<path id="Path_2885" class="st23" d="M21.2,111.9c-0.1-0.5-0.1-1-0.4-1.5c-0.9-2.3-3.1-3.6-5.5-3.4c-2.4,0.2-4.3,2-4.7,4.4
					c-0.1,0.5-0.1,1-0.1,1.6c0.3,3,6.3,9.1,6.3,9.1S21.5,114.9,21.2,111.9z M16.1,114.9c-1.4,0.1-2.6-0.9-2.7-2.3
					c-0.1-0.5,0.1-1.1,0.4-1.5c0.4-0.7,1.1-1.2,1.9-1.2c0.8-0.1,1.6,0.2,2.1,0.8c0.9,1,0.9,2.6-0.1,3.6
					C17.2,114.6,16.7,114.9,16.1,114.9L16.1,114.9z"/>
				<g id="Group_2389" transform="translate(37.458 47.5)">
					<polygon id="Rectangle_532" class="st23" points="-35.8,-36.6 6.2,-41 9.8,-5.9 -32.3,-1.5 					"/>
					<polygon id="Rectangle_533" class="st28" points="-14.8,-38.8 20.6,-42.5 24.2,-7.4 -11.2,-3.7 					"/>
					<path id="Path_2886" class="st25" d="M23.3-16.2l0.9,8.9l-35.4,3.7l-3.6-35.1L23.3-16.2z"/>
					<path id="Path_2887" class="st28" d="M-33.1-10.4l6.6-0.7l-0.8-1.8l0.4-1.4l-6.6,0.7L-33.1-10.4z"/>
					<path id="Path_2888" class="st28" d="M-34.5-24.5l6.6-0.7l-0.8-1.8l0.4-1.4l-6.6,0.7L-34.5-24.5z"/>
					<path id="Path_2889" class="st25" d="M21.8-30.4l-6.6,0.7l0.4-2L14.8-33l6.6-0.7L21.8-30.4z"/>
				</g>
			</g>
			<g id="Group_2400" transform="translate(41.677 110.701)">
				<g id="Group_2392">
					<g id="Group_2391" transform="translate(0 5.626)">
						<path id="Path_2890" class="st29" d="M-30.1-60.3c-0.2-0.1-0.4-0.3-0.7-0.4c-0.7-0.3-1.4-0.4-2.2-0.3
							c-1.8,0.2-3.2,1.5-3.8,3.1c-0.2,0.6-0.3,1.2-0.2,1.8c0.3,2.5,2.5,4.3,4.9,4c0.9-0.1,1.9-0.5,2.5-1.2c1.1-0.9,1.6-2.3,1.4-3.8
							C-28.2-58.3-29-59.5-30.1-60.3z M-29.9-53.4c-0.6,0.5-1.4,0.9-2.2,0.9c-2.2,0.2-4.1-1.4-4.3-3.6c-0.1-0.5,0-1,0.1-1.5
							c0.4-1.6,1.7-2.8,3.4-2.9c0.6-0.1,1.2,0,1.8,0.3c0.3,0.1,0.5,0.2,0.8,0.4c1.8,1.2,2.3,3.7,1.1,5.6
							C-29.4-53.9-29.6-53.7-29.9-53.4L-29.9-53.4z"/>
					</g>
					<path id="Path_2891" class="st23" d="M-35.1-52.9l2.8,4.5l3.8-11l-4.1,7.8L-35.1-52.9z"/>
				</g>
				<g id="Group_2394" transform="translate(2.357 22.712)">
					<g id="Group_2393" transform="translate(0 5.622)">
						<path id="Path_2892" class="st29" d="M-28.7-63c-0.1-1.4-0.9-2.6-2-3.4c-0.2-0.1-0.4-0.3-0.7-0.4c-0.7-0.3-1.4-0.4-2.2-0.3
							c-2.5,0.3-4.3,2.5-4,5c0.3,2.5,2.5,4.3,4.9,4C-30.3-58.3-28.5-60.5-28.7-63L-28.7-63z M-32.7-58.6c-2.2,0.2-4.1-1.3-4.3-3.5
							c-0.2-2.2,1.3-4.2,3.5-4.4h0.1c0.6-0.1,1.2,0,1.8,0.3c0.3,0.1,0.5,0.2,0.8,0.4c0.9,0.7,1.6,1.8,1.7,2.9
							C-29.1-60.8-30.6-58.9-32.7-58.6z"/>
					</g>
					<path id="Path_2893" class="st23" d="M-35.8-59l2.8,4.5l3.8-11l-4.1,7.8L-35.8-59z"/>
				</g>
				<g id="Group_2396" transform="translate(4.712 51.035)">
					<g id="Group_2395">
						<path id="Path_2894" class="st29" d="M-29.4-69.1c-0.3-2.5-2.5-4.3-4.9-4c-2.5,0.3-4.3,2.5-4,5s2.5,4.3,4.9,4
							C-30.9-64.5-29.1-66.7-29.4-69.1z M-33.4-64.7c-2.2,0.2-4.1-1.4-4.3-3.6s1.4-4.2,3.5-4.4c2.2-0.2,4.1,1.4,4.3,3.6
							C-29.7-66.9-31.2-65-33.4-64.7z"/>
					</g>
				</g>
				<g id="Group_2397" transform="translate(20.181 0.851)">
					<path id="Path_2895" class="st29" d="M0.4-58l-42.1,4.4c-0.4,0.1-0.8-0.3-0.9-0.7v-0.1c-0.1-0.4,0.3-0.8,0.7-0.9l42.1-4.4
						C0.7-59.8,1-59.4,1.1-59v0.1C1.1-58.4,0.7-58,0.4-58z"/>
					<path id="Path_2896" class="st29" d="M0.7-54.9l-42.1,4.4c-0.4,0.1-0.8-0.3-0.9-0.7v-0.1c-0.1-0.4,0.3-0.8,0.7-0.9l42.1-4.4
						c0.4-0.1,0.8,0.3,0.9,0.7v0.1C1.4-55.3,1.1-54.9,0.7-54.9z"/>
				</g>
				<g id="Group_2398" transform="translate(22.532 23.601)">
					<path id="Path_2897" class="st29" d="M-0.3-64.1l-42.1,4.4c-0.4,0.1-0.8-0.3-0.9-0.7v-0.1c-0.1-0.4,0.3-0.8,0.7-0.9l42.1-4.4
						c0.4-0.1,0.8,0.3,0.9,0.7v0.1C0.4-64.5,0.1-64.2-0.3-64.1z"/>
					<path id="Path_2898" class="st29" d="M0-61L-42-56.6c-0.4,0.1-0.8-0.3-0.9-0.7v-0.1c-0.1-0.4,0.3-0.8,0.7-0.9l42.1-4.4
						c0.4-0.1,0.8,0.3,0.9,0.7v0.1C0.7-61.4,0.4-61,0-61z"/>
				</g>
				<g id="Group_2399" transform="translate(24.884 46.351)">
					<path id="Path_2899" class="st29" d="M-0.9-70.2L-43-65.8c-0.4,0.1-0.8-0.3-0.9-0.7v-0.1c-0.1-0.4,0.3-0.8,0.7-0.9L-1.1-72
						c0.4-0.1,0.8,0.3,0.9,0.7v0.1C-0.2-70.7-0.6-70.3-0.9-70.2z"/>
					<path id="Path_2900" class="st29" d="M-0.6-67.1l-42.1,4.4c-0.4,0.1-0.8-0.3-0.9-0.7v-0.1c-0.1-0.4,0.3-0.8,0.7-0.9l42.1-4.4
						c0.4-0.1,0.8,0.3,0.9,0.7v0.1C0.1-67.5-0.2-67.1-0.6-67.1z"/>
				</g>
			</g>
		</g>
		<g id="Group_2402" transform="translate(143.74 27.408)">
			<path id="Path_2901" class="st20" d="M-43.7-30.8c0,0,11.4-10.3,18.9-4.5s-16.8,24.7-16.8,24.7L-43.7-30.8z"/>
			<path id="Path_2902" class="st20" d="M-30.5,11.4l-13.3,7.5c-3.9,2.1-8.7,0.7-10.9-3.1l-2.2-3.9c-2.1-3.9-0.7-8.8,3.1-11
				l13.3-7.5c3.9-2.1,8.7-0.7,10.9,3.1l2.2,3.9C-25.2,4.3-26.6,9.2-30.5,11.4z"/>
			<path id="Path_2903" class="st20" d="M-28.2,33.9l-13.3,7.5c-3.9,2.1-8.7,0.7-10.9-3.1l-2.2-3.9c-2.1-3.9-0.7-8.8,3.1-11
				l13.3-7.5c3.9-2.1,8.7-0.7,10.9,3.1l2.2,3.9C-22.9,26.8-24.3,31.7-28.2,33.9z"/>
			<path id="Path_2904" class="st20" d="M-25.9,55.8l-13.3,7.5c-3.9,2.1-8.7,0.7-10.9-3.1l-2.2-3.9c-2.1-3.9-0.7-8.8,3.1-11
				l13.3-7.5c3.9-2.1,8.7-0.7,10.9,3.1l2.2,3.9C-20.7,48.7-22.1,53.6-25.9,55.8z"/>
			<path id="Path_2905" class="st21" d="M-56.2,6.4c2.3-1.8,4.8-3.4,7.4-4.8c1.8-0.9,3.9-0.2,4.9,1.5l2.9,4.9c1,1.7,0.5,3.9-1.2,5
				c-2.5,1.6-5.2,3-7.9,4.2c-2.1,0.9-4.5,0.1-5.6-1.9l-1.7-3.1C-58.4,10.2-57.9,7.7-56.2,6.4z"/>
			<path id="Path_2906" class="st21" d="M-53.8,29.5c2.3-1.8,4.8-3.4,7.4-4.8c1.8-0.9,3.9-0.2,4.9,1.5l2.9,4.9c1,1.7,0.5,3.9-1.2,5
				c-2.5,1.6-5.2,3-7.9,4.2c-2.1,0.9-4.5,0.1-5.6-1.9l-1.7-3.1C-56,33.3-55.5,30.8-53.8,29.5z"/>
			<path id="Path_2907" class="st21" d="M-51.1,51.2c2.3-1.8,4.8-3.4,7.4-4.8c1.8-0.9,3.9-0.2,4.9,1.5l2.9,4.9c1,1.7,0.5,3.9-1.2,5
				c-2.5,1.6-5.2,3-7.9,4.2c-2.1,0.9-4.5,0.1-5.6-1.9l-1.7-3.1C-53.4,55-52.9,52.5-51.1,51.2z"/>
		</g>
	</g>
	<g id="Group_2404" transform="matrix(0.848, 0.53, -0.53, 0.848, 448.262, 628.645)">
		<path id="Path_2908" class="st23" d="M-111.9-49.7l30.8,5.1l-20.4-14.5l-1.1,4.5l-7.5,1.2L-111.9-49.7z"/>
		<path id="Path_2909" class="st28" d="M-81.1-44.7l-25.6-13.8l-25.1-1.7L-81.1-44.7z"/>
		<path id="Path_2910" class="st28" d="M-101.5-59.1l20.4,14.5l-15.7-22.2L-101.5-59.1z"/>
	</g>
	<g id="Group_2405" transform="translate(399.767 235.061)">
		<path id="Path_2911" class="st23" d="M-38.9-0.9l-23.8-12.4l21.3,0.4L-43-9.1l4.6,4.7L-38.9-0.9z"/>
		<path id="Path_2912" class="st28" d="M-62.7-13.3l24.6,3.6l18.3,11.8L-62.7-13.3z"/>
		<path id="Path_2913" class="st28" d="M-41.5-12.9l-21.3-0.4l22-7.5L-41.5-12.9z"/>
	</g>
	<path id="Path_2914" class="st30" d="M289.7,238.2c-1-23.7,70.6-114.9,120.7-81.5s-11.7,81.6-13.9,121.2s35.6,64.9,33.5,103.8
		c-2.2,38.9-49.9,117.9-39.9,137.7"/>
</g>
</svg>
