<svg id="local_move_illustration" data-name="local move illustration" xmlns="http://www.w3.org/2000/svg" width="170" height="144.207" viewBox="0 0 170 144.207">
  <g id="Group_87" data-name="Group 87">
    <g id="Group_4" data-name="Group 4" transform="translate(3.908 103.366)">
      <g id="Group_3" data-name="Group 3" transform="translate(0 0.017)">
        <path id="Path_3" data-name="Path 3" d="M197.283,308.239,148.05,279.512V271.34l49.233,28.694Z" transform="translate(-148.05 -271.34)" fill="#afbbd8"/>
      </g>
      <path id="Path_4" data-name="Path 4" d="M177.15,289.5l4.974-2.927v8.189L177.15,297.7Z" transform="translate(-127.917 -260.786)" fill="#9eaac8"/>
      <path id="Path_5" data-name="Path 5" d="M151.226,271.33l45.24,26.325,2.961-1.743,2.013,1.2-4.974,2.927L149.23,272.531Z" transform="translate(-147.234 -271.33)" fill="#ccd8f5"/>
    </g>
    <g id="Group_6" data-name="Group 6" transform="translate(3.908 103.366)">
      <g id="Group_5" data-name="Group 5" transform="translate(0 0.017)">
        <path id="Path_6" data-name="Path 6" d="M197.283,308.239,148.05,279.512V271.34l49.233,28.694Z" transform="translate(-148.05 -271.34)" fill="#afbbd8"/>
      </g>
      <path id="Path_7" data-name="Path 7" d="M177.15,289.5l4.974-2.927v8.189L177.15,297.7Z" transform="translate(-127.917 -260.786)" fill="#9eaac8"/>
      <path id="Path_8" data-name="Path 8" d="M151.226,271.33l45.24,26.325,2.961-1.743,2.013,1.2-4.974,2.927L149.23,272.531Z" transform="translate(-147.234 -271.33)" fill="#ccd8f5"/>
    </g>
    <path id="Path_9" data-name="Path 9" d="M196.627,275.078l-8.087-4.788v13.349l8.087,4.788Z" transform="translate(-116.135 -168.684)" fill="#3d910c"/>
    <path id="Path_10" data-name="Path 10" d="M244.567,247.578l-8.087-4.788v13.349l8.087,4.788Z" transform="translate(-82.976 -187.645)" fill="#acbad9"/>
    <g id="Group_14" data-name="Group 14" transform="translate(139.107 65.755)">
      <g id="Group_9" data-name="Group 9">
        <g id="Group_8" data-name="Group 8">
          <path id="Path_11" data-name="Path 11" d="M242.063,249.629c-1.353-.8-3.181-.761-5.211.22a6.287,6.287,0,0,0-.66.355,17.952,17.952,0,0,0-6.97,8.476,15.43,15.43,0,0,0-1.252,5.769c0,2.605.931,4.433,2.4,5.3l5.583,3.248c-1.472-.863-2.4-2.69-2.4-5.3a15.36,15.36,0,0,1,1.252-5.769,17.871,17.871,0,0,1,6.97-8.476,6.29,6.29,0,0,1,.66-.355c2.03-.981,3.857-1.015,5.211-.22Z" transform="translate(-227.97 -249.069)" fill="#1c2024"/>
          <g id="Group_7" data-name="Group 7" transform="translate(5.583 3.247)">
            <path id="Path_12" data-name="Path 12" d="M239.509,252.125c4.551-2.639,8.256-.524,8.273,4.72.017,5.228-3.671,11.623-8.222,14.245-4.551,2.639-8.273.524-8.29-4.72C231.27,261.125,234.958,254.747,239.509,252.125Z" transform="translate(-231.27 -250.988)" fill="#1d2a36"/>
          </g>
        </g>
      </g>
      <path id="Path_13" data-name="Path 13" d="M244.176,256.958a12.547,12.547,0,0,1-5.668,9.83c-1.81,1.032-3.418,1.015-4.466.118a4.32,4.32,0,0,1-1.252-3.367,12.471,12.471,0,0,1,5.668-9.813,4.288,4.288,0,0,1,3.451-.626C243.3,253.456,244.159,254.843,244.176,256.958Z" transform="translate(-224.635 -246.382)" fill="#ccc"/>
      <path id="Path_14" data-name="Path 14" d="M243.178,256.457a12.573,12.573,0,0,1-5.668,9.83,4.244,4.244,0,0,1-3.468.609,4.32,4.32,0,0,1-1.252-3.367,12.471,12.471,0,0,1,5.668-9.813,2.774,2.774,0,0,1,4.72,2.741Z" transform="translate(-224.635 -246.389)" fill="#a6a6a6"/>
      <g id="Group_10" data-name="Group 10" transform="translate(8.155 7.224)">
        <path id="Path_15" data-name="Path 15" d="M236.773,254.171a1.661,1.661,0,0,1-.761,1.32c-.423.237-.761.051-.761-.44a1.661,1.661,0,0,1,.761-1.32A.468.468,0,0,1,236.773,254.171Z" transform="translate(-231.088 -253.137)" fill="#ccc"/>
        <path id="Path_16" data-name="Path 16" d="M235.463,254.834a1.3,1.3,0,0,1-.271,1.37c-.372.457-.829.575-1.049.271a1.3,1.3,0,0,1,.271-1.37C234.786,254.665,235.243,254.547,235.463,254.834Z" transform="translate(-231.927 -252.413)" fill="#ccc"/>
        <path id="Path_17" data-name="Path 17" d="M234.276,256.191c.372.034.491.491.288,1.049-.22.541-.677.964-1.049.931-.355-.034-.491-.491-.271-1.049C233.447,256.58,233.92,256.157,234.276,256.191Z" transform="translate(-232.55 -251.367)" fill="#ccc"/>
        <path id="Path_18" data-name="Path 18" d="M233.551,257.882c.423-.237.761-.051.761.44a1.661,1.661,0,0,1-.761,1.32c-.423.237-.761.051-.761-.44A1.661,1.661,0,0,1,233.551,257.882Z" transform="translate(-232.79 -250.267)" fill="#ccc"/>
        <path id="Path_19" data-name="Path 19" d="M233.478,259.44c.372-.457.829-.575,1.049-.271a1.308,1.308,0,0,1-.288,1.37c-.372.457-.829.575-1.049.288A1.331,1.331,0,0,1,233.478,259.44Z" transform="translate(-232.581 -249.422)" fill="#ccc"/>
        <path id="Path_20" data-name="Path 20" d="M234.051,260.461c.22-.541.677-.964,1.049-.931.355.034.491.491.271,1.049-.2.541-.677.964-1.049.93C233.966,261.476,233.848,261,234.051,260.461Z" transform="translate(-231.986 -249.056)" fill="#ccc"/>
        <path id="Path_21" data-name="Path 21" d="M235.15,260.672a1.661,1.661,0,0,1,.761-1.32c.423-.237.761-.051.761.44a1.661,1.661,0,0,1-.761,1.32C235.488,261.348,235.15,261.145,235.15,260.672Z" transform="translate(-231.157 -249.25)" fill="#ccc"/>
        <path id="Path_22" data-name="Path 22" d="M236.46,260.01a1.308,1.308,0,0,1,.288-1.37c.372-.457.829-.575,1.049-.271a1.3,1.3,0,0,1-.271,1.37C237.137,260.179,236.68,260.315,236.46,260.01Z" transform="translate(-230.319 -249.976)" fill="#ccc"/>
        <path id="Path_23" data-name="Path 23" d="M237.634,258.66c-.355-.034-.491-.491-.271-1.049.22-.541.677-.964,1.049-.931s.491.508.288,1.049C238.48,258.271,238.007,258.694,237.634,258.66Z" transform="translate(-229.7 -251.028)" fill="#ccc"/>
        <path id="Path_24" data-name="Path 24" d="M238.371,256.971c-.423.237-.761.051-.761-.44a1.661,1.661,0,0,1,.761-1.32c.423-.237.761-.051.761.44A1.714,1.714,0,0,1,238.371,256.971Z" transform="translate(-229.455 -252.114)" fill="#ccc"/>
        <path id="Path_25" data-name="Path 25" d="M238.449,255.4c-.372.457-.829.575-1.049.288a1.308,1.308,0,0,1,.288-1.37c.355-.457.829-.575,1.032-.271A1.24,1.24,0,0,1,238.449,255.4Z" transform="translate(-229.669 -252.964)" fill="#ccc"/>
        <path id="Path_26" data-name="Path 26" d="M237.875,254.39c-.22.541-.677.964-1.049.93s-.491-.508-.271-1.049c.2-.541.677-.964,1.049-.931C237.942,253.375,238.078,253.848,237.875,254.39Z" transform="translate(-230.261 -253.339)" fill="#ccc"/>
      </g>
      <g id="Group_13" data-name="Group 13" transform="translate(10.303 10.063)">
        <g id="Group_12" data-name="Group 12">
          <path id="Path_27" data-name="Path 27" d="M238.12,255.174a1.6,1.6,0,0,0-1.506.068c-.068.034-.118.068-.186.1a5.207,5.207,0,0,0-2.013,2.453,4.322,4.322,0,0,0-.355,1.675,1.657,1.657,0,0,0,.694,1.523l.812.474a1.676,1.676,0,0,1-.694-1.523,4.653,4.653,0,0,1,.355-1.675,5.207,5.207,0,0,1,2.013-2.453,1.84,1.84,0,0,0,.186-.1,1.6,1.6,0,0,1,1.506-.068Z" transform="translate(-234.06 -255.017)" fill="#414141"/>
          <g id="Group_11" data-name="Group 11" transform="translate(0.778 0.473)">
            <path id="Path_28" data-name="Path 28" d="M236.906,255.624c1.32-.761,2.386-.152,2.386,1.37a5.255,5.255,0,0,1-2.386,4.111c-1.32.761-2.386.152-2.386-1.37A5.255,5.255,0,0,1,236.906,255.624Z" transform="translate(-234.52 -255.296)" fill="gray"/>
          </g>
        </g>
      </g>
      <path id="Path_29" data-name="Path 29" d="M239.5,252.125c-4.551,2.622-8.239,9.018-8.222,14.245s3.722,7.343,8.29,4.72c4.551-2.639,8.239-9.018,8.222-14.245C247.759,251.6,244.054,249.485,239.5,252.125Zm-.947,15.531a4.244,4.244,0,0,1-3.468.609,4.32,4.32,0,0,1-1.252-3.367,12.471,12.471,0,0,1,5.668-9.813,4.287,4.287,0,0,1,3.451-.626,4.386,4.386,0,0,1,1.269,3.367A12.58,12.58,0,0,1,238.555,267.656Z" transform="translate(-225.68 -247.742)" fill="#1a1c1f"/>
    </g>
    <g id="Group_22" data-name="Group 22" transform="translate(57.754 111.519)">
      <g id="Group_17" data-name="Group 17">
        <g id="Group_16" data-name="Group 16">
          <path id="Path_30" data-name="Path 30" d="M193.973,276.709c-1.353-.8-3.181-.761-5.211.22a6.3,6.3,0,0,0-.66.355,17.952,17.952,0,0,0-6.97,8.476,15.43,15.43,0,0,0-1.252,5.769c0,2.605.931,4.433,2.4,5.3l5.583,3.248c-1.472-.863-2.4-2.69-2.4-5.3a15.36,15.36,0,0,1,1.252-5.769,17.871,17.871,0,0,1,6.97-8.476,6.29,6.29,0,0,1,.66-.355c2.03-.981,3.857-1.015,5.211-.22Z" transform="translate(-179.88 -276.149)" fill="#1c2024"/>
          <g id="Group_15" data-name="Group 15" transform="translate(5.583 3.247)">
            <path id="Path_31" data-name="Path 31" d="M191.419,279.2c4.551-2.639,8.273-.525,8.273,4.72.017,5.228-3.671,11.623-8.222,14.246-4.551,2.639-8.273.524-8.29-4.72C183.18,288.222,186.851,281.844,191.419,279.2Z" transform="translate(-183.18 -278.068)" fill="#1d2a36"/>
          </g>
        </g>
      </g>
      <path id="Path_32" data-name="Path 32" d="M196.086,284.038a12.547,12.547,0,0,1-5.668,9.83c-1.81,1.032-3.418,1.015-4.466.118a4.32,4.32,0,0,1-1.252-3.367,12.471,12.471,0,0,1,5.668-9.813,4.287,4.287,0,0,1,3.451-.626C195.206,280.553,196.069,281.94,196.086,284.038Z" transform="translate(-176.545 -273.462)" fill="#ccc"/>
      <path id="Path_33" data-name="Path 33" d="M195.088,283.547a12.573,12.573,0,0,1-5.668,9.83,4.244,4.244,0,0,1-3.468.609,4.32,4.32,0,0,1-1.252-3.367,12.471,12.471,0,0,1,5.668-9.813,4.287,4.287,0,0,1,3.451-.626A4.275,4.275,0,0,1,195.088,283.547Z" transform="translate(-176.545 -273.462)" fill="#a6a6a6"/>
      <g id="Group_18" data-name="Group 18" transform="translate(8.155 7.224)">
        <path id="Path_34" data-name="Path 34" d="M188.683,281.262a1.661,1.661,0,0,1-.761,1.32c-.423.237-.761.051-.761-.44a1.661,1.661,0,0,1,.761-1.32C188.327,280.585,188.683,280.771,188.683,281.262Z" transform="translate(-182.998 -280.211)" fill="#ccc"/>
        <path id="Path_35" data-name="Path 35" d="M187.363,281.927a1.3,1.3,0,0,1-.271,1.37c-.372.457-.829.575-1.049.271a1.3,1.3,0,0,1,.271-1.37C186.7,281.758,187.16,281.623,187.363,281.927Z" transform="translate(-183.844 -279.489)" fill="#ccc"/>
        <path id="Path_36" data-name="Path 36" d="M186.186,283.281c.372.034.491.491.288,1.049-.22.541-.677.964-1.049.931-.355-.034-.491-.491-.271-1.049C185.357,283.67,185.83,283.247,186.186,283.281Z" transform="translate(-184.46 -278.44)" fill="#ccc"/>
        <path id="Path_37" data-name="Path 37" d="M185.461,284.962c.423-.237.761-.051.761.44a1.661,1.661,0,0,1-.761,1.32c-.423.237-.761.051-.761-.44A1.687,1.687,0,0,1,185.461,284.962Z" transform="translate(-184.7 -277.347)" fill="#ccc"/>
        <path id="Path_38" data-name="Path 38" d="M185.374,286.53c.372-.457.829-.575,1.049-.271a1.332,1.332,0,0,1-.271,1.37c-.372.457-.829.575-1.049.288A1.316,1.316,0,0,1,185.374,286.53Z" transform="translate(-184.495 -276.495)" fill="#ccc"/>
        <path id="Path_39" data-name="Path 39" d="M185.961,287.551c.22-.541.677-.964,1.049-.93.355.034.491.491.271,1.049-.2.541-.677.964-1.049.931C185.876,288.566,185.758,288.093,185.961,287.551Z" transform="translate(-183.896 -276.13)" fill="#ccc"/>
        <path id="Path_40" data-name="Path 40" d="M187.06,287.751a1.661,1.661,0,0,1,.761-1.32c.423-.237.761-.051.761.44a1.661,1.661,0,0,1-.761,1.32C187.4,288.445,187.06,288.242,187.06,287.751Z" transform="translate(-183.067 -276.33)" fill="#ccc"/>
        <path id="Path_41" data-name="Path 41" d="M188.37,287.09a1.308,1.308,0,0,1,.288-1.37c.372-.457.829-.575,1.049-.271a1.3,1.3,0,0,1-.271,1.37C189.047,287.276,188.59,287.395,188.37,287.09Z" transform="translate(-182.229 -277.056)" fill="#ccc"/>
        <path id="Path_42" data-name="Path 42" d="M189.544,285.74c-.355-.034-.491-.491-.271-1.049.22-.541.677-.964,1.049-.93s.491.491.288,1.049C190.373,285.368,189.917,285.774,189.544,285.74Z" transform="translate(-181.61 -278.108)" fill="#ccc"/>
        <path id="Path_43" data-name="Path 43" d="M190.271,284.051c-.423.237-.761.051-.761-.44a1.661,1.661,0,0,1,.761-1.32c.423-.237.761-.051.761.44A1.619,1.619,0,0,1,190.271,284.051Z" transform="translate(-181.372 -279.194)" fill="#ccc"/>
        <path id="Path_44" data-name="Path 44" d="M190.359,282.493c-.372.457-.829.575-1.049.288a1.308,1.308,0,0,1,.288-1.37c.355-.457.829-.575,1.032-.271A1.24,1.24,0,0,1,190.359,282.493Z" transform="translate(-181.578 -280.037)" fill="#ccc"/>
        <path id="Path_45" data-name="Path 45" d="M189.775,281.47c-.22.541-.677.964-1.049.93s-.491-.508-.271-1.049c.2-.541.677-.964,1.049-.931C189.859,280.472,189.995,280.928,189.775,281.47Z" transform="translate(-182.178 -280.419)" fill="#ccc"/>
      </g>
      <g id="Group_21" data-name="Group 21" transform="translate(10.286 10.08)">
        <g id="Group_20" data-name="Group 20">
          <path id="Path_46" data-name="Path 46" d="M190.02,282.264a1.6,1.6,0,0,0-1.506.068,1.853,1.853,0,0,0-.186.1,5.208,5.208,0,0,0-2.013,2.453,4.321,4.321,0,0,0-.355,1.675,1.657,1.657,0,0,0,.694,1.523l.812.474a1.676,1.676,0,0,1-.694-1.523,4.653,4.653,0,0,1,.355-1.675,5.207,5.207,0,0,1,2.013-2.453,1.859,1.859,0,0,0,.186-.1,1.6,1.6,0,0,1,1.506-.068Z" transform="translate(-185.96 -282.107)" fill="#414141"/>
          <g id="Group_19" data-name="Group 19" transform="translate(0.795 0.456)">
            <path id="Path_47" data-name="Path 47" d="M188.816,282.7c1.32-.761,2.386-.152,2.386,1.37a5.255,5.255,0,0,1-2.386,4.111c-1.32.761-2.386.152-2.386-1.37A5.255,5.255,0,0,1,188.816,282.7Z" transform="translate(-186.43 -282.376)" fill="gray"/>
          </g>
        </g>
      </g>
      <path id="Path_48" data-name="Path 48" d="M191.412,279.2c-4.551,2.622-8.239,9.018-8.222,14.245s3.722,7.343,8.29,4.72c4.551-2.639,8.239-9.018,8.222-14.245C199.669,278.693,195.963,276.578,191.412,279.2Zm-.947,15.531a4.244,4.244,0,0,1-3.468.609,4.32,4.32,0,0,1-1.252-3.367,12.471,12.471,0,0,1,5.668-9.813,4.287,4.287,0,0,1,3.451-.626,4.386,4.386,0,0,1,1.269,3.367A12.554,12.554,0,0,1,190.465,294.732Z" transform="translate(-177.59 -274.817)" fill="#1a1c1f"/>
    </g>
    <path id="Path_49" data-name="Path 49" d="M155.02,271.591l-2-1.2-4.974,2.927,2,1.2Z" transform="translate(-144.142 -168.585)" fill="#afbbd8"/>
    <path id="Path_50" data-name="Path 50" d="M155.02,270.8l-2-1.2-4.974,2.944,2,1.2Z" transform="translate(-144.142 -169.13)" fill="#ccd8f5"/>
    <g id="Group_23" data-name="Group 23" transform="translate(84.342)">
      <path id="Path_51" data-name="Path 51" d="M240.4,252.437,267.263,234.4c0-1.472-40.841-23.618-40.841-23.618-.744-.829-2.538-.829-4.01.017L203.48,221.73l-3.79,2.182-1.421.812a5.686,5.686,0,0,0-2.639,3.84l44.343,25.547A4.153,4.153,0,0,0,240.4,252.437Z" transform="translate(-195.579 -210.164)" fill="#eff3fc"/>
      <path id="Path_52" data-name="Path 52" d="M195.634,221.05a3.035,3.035,0,0,0-.034.372v52.024l40.841,23.534,1.286-47.862a5.939,5.939,0,0,0,2.233-2.5Z" transform="translate(-195.6 -202.632)" fill="#acbad9"/>
    </g>
    <path id="Path_53" data-name="Path 53" d="M166.271,282.981c.118.135.237.254.355.389v.068a6.092,6.092,0,0,0-.677-.474v-.3C166.052,282.779,166.17,282.88,166.271,282.981Z" transform="translate(-131.761 -160.125)" fill="#c0c2c1"/>
    <path id="Path_54" data-name="Path 54" d="M165.95,305.6V248.96h.677v57.32C166.407,306.06,166.187,305.823,165.95,305.6Z" transform="translate(-131.761 -183.441)" fill="#bd4417"/>
    <g id="Group_64" data-name="Group 64" transform="translate(0 5.628)">
      <g id="Group_63" data-name="Group 63" transform="translate(3.502 45.68)">
        <g id="Group_24" data-name="Group 24">
          <path id="Path_55" data-name="Path 55" d="M147.81,240.56v50.823l44.343-25.615Z" transform="translate(-147.81 -240.56)" fill="#256003"/>
          <path id="Path_56" data-name="Path 56" d="M147.81,281.075v.017l47,26.833V256.966l-2.656-1.506Z" transform="translate(-147.81 -230.251)" fill="#256003"/>
        </g>
        <g id="Group_38" data-name="Group 38" transform="translate(4.23 21.47)">
          <g id="Group_33" data-name="Group 33">
            <g id="Group_31" data-name="Group 31">
              <g id="Group_30" data-name="Group 30">
                <g id="Group_25" data-name="Group 25" transform="translate(24.16 14.059)">
                  <path id="Path_57" data-name="Path 57" d="M185.112,261.56l-.051,17.883L164.59,291.337l.051-17.883Z" transform="translate(-164.59 -261.56)" fill="#c5975b"/>
                </g>
                <g id="Group_27" data-name="Group 27" transform="translate(0 11.894)">
                  <g id="Group_26" data-name="Group 26">
                    <path id="Path_58" data-name="Path 58" d="M174.52,274.339l-.051,17.883-24.16-14.059.051-17.883Z" transform="translate(-150.31 -260.28)" fill="#daaf6a"/>
                  </g>
                </g>
                <g id="Group_29" data-name="Group 29" transform="translate(0.051)">
                  <g id="Group_28" data-name="Group 28">
                    <path id="Path_59" data-name="Path 59" d="M194.971,267.309,174.5,279.2l-24.16-14.059,20.454-11.894Z" transform="translate(-150.34 -253.25)" fill="#efd996"/>
                  </g>
                </g>
              </g>
            </g>
            <g id="Group_32" data-name="Group 32" transform="translate(8.307 4.619)">
              <path id="Path_60" data-name="Path 60" d="M159.467,255.98l-4.247,2.47L179.4,272.509l4.23-2.453Z" transform="translate(-155.22 -255.98)" fill="#f7ecea"/>
            </g>
            <path id="Path_61" data-name="Path 61" d="M169.51,266.753l4.23-2.453v4.263L169.51,271Z" transform="translate(-137.027 -245.605)" fill="#c2ab9d"/>
          </g>
          <g id="Group_35" data-name="Group 35" transform="translate(38.236 26.611)">
            <g id="Group_34" data-name="Group 34" transform="translate(1.066 1.338)">
              <path id="Path_62" data-name="Path 62" d="M176.738,271.52v.423l-3.2,1.844v-.423Z" transform="translate(-173.54 -268.559)" fill="#5c4123"/>
              <path id="Path_63" data-name="Path 63" d="M175.351,272.849l-.355.2V270.8l-.355.22.541-1.252.541.626-.372.2Z" transform="translate(-172.779 -269.77)" fill="#5c4123"/>
              <path id="Path_64" data-name="Path 64" d="M174.418,273.4l-.372.2v-2.25l-.355.2.541-1.235.541.626-.355.2Z" transform="translate(-173.436 -269.39)" fill="#5c4123"/>
            </g>
            <path id="Path_65" data-name="Path 65" d="M172.91,275.816v-3.13a2.239,2.239,0,0,1,1.1-1.726l3.13-1.81c.609-.355,1.1-.135,1.1.457v3.13a2.239,2.239,0,0,1-1.1,1.726l-3.13,1.81C173.4,276.628,172.91,276.425,172.91,275.816Zm1.1-4.653a1.815,1.815,0,0,0-.88,1.387v3.13c0,.491.389.643.88.372l3.13-1.81a1.815,1.815,0,0,0,.88-1.387v-3.13c0-.491-.389-.643-.88-.372Z" transform="translate(-172.91 -268.979)" fill="#5c4123"/>
          </g>
          <g id="Group_36" data-name="Group 36" transform="translate(32.061 30.181)">
            <path id="Path_66" data-name="Path 66" d="M169.647,275.194c.017,0,.017-.017.017-.034a1.713,1.713,0,0,1,.66-.524c.389-.22.66-.3.66-.237,0,.017,0,.017.017,0,.017,0,.017-.017.017-.034,0-.068.22-.254.541-.457v1.929c.034.2.22.237.457.1a.963.963,0,0,0,.457-.711c0-.068-.051-.085-.1-.051a.224.224,0,0,0-.1.169.538.538,0,0,1-.254.372c-.271.152-.254-.186-.254-.186v-1.776c.321-.169.541-.237.541-.169,0,.017,0,.017.017,0,.017,0,.017-.017.017-.034a1.712,1.712,0,0,1,.66-.524c.389-.22.66-.3.66-.237,0,.017,0,.017.017,0,.017,0,.017-.017.017-.034-.034-.778-.863-1.083-1.878-.575h0c0-.051-.068-.051-.152-.017a.3.3,0,0,0-.152.186h0a4.18,4.18,0,0,0-1.878,2.741C169.63,275.21,169.63,275.21,169.647,275.194Z" transform="translate(-169.004 -270.505)" fill="#5c4123"/>
            <path id="Path_67" data-name="Path 67" d="M169.26,277.926V274.8a2.239,2.239,0,0,1,1.1-1.726l3.13-1.81c.609-.355,1.1-.135,1.1.457v3.13a2.239,2.239,0,0,1-1.1,1.726l-3.13,1.81C169.751,278.738,169.26,278.518,169.26,277.926Zm1.1-4.653a1.789,1.789,0,0,0-.88,1.387v3.13c0,.491.389.643.88.372l3.13-1.81a1.788,1.788,0,0,0,.88-1.387v-3.13c0-.491-.389-.643-.88-.372Z" transform="translate(-169.26 -271.089)" fill="#5c4123"/>
          </g>
          <g id="Group_37" data-name="Group 37" transform="translate(25.885 33.734)">
            <path id="Path_68" data-name="Path 68" d="M166.69,276.085c.017.491.338.694.761.491v1.557l-.541.3v.2l1.218-.694v-.2l-.541.3v-1.556a1.891,1.891,0,0,0,.761-1.37v-1.15l-1.658.964v1.15Z" transform="translate(-164.863 -272.649)" fill="#5c4123"/>
            <path id="Path_69" data-name="Path 69" d="M165.61,280.026V276.9a2.239,2.239,0,0,1,1.1-1.726l3.13-1.81c.609-.355,1.1-.135,1.1.457v3.13a2.239,2.239,0,0,1-1.1,1.726l-3.13,1.81C166.1,280.838,165.61,280.635,165.61,280.026Zm1.1-4.636a1.788,1.788,0,0,0-.88,1.387v3.13c0,.491.389.643.88.372l3.13-1.81a1.815,1.815,0,0,0,.88-1.387v-3.13c0-.491-.389-.643-.88-.372Z" transform="translate(-165.61 -273.189)" fill="#5c4123"/>
          </g>
        </g>
        <g id="Group_54" data-name="Group 54" transform="translate(6.124 10.676)">
          <g id="Group_53" data-name="Group 53">
            <g id="Group_46" data-name="Group 46">
              <g id="Group_45" data-name="Group 45">
                <g id="Group_40" data-name="Group 40" transform="translate(0 13.247)">
                  <g id="Group_39" data-name="Group 39">
                    <path id="Path_70" data-name="Path 70" d="M167.181,277.54l-6.4-3.705-3.248-1.895-6.057-3.519L151.43,254.7l6.108,3.536.406.237,9.187,5.346Z" transform="translate(-151.43 -254.7)" fill="#bb884f"/>
                  </g>
                </g>
                <g id="Group_42" data-name="Group 42" transform="translate(15.7 9.136)">
                  <g id="Group_41" data-name="Group 41">
                    <path id="Path_71" data-name="Path 71" d="M183.685,265.991l-9.847,5.685-3.265,1.878-9.813,5.668L160.71,265.5l9.863-5.7,3.265-1.878,9.8-5.651Z" transform="translate(-160.71 -252.27)" fill="#e0b477"/>
                  </g>
                </g>
                <g id="Group_44" data-name="Group 44">
                  <g id="Group_43" data-name="Group 43">
                    <path id="Path_72" data-name="Path 72" d="M190.055,256.006l-9.8,5.651-3.265,1.878-9.863,5.7-15.7-9.119,9.813-5.668,3.265-1.878,9.847-5.7Z" transform="translate(-151.43 -246.87)" fill="#efcd90"/>
                  </g>
                </g>
              </g>
            </g>
            <g id="Group_49" data-name="Group 49" transform="translate(9.373 5.955)" opacity="0.5">
              <g id="Group_48" data-name="Group 48">
                <g id="Group_47" data-name="Group 47">
                  <path id="Path_73" data-name="Path 73" d="M175.986,259.492l-3.265,1.878-15.751-9.085,3.265-1.895Z" transform="translate(-156.97 -250.39)" fill="#e4cdbf"/>
                </g>
              </g>
            </g>
            <path id="Path_74" data-name="Path 74" d="M169.545,255.77v13.738L166.28,271.4V257.648Z" transform="translate(-141.156 -240.713)" fill="#e4cdbf" opacity="0.5"/>
            <g id="Group_50" data-name="Group 50" transform="translate(9.813 5.702)">
              <path id="Path_75" data-name="Path 75" d="M176.246,259.325l-3.265,1.878-15.751-9.085,3.265-1.878Z" transform="translate(-157.23 -250.24)" fill="#f7ecea"/>
            </g>
            <g id="Group_51" data-name="Group 51" transform="translate(6.514 3.773)" opacity="0.6">
              <path id="Path_76" data-name="Path 76" d="M178.2,249.1l3.248,1.895-22.925,13.23-3.248-1.878Z" transform="translate(-155.28 -249.1)" fill="#f7ecea"/>
            </g>
            <path id="Path_77" data-name="Path 77" d="M158.511,258.808v13.7l-3.231-1.878v-13.7l.406.237Z" transform="translate(-148.766 -239.91)" fill="#c2ab9d" opacity="0.6"/>
            <g id="Group_52" data-name="Group 52" transform="translate(6.108 3.553)">
              <path id="Path_78" data-name="Path 78" d="M177.965,248.97l3.248,1.895L158.288,264.1,155.04,262.2Z" transform="translate(-155.04 -248.97)" fill="#f7ecea"/>
            </g>
            <path id="Path_79" data-name="Path 79" d="M158.288,258.685v13.7l-3.248-1.895v-13.7l.406.237Z" transform="translate(-148.932 -240.007)" fill="#c2ab9d"/>
          </g>
        </g>
        <g id="Group_62" data-name="Group 62" transform="translate(15.159 2.521)">
          <g id="Group_60" data-name="Group 60">
            <g id="Group_59" data-name="Group 59">
              <g id="Group_55" data-name="Group 55" transform="translate(11.657 6.767)">
                <path id="Path_80" data-name="Path 80" d="M175.182,246.05l-.068,11.741-11.454,6.615.068-11.724Z" transform="translate(-163.66 -246.05)" fill="#e0b477"/>
              </g>
              <g id="Group_56" data-name="Group 56" transform="translate(0 6.615)">
                <path id="Path_81" data-name="Path 81" d="M168.495,252.744l-.068,11.725-11.657-6.784.051-11.725Z" transform="translate(-156.77 -245.96)" fill="#bb884f"/>
              </g>
              <g id="Group_58" data-name="Group 58" transform="translate(0.051)">
                <g id="Group_57" data-name="Group 57">
                  <path id="Path_82" data-name="Path 82" d="M179.928,248.817l-11.454,6.632L156.8,248.665l11.454-6.615Z" transform="translate(-156.8 -242.05)" fill="#efcd90"/>
                </g>
              </g>
            </g>
          </g>
          <g id="Group_61" data-name="Group 61" transform="translate(4.686 2.572)">
            <path id="Path_83" data-name="Path 83" d="M161.909,243.57l-2.369,1.37,11.657,6.784,2.369-1.37Z" transform="translate(-159.54 -243.57)" fill="#f7ecea"/>
          </g>
          <path id="Path_84" data-name="Path 84" d="M166.447,248.95l2.352-1.37v2.386l-2.369,1.353Z" transform="translate(-150.087 -238.224)" fill="#c2ab9d"/>
        </g>
      </g>
      <path id="Path_85" data-name="Path 85" d="M199.744,283.973l-54-30.707,68.385-39.775L268.348,244.5Z" transform="translate(-145.74 -213.49)" fill="#41ba03"/>
      <path id="Path_86" data-name="Path 86" d="M177.66,283.973l14.381-70.483L246.265,244.5Z" transform="translate(-123.656 -213.49)" fill="#ff8c00" opacity="0.1"/>
      <path id="Path_87" data-name="Path 87" d="M246.248,231.76v59.029l-40.892,23.6-1.2.694c-.135-3.824-2.216-6.26-5.363-6.26a8.311,8.311,0,0,0-4.094,1.235c-4.737,2.741-8.578,9.39-8.561,14.837,0,.2,0,.389.017.592l-8.493,4.89V271.366Z" transform="translate(-123.656 -200.968)" fill="#41ba03"/>
      <path id="Path_88" data-name="Path 88" d="M246.248,231.76v59.029l-40.892,23.6-1.2.694c-.135-3.824-2.216-6.26-5.363-6.26a8.311,8.311,0,0,0-4.094,1.235c-4.737,2.741-8.578,9.39-8.561,14.837,0,.2,0,.389.017.592l-8.493,4.89v-.812Z" transform="translate(-123.656 -200.968)" fill="#de6000" opacity="0.1"/>
    </g>
    <path id="Path_89" data-name="Path 89" d="M263.2,239.033,250.559,224.7c-.744-.829-2.538-.829-4.01.017L227.634,235.65l-3.79,2.2-1.421.812a5.546,5.546,0,0,0-2.673,4.213V294.9l2.673-1.54,1.1-.626,3.3-1.912,3.84-2.216,7.495-4.331c-.017-.237-.034-.491-.034-.744-.017-5.448,3.824-12.1,8.561-14.838a8.312,8.312,0,0,1,4.094-1.235c3.2,0,5.279,2.521,5.363,6.429l3.434-1.979,2.3-1.32a5.546,5.546,0,0,0,2.673-4.2V243.229A7.336,7.336,0,0,0,263.2,239.033Z" transform="translate(-94.55 -200.573)" fill="#ccd8f5"/>
    <path id="Path_90" data-name="Path 90" d="M239.273,229.59v35.681c-3.316,3.587-5.651,7.173-6.023,11.758l-11.42,6.6V239.673Z" transform="translate(-93.111 -196.769)" fill="#acbad9"/>
    <g id="Group_65" data-name="Group 65" transform="translate(141.306 59.58)">
      <path id="XMLID_2_" d="M232.62,245.41v2.4l-3.35,2.064v-2.4Z" transform="translate(-229.27 -245.41)" fill="#8f9cbb"/>
      <path id="Path_91" data-name="Path 91" d="M232.265,247.559V245.63l.355-.22h0v2.4l-3.35,2.064V249.4Z" transform="translate(-229.27 -245.41)" fill="#eff3fc"/>
      <path id="Path_92" data-name="Path 92" d="M231.04,245.63v1.929l.355.254v-2.4Z" transform="translate(-228.045 -245.41)" fill="#ccd8f5"/>
    </g>
    <g id="Group_66" data-name="Group 66" transform="translate(4.889 107.788)">
      <g id="XMLID_31_">
        <path id="XMLID_38_" d="M148.63,274.438l4.179,2.453.829-.508-4.179-2.453Z" transform="translate(-148.63 -273.93)" fill="#d63a3b"/>
        <path id="XMLID_37_" d="M148.63,274.23v3.316L152.809,280v-3.316Z" transform="translate(-148.63 -273.722)" fill="#b32b2b"/>
        <path id="XMLID_36_" d="M151.1,275.888V279.2l.829-.491V275.38Z" transform="translate(-146.921 -272.927)" fill="#872220"/>
      </g>
    </g>
    <g id="Group_67" data-name="Group 67" transform="translate(46.708 132.077)">
      <g id="XMLID_39_">
        <path id="XMLID_43_" d="M173.35,288.808l4.179,2.453.829-.508-4.179-2.453Z" transform="translate(-173.35 -288.3)" fill="#d63a3b"/>
        <path id="XMLID_42_" d="M173.35,288.6v3.333l4.179,2.453v-3.333Z" transform="translate(-173.35 -288.092)" fill="#b32b2b"/>
        <path id="XMLID_41_" d="M175.82,290.258v3.333l.829-.508V289.75Z" transform="translate(-171.641 -287.297)" fill="#872220"/>
      </g>
    </g>
    <g id="Group_68" data-name="Group 68" transform="translate(128.702 32.864)">
      <path id="Path_93" data-name="Path 93" d="M233.561,231.56,221.82,254.992v-7.613l6.361-12.689Z" transform="translate(-221.82 -228.261)" fill="#2d3c4e"/>
      <path id="Path_94" data-name="Path 94" d="M228.181,233.41,221.82,246.1v-9Z" transform="translate(-221.82 -226.981)" fill="#29313b"/>
      <path id="Path_95" data-name="Path 95" d="M234.741,247.194V238.21l-6.361,12.672Z" transform="translate(-217.282 -223.66)" fill="#29313b"/>
      <path id="Path_96" data-name="Path 96" d="M239.28,229.61v7l-11.708,23.314-5.752,3.35v-6.937l11.741-23.432Z" transform="translate(-221.82 -229.61)" fill="#29313b"/>
      <path id="Path_97" data-name="Path 97" d="M236.928,241.3V233.75L225.22,257.064l5.346-3.1Z" transform="translate(-219.468 -226.746)" fill="#2d3c4e"/>
    </g>
    <g id="Group_69" data-name="Group 69" transform="translate(147.6 28.894)">
      <path id="Path_98" data-name="Path 98" d="M232.99,230.013v4.8l3.384-6.767Z" transform="translate(-232.99 -226.713)" fill="#29313b"/>
      <path id="Path_99" data-name="Path 99" d="M239.994,228.26l-7,13.975v11.183l4.28-2.487,7.969-15.886Z" transform="translate(-232.99 -226.568)" fill="#29313b"/>
      <path id="Path_100" data-name="Path 100" d="M238.692,227.26l-2.318,1.337-3.384,6.767v7.563l7-13.975Z" transform="translate(-232.99 -227.26)" fill="#2d3c4e"/>
      <path id="Path_101" data-name="Path 101" d="M243.489,232.27l-7.969,15.886,5.583-3.248,4.788-9.525Z" transform="translate(-231.24 -223.794)" fill="#2d3c4e"/>
      <path id="Path_102" data-name="Path 102" d="M243.608,234.11l-4.788,9.525,8.392-4.856Z" transform="translate(-228.957 -222.521)" fill="#29313b"/>
    </g>
    <path id="Path_103" data-name="Path 103" d="M145.74,237v58.91l54.021,30.826V267.707Zm50.5,83.7-47-26.816V243.023l44.343,25.208,2.656,1.506Z" transform="translate(-145.74 -191.715)" fill="#3d910c"/>
    <path id="Path_104" data-name="Path 104" d="M194.81,282.383l-47-26.816V240.56l44.343,25.209,2.656,1.506Z" transform="translate(-144.308 -189.196)" fill="#41ba03"/>
    <path id="Path_105" data-name="Path 105" d="M194.81,277.457l-47-26.816V247.68l47,26.714Z" transform="translate(-144.308 -184.276)" fill="#3d910c"/>
    <path id="Path_106" data-name="Path 106" d="M194.81,274.227l-47-26.816V244.45l47,26.714Z" transform="translate(-144.308 -186.505)" fill="#3d910c"/>
    <path id="Path_107" data-name="Path 107" d="M194.81,271.367l-47-26.816V241.59l47,26.731Z" transform="translate(-144.308 -188.478)" fill="#3d910c"/>
    <g id="Group_70" data-name="Group 70" transform="translate(37.099 126.098)">
      <path id="Path_108" data-name="Path 108" d="M167.67,288.055a.916.916,0,0,0,.423.728l7.495,4.331c.237.135.423.017.423-.237v-2.995a.916.916,0,0,0-.423-.728l-7.495-4.331c-.237-.135-.423-.017-.423.237Z" transform="translate(-167.67 -284.767)" fill="#10171e"/>
    </g>
    <g id="Group_71" data-name="Group 71" transform="translate(10.642 111.261)">
      <path id="Path_109" data-name="Path 109" d="M152.03,279.285a.916.916,0,0,0,.423.727l7.495,4.331c.237.135.423.017.423-.237v-2.995a.916.916,0,0,0-.423-.728l-7.495-4.331c-.237-.135-.423-.017-.423.237Z" transform="translate(-152.03 -275.997)" fill="#10171e"/>
    </g>
    <g id="Group_72" data-name="Group 72" transform="translate(164.011 65.107)">
      <g id="XMLID_19_">
        <path id="XMLID_22_" d="M246.869,249.1l-3.485,2.064-.694-.423,3.5-2.064Z" transform="translate(-242.69 -248.68)" fill="#00b1f7"/>
        <path id="XMLID_21_" d="M246.6,248.93v2.792l-3.5,2.047v-2.775l3.485-2.064Z" transform="translate(-242.406 -248.507)" fill="#019ae6"/>
        <path id="XMLID_20_" d="M243.384,250.323V253.1l-.694-.423V249.9Z" transform="translate(-242.69 -247.836)" fill="#027eaf"/>
      </g>
    </g>
    <g id="Group_73" data-name="Group 73" transform="translate(126.303 87.014)">
      <g id="XMLID_44_">
        <path id="XMLID_48_" d="M224.579,262.08l-3.485,2.047-.694-.423,3.485-2.064Z" transform="translate(-220.4 -261.64)" fill="#00b1f7"/>
        <path id="XMLID_46_" d="M224.3,261.9v2.775l-3.485,2.047v-2.775Z" transform="translate(-220.116 -261.46)" fill="#019ae6"/>
        <path id="XMLID_45_" d="M221.094,263.283v2.775l-.694-.423V262.86Z" transform="translate(-220.4 -260.796)" fill="#027eaf"/>
      </g>
    </g>
    <g id="Group_86" data-name="Group 86" transform="translate(111.597 0.924)">
      <g id="Group_77" data-name="Group 77">
        <g id="Group_76" data-name="Group 76">
          <g id="Group_74" data-name="Group 74" transform="translate(0 0.812)">
            <path id="Path_110" data-name="Path 110" d="M217.488,213.06v.575l-2.538,1.472v-.575Z" transform="translate(-209.468 -209.896)" fill="#27272e"/>
            <path id="Path_111" data-name="Path 111" d="M211.71,212.06v.592l5.482,3.147v-.575Z" transform="translate(-211.71 -210.588)" fill="#1a1a1f"/>
            <path id="Path_112" data-name="Path 112" d="M217.192,215.826l2.538-1.472-5.566-3.164-2.453,1.472Z" transform="translate(-211.71 -211.19)" fill="#42424d"/>
          </g>
          <g id="Group_75" data-name="Group 75" transform="translate(0.829)">
            <path id="Path_113" data-name="Path 113" d="M216.724,212.26v1.3l-1.844,1.083v-1.32Z" transform="translate(-210.346 -209.638)" fill="#00b1f7"/>
            <path id="Path_114" data-name="Path 114" d="M212.2,211.34v1.32l4.534,2.622v-1.32Z" transform="translate(-212.2 -210.274)" fill="#027eaf"/>
            <path id="Path_115" data-name="Path 115" d="M216.734,214.4l1.844-1.066-4.619-2.622-1.76,1.066Z" transform="translate(-212.2 -210.71)" fill="#019ae6"/>
          </g>
        </g>
      </g>
      <g id="Group_81" data-name="Group 81" transform="translate(13.856 7.986)">
        <g id="Group_80" data-name="Group 80">
          <g id="Group_78" data-name="Group 78" transform="translate(0 0.812)">
            <path id="Path_116" data-name="Path 116" d="M225.685,217.78v.575l-2.555,1.489v-.575Z" transform="translate(-217.665 -214.616)" fill="#27272e"/>
            <path id="Path_117" data-name="Path 117" d="M219.9,216.79v.592l5.465,3.147v-.575Z" transform="translate(-219.9 -215.301)" fill="#1a1a1f"/>
            <path id="Path_118" data-name="Path 118" d="M225.365,220.563l2.555-1.489-5.566-3.164L219.9,217.4Z" transform="translate(-219.9 -215.91)" fill="#42424d"/>
          </g>
          <g id="Group_79" data-name="Group 79" transform="translate(0.812)">
            <path id="Path_119" data-name="Path 119" d="M224.9,216.98v1.32l-1.827,1.066v-1.3Z" transform="translate(-218.519 -214.358)" fill="#00b1f7"/>
            <path id="Path_120" data-name="Path 120" d="M220.38,216.07v1.3L224.931,220v-1.3Z" transform="translate(-220.38 -214.987)" fill="#027eaf"/>
            <path id="Path_121" data-name="Path 121" d="M224.931,219.135l1.827-1.083-4.6-2.622-1.776,1.083Z" transform="translate(-220.38 -215.43)" fill="#019ae6"/>
          </g>
        </g>
      </g>
      <g id="Group_85" data-name="Group 85" transform="translate(27.696 15.988)">
        <g id="Group_84" data-name="Group 84">
          <g id="Group_82" data-name="Group 82" transform="translate(0 0.812)">
            <path id="Path_122" data-name="Path 122" d="M233.858,222.51v.575l-2.538,1.472v-.575Z" transform="translate(-225.838 -219.346)" fill="#27272e"/>
            <path id="Path_123" data-name="Path 123" d="M228.08,221.51v.592l5.482,3.147v-.575Z" transform="translate(-228.08 -220.038)" fill="#1a1a1f"/>
            <path id="Path_124" data-name="Path 124" d="M233.562,225.276,236.1,223.8l-5.566-3.164-2.453,1.472Z" transform="translate(-228.08 -220.64)" fill="#42424d"/>
          </g>
          <g id="Group_83" data-name="Group 83" transform="translate(0.829)">
            <path id="Path_125" data-name="Path 125" d="M233.094,221.71v1.3l-1.844,1.066v-1.3Z" transform="translate(-226.716 -219.088)" fill="#00b1f7"/>
            <path id="Path_126" data-name="Path 126" d="M228.57,220.79v1.32l4.534,2.605v-1.3Z" transform="translate(-228.57 -219.724)" fill="#027eaf"/>
            <path id="Path_127" data-name="Path 127" d="M233.1,223.848l1.844-1.066-4.619-2.622-1.76,1.066Z" transform="translate(-228.57 -220.16)" fill="#019ae6"/>
          </g>
        </g>
      </g>
    </g>
  </g>
  <g id="Group_101" data-name="Group 101" transform="translate(87.696 101.962)">
    <g id="Group_96" data-name="Group 96">
      <g id="Group_94" data-name="Group 94">
        <g id="Group_93" data-name="Group 93">
          <g id="Group_88" data-name="Group 88" transform="translate(23.28 13.552)">
            <path id="Path_128" data-name="Path 128" d="M231.1,278.51l-.051,17.223L211.34,307.2l.051-17.24Z" transform="translate(-211.34 -278.51)" fill="#c5975b"/>
          </g>
          <g id="Group_90" data-name="Group 90" transform="translate(0 11.454)">
            <g id="Group_89" data-name="Group 89">
              <path id="Path_129" data-name="Path 129" d="M220.911,290.822l-.051,17.24-23.28-13.569.034-17.223Z" transform="translate(-197.58 -277.27)" fill="#daaf6a"/>
            </g>
          </g>
          <g id="Group_92" data-name="Group 92" transform="translate(0.034)">
            <g id="Group_91" data-name="Group 91">
              <path id="Path_130" data-name="Path 130" d="M240.607,284.052,220.9,295.506l-23.3-13.552L217.327,270.5Z" transform="translate(-197.6 -270.5)" fill="#efd996"/>
            </g>
          </g>
        </g>
      </g>
      <g id="Group_95" data-name="Group 95" transform="translate(8.002 4.45)">
        <path id="Path_131" data-name="Path 131" d="M206.387,273.13,202.31,275.5l23.3,13.552,4.077-2.369Z" transform="translate(-202.31 -273.13)" fill="#f7ecea"/>
      </g>
      <path id="Path_132" data-name="Path 132" d="M216.08,283.509l4.077-2.369v4.111L216.08,287.6Z" transform="translate(-184.781 -263.139)" fill="#c2ab9d"/>
    </g>
    <g id="Group_98" data-name="Group 98" transform="translate(36.832 25.62)">
      <g id="Group_97" data-name="Group 97" transform="translate(1.032 1.315)">
        <path id="Path_133" data-name="Path 133" d="M223.039,288.11v.389l-3.079,1.793v-.406Z" transform="translate(-219.96 -285.251)" fill="#5c4123"/>
        <path id="Path_134" data-name="Path 134" d="M221.714,289.381l-.338.2v-2.166l-.355.2.525-1.2.524.592-.355.2Z" transform="translate(-219.227 -286.42)" fill="#5c4123"/>
        <path id="Path_135" data-name="Path 135" d="M220.8,289.918l-.355.2v-2.183l-.338.2.524-1.2.508.609-.338.2Z" transform="translate(-219.856 -286.06)" fill="#5c4123"/>
      </g>
      <path id="Path_136" data-name="Path 136" d="M219.35,292.253v-3.028a2.21,2.21,0,0,1,1.066-1.675l3.028-1.743c.575-.338,1.066-.135,1.066.44v3.028a2.21,2.21,0,0,1-1.066,1.675l-3.028,1.743C219.824,293.031,219.35,292.828,219.35,292.253Zm1.066-4.483a1.732,1.732,0,0,0-.846,1.337v3.028c0,.474.372.626.846.355l3.028-1.743a1.732,1.732,0,0,0,.846-1.337v-3.028c0-.474-.372-.626-.846-.355Z" transform="translate(-219.35 -285.643)" fill="#5c4123"/>
    </g>
    <g id="Group_99" data-name="Group 99" transform="translate(30.893 29.054)">
      <path id="Path_137" data-name="Path 137" d="M216.228,291.634c.017,0,.017-.017.017-.034,0-.068.254-.288.626-.508s.626-.288.626-.22c0,.017,0,.017.017,0,.017,0,.017-.017.017-.034,0-.068.22-.254.524-.44v1.878c.034.2.22.237.44.1a.886.886,0,0,0,.44-.694c0-.068-.051-.085-.1-.051a.224.224,0,0,0-.1.169.48.48,0,0,1-.254.355c-.271.152-.237-.169-.237-.169V290.28c.321-.169.524-.22.524-.169,0,.017,0,.017.017,0,.017,0,.017-.017.017-.034,0-.068.254-.288.626-.508s.626-.288.626-.22c0,.017,0,.017.017,0,.017,0,.017-.017.017-.034-.034-.744-.829-1.049-1.81-.558h0c0-.051-.068-.051-.152-.017-.085.051-.152.118-.152.186h0a4.033,4.033,0,0,0-1.81,2.656C216.211,291.634,216.228,291.651,216.228,291.634Z" transform="translate(-215.619 -287.088)" fill="#5c4123"/>
      <path id="Path_138" data-name="Path 138" d="M215.84,294.283v-3.028a2.21,2.21,0,0,1,1.066-1.675l3.028-1.743c.575-.338,1.066-.135,1.066.44v3.028a2.21,2.21,0,0,1-1.066,1.675l-3.028,1.743C216.314,295.061,215.84,294.858,215.84,294.283Zm1.049-4.483a1.732,1.732,0,0,0-.846,1.337v3.028c0,.474.372.626.846.355l3.028-1.743a1.732,1.732,0,0,0,.846-1.337v-3.028c0-.474-.372-.626-.846-.355Z" transform="translate(-215.84 -287.673)" fill="#5c4123"/>
    </g>
    <g id="Group_100" data-name="Group 100" transform="translate(24.938 32.488)">
      <path id="Path_139" data-name="Path 139" d="M213.367,292.493c.017.474.338.677.728.474v1.489l-.525.3v.186l1.167-.677v-.186l-.524.3V292.9a1.754,1.754,0,0,0,.727-1.32v-1.1l-1.59.93v1.083Z" transform="translate(-211.607 -289.165)" fill="#5c4123"/>
      <path id="Path_140" data-name="Path 140" d="M212.32,296.313v-3.028a2.21,2.21,0,0,1,1.066-1.675l3.028-1.743c.575-.338,1.066-.135,1.066.44v3.028a2.21,2.21,0,0,1-1.066,1.675l-3.028,1.743C212.794,297.091,212.32,296.888,212.32,296.313Zm1.049-4.483a1.732,1.732,0,0,0-.846,1.337v3.028c0,.474.372.626.846.355l3.028-1.743a1.732,1.732,0,0,0,.846-1.337v-3.028c0-.474-.372-.626-.846-.355Z" transform="translate(-212.32 -289.703)" fill="#5c4123"/>
    </g>
  </g>
  <g id="Group_117" data-name="Group 117" transform="translate(89.523 91.557)">
    <g id="Group_116" data-name="Group 116">
      <g id="Group_109" data-name="Group 109">
        <g id="Group_108" data-name="Group 108">
          <g id="Group_103" data-name="Group 103" transform="translate(0 12.757)">
            <g id="Group_102" data-name="Group 102">
              <path id="Path_141" data-name="Path 141" d="M213.819,293.9l-6.141-3.57-3.13-1.81-5.854-3.4-.034-13.23,5.888,3.418.389.237,8.848,5.143Z" transform="translate(-198.66 -271.89)" fill="#bb884f"/>
            </g>
          </g>
          <g id="Group_105" data-name="Group 105" transform="translate(15.125 8.798)">
            <g id="Group_104" data-name="Group 104">
              <path id="Path_142" data-name="Path 142" d="M229.729,282.78l-9.491,5.465-3.13,1.81-9.474,5.465-.034-13.213,9.508-5.5,3.13-1.81,9.457-5.448Z" transform="translate(-207.6 -269.55)" fill="#e0b477"/>
            </g>
          </g>
          <g id="Group_107" data-name="Group 107">
            <g id="Group_106" data-name="Group 106">
              <path id="Path_143" data-name="Path 143" d="M235.881,273.148l-9.457,5.448-3.13,1.81-9.508,5.5-15.125-8.8,9.457-5.465,3.13-1.81,9.508-5.482Z" transform="translate(-198.66 -264.35)" fill="#efcd90"/>
            </g>
          </g>
        </g>
      </g>
      <g id="Group_112" data-name="Group 112" transform="translate(9.034 5.735)" opacity="0.5">
        <g id="Group_111" data-name="Group 111">
          <g id="Group_110" data-name="Group 110">
            <path id="Path_144" data-name="Path 144" d="M222.323,276.5l-3.147,1.81L204,269.567l3.147-1.827Z" transform="translate(-204 -267.74)" fill="#e4cdbf"/>
          </g>
        </g>
      </g>
      <path id="Path_145" data-name="Path 145" d="M216.117,272.92v13.247l-3.147,1.827V274.73Z" transform="translate(-188.76 -258.421)" fill="#e4cdbf" opacity="0.5"/>
      <path id="Path_146" data-name="Path 146" d="M216.357,272.77v13.264l-3.147,1.81V274.6Z" transform="translate(-188.594 -258.525)" fill="#c2ab9d"/>
      <g id="Group_113" data-name="Group 113" transform="translate(9.457 5.482)">
        <path id="Path_147" data-name="Path 147" d="M222.556,276.354l-3.13,1.81L204.25,269.4l3.13-1.81Z" transform="translate(-204.25 -267.59)" fill="#f7ecea"/>
      </g>
      <g id="Group_114" data-name="Group 114" transform="translate(6.26 3.637)" opacity="0.6">
        <path id="Path_148" data-name="Path 148" d="M224.456,266.5l3.13,1.827-22.1,12.757-3.13-1.827Z" transform="translate(-202.36 -266.5)" fill="#f7ecea"/>
      </g>
      <path id="Path_149" data-name="Path 149" d="M205.49,275.85v13.213l-3.13-1.81V274.04l.406.22Z" transform="translate(-196.1 -257.646)" fill="#c2ab9d" opacity="0.6"/>
      <g id="Group_115" data-name="Group 115" transform="translate(5.888 3.418)">
        <path id="Path_150" data-name="Path 150" d="M224.236,266.37l3.13,1.827-22.1,12.757-3.13-1.827Z" transform="translate(-202.14 -266.37)" fill="#f7ecea"/>
      </g>
      <path id="Path_151" data-name="Path 151" d="M205.27,275.737v13.2l-3.13-1.81V273.91l.389.237Z" transform="translate(-196.252 -257.736)" fill="#c2ab9d"/>
    </g>
  </g>
  <g id="Group_125" data-name="Group 125" transform="translate(98.219 83.725)">
    <g id="Group_123" data-name="Group 123">
      <g id="Group_122" data-name="Group 122">
        <g id="Group_118" data-name="Group 118" transform="translate(11.251 6.531)">
          <path id="Path_152" data-name="Path 152" d="M221.532,263.56l-.051,11.3L210.45,281.24l.051-11.3Z" transform="translate(-210.45 -263.56)" fill="#e0b477"/>
        </g>
        <g id="Group_119" data-name="Group 119" transform="translate(0 6.378)">
          <path id="Path_153" data-name="Path 153" d="M215.1,270l-.051,11.3L203.8,274.772l.051-11.3Z" transform="translate(-203.8 -263.47)" fill="#bb884f"/>
        </g>
        <g id="Group_121" data-name="Group 121" transform="translate(0.051)">
          <g id="Group_120" data-name="Group 120">
            <path id="Path_154" data-name="Path 154" d="M226.112,266.231l-11.031,6.378-11.251-6.531,11.031-6.378Z" transform="translate(-203.83 -259.7)" fill="#efcd90"/>
          </g>
        </g>
      </g>
    </g>
    <g id="Group_124" data-name="Group 124" transform="translate(4.517 2.487)">
      <path id="Path_155" data-name="Path 155" d="M208.754,261.17l-2.284,1.32,11.251,6.53,2.267-1.32Z" transform="translate(-206.47 -261.17)" fill="#f7ecea"/>
    </g>
    <path id="Path_156" data-name="Path 156" d="M213.12,266.35l2.267-1.32v2.3l-2.267,1.3Z" transform="translate(-197.352 -256.013)" fill="#c2ab9d"/>
  </g>
</svg>
