<svg id="long_distance_moving_illustration" data-name="long distance moving illustration" xmlns="http://www.w3.org/2000/svg" xmlns:xlink="http://www.w3.org/1999/xlink" width="170" height="158.143" viewBox="0 0 170 158.143">
  <defs>
    <linearGradient id="linear-gradient" x1="0.738" y1="-297.024" x2="0.189" y2="-297.925" gradientUnits="objectBoundingBox">
      <stop offset="0.126" stop-color="#68737b"/>
      <stop offset="0.127" stop-color="#6c7880"/>
      <stop offset="0.438" stop-color="#6c7880"/>
      <stop offset="0.441" stop-color="#50585e"/>
      <stop offset="0.837" stop-color="#50585e"/>
      <stop offset="0.839" stop-color="#3b4145"/>
    </linearGradient>
    <linearGradient id="linear-gradient-2" x1="0.738" y1="-297.305" x2="0.189" y2="-298.204" xlink:href="#linear-gradient"/>
    <linearGradient id="linear-gradient-3" x1="0.752" y1="-499.282" x2="0.248" y2="-498.747" gradientUnits="objectBoundingBox">
      <stop offset="0.126" stop-color="#dbe0e3"/>
      <stop offset="0.127" stop-color="#e0e5e8"/>
      <stop offset="0.438" stop-color="#e0e5e8"/>
      <stop offset="0.441" stop-color="#c0c4c6"/>
      <stop offset="0.837" stop-color="#c0c4c6"/>
      <stop offset="0.839" stop-color="#a8abad"/>
    </linearGradient>
    <linearGradient id="linear-gradient-4" x1="0.826" y1="-555.773" x2="0.167" y2="-556.759" gradientUnits="objectBoundingBox">
      <stop offset="0.161" stop-color="#797b7d"/>
      <stop offset="0.163" stop-color="#919496"/>
      <stop offset="0.559" stop-color="#919496"/>
      <stop offset="0.562" stop-color="#b1b5b8"/>
      <stop offset="0.873" stop-color="#b1b5b8"/>
      <stop offset="0.874" stop-color="#acb0b3"/>
    </linearGradient>
    <linearGradient id="linear-gradient-5" x1="0.834" y1="-748.023" x2="0.189" y2="-748.954" xlink:href="#linear-gradient-4"/>
    <linearGradient id="linear-gradient-6" x1="0.832" y1="-1749.061" x2="0.171" y2="-1750.058" xlink:href="#linear-gradient-4"/>
    <linearGradient id="linear-gradient-7" x1="0.738" y1="-298.056" x2="0.189" y2="-298.957" xlink:href="#linear-gradient"/>
    <linearGradient id="linear-gradient-8" x1="0.738" y1="-298.337" x2="0.189" y2="-299.238" xlink:href="#linear-gradient"/>
    <linearGradient id="linear-gradient-9" x1="0.752" y1="-501.013" x2="0.248" y2="-500.477" xlink:href="#linear-gradient-3"/>
    <linearGradient id="linear-gradient-10" x1="0.826" y1="-557.702" x2="0.168" y2="-558.688" xlink:href="#linear-gradient-4"/>
    <linearGradient id="linear-gradient-11" x1="0.834" y1="-750.619" x2="0.19" y2="-751.55" xlink:href="#linear-gradient-4"/>
    <linearGradient id="linear-gradient-12" x1="0.832" y1="-1755.125" x2="0.171" y2="-1756.111" xlink:href="#linear-gradient-4"/>
    <linearGradient id="linear-gradient-13" x1="0.738" y1="-298.552" x2="0.189" y2="-299.453" xlink:href="#linear-gradient"/>
    <linearGradient id="linear-gradient-14" x1="0.738" y1="-298.833" x2="0.189" y2="-299.735" xlink:href="#linear-gradient"/>
    <linearGradient id="linear-gradient-15" x1="0.831" y1="-501.079" x2="0.169" y2="-502.071" xlink:href="#linear-gradient-3"/>
    <linearGradient id="linear-gradient-16" x1="0.825" y1="-558.625" x2="0.167" y2="-559.614" xlink:href="#linear-gradient-4"/>
    <linearGradient id="linear-gradient-17" x1="0.834" y1="-751.865" x2="0.189" y2="-752.792" gradientUnits="objectBoundingBox">
      <stop offset="0.126" stop-color="#acb0b3"/>
      <stop offset="0.127" stop-color="#b1b5b8"/>
      <stop offset="0.438" stop-color="#b1b5b8"/>
      <stop offset="0.441" stop-color="#919496"/>
      <stop offset="0.837" stop-color="#919496"/>
      <stop offset="0.839" stop-color="#797b7d"/>
    </linearGradient>
    <linearGradient id="linear-gradient-18" x1="0.831" y1="-1758.037" x2="0.17" y2="-1759.023" xlink:href="#linear-gradient-4"/>
    <linearGradient id="linear-gradient-19" x1="0.738" y1="-299.586" x2="0.189" y2="-300.485" xlink:href="#linear-gradient"/>
    <linearGradient id="linear-gradient-20" x1="0.738" y1="-299.866" x2="0.189" y2="-300.767" xlink:href="#linear-gradient"/>
    <linearGradient id="linear-gradient-21" x1="0.831" y1="-502.807" x2="0.169" y2="-503.799" xlink:href="#linear-gradient-3"/>
    <linearGradient id="linear-gradient-22" x1="0.825" y1="-560.439" x2="0.167" y2="-561.425" xlink:href="#linear-gradient-4"/>
    <linearGradient id="linear-gradient-23" x1="0.834" y1="-754.456" x2="0.189" y2="-755.388" xlink:href="#linear-gradient-17"/>
    <linearGradient id="linear-gradient-24" x1="0.831" y1="-1764.09" x2="0.17" y2="-1765.087" xlink:href="#linear-gradient-4"/>
    <linearGradient id="linear-gradient-25" y1="-1385.354" x2="1" y2="-1385.354" gradientUnits="objectBoundingBox">
      <stop offset="0.161" stop-color="#4d4e4f"/>
      <stop offset="0.163" stop-color="#646668"/>
      <stop offset="0.559" stop-color="#646668"/>
      <stop offset="0.562" stop-color="#85888a"/>
      <stop offset="0.873" stop-color="#85888a"/>
      <stop offset="0.874" stop-color="#808385"/>
    </linearGradient>
    <linearGradient id="linear-gradient-26" x1="0.659" y1="-1116.363" x2="0.311" y2="-1117.849" xlink:href="#linear-gradient-4"/>
    <linearGradient id="linear-gradient-27" y1="-245.318" x2="1" y2="-245.318" gradientUnits="objectBoundingBox">
      <stop offset="0.161" stop-color="#a7aaac"/>
      <stop offset="0.163" stop-color="#bec2c5"/>
      <stop offset="0.559" stop-color="#bec2c5"/>
      <stop offset="0.562" stop-color="#dee3e7"/>
      <stop offset="0.873" stop-color="#dee3e7"/>
      <stop offset="0.874" stop-color="#d9dee2"/>
    </linearGradient>
    <linearGradient id="linear-gradient-28" x1="0" y1="-2126.543" x2="1" y2="-2126.543" xlink:href="#linear-gradient-27"/>
    <linearGradient id="linear-gradient-29" y1="-1908.819" x2="1" y2="-1908.819" gradientUnits="objectBoundingBox">
      <stop offset="0.161" stop-color="#bcc0c2"/>
      <stop offset="0.163" stop-color="#d3d7db"/>
      <stop offset="0.559" stop-color="#d3d7db"/>
      <stop offset="0.562" stop-color="#f3f8fd"/>
      <stop offset="0.873" stop-color="#f3f8fd"/>
      <stop offset="0.874" stop-color="#eef3f8"/>
    </linearGradient>
    <linearGradient id="linear-gradient-30" x1="0" y1="-1353.549" x2="1" y2="-1353.549" xlink:href="#linear-gradient-27"/>
    <linearGradient id="linear-gradient-31" y1="-1905.851" x2="1" y2="-1905.851" xlink:href="#linear-gradient-29"/>
    <linearGradient id="linear-gradient-32" x1="0" y1="-2121.41" x2="1" y2="-2121.41" xlink:href="#linear-gradient-27"/>
    <linearGradient id="linear-gradient-33" x1="0.517" y1="-1061.299" x2="0.852" y2="-1061.921" gradientUnits="objectBoundingBox">
      <stop offset="0.126" stop-color="#d9dee2"/>
      <stop offset="0.127" stop-color="#dee3e7"/>
      <stop offset="0.438" stop-color="#dee3e7"/>
      <stop offset="0.441" stop-color="#bec2c5"/>
      <stop offset="0.837" stop-color="#bec2c5"/>
      <stop offset="0.839" stop-color="#a7aaac"/>
    </linearGradient>
    <linearGradient id="linear-gradient-34" x1="0.683" y1="-381.021" x2="0.403" y2="-380.469" xlink:href="#linear-gradient-27"/>
    <linearGradient id="linear-gradient-35" x1="0.738" y1="-303.349" x2="0.189" y2="-304.25" xlink:href="#linear-gradient"/>
    <linearGradient id="linear-gradient-36" x1="0.831" y1="-508.638" x2="0.169" y2="-509.629" xlink:href="#linear-gradient-3"/>
    <linearGradient id="linear-gradient-37" x1="0.825" y1="-566.934" x2="0.167" y2="-567.922" xlink:href="#linear-gradient-4"/>
    <linearGradient id="linear-gradient-38" x1="0.834" y1="-763.199" x2="0.189" y2="-764.127" xlink:href="#linear-gradient-17"/>
    <linearGradient id="linear-gradient-39" x1="0.831" y1="-1784.52" x2="0.17" y2="-1785.506" xlink:href="#linear-gradient-4"/>
    <linearGradient id="linear-gradient-40" x1="0" y1="-2139.112" x2="1" y2="-2139.112" xlink:href="#linear-gradient-27"/>
    <linearGradient id="linear-gradient-41" y1="-1920.107" x2="1" y2="-1920.107" xlink:href="#linear-gradient-29"/>
    <linearGradient id="linear-gradient-42" x1="0" y1="-1361.568" x2="1" y2="-1361.568" xlink:href="#linear-gradient-27"/>
    <linearGradient id="linear-gradient-43" y1="-1917.138" x2="1" y2="-1917.138" xlink:href="#linear-gradient-29"/>
    <linearGradient id="linear-gradient-44" x1="0" y1="-2133.979" x2="1" y2="-2133.979" xlink:href="#linear-gradient-27"/>
    <linearGradient id="linear-gradient-45" x1="0.517" y1="-1066.813" x2="0.852" y2="-1067.435" xlink:href="#linear-gradient-33"/>
    <linearGradient id="linear-gradient-46" x1="0" y1="-220.838" x2="1" y2="-220.838" xlink:href="#linear-gradient-27"/>
  </defs>
  <g id="XMLID_3996_" transform="translate(76.455 47.418)">
    <g id="XMLID_3997_" transform="translate(53.348 0)">
      <path id="XMLID_9004_" d="M425.628,153.511l2.066-1.063L390.706,131.09l-2.066,1.068Z" transform="translate(-388.64 -131.09)" fill="#b2b2b2"/>
      <path id="XMLID_9003_" d="M467.25,183.411l2.066-1.068V176.48l-2.066,1.063Z" transform="translate(-430.262 -155.123)" fill="#888"/>
      <path id="XMLID_3998_" d="M388.64,133.36l36.988,21.352v5.867L388.64,139.223Z" transform="translate(-388.64 -132.292)" fill="#5a5c54"/>
    </g>
    <g id="XMLID_3999_" transform="translate(0 0.285)">
      <g id="XMLID_4000_" transform="translate(23.032 0)">
        <path id="XMLID_9000_" d="M324.21,150.039c0,2.371.823,4.075,2.2,5,1.84,1.237,5.783,3.369,5.783,3.369,5.538-3.2,16.421-14.309,16.421-19.847,0-2.409-5.185-4.23-6.6-5.143-1.84-1.186-4.635-1-7.764.8C328.7,137.415,324.21,144.5,324.21,150.039Z" transform="translate(-324.21 -132.209)" fill="url(#linear-gradient)"/>
        <ellipse id="XMLID_8999_" cx="13.335" cy="7.547" rx="13.335" ry="7.547" transform="matrix(0.601, -0.799, 0.799, 0.601, 1.409, 21.314)" fill="#424852"/>
        <path id="XMLID_8998_" d="M337.83,157.729c0,2.371.823,4.075,2.2,5,1.84,1.237,5.783,3.369,5.783,3.369,5.538-3.2,16.421-14.309,16.421-19.847,0-2.409-5.185-4.23-6.6-5.143-1.84-1.186-4.635-1-7.764.8C342.324,145.1,337.83,152.186,337.83,157.729Z" transform="translate(-331.421 -136.281)" fill="url(#linear-gradient-2)"/>
        <path id="XMLID_8997_" d="M349.36,164.451c0,5.538,4.489,7.439,10.032,4.239s10.032-10.281,10.032-15.819-4.489-7.439-10.032-4.239S349.36,158.908,349.36,164.451Z" transform="translate(-337.526 -139.84)" fill="#424852"/>
        <path id="XMLID_8996_" d="M355.66,166.243c0,3.675,2.978,4.936,6.658,2.814s6.658-6.823,6.658-10.5-2.978-4.936-6.658-2.814S355.66,162.568,355.66,166.243Z" transform="translate(-340.862 -143.881)" fill="url(#linear-gradient-3)"/>
        <path id="XMLID_8995_" d="M356.53,166.881c0,3.675,2.978,4.936,6.658,2.814s6.658-6.823,6.658-10.5-2.978-4.936-6.658-2.814S356.53,163.2,356.53,166.881Z" transform="translate(-341.323 -144.219)" fill="#d7d9db"/>
        <path id="XMLID_4001_" d="M369.921,160.475c0,3.3-2.673,7.514-5.976,9.425s-5.976.767-5.976-2.527a6.088,6.088,0,0,1,.1-1.12,12.918,12.918,0,0,1,5.872-8.3c.24-.136.48-.263.71-.367C367.625,156.217,369.921,157.417,369.921,160.475Z" transform="translate(-342.085 -145.106)" fill="url(#linear-gradient-4)"/>
        <path id="XMLID_4002_" d="M367.145,160.758v.047c0,2.5-2.023,5.689-4.522,7.128a5.2,5.2,0,0,1-1.327.569c-1.393.376-2.5-.056-2.945-1.176a1.921,1.921,0,0,1-.151-.447,9.2,9.2,0,0,1,.329-1.36,13.43,13.43,0,0,1,4.7-6.385,8.761,8.761,0,0,1,.847-.56c.207-.113.4-.216.593-.311a.826.826,0,0,1,.113-.056C366.171,158.156,367.121,159.069,367.145,160.758Z" transform="translate(-342.207 -145.732)" fill="#e3e5e6"/>
        <path id="XMLID_4003_" d="M366.725,160.2c0,2.442-3.1,6.912-5.552,8.361-.009.009-.024.009-.033.024s-.033-.009-.1-.033a1.107,1.107,0,0,1-.32-.1.726.726,0,0,1-.127-.047,15.124,15.124,0,0,1-2.249-1.007,1.924,1.924,0,0,1-.151-.447,9.212,9.212,0,0,1,.329-1.36,13.43,13.43,0,0,1,4.7-6.385,8.77,8.77,0,0,1,.847-.56c.207-.113.4-.216.593-.311a15.464,15.464,0,0,1,1.807,1.576l.009.009C366.636,160.094,366.725,160.2,366.725,160.2Z" transform="translate(-342.202 -145.798)" fill="url(#linear-gradient-5)"/>
        <path id="XMLID_4004_" d="M368.782,163.255a8.094,8.094,0,0,1-3.9,6.15c-2.146,1.237-3.9.5-3.9-1.647a4.288,4.288,0,0,1,.066-.729,8.445,8.445,0,0,1,3.83-5.42c.155-.089.315-.169.461-.24C367.281,160.474,368.782,161.26,368.782,163.255Z" transform="translate(-343.684 -147.213)" fill="#d9dbdd"/>
        <path id="XMLID_4005_" d="M369.332,167.293a3.944,3.944,0,0,1-1.9,3c-1.045.6-1.9.245-1.9-.8a1.873,1.873,0,0,1,.033-.358,4.1,4.1,0,0,1,1.868-2.64c.075-.042.151-.085.226-.118C368.6,165.938,369.332,166.319,369.332,167.293Z" transform="translate(-346.088 -149.962)" fill="url(#linear-gradient-6)"/>
        <path id="XMLID_4006_" d="M368.445,168.567a1.576,1.576,0,0,1-.762,1.2c-.419.24-.762.1-.762-.32a.719.719,0,0,1,.014-.141,1.648,1.648,0,0,1,.748-1.059c.033-.019.061-.033.089-.047C368.153,168.026,368.445,168.181,368.445,168.567Z" transform="translate(-346.824 -150.986)" fill="#e3e5e6"/>
      </g>
      <g id="XMLID_4007_" transform="translate(0 13.753)">
        <path id="XMLID_8987_" d="M275.26,178.3c0,2.371.823,4.075,2.2,5,1.84,1.237,5.783,3.369,5.783,3.369,5.538-3.2,16.421-14.309,16.421-19.847,0-2.409-5.185-4.23-6.6-5.143-1.84-1.186-4.635-1-7.764.8C279.749,165.675,275.26,172.761,275.26,178.3Z" transform="translate(-275.26 -160.925)" fill="url(#linear-gradient-7)"/>
        <path id="XMLID_8986_" d="M286.79,185.021c0,5.538,4.489,7.439,10.032,4.239s10.032-10.281,10.032-15.819S302.364,166,296.822,169.2,286.79,179.482,286.79,185.021Z" transform="translate(-281.365 -164.484)" fill="#424852"/>
        <path id="XMLID_8985_" d="M288.87,185.989c0,2.371.823,4.075,2.2,5,1.84,1.237,5.783,3.369,5.783,3.369,5.538-3.2,16.421-14.309,16.421-19.847,0-2.409-5.185-4.23-6.6-5.143-1.84-1.186-4.635-1-7.764.8C293.364,173.365,288.87,180.451,288.87,185.989Z" transform="translate(-282.466 -164.996)" fill="url(#linear-gradient-8)"/>
        <ellipse id="XMLID_8984_" cx="13.335" cy="7.547" rx="13.335" ry="7.547" transform="matrix(0.601, -0.799, 0.799, 0.601, 7.813, 24.476)" fill="#424852"/>
        <path id="XMLID_8983_" d="M306.7,194.5c0,3.675,2.978,4.936,6.658,2.814s6.658-6.823,6.658-10.5-2.978-4.936-6.658-2.814S306.7,190.828,306.7,194.5Z" transform="translate(-291.907 -172.597)" fill="url(#linear-gradient-9)"/>
        <path id="XMLID_8982_" d="M307.57,195.141c0,3.675,2.978,4.936,6.658,2.814s6.658-6.823,6.658-10.5-2.978-4.936-6.658-2.814S307.57,191.467,307.57,195.141Z" transform="translate(-292.367 -172.935)" fill="#d7d9db"/>
        <path id="XMLID_4008_" d="M320.961,188.735c0,3.3-2.673,7.514-5.976,9.425s-5.976.767-5.976-2.527a6.083,6.083,0,0,1,.1-1.12,12.918,12.918,0,0,1,5.872-8.3c.24-.136.48-.264.711-.367C318.665,184.477,320.961,185.677,320.961,188.735Z" transform="translate(-293.13 -173.822)" fill="url(#linear-gradient-10)"/>
        <path id="XMLID_4009_" d="M318.185,189.027v.047c0,2.5-2.023,5.689-4.522,7.128a5.2,5.2,0,0,1-1.327.569c-1.393.376-2.5-.056-2.945-1.176a1.922,1.922,0,0,1-.151-.447,9.212,9.212,0,0,1,.329-1.36,13.43,13.43,0,0,1,4.7-6.385,8.774,8.774,0,0,1,.847-.56c.207-.113.4-.216.593-.311a.835.835,0,0,1,.113-.056C317.211,186.421,318.161,187.334,318.185,189.027Z" transform="translate(-293.252 -174.453)" fill="#e3e5e6"/>
        <path id="XMLID_4010_" d="M317.765,188.458c0,2.447-3.1,6.912-5.552,8.361-.009.009-.024.009-.033.024s-.033-.009-.1-.033a1.105,1.105,0,0,1-.32-.1.728.728,0,0,1-.127-.047,15.124,15.124,0,0,1-2.249-1.007,1.924,1.924,0,0,1-.151-.447,9.211,9.211,0,0,1,.329-1.36,13.43,13.43,0,0,1,4.7-6.385,8.776,8.776,0,0,1,.847-.56c.207-.113.4-.216.593-.311a15.465,15.465,0,0,1,1.807,1.576l.009.009C317.676,188.354,317.765,188.458,317.765,188.458Z" transform="translate(-293.246 -174.514)" fill="url(#linear-gradient-11)"/>
        <path id="XMLID_4011_" d="M319.822,191.515a8.094,8.094,0,0,1-3.9,6.15c-2.146,1.237-3.9.5-3.9-1.647a4.287,4.287,0,0,1,.066-.729,8.445,8.445,0,0,1,3.83-5.42c.155-.089.315-.169.461-.24C318.321,188.734,319.822,189.52,319.822,191.515Z" transform="translate(-294.729 -175.928)" fill="#d9dbdd"/>
        <path id="XMLID_4012_" d="M320.372,195.553a3.944,3.944,0,0,1-1.9,3c-1.045.6-1.9.245-1.9-.8a1.873,1.873,0,0,1,.033-.358,4.1,4.1,0,0,1,1.868-2.64c.075-.042.151-.085.226-.118C319.643,194.2,320.372,194.579,320.372,195.553Z" transform="translate(-297.133 -178.677)" fill="url(#linear-gradient-12)"/>
        <path id="XMLID_4013_" d="M319.485,196.834a1.576,1.576,0,0,1-.762,1.2c-.419.24-.762.1-.762-.32a.717.717,0,0,1,.014-.141,1.648,1.648,0,0,1,.748-1.059c.033-.019.061-.033.089-.047C319.193,196.288,319.485,196.443,319.485,196.834Z" transform="translate(-297.869 -179.704)" fill="#e3e5e6"/>
      </g>
    </g>
    <path id="XMLID_8973_" d="M396.059,161.92l-1.609.927V152.642l1.609-.932Z" transform="translate(-338.368 -142.008)" fill="#725986"/>
    <path id="XMLID_8972_" d="M358.59,167.85c0,3.143,2.546,4.221,5.689,2.4s5.689-5.83,5.689-8.973-2.546-4.221-5.689-2.4S358.59,164.707,358.59,167.85Z" transform="translate(-319.381 -145.335)" fill="#add1b9"/>
    <path id="XMLID_8971_" d="M358.754,156.251l-60.966,31.568L276.52,174.253l51.278-29.6,8.046-1.633Z" transform="translate(-275.927 -137.407)" fill="#878787"/>
    <path id="XMLID_4014_" d="M416.456,156.251l-9.688,1.967L385.5,144.653l8.046-1.633Z" transform="translate(-333.629 -137.407)" fill="#747474"/>
    <path id="XMLID_8969_" d="M324.91,169.126l24.867-14.356,14.229,8.088-24.867,14.356Z" transform="translate(-301.548 -143.628)" fill="#a4a4a4"/>
    <ellipse id="XMLID_4015_" cx="8.479" cy="5.519" rx="8.479" ry="5.519" transform="translate(35.609 15.08)" fill="#878787"/>
    <path id="XMLID_8967_" d="M382.686,175.822,321.72,211.012v-8.3L373,173.107l9.688-1.967Z" transform="translate(-299.859 -152.295)" fill="#4f4f4f"/>
    <path id="XMLID_8966_" d="M353.461,186.316l24.867-14.356,1.5,2.955L351.96,191Z" transform="translate(-315.871 -152.73)" fill="#747474"/>
    <g id="XMLID_4016_" transform="translate(56.887 20.418)">
      <path id="XMLID_8965_" d="M396.16,191.859c0,2.371.823,4.075,2.2,5,1.84,1.237,5.783,3.369,5.783,3.369,5.538-3.2,16.421-14.309,16.421-19.847,0-2.409-5.185-4.23-6.6-5.143-1.84-1.186-4.635-1-7.764.8C400.649,179.235,396.16,186.321,396.16,191.859Z" transform="translate(-396.16 -174.485)" fill="url(#linear-gradient-13)"/>
      <path id="XMLID_8964_" d="M407.69,198.581c0,5.538,4.489,7.439,10.032,4.239S427.753,192.539,427.753,187s-4.489-7.439-10.032-4.239S407.69,193.042,407.69,198.581Z" transform="translate(-402.265 -178.044)" fill="#424852"/>
      <path id="XMLID_8963_" d="M409.77,199.549c0,2.371.823,4.075,2.2,5,1.84,1.237,5.783,3.369,5.783,3.369,5.538-3.2,16.421-14.309,16.421-19.847,0-2.409-5.185-4.23-6.6-5.143-1.84-1.186-4.635-1-7.764.8C414.264,186.925,409.77,194.011,409.77,199.549Z" transform="translate(-403.366 -178.556)" fill="url(#linear-gradient-14)"/>
      <ellipse id="XMLID_8962_" cx="13.335" cy="7.547" rx="13.335" ry="7.547" transform="matrix(0.601, -0.799, 0.799, 0.601, 7.813, 24.474)" fill="#424852"/>
      <path id="XMLID_8961_" d="M427.6,208.073c0,3.675,2.978,4.936,6.658,2.814s6.658-6.823,6.658-10.5-2.978-4.936-6.658-2.814S427.6,204.393,427.6,208.073Z" transform="translate(-412.807 -186.162)" fill="url(#linear-gradient-15)"/>
      <path id="XMLID_8960_" d="M428.48,208.7c0,3.675,2.978,4.936,6.658,2.814s6.658-6.823,6.658-10.5-2.978-4.936-6.658-2.814S428.48,205.028,428.48,208.7Z" transform="translate(-413.273 -186.496)" fill="#d7d9db"/>
      <path id="XMLID_4017_" d="M441.871,202.3c0,3.3-2.673,7.514-5.976,9.425s-5.976.767-5.976-2.527a6.083,6.083,0,0,1,.1-1.12,12.918,12.918,0,0,1,5.872-8.3c.24-.136.48-.264.711-.367C439.575,198.037,441.871,199.237,441.871,202.3Z" transform="translate(-414.035 -187.382)" fill="url(#linear-gradient-16)"/>
      <path id="XMLID_4018_" d="M439.085,202.587v.047c0,2.5-2.023,5.689-4.522,7.128a5.2,5.2,0,0,1-1.327.569c-1.393.376-2.5-.056-2.945-1.176a1.923,1.923,0,0,1-.151-.447,9.2,9.2,0,0,1,.329-1.36,13.43,13.43,0,0,1,4.7-6.385,8.779,8.779,0,0,1,.847-.56c.207-.113.4-.216.593-.311a.831.831,0,0,1,.113-.056C438.115,199.981,439.061,200.894,439.085,202.587Z" transform="translate(-414.152 -188.013)" fill="#e3e5e6"/>
      <path id="XMLID_4019_" d="M438.675,202.018c0,2.447-3.1,6.912-5.552,8.361-.009.009-.023.009-.033.024s-.033-.009-.1-.033a1.109,1.109,0,0,1-.32-.1.731.731,0,0,1-.127-.047,15.125,15.125,0,0,1-2.249-1.007,1.924,1.924,0,0,1-.151-.447,9.211,9.211,0,0,1,.329-1.36,13.43,13.43,0,0,1,4.7-6.385,8.77,8.77,0,0,1,.847-.56c.207-.113.4-.216.593-.311a15.463,15.463,0,0,1,1.807,1.576l.009.009C438.581,201.914,438.675,202.018,438.675,202.018Z" transform="translate(-414.152 -188.074)" fill="url(#linear-gradient-17)"/>
      <path id="XMLID_4020_" d="M440.722,205.075a8.094,8.094,0,0,1-3.9,6.15c-2.146,1.237-3.9.5-3.9-1.647a4.287,4.287,0,0,1,.066-.729,8.445,8.445,0,0,1,3.83-5.42c.155-.089.315-.169.461-.24C439.226,202.294,440.722,203.08,440.722,205.075Z" transform="translate(-415.629 -189.488)" fill="#d9dbdd"/>
      <path id="XMLID_4021_" d="M441.282,209.113a3.944,3.944,0,0,1-1.9,3c-1.045.6-1.9.245-1.9-.8a1.873,1.873,0,0,1,.033-.358,4.1,4.1,0,0,1,1.868-2.64c.075-.042.151-.085.226-.118C440.553,207.758,441.282,208.139,441.282,209.113Z" transform="translate(-418.038 -192.237)" fill="url(#linear-gradient-18)"/>
      <path id="XMLID_4022_" d="M440.385,210.394a1.576,1.576,0,0,1-.762,1.2c-.419.24-.762.1-.762-.32a.717.717,0,0,1,.014-.141,1.648,1.648,0,0,1,.748-1.059.816.816,0,0,1,.089-.047C440.093,209.848,440.385,210,440.385,210.394Z" transform="translate(-418.769 -193.264)" fill="#e3e5e6"/>
    </g>
    <g id="XMLID_4023_" transform="translate(33.85 33.715)">
      <path id="XMLID_8952_" d="M347.2,220.119c0,2.371.823,4.075,2.2,5,1.84,1.237,5.783,3.369,5.783,3.369,5.538-3.2,16.421-14.309,16.421-19.847,0-2.409-5.185-4.23-6.6-5.143-1.84-1.186-4.635-1-7.764.8C351.689,207.5,347.2,214.581,347.2,220.119Z" transform="translate(-347.2 -202.745)" fill="url(#linear-gradient-19)"/>
      <path id="XMLID_8951_" d="M358.73,226.841c0,5.538,4.489,7.439,10.032,4.239s10.032-10.281,10.032-15.819-4.489-7.439-10.032-4.239S358.73,221.3,358.73,226.841Z" transform="translate(-353.305 -206.304)" fill="#424852"/>
      <path id="XMLID_8950_" d="M360.82,227.809c0,2.371.823,4.075,2.2,5,1.84,1.237,5.783,3.369,5.783,3.369,5.538-3.2,16.421-14.309,16.421-19.847,0-2.409-5.185-4.23-6.6-5.143-1.84-1.186-4.635-1-7.764.8C365.309,215.185,360.82,222.271,360.82,227.809Z" transform="translate(-354.411 -206.816)" fill="url(#linear-gradient-20)"/>
      <path id="XMLID_8949_" d="M372.35,234.531c0,5.538,4.489,7.439,10.032,4.239s10.032-10.281,10.032-15.819-4.489-7.439-10.032-4.239S372.35,228.992,372.35,234.531Z" transform="translate(-360.516 -210.376)" fill="#424852"/>
      <path id="XMLID_8948_" d="M378.64,236.333c0,3.675,2.978,4.936,6.658,2.814s6.658-6.823,6.658-10.5-2.978-4.936-6.658-2.814S378.64,232.653,378.64,236.333Z" transform="translate(-363.847 -214.422)" fill="url(#linear-gradient-21)"/>
      <ellipse id="XMLID_8947_" cx="8.851" cy="5.006" rx="8.851" ry="5.006" transform="matrix(0.601, -0.799, 0.799, 0.601, 12.543, 22.422)" fill="#d7d9db"/>
      <path id="XMLID_4024_" d="M392.911,230.562c0,3.3-2.673,7.514-5.976,9.425s-5.976.767-5.976-2.527a6.085,6.085,0,0,1,.1-1.12,12.918,12.918,0,0,1,5.872-8.3c.24-.136.48-.264.71-.367C390.615,226.3,392.911,227.5,392.911,230.562Z" transform="translate(-365.075 -215.644)" fill="url(#linear-gradient-22)"/>
      <path id="XMLID_4025_" d="M390.125,230.847v.047c0,2.5-2.023,5.689-4.522,7.128a5.2,5.2,0,0,1-1.327.569c-1.393.376-2.5-.056-2.945-1.176a1.922,1.922,0,0,1-.151-.447,9.211,9.211,0,0,1,.329-1.36,13.43,13.43,0,0,1,4.7-6.385,8.777,8.777,0,0,1,.847-.56c.207-.113.4-.216.593-.311a.831.831,0,0,1,.113-.056C389.155,228.241,390.1,229.154,390.125,230.847Z" transform="translate(-365.192 -216.273)" fill="#e3e5e6"/>
      <path id="XMLID_4026_" d="M389.715,230.278c0,2.447-3.1,6.912-5.552,8.361-.009.009-.023.009-.033.024s-.033-.009-.1-.033a1.107,1.107,0,0,1-.32-.1.725.725,0,0,1-.127-.047,15.121,15.121,0,0,1-2.249-1.007,1.921,1.921,0,0,1-.151-.447,9.211,9.211,0,0,1,.329-1.36,13.43,13.43,0,0,1,4.7-6.385,8.772,8.772,0,0,1,.847-.56c.207-.113.4-.216.593-.311a15.461,15.461,0,0,1,1.807,1.576l.009.009C389.621,230.174,389.715,230.278,389.715,230.278Z" transform="translate(-365.192 -216.334)" fill="url(#linear-gradient-23)"/>
      <path id="XMLID_4027_" d="M391.762,233.337a8.094,8.094,0,0,1-3.9,6.15c-2.146,1.237-3.9.5-3.9-1.647a4.287,4.287,0,0,1,.066-.729,8.445,8.445,0,0,1,3.83-5.42c.155-.089.315-.169.461-.24C390.266,230.561,391.762,231.342,391.762,233.337Z" transform="translate(-366.669 -217.751)" fill="#d9dbdd"/>
      <path id="XMLID_4028_" d="M392.322,237.373a3.944,3.944,0,0,1-1.9,3c-1.045.6-1.9.245-1.9-.8a1.873,1.873,0,0,1,.033-.358,4.1,4.1,0,0,1,1.868-2.64c.075-.042.151-.085.226-.118C391.593,236.018,392.322,236.4,392.322,237.373Z" transform="translate(-369.078 -220.497)" fill="url(#linear-gradient-24)"/>
      <path id="XMLID_4029_" d="M391.435,238.656a1.576,1.576,0,0,1-.762,1.2c-.419.24-.762.1-.762-.32a.719.719,0,0,1,.014-.141,1.648,1.648,0,0,1,.748-1.059.83.83,0,0,1,.089-.047C391.138,238.115,391.435,238.266,391.435,238.656Z" transform="translate(-369.814 -221.527)" fill="#e3e5e6"/>
    </g>
    <g id="XMLID_4030_" transform="translate(31.709 35.911)">
      <g id="XMLID_4031_">
        <path id="XMLID_4032_" d="M362.125,213.047c-.024.513-3.665,4.329-6.921,10.1a42.413,42.413,0,0,0-3.7,8.611l-8.851-5.632a23.368,23.368,0,0,1,2.7-8.681,35.924,35.924,0,0,1,7.928-10.032Z" transform="translate(-342.65 -207.41)" fill="#389303"/>
      </g>
      <path id="XMLID_4033_" d="M365.159,213.052c-.023.513-3.665,4.329-6.921,10.1l-9.858-5.7a35.925,35.925,0,0,1,7.928-10.032Z" transform="translate(-345.684 -207.415)" fill="#41ba03"/>
      <path id="XMLID_4034_" d="M362.584,237.693l-1.134.409c.974-10.526,10.239-18.383,10.629-18.713l.527.748C372.517,220.213,363.492,227.883,362.584,237.693Z" transform="translate(-352.604 -213.753)" fill="#317704"/>
    </g>
    <path id="XMLID_4035_" d="M323.221,185.28l14.229,8.088-1.5,4.686-14.229-8.088Z" transform="translate(-299.859 -159.782)" fill="#4f4f4f"/>
    <path id="XMLID_8933_" d="M322.917,180.61l1.877,9.34v10.041l3.171-1.83v5.566l-3.171,1.835-.875.5-2.88,1.661V181.692Z" transform="translate(-299.499 -157.31)" fill="#bdc1c4"/>
    <g id="XMLID_4036_" transform="translate(35.605 11.918)">
      <path id="XMLID_4037_" d="M359.25,172.876V175.3c0,1.642,2.047,2.974,4.569,2.974s4.569-1.332,4.569-2.974V172.73Z" transform="translate(-355.335 -165.056)" fill="url(#linear-gradient-25)"/>
      <path id="XMLID_4038_" d="M350.93,167.843v1.082c0,3.049,3.8,5.519,8.484,5.519s8.479-2.47,8.479-5.519V167.57Z" transform="translate(-350.93 -162.324)" fill="url(#linear-gradient-26)"/>
      <ellipse id="XMLID_4039_" cx="8.479" cy="5.519" rx="8.479" ry="5.519" transform="translate(0.005)" fill="#bbb"/>
    </g>
    <path id="XMLID_4040_" d="M332.191,215.141l-3.171-2.461v4.291Z" transform="translate(-303.725 -174.29)" fill="#a6a9ab"/>
    <path id="XMLID_4041_" d="M324.183,179.419l-.753-1.059v1.492Z" transform="translate(-300.765 -156.118)" fill="#a6a9ab"/>
  </g>
  <g id="XMLID_12501_" transform="translate(69.171 0)">
    <g id="XMLID_12514_" transform="translate(0 0)">
      <g id="XMLID_12515_">
        <g id="XMLID_12518_" transform="translate(0 21.155)">
          <path id="XMLID_12521_" d="M296.457,169.593,259.78,148.438V108.98l36.677,21.155Z" transform="translate(-259.78 -93.109)" fill="#a17f4c"/>
          <path id="XMLID_12520_" d="M401.882,75.25,337.73,112.276v39.458L401.882,114.8Z" transform="translate(-301.053 -75.25)" fill="#d2b371"/>
          <path id="XMLID_12519_" d="M354.033,149.52l-8.893,5.157v12.05l8.893-5.133Z" transform="translate(-304.976 -114.574)" fill="none" stroke="#a05e00" stroke-miterlimit="10" stroke-width="1.145"/>
        </g>
        <path id="XMLID_12517_" d="M352.859,159.528l-.023,6-2.771,1.576.024-6-1.388.79,2.79-5.905,2.757,2.753Z" transform="translate(-306.861 -96.845)" fill="#a05e00"/>
        <path id="XMLID_12_" d="M360.61,51.45,296.467,88.471l-17.216-9.933-5.585-3.214L259.79,67.311l31.751-18.327,5.59-3.228,26.8-15.466,13.9,8.018,5.6,3.233Z" transform="translate(-259.785 -30.29)" fill="#f5df95"/>
      </g>
    </g>
    <path id="XMLID_12513_" d="M294.865,87.555l-5.585-3.214L353.446,47.32l5.6,3.233Z" transform="translate(-275.399 -39.307)" fill="#fee9ab"/>
    <path id="XMLID_10_" d="M369.533,84.32l-5.585,3.214L327.27,66.388l5.59-3.228Z" transform="translate(-295.514 -47.694)" fill="#fef1cb"/>
    <g id="XMLID_12506_" transform="translate(2.701 65.601)">
      <path id="XMLID_12512_" d="M276.046,184.809,265.52,178.8V169.71l10.526,6.013Z" transform="translate(-265.52 -169.71)" fill="#ababab"/>
      <path id="XMLID_12511_" d="M276.119,192.869l-9.359-5.345v-.414l9.359,5.345Z" transform="translate(-266.177 -178.923)" fill="#595959"/>
      <path id="XMLID_12510_" d="M276.119,190.449l-9.359-5.35v-.409l9.359,5.345Z" transform="translate(-266.177 -177.642)" fill="#595959"/>
      <path id="XMLID_12509_" d="M276.119,188.029l-9.359-5.35v-.409l9.359,5.345Z" transform="translate(-266.177 -176.36)" fill="#595959"/>
      <path id="XMLID_12508_" d="M276.119,185.6l-9.359-5.345v-.414l9.359,5.35Z" transform="translate(-266.177 -175.074)" fill="#595959"/>
      <path id="XMLID_12507_" d="M276.119,180.039l-9.359-5.345v-1.3l9.359,5.345Z" transform="translate(-266.177 -171.658)" fill="#595959"/>
    </g>
    <path id="XMLID_12505_" d="M289.254,126l-.024,13.3,1.148-3.11,1.2,4.395,1.633-2.842,1.449,4.531.174-13.057Z" transform="translate(-275.373 -80.966)" fill="#dbc68a"/>
    <path id="XMLID_3_" d="M410.805,108.13l.024,13.3-1.148-3.11-1.2,4.395-1.633-2.842-1.449,4.531-.174-13.062Z" transform="translate(-336.787 -71.504)" fill="#e6cf91"/>
    <path id="XMLID_12504_" d="M449.623,99.66l-2.663,1.553v3.562l2.663-1.548Z" transform="translate(-358.887 -67.02)" fill="#a05e00"/>
    <path id="XMLID_12503_" d="M457.558,95.08,454.9,96.637v3.557l2.658-1.543Z" transform="translate(-363.091 -64.595)" fill="#a05e00"/>
    <path id="XMLID_12502_" d="M465.5,90.51l-2.659,1.553v3.562l2.659-1.548Z" transform="translate(-367.295 -62.175)" fill="#a05e00"/>
  </g>
  <g id="XMLID_4122_" transform="translate(43.527 48.809)">
    <path id="XMLID_4123_" d="M205.24,163.965V193.7c0,.847,1.059,1.539,2.362,1.539s2.362-.687,2.362-1.539V163.89Z" transform="translate(-205.24 -149.847)" fill="url(#linear-gradient-27)"/>
    <path id="XMLID_4124_" d="M209.964,162.319c0,.847-1.059,1.539-2.362,1.539s-2.362-.687-2.362-1.539,1.059-1.539,2.362-1.539S209.964,161.472,209.964,162.319Z" transform="translate(-205.24 -148.2)" fill="#e1f0f0"/>
    <g id="XMLID_4125_" transform="translate(1.153)">
      <path id="XMLID_4126_" d="M212.791,135.233a3.013,3.013,0,0,1-1.167,2.607l-.631.513a2.3,2.3,0,0,0-.87,1.807v7.632a1.257,1.257,0,0,1-1.233.626,1.281,1.281,0,0,1-1.2-.583v-8.3a4.029,4.029,0,0,1,1.487-3.129l2.607-2.353S212.678,133.84,212.791,135.233Z" transform="translate(-207.69 -134.044)" fill="#b9c6c7"/>
      <path id="XMLID_4127_" d="M208.2,148.225v-8.3a4.029,4.029,0,0,1,1.487-3.129l2.607-2.353a.755.755,0,0,1,.3.009.749.749,0,0,0-.8-.4l-2.607,2.353a4.036,4.036,0,0,0-1.487,3.129v8.3a.947.947,0,0,0,.546.456A.572.572,0,0,1,208.2,148.225Z" transform="translate(-207.695 -134.045)" fill="#dde2e6"/>
      <path id="XMLID_4128_" d="M214.42,140.26l-1.393,1.256a4.036,4.036,0,0,0-1.487,3.129v6.95a.949.949,0,0,0,.626-.518v-7.632a2.318,2.318,0,0,1,.87-1.807l.631-.513A3.357,3.357,0,0,0,214.42,140.26Z" transform="translate(-209.729 -137.335)" fill="#a6a9ab"/>
    </g>
  </g>
  <g id="XMLID_4129_" transform="translate(18.68 90.552)">
    <path id="XMLID_4130_" d="M157.22,247.528V248.7c0,1.3,1.619,2.353,3.618,2.353s3.618-1.054,3.618-2.353V247.41Z" transform="translate(-154.961 -235.816)" fill="url(#linear-gradient-28)"/>
    <path id="XMLID_4131_" d="M156.36,243.552v1.308c0,1.445,1.8,2.621,4.023,2.621s4.023-1.172,4.023-2.621v-1.44Z" transform="translate(-154.506 -233.704)" fill="url(#linear-gradient-29)"/>
    <path id="XMLID_4132_" d="M164.406,240.751c0,1.445-1.8,2.621-4.023,2.621s-4.023-1.172-4.023-2.621,1.8-2.621,4.023-2.621S164.406,239.306,164.406,240.751Z" transform="translate(-154.506 -230.903)" fill="#bfcccc"/>
    <path id="XMLID_4133_" d="M157.22,235.678v3.251c0,1.3,1.619,2.353,3.618,2.353s3.618-1.054,3.618-2.353V235.56Z" transform="translate(-154.961 -229.542)" fill="url(#linear-gradient-30)"/>
    <path id="XMLID_4134_" d="M156.36,230.732v1.308c0,1.445,1.8,2.621,4.023,2.621s4.023-1.172,4.023-2.621V230.6Z" transform="translate(-154.506 -226.916)" fill="url(#linear-gradient-31)"/>
    <path id="XMLID_4135_" d="M164.406,227.931c0,1.445-1.8,2.621-4.023,2.621s-4.023-1.172-4.023-2.621,1.8-2.621,4.023-2.621S164.406,226.482,164.406,227.931Z" transform="translate(-154.506 -224.115)" fill="#bfcccc"/>
    <path id="XMLID_4136_" d="M157.22,227.648v1.176c0,1.3,1.619,2.353,3.618,2.353s3.618-1.054,3.618-2.353V227.53Z" transform="translate(-154.961 -225.29)" fill="url(#linear-gradient-32)"/>
    <path id="XMLID_4137_" d="M161.915,225.127c0,1.3-1.619,2.353-3.618,2.353s-5.877-.753-5.877-2.052,3.877-2.658,5.877-2.658S161.915,223.829,161.915,225.127Z" transform="translate(-152.42 -222.77)" fill="#e1f0f0"/>
  </g>
  <path id="XMLID_8768_" d="M134.43,295.729c0,3.327,2.7,4.465,6.023,2.546s6.023-7.8,6.023-11.128-2.7-2.837-6.023-.918C141.45,285.65,134.43,297.752,134.43,295.729Z" transform="translate(-124.215 -165.021)" fill="#add1b9"/>
  <g id="XMLID_4138_" transform="translate(3.261 103.178)">
    <g id="XMLID_4139_">
      <path id="XMLID_4140_" d="M150.182,262.808c-.993-5.618-3.242-8.474-6.681-8.5a5.413,5.413,0,0,0-.607.033c-.353-.616-4,.169-4.512.508-.259.169-4.569,5.75-11.965,18.807l-6.766-3.774c1.313-6.912,10.257-20.275,18.369-20.275h.056a6.847,6.847,0,0,1,2.96.649c1.176.56,3.995,4.71,4.988,6.333l.009.009C146.912,258.07,149.717,260.15,150.182,262.808Z" transform="translate(-119.65 -249.61)" fill="#49af08"/>
    </g>
  </g>
  <g id="XMLID_4141_" transform="translate(1.609 117.513)">
    <g id="XMLID_4142_">
      <path id="XMLID_4143_" d="M124.548,284.543v1.52a.674.674,0,0,1-.362.6c-.188.1-1.2.861-1.416.739l-3.378-4.084a1.781,1.781,0,0,1-.9-1.548l-1.8-.739c0-.231,1.1-.706,1.261-.823.019-.014.042-.028.061-.042a.679.679,0,0,1,.663,0L123.654,283A1.773,1.773,0,0,1,124.548,284.543Z" transform="translate(-116.431 -280.076)" fill="url(#linear-gradient-33)"/>
      <path id="XMLID_4144_" d="M123.019,286.076v1.52a.671.671,0,0,1-1,.583l-4.978-2.837a1.781,1.781,0,0,1-.9-1.548v-1.52a.671.671,0,0,1,1-.583l4.978,2.837A1.787,1.787,0,0,1,123.019,286.076Z" transform="translate(-116.14 -280.884)" fill="#828282"/>
    </g>
    <path id="XMLID_4145_" d="M119.686,285.911a.85.85,0,0,1-.1.447c-.193.353-.663.423-1.2.1a2.681,2.681,0,0,1-1.313-2.066c0-.513.3-.8.743-.743a1.385,1.385,0,0,1,.569.193A2.694,2.694,0,0,1,119.686,285.911Z" transform="translate(-116.632 -281.966)" fill="#bdcedf"/>
    <path id="XMLID_4146_" d="M125.876,289.653a.85.85,0,0,1-.1.447c-.207.353-.663.423-1.209.113a2.732,2.732,0,0,1-1.3-2.066c0-.527.3-.8.729-.753a1.385,1.385,0,0,1,.569.193A2.7,2.7,0,0,1,125.876,289.653Z" transform="translate(-119.91 -283.948)" fill="#bdcedf"/>
    <path id="XMLID_4147_" d="M120.406,285.919a.85.85,0,0,1-.1.447,1.385,1.385,0,0,1-.569-.193,2.694,2.694,0,0,1-1.3-2.066.85.85,0,0,1,.1-.447,1.385,1.385,0,0,1,.569.193A2.694,2.694,0,0,1,120.406,285.919Z" transform="translate(-117.352 -281.974)" fill="#e2e9ec"/>
    <path id="XMLID_4148_" d="M126.586,289.659a.85.85,0,0,1-.1.447,1.235,1.235,0,0,1-.569-.184,2.744,2.744,0,0,1-1.313-2.066.875.875,0,0,1,.1-.456,1.385,1.385,0,0,1,.569.193A2.711,2.711,0,0,1,126.586,289.659Z" transform="translate(-120.619 -283.954)" fill="#e2e9ec"/>
  </g>
  <path id="XMLID_8756_" d="M133.72,243.387l66.227-41.317V191.38L133.72,232.7Z" transform="translate(-123.839 -115.599)" fill="#ae6800"/>
  <path id="XMLID_8755_" d="M173.2,253.142l16.962-7.825v-7l-19.5,11.26Z" transform="translate(-143.402 -140.452)" fill="#74c7ac"/>
  <path id="XMLID_8754_" d="M213.02,231.726l28.914-16.69v-11L213.02,220.73Z" transform="translate(-165.834 -122.3)" fill="#74c7ac"/>
  <path id="XMLID_8753_" d="M243.379,192.36,215.75,208.306v3.073l27.629-15.951Z" transform="translate(-167.28 -116.114)" fill="#74c7ac"/>
  <path id="XMLID_4519_" d="M266.416,140.56l-16.93,23.526-33.737,6.442V141.915c0-2.343,2.127-7.133,3.543-9,5.293-6.978,7.787-9.307,13.269-11.909Z" transform="translate(-167.282 -78.333)" fill="#389303"/>
  <path id="XMLID_4149_" d="M247.322,162.681c0-2.343,2.179-7.971,3.444-9.937,4.856-7.524,8.884-9.942,14.3-12.53v-1.275L243.892,127.98c-5.482,2.607-9.787,7.8-12.681,15.17-.856,2.179-2.367,6.225-2.367,8.568L227.08,177.5l21.268-4.061Z" transform="translate(-173.281 -82.024)" fill="#317704"/>
  <path id="XMLID_4150_" d="M247.322,159.977c0-2.343,2.179-7.971,3.444-9.937,4.856-7.524,8.884-9.942,14.3-12.53L243.892,125.28c-5.482,2.607-9.787,7.8-12.681,15.17-.856,2.179-2.367,6.225-2.367,8.568L227.08,174.8l21.268-4.061Z" transform="translate(-173.281 -80.594)" fill="#41ba03"/>
  <path id="XMLID_8749_" d="M195.14,299.316,256.2,263.88v-7.02l-61.06,32.4Z" transform="translate(-156.368 -150.276)" fill="#4f4f4f"/>
  <g id="XMLID_4151_" transform="translate(82.633 104.433)">
    <path id="XMLID_8748_" d="M298.056,272.676l15.024-8.888c2-1.157,2.183-4.583.409-7.655s-4.832-4.63-6.837-3.473l-15.2,8.992Z" transform="translate(-290 -252.277)" fill="url(#linear-gradient-34)"/>
    <path id="XMLID_8747_" d="M290,271.552c2-1.153,5.063.4,6.837,3.472s1.59,6.5-.409,7.655-5.063-.4-6.837-3.473S288,272.7,290,271.552Z" transform="translate(-288.369 -262.281)" fill="#8d9296"/>
    <path id="XMLID_8746_" d="M290.19,274.887c1.6-.922,4.051.32,5.472,2.781s1.275,5.2-.329,6.131-4.051-.32-5.472-2.781S288.586,275.81,290.19,274.887Z" transform="translate(-288.642 -264.087)" fill="#80898a"/>
  </g>
  <path id="XMLID_8744_" d="M242.61,305.926l19.5-11.26v-7l-19.5,11.26Z" transform="translate(-181.503 -166.589)" fill="#9faaab"/>
  <path id="XMLID_4152_" d="M279.166,293.884V290.67l-2.306,1.214v3.844l2.306.88Z" transform="translate(-199.639 -168.173)" fill="#80898a"/>
  <path id="XMLID_8742_" d="M263.653,301.9,245.42,312.43l2.216,1.28,18.233-10.53Z" transform="translate(-182.991 -174.123)" fill="#dde2e6"/>
  <path id="XMLID_8741_" d="M258.823,284.92,240.59,295.446l2.216,1.28L261.044,286.2Z" transform="translate(-180.434 -165.129)" fill="#bdc1c4"/>
  <path id="XMLID_8740_" d="M245.42,324.28v.513l2.216,1.28v-.513Z" transform="translate(-182.99 -185.973)" fill="#888"/>
  <path id="XMLID_8739_" d="M268.363,305.138,250.13,315.663v-.513l18.233-10.53Z" transform="translate(-185.485 -175.563)" fill="#b2b2b2"/>
  <path id="XMLID_8738_" d="M256.528,294.78,238.29,305.306l2.221,1.28,18.233-10.526Z" transform="translate(-179.216 -170.353)" fill="#dde2e6"/>
  <path id="XMLID_8737_" d="M261.243,298.013l-18.233,10.53v-.518L261.243,297.5Z" transform="translate(-181.715 -171.794)" fill="#b2b2b2"/>
  <path id="XMLID_4517_" d="M248.4,252.624l18.492-10.676V206.24l-17.649,10.493.513,5.764.955-1.76-2.31,14.826Z" transform="translate(-184.569 -123.468)" fill="#317704"/>
  <path id="XMLID_4088_" d="M190.88,295.6,217.945,285V267.934c-6.78-3.6-27.065,11.481-27.065,11.481Z" transform="translate(-154.11 -155.844)" fill="#44a307"/>
  <path id="XMLID_4153_" d="M251.538,318.578l-5.439-2.983a16.05,16.05,0,0,0-1.849-5.482,5.362,5.362,0,0,1,.607-.033C248.292,310.1,250.546,312.955,251.538,318.578Z" transform="translate(-182.371 -178.454)" fill="#3a4044"/>
  <g id="XMLID_4154_" transform="translate(41.437 129.562)">
    <path id="XMLID_8733_" d="M200.8,323.069c0,2.372.823,4.075,2.2,5,1.84,1.238,5.783,3.369,5.783,3.369,5.538-3.2,16.421-14.309,16.421-19.847,0-2.409-5.185-4.23-6.6-5.143-1.84-1.186-4.635-1-7.764.8C205.294,310.445,200.8,317.531,200.8,323.069Z" transform="translate(-200.8 -305.695)" fill="url(#linear-gradient-35)"/>
    <path id="XMLID_8732_" d="M212.34,329.791c0,5.538,4.489,7.439,10.032,4.239S232.4,323.749,232.4,318.211s-4.489-7.439-10.032-4.239S212.34,324.253,212.34,329.791Z" transform="translate(-206.91 -309.254)" fill="#424852"/>
    <path id="XMLID_8731_" d="M218.63,331.593c0,3.675,2.978,4.936,6.658,2.814s6.658-6.823,6.658-10.5-2.978-4.936-6.658-2.814S218.63,327.913,218.63,331.593Z" transform="translate(-210.241 -313.301)" fill="url(#linear-gradient-36)"/>
    <ellipse id="XMLID_8730_" cx="8.851" cy="5.006" rx="8.851" ry="5.006" transform="matrix(0.601, -0.799, 0.799, 0.601, 6.139, 18.803)" fill="#d7d9db"/>
    <path id="XMLID_4155_" d="M232.9,325.822c0,3.3-2.673,7.514-5.976,9.425s-5.976.767-5.976-2.527a6.086,6.086,0,0,1,.1-1.12,12.918,12.918,0,0,1,5.872-8.3c.24-.136.48-.264.71-.367C230.605,321.559,232.9,322.759,232.9,325.822Z" transform="translate(-211.469 -314.522)" fill="url(#linear-gradient-37)"/>
    <path id="XMLID_4156_" d="M230.115,326.107v.047c0,2.5-2.023,5.689-4.522,7.128a5.2,5.2,0,0,1-1.327.569c-1.393.376-2.5-.056-2.945-1.176a1.92,1.92,0,0,1-.151-.447,9.205,9.205,0,0,1,.329-1.36,13.429,13.429,0,0,1,4.7-6.385,8.763,8.763,0,0,1,.847-.56c.207-.113.4-.216.593-.311a.834.834,0,0,1,.113-.056C229.145,323.5,230.091,324.414,230.115,326.107Z" transform="translate(-211.585 -315.151)" fill="#e3e5e6"/>
    <path id="XMLID_4157_" d="M229.705,325.538c0,2.447-3.1,6.912-5.552,8.361-.009.009-.024.009-.033.023s-.033-.009-.1-.033a1.106,1.106,0,0,1-.32-.1.724.724,0,0,1-.127-.047,15.119,15.119,0,0,1-2.249-1.007,1.921,1.921,0,0,1-.151-.447,9.207,9.207,0,0,1,.329-1.36,13.43,13.43,0,0,1,4.7-6.385,8.781,8.781,0,0,1,.847-.56c.207-.113.4-.216.593-.311a15.461,15.461,0,0,1,1.807,1.576l.009.009C229.611,325.434,229.705,325.538,229.705,325.538Z" transform="translate(-211.585 -315.212)" fill="url(#linear-gradient-38)"/>
    <path id="XMLID_4158_" d="M231.752,328.6a8.094,8.094,0,0,1-3.9,6.15c-2.146,1.237-3.9.5-3.9-1.647a4.287,4.287,0,0,1,.066-.729,8.445,8.445,0,0,1,3.83-5.42c.155-.089.315-.169.461-.24C230.256,325.821,231.752,326.6,231.752,328.6Z" transform="translate(-213.063 -316.629)" fill="#d9dbdd"/>
    <path id="XMLID_4159_" d="M232.312,332.633a3.944,3.944,0,0,1-1.9,3c-1.045.6-1.9.245-1.9-.8a1.876,1.876,0,0,1,.033-.358,4.1,4.1,0,0,1,1.868-2.64c.075-.042.151-.085.226-.118C231.583,331.278,232.312,331.659,232.312,332.633Z" transform="translate(-215.472 -319.376)" fill="url(#linear-gradient-39)"/>
    <path id="XMLID_4160_" d="M231.415,333.916a1.576,1.576,0,0,1-.762,1.2c-.419.24-.762.1-.762-.32a.718.718,0,0,1,.014-.141,1.648,1.648,0,0,1,.748-1.059.813.813,0,0,1,.089-.047C231.123,333.375,231.415,333.526,231.415,333.916Z" transform="translate(-216.202 -320.405)" fill="#e3e5e6"/>
  </g>
  <path id="XMLID_4161_" d="M253.914,240.763a1.4,1.4,0,0,1-1.082-.522,1.38,1.38,0,0,1-.268-1.158l1.459-9.683a5.229,5.229,0,0,1,2.291-3.308l4.945-3.153a1.549,1.549,0,0,1,.847-.249,1.584,1.584,0,0,1,1.581,1.581v8.719a4.081,4.081,0,0,1-2.037,3.524l-7.039,4.065a1.467,1.467,0,0,1-.7.183Z" transform="translate(-186.757 -132.176)" fill="#dde2e6"/>
  <path id="XMLID_8721_" d="M254.88,240.69l7.039-4.065a3.61,3.61,0,0,0,1.807-3.129v-8.719a1.121,1.121,0,0,0-1.722-.946l-4.945,3.153a4.741,4.741,0,0,0-2.084,2.993l-1.468,9.712A.932.932,0,0,0,254.88,240.69Z" transform="translate(-187.262 -132.686)" fill="#2c5e8c"/>
  <path id="XMLID_4162_" d="M254.829,275.89a1.3,1.3,0,0,1-1.3-1.3v-6.658a1.911,1.911,0,0,1,.96-1.656l2.682-1.553a1.316,1.316,0,0,1,.649-.174,1.3,1.3,0,0,1,1.3,1.3v6.658a1.917,1.917,0,0,1-.955,1.656l-2.682,1.553A1.362,1.362,0,0,1,254.829,275.89Z" transform="translate(-187.285 -154.342)" fill="#dde2e6"/>
  <path id="XMLID_8719_" d="M258.438,274.29l-2.687,1.548a.84.84,0,0,1-1.261-.729V268.45a1.451,1.451,0,0,1,.729-1.261l2.687-1.548a.84.84,0,0,1,1.261.729v6.658A1.462,1.462,0,0,1,258.438,274.29Z" transform="translate(-187.793 -154.859)" fill="#345982"/>
  <path id="XMLID_8718_" d="M300.292,253.03,279.81,264.939v3.068l.734.456,20.487-14.977Z" transform="translate(-201.203 -148.242)" fill="#dde2e6"/>
  <path id="XMLID_8717_" d="M301.857,254,281.37,265.909v3.068l20.487-11.9Z" transform="translate(-202.029 -148.755)" fill="#a6a9ab"/>
  <g id="XMLID_4163_" transform="translate(81.417 115.544)">
    <path id="XMLID_4164_" d="M288.551,276.139l0,.489a.628.628,0,0,1-.315.532l-2.08,1.209a.245.245,0,0,1-.372-.216v-.136l1.741-1.012a.644.644,0,0,0,.315-.532l0-.353.339-.2A.248.248,0,0,1,288.551,276.139Z" transform="translate(-285.78 -275.89)" fill="#80898a"/>
    <path id="XMLID_4165_" d="M287.841,276.38l0,.353a.627.627,0,0,1-.315.532l-1.741,1.012,0-.348a.635.635,0,0,1,.315-.536Z" transform="translate(-285.78 -276.149)" fill="#eac72f"/>
  </g>
  <g id="XMLID_4166_" transform="translate(96.086 106.869)">
    <path id="XMLID_4167_" d="M319.731,257.7l0,.489a.627.627,0,0,1-.315.532l-2.08,1.209a.245.245,0,0,1-.372-.216v-.136l1.741-1.012a.644.644,0,0,0,.315-.532l0-.353.339-.2A.248.248,0,0,1,319.731,257.7Z" transform="translate(-316.96 -257.451)" fill="#80898a"/>
    <path id="XMLID_4168_" d="M319.021,257.95l0,.353a.633.633,0,0,1-.315.532l-1.741,1.012,0-.348a.635.635,0,0,1,.315-.536Z" transform="translate(-316.96 -257.715)" fill="#eac72f"/>
  </g>
  <g id="XMLID_4169_" transform="translate(91.198 109.762)">
    <path id="XMLID_4170_" d="M309.341,263.849l0,.489a.627.627,0,0,1-.315.532l-2.08,1.209a.245.245,0,0,1-.372-.216v-.136l1.741-1.012a.644.644,0,0,0,.315-.532l0-.353.339-.2A.248.248,0,0,1,309.341,263.849Z" transform="translate(-306.57 -263.6)" fill="#80898a"/>
    <path id="XMLID_4171_" d="M308.631,264.09l0,.353a.633.633,0,0,1-.315.532l-1.741,1.012,0-.348a.635.635,0,0,1,.315-.536Z" transform="translate(-306.57 -263.859)" fill="#eac72f"/>
  </g>
  <g id="XMLID_4172_" transform="translate(86.305 112.651)">
    <path id="XMLID_4173_" d="M298.941,269.99l0,.489a.627.627,0,0,1-.315.532l-2.08,1.209a.245.245,0,0,1-.372-.216v-.136l1.741-1.012a.644.644,0,0,0,.315-.532l0-.353.339-.2A.248.248,0,0,1,298.941,269.99Z" transform="translate(-296.17 -269.741)" fill="#80898a"/>
    <path id="XMLID_4174_" d="M298.231,270.24l0,.353a.627.627,0,0,1-.315.532l-1.741,1.012,0-.348a.635.635,0,0,1,.315-.536Z" transform="translate(-296.17 -270.005)" fill="#eac72f"/>
  </g>
  <path id="XMLID_4175_" d="M179.337,177.817c.447,9.763,36.456,28.975,33.85,19.555-.762-2.767,17.137-12.107,17.137-12.107s-19.348-6.7-33.85-19.555C196.469,165.71,179.1,172.575,179.337,177.817Z" transform="translate(-147.997 -102.003)" fill="#57d307"/>
  <path id="XMLID_4176_" d="M225.059,185.185c-6.347-2.861-15.739-7.124-24.044-13.895-6.093,3.035-17.781,9.373-17.607,13.25a6.293,6.293,0,0,0,.3,1.543c4.056,5.171,12.944,11.1,20.3,14.525,3.345.616,5.5-.165,4.682-3.124C208.021,195.056,222.052,187.735,225.059,185.185Z" transform="translate(-150.153 -104.958)" fill="#317704"/>
  <path id="XMLID_4177_" d="M225.059,184.512a111.7,111.7,0,0,1-24.044-14.492c-6.093,3.035-17.781,9.373-17.607,13.25a6.293,6.293,0,0,0,.3,1.543c4.056,5.171,12.944,11.1,20.3,14.525,3.345.616,5.5-.165,4.682-3.124C208.021,193.791,221.657,186.328,225.059,184.512Z" transform="translate(-150.153 -104.285)" fill="#66f40b"/>
  <path id="XMLID_4178_" d="M190.889,245.46c-6.837,1.924-24.43,9.618-24.43,9.618L140.43,239.471s7.006-5.228,16.944-13.631c7.416-6.277,32.339,18.092,33.788,19.489A2.059,2.059,0,0,0,190.889,245.46Z" transform="translate(-127.392 -133.299)" fill="#66f40b"/>
  <path id="XMLID_4087_" d="M186.353,240.717l-22.67,13.612-18.713-14.2,21.329-17.5Z" transform="translate(-129.796 -132.145)" fill="#317704"/>
  <path id="XMLID_4086_" d="M188.969,237.966l-25.286,14.313-18.713-14.2,21.329-17.5Z" transform="translate(-129.796 -131.06)" fill="#57d307"/>
  <path id="XMLID_4082_" d="M186.417,235.517l-25.371,17.014-16.337-7.415,25-19.066Z" transform="translate(-129.658 -133.956)" fill="#57d307"/>
  <path id="XMLID_8697_" d="M146.8,262l4.216-3.294a28.432,28.432,0,0,0-10.766-3.91,3.905,3.905,0,0,0-3.647,1.365l-1.562,1.873Z" transform="translate(-124.538 -149.15)" fill="#c6d4d4"/>
  <path id="XMLID_4179_" d="M178.113,277.375V291.3l-3.562,2.066-.616-15.687-.024-.583L160.04,266.454l4.206-3.294c2.969,1.327,8.578,6.319,11.674,9.185a6.756,6.756,0,0,1,2,3.44A6.938,6.938,0,0,1,178.113,277.375Z" transform="translate(-137.775 -153.611)" fill="#e1f0f0"/>
  <path id="XMLID_4180_" d="M193.748,291.58v13.928l-3.562,2.066-.616-15.687,3.985-1.9A6.938,6.938,0,0,1,193.748,291.58Z" transform="translate(-153.415 -167.817)" fill="#cedbdb"/>
  <path id="XMLID_4181_" d="M136.261,260.417l3.242.612a45.406,45.406,0,0,1,13.763,7.5l5.98,5.59a4.34,4.34,0,0,1,1.374,3.167v22.962L133.73,284.781V262.516A2.133,2.133,0,0,1,136.261,260.417Z" transform="translate(-123.844 -152.139)" fill="#99afba"/>
  <path id="XMLID_4182_" d="M114.236,289.95l42.8,24.7,2.654-.452,1.3.753-3.12,1.92L112.73,290.816Z" transform="translate(-112.725 -167.796)" fill="#e1f0f0"/>
  <path id="XMLID_4183_" d="M160.987,315.934l-.96,10.112-.79.48a2.594,2.594,0,0,1-1.52.391,2.638,2.638,0,0,1-1.247-.344l-42.757-24.684a1.941,1.941,0,0,1-.993-1.7V291.81l43.749,25.244a2.679,2.679,0,0,0,1.247.343,2.594,2.594,0,0,0,1.52-.391Z" transform="translate(-112.72 -168.781)" fill="#99afba"/>
  <path id="XMLID_4184_" d="M211.62,343.08l-.96,10.112-.79.48a2.594,2.594,0,0,1-1.52.391v-9.514a2.594,2.594,0,0,0,1.52-.391Z" transform="translate(-163.36 -195.927)" fill="#cedbdb"/>
  <path id="XMLID_4185_" d="M160.037,333.481l-.786.485a2.691,2.691,0,0,1-2.767.038L112.74,308.76v.4a1.97,1.97,0,0,0,.988,1.708l42.761,24.674a2.712,2.712,0,0,0,2.767-.038l.786-.485.155-1.614Z" transform="translate(-112.731 -177.755)" fill="#389303"/>
  <path id="XMLID_4186_" d="M123.883,316.694l-4.183-2.4v-1.52l4.183,2.409Z" transform="translate(-116.416 -179.879)" fill="#e1f0f0"/>
  <g id="XMLID_4187_" transform="translate(57.621 113.473)">
    <path id="XMLID_4188_" d="M236.06,296.238v1.176c0,1.3,1.619,2.353,3.618,2.353s3.618-1.054,3.618-2.353V296.12Z" transform="translate(-235.655 -284.531)" fill="url(#linear-gradient-40)"/>
    <path id="XMLID_4189_" d="M235.2,292.262v1.308c0,1.445,1.8,2.621,4.023,2.621s4.023-1.172,4.023-2.621v-1.44Z" transform="translate(-235.2 -282.418)" fill="url(#linear-gradient-41)"/>
    <path id="XMLID_4190_" d="M243.246,289.461c0,1.445-1.8,2.621-4.023,2.621s-4.023-1.172-4.023-2.621,1.8-2.621,4.023-2.621S243.246,288.016,243.246,289.461Z" transform="translate(-235.2 -279.617)" fill="#bfcccc"/>
    <path id="XMLID_4191_" d="M236.06,284.388v3.251c0,1.3,1.619,2.353,3.618,2.353s3.618-1.054,3.618-2.353V284.27Z" transform="translate(-235.655 -278.257)" fill="url(#linear-gradient-42)"/>
    <path id="XMLID_4192_" d="M235.2,279.442v1.308c0,1.445,1.8,2.621,4.023,2.621s4.023-1.172,4.023-2.621v-1.44Z" transform="translate(-235.2 -275.63)" fill="url(#linear-gradient-43)"/>
    <path id="XMLID_4193_" d="M243.246,276.641c0,1.445-1.8,2.621-4.023,2.621s-4.023-1.172-4.023-2.621,1.8-2.621,4.023-2.621S243.246,275.192,243.246,276.641Z" transform="translate(-235.2 -272.83)" fill="#bfcccc"/>
    <path id="XMLID_4194_" d="M236.06,276.358v1.176c0,1.3,1.619,2.353,3.618,2.353s3.618-1.054,3.618-2.353V276.24Z" transform="translate(-235.655 -274.005)" fill="url(#linear-gradient-44)"/>
    <path id="XMLID_4195_" d="M243.3,273.843c0,1.3-1.619,2.353-3.618,2.353s-3.618-1.054-3.618-2.353,1.619-2.353,3.618-2.353S243.3,272.544,243.3,273.843Z" transform="translate(-235.655 -271.49)" fill="#e1f0f0"/>
  </g>
  <g id="XMLID_4196_" transform="translate(36.417 126.92)">
    <path id="XMLID_4197_" d="M222.883,313.278a16.624,16.624,0,0,0-1.769-5.359,5.5,5.5,0,0,0-4.912-3.143,5.428,5.428,0,0,0-.607.033c-.353-.616-4,.169-4.512.513-.184.113-3.6,1.873-8.1,7.1-2.1,2.456-1.915,3.868-4.277,8.041l-8.578-4.776c.569-2.993,3.44-6.634,7.185-9.825,4.922-4.192,8.8-5.778,13.405-5.778h.056a6.847,6.847,0,0,1,2.96.649c1.176.56,6.536,2.9,7.528,4.522l.009.009a5.7,5.7,0,0,1,.583,1.6C222.3,308.7,222.54,311.311,222.883,313.278Z" transform="translate(-190.13 -300.08)" fill="#389303"/>
  </g>
  <path id="XMLID_4198_" d="M229.933,306.87c-.249.343-.489.7-.743,1.049a5.5,5.5,0,0,0-4.912-3.143,5.42,5.42,0,0,0-.607.033c-.353-.616-4,.169-4.512.513-.183.113-3.6,1.873-8.1,7.1l-5.67-6.559c4.922-4.192,8.8-5.778,13.405-5.778h.056a6.848,6.848,0,0,1,2.96.649c1.176.56,6.536,2.9,7.528,4.522l.009.009A5.743,5.743,0,0,1,229.933,306.87Z" transform="translate(-161.794 -173.16)" fill="#41ba03"/>
  <path id="XMLID_4199_" d="M225.827,304.215l-1.755,1.012-1.4-.809,1.755-1.007Z" transform="translate(-170.943 -174.923)" fill="#b03a28"/>
  <g id="XMLID_4200_" transform="translate(44.993 129.904)">
    <path id="XMLID_4201_" d="M234.225,316.339l-1.689.3c-.993-5.618-3.242-8.474-6.681-8.5a5.428,5.428,0,0,0-.607.033c-6.945.616-13.772,8.7-14.925,14.742l-1.962.9c1.223-6.409,7.877-15.659,15.678-17.212a9.765,9.765,0,0,1,1.783-.184h.047a6.794,6.794,0,0,1,5.049,2.193l.009.009C232.343,310.114,233.543,312.527,234.225,316.339Z" transform="translate(-208.36 -306.42)" fill="#317704"/>
  </g>
  <path id="XMLID_4202_" d="M212.609,214.277,210.3,229.1l-19.141-9.255-2.009-.936-.32-.151-12.389-9.218,2.7-15.5,13.015,9.321,1.953,1.129Z" transform="translate(-146.464 -117.006)" fill="#389303"/>
  <path id="XMLID_4203_" d="M213.123,217.13l-2.183,12.841L192.6,221.092l-2.014-.936-.042-.024-11.382-8.54,2.174-12.822,1.619.936,7.208,4.169,3.43,1.976,1.953,1.134Z" transform="translate(-147.904 -119.51)" fill="#44739e"/>
  <path id="XMLID_4204_" d="M194.876,229.85l-2.009-.936-.047-.024-11.377-8.54-2.037,1.228-.245,1.44,11.382,8.54.042.024,2.014.936,18.341,8.879.593-3.487Z" transform="translate(-147.904 -130.937)" fill="#38546d"/>
  <path id="XMLID_4205_" d="M192.412,204.929a3.016,3.016,0,0,1-.56.4l-7.048,4.065a.924.924,0,0,1-1.369-.993l1.473-6.738a4.321,4.321,0,0,1,.3-.9Z" transform="translate(-150.154 -120.562)" fill="#b5d6c7"/>
  <g id="XMLID_4206_" transform="translate(52.602 128.003)">
    <path id="XMLID_4207_" d="M227.687,303.189l-1.755,1.007-1.4-.809,1.76-1.007Z" transform="translate(-224.53 -302.38)" fill="#cf9219"/>
    <path id="XMLID_4208_" d="M229.27,304.1v.993l-1.76,1.007v-.993l1.755-1.007Z" transform="translate(-226.108 -303.291)" fill="#eac72f"/>
    <path id="XMLID_4209_" d="M225.932,305.329v.993l-1.4-.8v-1Z" transform="translate(-224.53 -303.513)" fill="#b06a00"/>
  </g>
  <g id="XMLID_4210_" transform="translate(36.62 137.731)">
    <g id="XMLID_4211_">
      <path id="XMLID_4212_" d="M198.968,327.523v1.52a.674.674,0,0,1-.362.6c-.188.1-1.2.861-1.416.739l-3.378-4.084a1.781,1.781,0,0,1-.9-1.548l-1.8-.739c0-.231,1.1-.706,1.261-.823.019-.014.042-.028.061-.042a.679.679,0,0,1,.663,0l4.978,2.837A1.779,1.779,0,0,1,198.968,327.523Z" transform="translate(-190.851 -323.056)" fill="url(#linear-gradient-45)"/>
      <path id="XMLID_4213_" d="M197.439,329.066v1.52a.671.671,0,0,1-1,.583l-4.978-2.837a1.781,1.781,0,0,1-.9-1.548v-1.52a.671.671,0,0,1,1-.583l4.978,2.837A1.781,1.781,0,0,1,197.439,329.066Z" transform="translate(-190.56 -323.869)" fill="#828282"/>
    </g>
    <path id="XMLID_4214_" d="M194.106,328.891a.85.85,0,0,1-.1.447c-.193.353-.663.423-1.2.1a2.681,2.681,0,0,1-1.313-2.066c0-.513.3-.8.743-.743a1.384,1.384,0,0,1,.569.193A2.694,2.694,0,0,1,194.106,328.891Z" transform="translate(-191.052 -324.946)" fill="#bdcedf"/>
    <path id="XMLID_4215_" d="M200.3,332.633a.85.85,0,0,1-.1.447c-.207.353-.663.423-1.209.113a2.732,2.732,0,0,1-1.3-2.066c0-.527.3-.8.729-.753a1.386,1.386,0,0,1,.569.193A2.712,2.712,0,0,1,200.3,332.633Z" transform="translate(-194.33 -326.928)" fill="#bdcedf"/>
    <path id="XMLID_4216_" d="M194.826,328.9a.85.85,0,0,1-.1.447,1.384,1.384,0,0,1-.569-.193,2.694,2.694,0,0,1-1.3-2.066.85.85,0,0,1,.1-.447,1.385,1.385,0,0,1,.569.193A2.694,2.694,0,0,1,194.826,328.9Z" transform="translate(-191.772 -324.954)" fill="#e2e9ec"/>
    <path id="XMLID_4217_" d="M201.006,332.639a.85.85,0,0,1-.1.447,1.235,1.235,0,0,1-.569-.184,2.744,2.744,0,0,1-1.313-2.066.874.874,0,0,1,.1-.456,1.385,1.385,0,0,1,.569.193A2.719,2.719,0,0,1,201.006,332.639Z" transform="translate(-195.039 -326.934)" fill="#e2e9ec"/>
  </g>
  <path id="XMLID_4218_" d="M208.039,214.954v.009l-2.945,14.1-.32,1.11-2.014-.936.32-1.11,3.007-14.29v-.014Z" transform="translate(-160.4 -127.478)" fill="#389303"/>
  <g id="XMLID_4219_" transform="translate(78.608 69.441)">
    <path id="XMLID_4220_" d="M279.81,207.825v33.4c0,.847,1.059,1.539,2.362,1.539s2.362-.687,2.362-1.539V207.75Z" transform="translate(-279.81 -193.706)" fill="url(#linear-gradient-46)"/>
    <path id="XMLID_4221_" d="M284.534,206.179c0,.847-1.059,1.539-2.362,1.539s-2.362-.687-2.362-1.539,1.059-1.539,2.362-1.539S284.534,205.332,284.534,206.179Z" transform="translate(-279.81 -192.06)" fill="#e1f0f0"/>
    <g id="XMLID_4222_" transform="translate(1.153)">
      <path id="XMLID_4223_" d="M287.361,179.094a3.013,3.013,0,0,1-1.167,2.607l-.63.513a2.3,2.3,0,0,0-.87,1.807v7.632a1.26,1.26,0,0,1-1.233.63,1.282,1.282,0,0,1-1.2-.583v-8.3a4.029,4.029,0,0,1,1.487-3.129l2.607-2.353S287.243,177.7,287.361,179.094Z" transform="translate(-282.26 -177.905)" fill="#b9c6c7"/>
      <path id="XMLID_4224_" d="M282.769,192.083v-8.3a4.029,4.029,0,0,1,1.487-3.129l2.607-2.353a.755.755,0,0,1,.3.009.74.74,0,0,0-.8-.4l-2.607,2.353a4.036,4.036,0,0,0-1.487,3.129v8.3a.947.947,0,0,0,.546.456C282.8,192.121,282.778,192.107,282.769,192.083Z" transform="translate(-282.265 -177.904)" fill="#dde2e6"/>
      <path id="XMLID_4225_" d="M288.99,184.12l-1.393,1.256a4.036,4.036,0,0,0-1.487,3.129v6.95a.949.949,0,0,0,.626-.518v-7.632a2.318,2.318,0,0,1,.871-1.807l.631-.513A3.356,3.356,0,0,0,288.99,184.12Z" transform="translate(-284.299 -181.195)" fill="#a6a9ab"/>
    </g>
  </g>
  <path id="XMLID_4226_" d="M179.34,191.44a8.609,8.609,0,0,0,.951,1.91c6.2,7.557,33.85,19.555,33.85,19.555L213.19,211S186.723,198.888,179.34,191.44Z" transform="translate(-147.999 -115.627)" fill="#317704"/>
  <g id="XMLID_4227_" transform="translate(40.797 72.305)">
    <path id="XMLID_8648_" d="M201.707,185.723l-.913.583c-.249.155-.268.433-.527.282l-.409-.32c-.282-.16-.583-.758-.315-.922l.918-.579c.249-.155,1.242-.593,1.506-.442l.1.047C202.352,184.523,201.98,185.553,201.707,185.723Z" transform="translate(-199.438 -184.147)" fill="#a93e38"/>
    <path id="XMLID_8647_" d="M203.811,185.906l-1.463.932a.9.9,0,0,1-.927.009l-.348-.2c-.315-.183.1-1.477.4-1.661l1.045-.094c.282-.174.711-.621,1-.452l.24.184A1.009,1.009,0,0,1,203.811,185.906Z" transform="translate(-200.244 -184.203)" fill="#ed8333"/>
    <path id="XMLID_8646_" d="M203.913,184.87l-.913.583a.815.815,0,0,1-.828.009l-.108-.047a.434.434,0,0,1-.024-.739l.918-.579a.8.8,0,0,1,.823,0l.1.047A.426.426,0,0,1,203.913,184.87Z" transform="translate(-200.713 -183.981)" fill="#edbd51"/>
  </g>
  <g id="XMLID_4228_" transform="translate(49.148 77.146)">
    <path id="XMLID_8644_" d="M219.457,196.013l-.913.583c-.249.155-.268.433-.527.282l-.409-.32c-.282-.16-.583-.758-.315-.922l.918-.579c.249-.155,1.242-.593,1.506-.442l.1.047C220.1,194.813,219.73,195.843,219.457,196.013Z" transform="translate(-217.188 -194.437)" fill="#a93e38"/>
    <path id="XMLID_8643_" d="M221.561,196.2l-1.463.932a.9.9,0,0,1-.927.009l-.348-.2c-.315-.183.1-1.477.4-1.661l1.045-.094c.282-.174.71-.621,1-.452l.24.183A1.009,1.009,0,0,1,221.561,196.2Z" transform="translate(-217.994 -194.493)" fill="#ed8333"/>
    <path id="XMLID_8642_" d="M221.663,195.16l-.913.583a.815.815,0,0,1-.828.009l-.108-.047a.434.434,0,0,1-.024-.739l.918-.579a.8.8,0,0,1,.823,0l.1.047A.426.426,0,0,1,221.663,195.16Z" transform="translate(-218.463 -194.271)" fill="#edbd51"/>
  </g>
  <g id="XMLID_4229_" transform="translate(57.498 81.987)">
    <path id="XMLID_8640_" d="M237.207,206.3l-.913.583c-.249.155-.268.433-.527.282l-.409-.32c-.282-.16-.583-.758-.315-.922l.918-.579c.249-.155,1.242-.593,1.506-.442l.1.047C237.852,205.1,237.48,206.133,237.207,206.3Z" transform="translate(-234.938 -204.727)" fill="#a93e38"/>
    <path id="XMLID_8639_" d="M239.311,206.486l-1.463.932a.9.9,0,0,1-.927.009l-.348-.2c-.315-.184.1-1.477.4-1.661l1.045-.094c.282-.174.71-.621,1-.452l.24.184A1.009,1.009,0,0,1,239.311,206.486Z" transform="translate(-235.744 -204.783)" fill="#ed8333"/>
    <path id="XMLID_8638_" d="M239.413,205.45l-.913.583a.815.815,0,0,1-.828.009l-.108-.047a.434.434,0,0,1-.024-.739l.918-.579a.8.8,0,0,1,.823,0l.1.047A.426.426,0,0,1,239.413,205.45Z" transform="translate(-236.213 -204.561)" fill="#edbd51"/>
  </g>
  <path id="XMLID_4230_" d="M160.831,272.859a.546.546,0,0,1-.165.423c-.325.311-1.049.287-1.915-.132-1.139-.569-2.061-1.614-2.061-2.334,0-.527.471-.739,1.158-.6a3.558,3.558,0,0,1,.9.311C159.908,271.094,160.831,272.139,160.831,272.859Z" transform="translate(-136.001 -157.319)" fill="#cf5633"/>
  <path id="XMLID_8635_" d="M139.282,284.3l19.776,11.373a.935.935,0,0,0,1.4-.814V282.606a2.3,2.3,0,0,0-1.162-2l-19.776-11.373a.935.935,0,0,0-1.4.814V282.3A2.3,2.3,0,0,0,139.282,284.3Z" transform="translate(-126.169 -156.758)" fill="#7895a4"/>
  <path id="XMLID_4231_" d="M159.534,295.49l-19.776-11.373a2.31,2.31,0,0,1-1.162-2V269.856a.9.9,0,0,1,.329-.706.932.932,0,0,0-.8.922v12.257a2.3,2.3,0,0,0,1.162,2l19.776,11.373a.93.93,0,0,0,1.073-.1A.938.938,0,0,1,159.534,295.49Z" transform="translate(-126.169 -156.783)" fill="#cedbdb"/>
  <g id="XMLID_4232_" transform="translate(82.319 62.223)">
    <path id="XMLID_4081_" d="M304.512,206.065,287.7,215.753v-28.34a21.2,21.2,0,0,1,1.449-7.778c1.924-4.635,10.041-15.593,15.367-17.075v43.5Z" transform="translate(-287.7 -162.56)" fill="#317704"/>
  </g>
  <path id="XMLID_4233_" d="M141.673,326.924l-4.183-2.409V323l4.183,2.4Z" transform="translate(-125.835 -185.295)" fill="#e1f0f0"/>
  <path id="XMLID_4234_" d="M159.463,337.144l-4.183-2.4v-1.52l4.183,2.4Z" transform="translate(-135.254 -190.706)" fill="#e1f0f0"/>
  <path id="XMLID_4235_" d="M177.253,347.364l-4.183-2.4v-1.52l4.183,2.4Z" transform="translate(-144.674 -196.118)" fill="#e1f0f0"/>
  <path id="XMLID_4236_" d="M195.043,357.59l-4.183-2.4V353.67l4.183,2.4Z" transform="translate(-154.099 -201.534)" fill="#e1f0f0"/>
  <g id="XMLID_4237_" transform="translate(14.172 134.072)">
    <path id="XMLID_4238_" d="M143.946,322.485a2.406,2.406,0,0,1-1.106-1.859v-3.4c0-.668.494-.918,1.106-.565l8.211,4.795a2.4,2.4,0,0,1,1.106,1.854v3.4c0,.668-.5.922-1.106.565Z" transform="translate(-142.84 -315.926)" fill="#8b8b8b"/>
    <path id="XMLID_4239_" d="M144.626,321.265a2.406,2.406,0,0,1-1.106-1.859V316c0-.668.5-.918,1.106-.565l8.211,4.795a2.4,2.4,0,0,1,1.106,1.854v3.4c0,.668-.5.922-1.106.565Z" transform="translate(-143.2 -315.28)" fill="#f9fcfc"/>
    <path id="XMLID_4240_" d="M143.946,321.5a2.406,2.406,0,0,1-1.106-1.859v-3.4c0-.668.494-.918,1.106-.565l8.211,4.795a2.4,2.4,0,0,1,1.106,1.854v3.4c0,.668-.5.922-1.106.565Z" transform="translate(-142.84 -315.402)" fill="#e0e0e0"/>
    <path id="XMLID_4241_" d="M152.379,326.354l-8.211-4.795a1.96,1.96,0,0,1-.9-1.51v-3.4c0-.541.4-.748.9-.456l8.211,4.795a1.947,1.947,0,0,1,.9,1.506v3.4C153.278,326.439,152.878,326.646,152.379,326.354Z" transform="translate(-143.068 -315.692)" fill="#f8ffff"/>
    <g id="XMLID_4242_" transform="translate(0.207 0.367)">
      <path id="XMLID_4243_" d="M153.279,322.468a1.943,1.943,0,0,0-.894-1.482l-8.211-4.795c-.489-.287-.885-.089-.894.438Z" transform="translate(-143.28 -316.06)" fill="#019ae6"/>
      <path id="XMLID_4244_" d="M143.28,324.59a1.943,1.943,0,0,0,.894,1.482l8.211,4.795c.489.287.885.089.894-.438Z" transform="translate(-143.28 -320.576)" fill="#019ae6"/>
    </g>
  </g>
  <g id="XMLID_4245_" transform="translate(87.933 82.032)">
    <path id="XMLID_4246_" d="M300.929,222.992a1.3,1.3,0,0,1-1.3-1.3v-13.65a1.911,1.911,0,0,1,.96-1.656l2.682-1.553a1.316,1.316,0,0,1,.649-.174,1.3,1.3,0,0,1,1.3,1.3v13.65a1.917,1.917,0,0,1-.955,1.656l-2.682,1.553A1.361,1.361,0,0,1,300.929,222.992Z" transform="translate(-299.63 -204.66)" fill="#204c04"/>
    <path id="XMLID_4080_" d="M304.738,221.381l-2.687,1.548a.84.84,0,0,1-1.261-.729V208.55a1.451,1.451,0,0,1,.729-1.261l2.687-1.548a.84.84,0,0,1,1.261.729v13.65A1.476,1.476,0,0,1,304.738,221.381Z" transform="translate(-300.244 -205.172)" fill="#317704"/>
  </g>
  <g id="XMLID_4247_" transform="translate(44.736 121.427)">
    <path id="XMLID_4248_" d="M209,288.416l-.823.311a.586.586,0,0,0-.362.56v.306a.43.43,0,0,0,.541.409l.828-.315a.582.582,0,0,0,.358-.56v-.306A.432.432,0,0,0,209,288.416Z" transform="translate(-207.81 -288.395)" fill="#ed8333"/>
    <path id="XMLID_4249_" d="M209.456,288.9l-.823.311a.586.586,0,0,0-.362.56v.306a.43.43,0,0,0,.541.409l.828-.315a.582.582,0,0,0,.358-.56v-.306A.431.431,0,0,0,209.456,288.9Z" transform="translate(-208.054 -288.652)" fill="#edbd51"/>
  </g>
  <g id="XMLID_7271_" transform="translate(11.914 112.871)">
    <path id="XMLID_5175_" d="M160.418,306.47v1.016a254.49,254.49,0,0,1-22.378-12.281V294.18C144.623,298.438,155.849,304.263,160.418,306.47Z" transform="translate(-138.04 -282.906)" fill="#73818e"/>
    <path id="XMLID_5176_" d="M160.418,302.37V303.4c-4.569-2.207-15.8-8.032-22.378-12.29V290.08C144.623,294.338,155.849,300.163,160.418,302.37Z" transform="translate(-138.04 -280.735)" fill="#73818e"/>
    <path id="XMLID_5177_" d="M160.418,298.24v1.026a252.407,252.407,0,0,1-22.378-12.29V285.95A254.3,254.3,0,0,0,160.418,298.24Z" transform="translate(-138.04 -278.549)" fill="#73818e"/>
    <path id="XMLID_5178_" d="M160.418,294.084v1.026a253.631,253.631,0,0,1-22.378-12.29v-.96A251.808,251.808,0,0,0,160.418,294.084Z" transform="translate(-138.04 -276.383)" fill="#73818e"/>
    <g id="XMLID_5179_" transform="translate(0 5.933)">
      <path id="XMLID_5180_" d="M160.418,307.547v1.03c-5.039-2.48-16.177-8.361-22.378-12.351V295.2C144.246,299.185,155.384,305.067,160.418,307.547Z" transform="translate(-138.04 -289.38)" fill="#99afba"/>
      <path id="XMLID_5181_" d="M160.418,303.48v1.026c-4.569-2.207-15.8-8.032-22.378-12.29V291.19C144.623,295.448,155.849,301.278,160.418,303.48Z" transform="translate(-138.04 -287.256)" fill="#99afba"/>
      <path id="XMLID_5182_" d="M160.418,299.331v1.026c-5.039-2.48-16.177-8.361-22.378-12.351V286.98C144.246,290.97,155.384,296.856,160.418,299.331Z" transform="translate(-138.04 -285.027)" fill="#99afba"/>
      <path id="XMLID_5183_" d="M160.418,295.125v1.026a253.628,253.628,0,0,1-22.378-12.29v-1.03A252.015,252.015,0,0,0,160.418,295.125Z" transform="translate(-138.04 -282.83)" fill="#99afba"/>
    </g>
    <path id="XMLID_5184_" d="M160.418,289.74v1.026a253.606,253.606,0,0,1-22.378-12.29V277.45A253.055,253.055,0,0,0,160.418,289.74Z" transform="translate(-138.04 -274.048)" fill="#73818e"/>
    <path id="XMLID_5185_" d="M160.418,285.644v1.026c-4.569-2.207-15.8-8.032-22.378-12.3V273.34C144.623,277.612,155.849,283.442,160.418,285.644Z" transform="translate(-138.04 -271.872)" fill="#73818e"/>
    <path id="XMLID_5186_" d="M160.405,283.047a253.861,253.861,0,0,1-22.265-12.234.837.837,0,0,1,.24-.376.851.851,0,0,1,.423-.216c.32.207,3.232,2,4.672,2.908a.951.951,0,0,1,.127.08c2.287,1.313,4.583,2.569,6.761,3.722a1.472,1.472,0,0,1,.169.089c2.945,1.449,8.978,4.861,8.978,4.861a1.747,1.747,0,0,1,.569.527A1.651,1.651,0,0,1,160.405,283.047Z" transform="translate(-138.093 -270.22)" fill="#73818e"/>
    <g id="XMLID_5187_" transform="translate(0 0.216)">
      <path id="XMLID_5188_" d="M160.418,290.841v1.026c-5.039-2.48-16.177-8.361-22.378-12.351V278.49C144.246,282.475,155.384,288.362,160.418,290.841Z" transform="translate(-138.04 -274.815)" fill="#99afba"/>
      <path id="XMLID_5189_" d="M160.418,286.764v1.026c-4.569-2.207-15.8-8.032-22.378-12.3V274.46C144.623,278.732,155.849,284.557,160.418,286.764Z" transform="translate(-138.04 -272.681)" fill="#99afba"/>
      <path id="XMLID_5190_" d="M160.418,283.794v.056c-5.039-2.466-16.177-8.352-22.378-12.337V271.3a.546.546,0,0,1,.047-.24.837.837,0,0,1,.24-.376c1.647,1.049,3.36,2.183,5.1,3.19a.946.946,0,0,1,.127.08c2.287,1.313,4.583,2.569,6.761,3.722a1.472,1.472,0,0,1,.169.089c2.1,1.106,7.815,4.023,9.552,4.889a1.64,1.64,0,0,1,.32.64A1.969,1.969,0,0,1,160.418,283.794Z" transform="translate(-138.04 -270.68)" fill="#99afba"/>
    </g>
  </g>
  <g id="XMLID_6111_" transform="translate(31.887 96.916)">
    <g id="XMLID_6112_" transform="translate(11.646 7.652)">
      <path id="XMLID_6136_" d="M213.093,256.02l-.5.334a1.347,1.347,0,0,1-1.139.014l-5.317-2.381c-.663-.3-.729-.79-.141-1.054l.489-.221a1.412,1.412,0,0,1,1.045.028l5.256,2.3C213.38,255.309,213.517,255.737,213.093,256.02Z" transform="translate(-205.433 -252.594)" fill="#4b4146"/>
      <g id="XMLID_6113_">
        <path id="XMLID_6135_" d="M216.63,258.851l.423.127L219.3,257.7l-.353-.193Z" transform="translate(-211.275 -255.181)" fill="#57d307"/>
        <path id="XMLID_6131_" d="M214.22,257.936l.428.127,2.24-1.275-.353-.188Z" transform="translate(-209.999 -254.699)" fill="#57d307"/>
        <path id="XMLID_6127_" d="M211.81,257.016l.428.132,2.24-1.275-.353-.193Z" transform="translate(-208.723 -254.212)" fill="#57d307"/>
        <path id="XMLID_6119_" d="M209.4,256.106l.428.127,2.24-1.275-.353-.188Z" transform="translate(-207.447 -253.73)" fill="#57d307"/>
        <path id="XMLID_6117_" d="M207.15,255.106l.423.127,2.244-1.275-.353-.188Z" transform="translate(-206.256 -253.201)" fill="#57d307"/>
        <path id="XMLID_6114_" d="M205.25,253.9l.423.127,2.244-1.275-.353-.188Z" transform="translate(-205.25 -252.56)" fill="#57d307"/>
      </g>
    </g>
    <g id="XMLID_6115_">
      <path id="XMLID_6124_" d="M181.265,236.722l.508-.32a.937.937,0,0,1,.974.071l3.971,2.969a.614.614,0,0,1-.132,1.143l-.471.2a.971.971,0,0,1-.885-.108l-3.934-2.88C180.846,237.465,180.832,236.995,181.265,236.722Z" transform="translate(-180.738 -236.297)" fill="#4b4146"/>
      <g id="XMLID_6125_" transform="translate(0 0.176)">
        <path id="XMLID_6126_" d="M183.055,236.839l-.334-.169-2.221,1.2.254.231Z" transform="translate(-180.5 -236.67)" fill="#57d307"/>
        <path id="XMLID_6128_" d="M184.89,238.009l-.334-.169-2.216,1.2.254.231Z" transform="translate(-181.474 -237.29)" fill="#57d307"/>
        <path id="XMLID_6129_" d="M186.725,239.174l-.334-.174-2.221,1.2.254.231Z" transform="translate(-182.443 -237.904)" fill="#57d307"/>
        <path id="XMLID_6130_" d="M188.56,240.339l-.329-.169-2.221,1.2.254.231Z" transform="translate(-183.417 -238.523)" fill="#57d307"/>
        <path id="XMLID_6132_" d="M190.25,241.589l-.334-.169-2.216,1.2.254.231Z" transform="translate(-184.312 -239.185)" fill="#57d307"/>
        <path id="XMLID_6133_" d="M191.58,243.034l-.334-.174-2.216,1.2.254.231Z" transform="translate(-185.016 -239.947)" fill="#57d307"/>
      </g>
    </g>
  </g>
</svg>
