<svg id="moves_number_illustration" data-name="moves number illustration" xmlns="http://www.w3.org/2000/svg" width="176.402" height="139.56" viewBox="0 0 176.402 139.56">
  <g id="Group_550" data-name="Group 550" transform="translate(129.717 128.314)">
    <path id="Path_615" data-name="Path 615" d="M282.635,264.39c-.283,4.507,2.429,6.477.108,7.475s-5.518-.054-12.44.472c-6.342.486-4.938-3.09-4.938-3.09s6.692-1.241,11.078-4.169C277.13,264.606,282.635,264.39,282.635,264.39Z" transform="translate(-265.232 -264.39)" fill="#717072"/>
  </g>
  <path id="Path_616" data-name="Path 616" d="M283.677,220.13c-1.835,17.757-9.013,25.488-9.054,32.4,0,0-.108,8.986-.27,12.076s-3.1,16.906-3.1,16.906,8.433.3,9.809.378,6.139-20.361,6.139-20.361Z" transform="translate(-133.413 -151.535)" fill="#047aa8"/>
  <path id="Path_617" data-name="Path 617" d="M292.727,191.47c-8.5,1.714-14.167,16.353-14.167,16.353a44.874,44.874,0,0,0,4.25,5.667c1.5,1.39,5.91-14.856,5.91-14.856Z" transform="translate(-130.86 -161.546)" fill="#047aa8"/>
  <g id="Group_555" data-name="Group 555" transform="translate(150.738 0)">
    <path id="Path_618" data-name="Path 618" d="M289.761,195.794c-.634-4.115-1.781-9.054-1.781-9.054l10.578-3.67s-2.86,4.48-.216,11.563C298.761,195.794,289.761,195.794,289.761,195.794Z" transform="translate(-278.308 -164.48)" fill="#d8ad8f"/>
    <path id="Path_619" data-name="Path 619" d="M288.561,172.9c3.724-4.034,16.515-2.537,15.206,5.721-2.375,15.045-11.941,14.154-11.941,14.154-3-1.012-3.872-.918-5.775-2.456-.945-.756-1.363-2.6-1.376-4.871-.877-.5-1.781-1.16-1.457-1.808a17.958,17.958,0,0,0,1.795-2.01C285.565,178.253,286.82,174.786,288.561,172.9Z" transform="translate(-279.995 -168.784)" fill="#e5c0a8"/>
    <path id="Path_620" data-name="Path 620" d="M287.05,191.666c.3.094,3.225,1.025,3.576,1.133,0,0,9.89.4,11.941-14.154.688-4.857-9.5-7.34-13.749-7.785C291.26,174.732,292.569,187.456,287.05,191.666Z" transform="translate(-278.633 -168.745)" fill="#d8ad8f"/>
    <path id="Path_621" data-name="Path 621" d="M300.606,174.749c-.648-1.714-.432-3.211-4.331-4.021-3.778-.783-5.141-1.525-8.163.513-1.538,1.052-2.091,3.859-2.091,3.859a6.632,6.632,0,0,1,2.361.472c.85.445,2.186.189,3.009,2.132a8.33,8.33,0,0,1,.634,3.333s3.549,2.24,3.346,3.522,3.171,5.869,3.171,5.869,2.847-4.776,4.156-7.489C305.733,176.611,300.754,175.14,300.606,174.749Z" transform="translate(-278.992 -169.071)" fill="#7f3724"/>
    <g id="Group_551" data-name="Group 551">
      <path id="Path_622" data-name="Path 622" d="M283.346,169.726c-1.579-.607-2.955.378-2.415,2.442s1.606,1.943,3.279,2.483A30.333,30.333,0,0,0,289.2,175.8Z" transform="translate(-280.812 -169.203)" fill="#033747"/>
      <path id="Path_623" data-name="Path 623" d="M301.691,188.409c-.931-1.214-5.91-8.473-5.91-8.473s-6.436-.823-8.163-2.577-2.172-6.773-5.707-7.758a26.159,26.159,0,0,1,6.355,1.673s3.211-2.753,8.811-1.768c2.415.432,5.721,2.523,6.571,4.034s3.454,4.412,2.024,8.447A17.257,17.257,0,0,1,301.691,188.409Z" transform="translate(-280.428 -169.292)" fill="#047aa8"/>
    </g>
    <path id="Path_624" data-name="Path 624" d="M291.839,179.357c.742-.445,1.43-1.255,2.051-.351s.756,4.736-.958,5.546S291.839,179.357,291.839,179.357Z" transform="translate(-276.999 -166.043)" fill="#d8ad8f"/>
    <g id="Group_554" data-name="Group 554" transform="translate(1.482 0.013)">
      <g id="Group_553" data-name="Group 553">
        <g id="Group_552" data-name="Group 552">
          <path id="Path_625" data-name="Path 625" d="M287.617,177.368c-1.741-1.754-2.172-6.773-5.707-7.758a26.159,26.159,0,0,1,6.355,1.673s3.211-2.753,8.811-1.768a12.632,12.632,0,0,1,4.7,2.172c4.331,3.778-1.957,8.932-4.48,10.443-.864-1.255-1.511-2.2-1.511-2.2S289.358,179.122,287.617,177.368Z" transform="translate(-281.91 -169.302)" fill="#019ae6"/>
        </g>
      </g>
    </g>
  </g>
  <g id="Group_558" data-name="Group 558" transform="translate(153.379 130.891)">
    <g id="Group_557" data-name="Group 557">
      <g id="Group_556" data-name="Group 556">
        <path id="Path_626" data-name="Path 626" d="M299.879,266.3c-.054,4.52,2.321,6.639.054,7.745s-5.087-.054-11.982.81c-6.315.8-5.087-2.833-5.087-2.833a45.447,45.447,0,0,0,9.216-5.127C292.755,266.394,299.879,266.3,299.879,266.3Z" transform="translate(-282.769 -266.3)" fill="#aaa"/>
      </g>
    </g>
  </g>
  <path id="Path_627" data-name="Path 627" d="M297.351,216.65c.391,3.94,2.456,7.988,1.727,15.112-.4,3.845-4.439,13.466-1.727,24.8a234.9,234.9,0,0,1,4.7,29.441l-11.536.351s-5.559-19.457-8.325-27.728c-1.4-4.2-2.82-26.972-3.117-29.941-.985-9.823-.621-11.172-.621-11.172Z" transform="translate(-130.922 -152.751)" fill="#019ae6"/>
  <path id="Path_628" data-name="Path 628" d="M300.668,189.91c.013,3.184,2.294,5.478.418,9.121s-.944,18.445-1.2,23.478-2.051,6.261-3,6.4-13.021.081-17.3-1.457c-1.3-.459-5.127-3.252,4.048-24,.823-1.875.7-3.319,1.552-4.8,2.051-3.562,7.246-7.259,8.109-7.3A35.719,35.719,0,0,0,300.668,189.91Z" transform="translate(-131.164 -162.091)" fill="#019ae6"/>
  <g id="Group_561" data-name="Group 561" transform="translate(157.874 27.455)">
    <g id="Group_560" data-name="Group 560">
      <g id="Group_559" data-name="Group 559">
        <path id="Path_629" data-name="Path 629" d="M301.819,204.7c-.31,4.088-4.412,12.683-4.682,17.73s-.836,6.369-1.781,6.5c-.4.054-5.33.054-9.256-.108.472-3.076,3.1-14.329,3.481-14.424,3.13-.837,3.279-11.523,4.237-14.721,1.376-4.655.864-6.382-1.187-8.433a59.465,59.465,0,0,0,5.937-1.606C299.566,192.271,302.507,195.658,301.819,204.7Z" transform="translate(-286.1 -189.64)" fill="#047aa8"/>
      </g>
    </g>
  </g>
  <path id="Path_630" data-name="Path 630" d="M298.359,190.666l-.459-1.956s-5.249,2.361-9.877,2.4a15.382,15.382,0,0,0-.324,1.781S291.249,193.433,298.359,190.666Z" transform="translate(-127.668 -162.51)" fill="#047aa8"/>
  <path id="Path_631" data-name="Path 631" d="M198.741,194.06c1.417,2.6,6.477,16.407,7.61,17.473s8.8,6.234,11.172,8.028c2.388.526,5.019,1.052,5.019,1.052a12.97,12.97,0,0,1,2.132,3.319c.607,1.633-.729,3.063-2.793,3.9,0,0-3.522-2.861-3.562-3.967s-6.261-2.213-8.271-2.807-10.619-7.138-11.847-10.416S198.741,194.06,198.741,194.06Z" transform="translate(-159.078 -160.641)" fill="#d8ad8f"/>
  <path id="Path_632" data-name="Path 632" d="M199.473,194.11c1.174,2.172,6.153,16.083,6.153,16.083a4.881,4.881,0,0,0-3.859-.648c-1.916.675-3.076-9.162-3.076-9.162Z" transform="translate(-158.758 -160.624)" fill="#047aa8"/>
  <g id="Group_566" data-name="Group 566" transform="translate(30.871 2.174)">
    <path id="Path_633" data-name="Path 633" d="M199.39,197.5c2.226-3.495,5.249-7.529,5.249-7.529l-8.163-7.57s.823,5.222-4.439,10.619C191.186,193.882,199.39,197.5,199.39,197.5Z" transform="translate(-191.974 -166.888)" fill="#d8ad8f"/>
    <path id="Path_634" data-name="Path 634" d="M211.915,177.526c-1.768-5.168-14.019-8.932-16.137-.891-3.859,14.653,5.208,17.676,5.208,17.676,3.144.283,3.886.715,6.247.081,1.16-.31,2.28-1.822,3.2-3.886,1.012-.108,2.091-.337,2.051-1.052a18.1,18.1,0,0,1-.823-2.55C212.5,183.6,212.752,179.941,211.915,177.526Z" transform="translate(-190.98 -170.527)" fill="#d8ad8f"/>
    <path id="Path_635" data-name="Path 635" d="M211.306,174.649c-4.048-1.309-14.316-3.117-15.638,1.579C191.7,190.3,200.876,193.9,200.876,193.9c.364.027,3.4.364,3.711.391C201.227,188.236,207.528,177.172,211.306,174.649Z" transform="translate(-191.032 -170.106)" fill="#e5c0a8"/>
    <path id="Path_636" data-name="Path 636" d="M199.56,173.822c1.282-1.309,1.687-2.753,5.559-1.929,3.764.8,5.289.675,7.232,3.738.985,1.565.364,4.358.364,4.358a6.574,6.574,0,0,0-2.334-.513c-.945.067-2.064-.7-3.6.729A8.648,8.648,0,0,0,204.863,183s-4.129.621-4.453,1.862-5.235,4.075-5.235,4.075-.688-5.492-.783-8.473C194.149,173.471,199.263,174.132,199.56,173.822Z" transform="translate(-191.133 -170.642)" fill="#7f3724"/>
    <g id="Group_562" data-name="Group 562" transform="translate(2.256 0.011)">
      <path id="Path_637" data-name="Path 637" d="M214.642,175.45c1.673.067,2.537,1.538,1.214,3.184s-2.24,1.133-3.98.958a31.091,31.091,0,0,1-5.006-.958Z" transform="translate(-189.027 -169.326)" fill="#033747"/>
      <path id="Path_638" data-name="Path 638" d="M194.758,186.48c1.336-.729,8.77-5.343,8.77-5.343s6.193,1.822,8.474.931,4.7-5.3,8.3-4.776a25.728,25.728,0,0,0-6.463-1.012s-1.822-3.8-7.313-5.141c-2.361-.58-6.22.014-7.6,1.039s-4.911,2.631-5.235,6.881A17.233,17.233,0,0,0,194.758,186.48Z" transform="translate(-193.646 -170.911)" fill="#019ae6"/>
    </g>
    <path id="Path_639" data-name="Path 639" d="M201.441,180.77c-.5-.7-.81-1.714-1.727-1.147s-2.591,4.007-1.349,5.438S201.441,180.77,201.441,180.77Z" transform="translate(-189.897 -167.916)" fill="#e5c0a8"/>
    <g id="Group_565" data-name="Group 565" transform="translate(9.871)">
      <g id="Group_564" data-name="Group 564">
        <g id="Group_563" data-name="Group 563">
          <path id="Path_640" data-name="Path 640" d="M210.017,182.057c2.28-.891,4.7-5.3,8.3-4.777a25.728,25.728,0,0,0-6.463-1.012s-1.822-3.8-7.313-5.141a12.511,12.511,0,0,0-5.141.094c2.253,2.914,2.172,7.516-.108,11.307,1.282-.8,2.253-1.39,2.253-1.39S207.737,182.961,210.017,182.057Z" transform="translate(-199.29 -170.903)" fill="#047aa8"/>
        </g>
      </g>
    </g>
  </g>
  <g id="Group_567" data-name="Group 567" transform="translate(0 115.319)">
    <path id="Path_641" data-name="Path 641" d="M173.919,255.462c-1.983.513-5.316,2.928-4.763,4.588,1.552,4.668,3.117,2.753,5.68,9.715,1.214,3.292,3.845,2.388,6.045,2.564,2.226.189,2.928-2.01-.175-4.21-.891-.621-.5-8.244-.675-9.351-2.051.135-2.186.162-2.807-2.564S173.919,255.462,173.919,255.462Z" transform="translate(-169.095 -254.759)" fill="#717072"/>
  </g>
  <g id="Group_568" data-name="Group 568" transform="translate(36.199 128.42)">
    <path id="Path_642" data-name="Path 642" d="M196.823,264.47c.148,4.493-2.172,6.652.108,7.7s5.06-.162,11.928.567c6.3.675,5.006-2.928,5.006-2.928a45.456,45.456,0,0,1-9.27-4.911C203.893,264.416,196.823,264.47,196.823,264.47Z" transform="translate(-195.923 -264.469)" fill="#717072"/>
  </g>
  <path id="Path_643" data-name="Path 643" d="M196.728,214.5c1.12,7.489,7.583,9.3,7.111,14.68-1.214,13.8-7.5,24.881-9.27,27.269-2.469,3.333-14.586,20.9-14.586,20.9l-7.583-8.8s7.138-16.785,11-20.806,7.381-28.362,7.381-28.362Z" transform="translate(-167.94 -153.502)" fill="#047aa8"/>
  <path id="Path_644" data-name="Path 644" d="M183.878,214.67c-.391,3.913-1.619,6.112-.877,13.2.391,3.832,6.409,18.053,10.025,28.106,1.2,3.346,6.315,26.311,6.315,26.311l12.454-.243s-3.953-25.893-5.019-30.157c-1.835-7.313-5.006-22.263-4.709-25.218.985-9.769.607-11.118.607-11.118Z" transform="translate(-164.319 -153.442)" fill="#019ae6"/>
  <path id="Path_645" data-name="Path 645" d="M197.01,189.06c-1.3,2.9-4.277,4.075-4.034,8.136s-6.531,17.176-8.312,21.872-.634,6.517.162,7.016,15.787,6.544,16.785,7.043c3.373,1.687,5.208-1.268,4.736-25.164-.04-2.037.675-3.306.5-4.992-.432-4.061-2.928-9.283-3.711-9.661A36.346,36.346,0,0,1,197.01,189.06Z" transform="translate(-163.986 -162.388)" fill="#047aa8"/>
  <g id="Group_571" data-name="Group 571" transform="translate(19.089 26.011)">
    <g id="Group_570" data-name="Group 570">
      <g id="Group_569" data-name="Group 569">
        <path id="Path_646" data-name="Path 646" d="M190.984,198.541c-1.349,3.845-4.48,15.76-6.247,20.455s-1.781,6.139-.985,6.638a40.16,40.16,0,0,0,5.127,2.213c-.864-2.051-2.712-2.712,5.68-25.07,1.714-4.561.486-1.511.9-4.8.607-4.79,1.363-5.95,4.075-7a17.994,17.994,0,0,1-2.941-2.4C194.6,190.553,193.98,190.027,190.984,198.541Z" transform="translate(-183.242 -188.57)" fill="#019ae6"/>
      </g>
    </g>
  </g>
  <path id="Path_647" data-name="Path 647" d="M192.67,189.342l1.2-1.592a19.606,19.606,0,0,0,6.922,5.68,5.048,5.048,0,0,1-.3,1.241S198.04,194.726,192.67,189.342Z" transform="translate(-160.86 -162.845)" fill="#019ae6"/>
  <g id="Group_574" data-name="Group 574" transform="translate(28.546 31.733)">
    <g id="Group_573" data-name="Group 573">
      <g id="Group_572" data-name="Group 572">
        <path id="Path_648" data-name="Path 648" d="M194.81,193.5c1.889-1.147,4.722-1.079,6.531,1.929,2.037,3.387.162,8.676,1.066,17.595-1.471,1.9-9.85,2.483-11.28.931s-.715-11.982-.553-13.4C190.722,199.165,192.557,194.874,194.81,193.5Z" transform="translate(-190.251 -192.811)" fill="#019ae6"/>
      </g>
    </g>
  </g>
  <path id="Path_649" data-name="Path 649" d="M191.62,201.96c.175,6.409,2.2,16.839,2.564,20.685s4.1,9.89,5.127,15a23.621,23.621,0,0,1,0,3.657l3.657,6.045.553-11.523-2.564-5.127s-2.2-8.231-2.2-9.148,1.282-20.131,1.282-20.131Z" transform="translate(-161.227 -158.07)" fill="#e5c0a8"/>
  <g id="Group_575" data-name="Group 575" transform="translate(40.108 23.758)">
    <path id="Path_650" data-name="Path 650" d="M301.949,237.314a.328.328,0,0,1-.324.324H204.814a.328.328,0,0,1-.324-.324V224.347a.331.331,0,0,1,.324-.337h96.811a.331.331,0,0,1,.324.337Z" transform="translate(-196.84 -173.938)" fill="#2f7c01"/>
    <path id="Path_651" data-name="Path 651" d="M250.953,211.612a2.7,2.7,0,0,1-2.51,2.86H210.11a2.7,2.7,0,0,1-2.51-2.86V189.78a2.7,2.7,0,0,1,2.51-2.86h38.333a2.7,2.7,0,0,1,2.51,2.86Z" transform="translate(-195.753 -186.893)" fill="#2f7c01"/>
    <path id="Path_652" data-name="Path 652" d="M284.143,211.592a2.71,2.71,0,0,1-2.51,2.86H243.3a2.7,2.7,0,0,1-2.51-2.86V189.76a2.7,2.7,0,0,1,2.51-2.861h38.333a2.7,2.7,0,0,1,2.51,2.861Z" transform="translate(-184.16 -186.9)" fill="#2f7c01"/>
    <path id="Path_653" data-name="Path 653" d="M204.78,215.608l2.726-5.734a4.486,4.486,0,0,1,3.711-2.024H296.1a3.64,3.64,0,0,1,3.346,2.024l1.822,5.734Z" transform="translate(-196.738 -179.582)" fill="#41ba03"/>
    <path id="Path_654" data-name="Path 654" d="M253.753,224.3a2.61,2.61,0,0,1-2.564,2.658H206.7a2.61,2.61,0,0,1-2.564-2.658v-8.635a2.61,2.61,0,0,1,2.564-2.658H251.19a2.61,2.61,0,0,1,2.564,2.658Z" transform="translate(-196.962 -177.78)" fill="#2f7c01"/>
    <path id="Path_655" data-name="Path 655" d="M289.252,224.184a2.57,2.57,0,0,1-2.483,2.658H243.633a2.57,2.57,0,0,1-2.483-2.658v-8.635a2.57,2.57,0,0,1,2.483-2.658h43.137a2.57,2.57,0,0,1,2.483,2.658Z" transform="translate(-184.035 -177.822)" fill="#2f7c01"/>
    <rect id="Rectangle_36" data-name="Rectangle 36" width="6.652" height="44.203" transform="translate(105.649 23.882)" fill="#7f3724"/>
    <rect id="Rectangle_37" data-name="Rectangle 37" width="6.652" height="44.203" transform="translate(0 23.882)" fill="#7f3724"/>
  </g>
  <path id="Path_656" data-name="Path 656" d="M295.179,203.514c-1.106,1.889-2.928,10.362-3.441,11.793s-6.031,15.557-7.3,17.487a11.648,11.648,0,0,0-4.115,2.253s-4.817,4.79-3.373,5.721c1.822,1.174,6.409-1.214,7.34-1.457s3.711-3.522,4.817-5.114c.864-1.241,9.742-15.018,9.9-15.868s3.427-12.346,3.427-12.346S297.122,200.209,295.179,203.514Z" transform="translate(-131.517 -157.696)" fill="#e5c0a8"/>
  <g id="Group_579" data-name="Group 579" transform="translate(159.574 33.46)">
    <g id="Group_578" data-name="Group 578">
      <g id="Group_577" data-name="Group 577">
        <g id="Group_576" data-name="Group 576">
          <path id="Path_657" data-name="Path 657" d="M299.342,194.845c-1.929-1.12-3.576-1.241-5.95,1.363-2.672,2.928-3.373,8.662-6.031,17.271,1.066,2.159,9.863,3.508,11.577,2.267s2.874-12.656,3.009-14.073S302.189,196.492,299.342,194.845Z" transform="translate(-287.36 -194.09)" fill="#047aa8"/>
        </g>
      </g>
    </g>
  </g>
</svg>
