<svg xmlns="http://www.w3.org/2000/svg" xmlns:xlink="http://www.w3.org/1999/xlink" width="1939" height="1103.751" viewBox="0 0 1939 1103.751">
  <defs>
    <filter id="our_mission_background" x="0" y="0" width="1939" height="1103.751" filterUnits="userSpaceOnUse">
      <feOffset dy="-2" input="SourceAlpha"/>
      <feGaussianBlur stdDeviation="3" result="blur"/>
      <feFlood flood-opacity="0.259"/>
      <feComposite operator="in" in2="blur"/>
      <feComposite in="SourceGraphic"/>
    </filter>
  </defs>
  <g transform="matrix(1, 0, 0, 1, 0, 0)" filter="url(#our_mission_background)">
    <path id="our_mission_background-2" data-name="our mission background" d="M-4934.241,4510.205h-.031c-105.925,0-216.55-2.72-328.8-8.085-52.1-2.489-104.511-5.556-155.766-9.116-49.411-3.433-98.083-7.343-144.665-11.623-45.314-4.161-88.9-8.693-129.557-13.469-39.972-4.7-77.13-9.627-110.441-14.659-33.182-5.01-62.559-10.121-87.315-15.188l-.566-.116-.117-.024V3834.04c10.279-5.029,21.38-10.225,32.994-15.447,20.476-9.2,42.165-18.309,64.464-27.066,27.883-10.95,56.827-21.389,86.026-31.028a1715.749,1715.749,0,0,1,227-58.094c22.07-4.053,44.417-7.69,66.42-10.81,23.169-3.285,46.613-6.089,69.681-8.334,24.181-2.354,48.619-4.159,72.634-5.365,25.093-1.259,50.422-1.9,75.285-1.9,161.512,0,271.209,15.5,367.993,29.171h.02c38.031,5.373,73.952,10.448,110.271,14.193,19.4,2,37.379,3.461,54.967,4.472,19.526,1.12,38.235,1.665,57.2,1.665,81.109,0,165.491-10.328,265.553-32.5,22.537-5,44.45-10.556,65.131-16.529,19.769-5.711,38.946-11.953,57-18.553,17.208-6.293,33.832-13.073,49.411-20.151,14.8-6.723,29.053-13.9,42.366-21.322,46.031-25.674,82.988-55.439,109.845-88.469a244.246,244.246,0,0,0,26.737-40.174,193.655,193.655,0,0,0,13.731-32.92,142.57,142.57,0,0,0,5.058-22.254,67.737,67.737,0,0,0,.723-8.176c0,.007.026.111.078.338l.015.068.023.1.067.3c.08.355.187.823.316,1.4v871.1c-.127.318-.26.648-.39.972l-.108.269a120.848,120.848,0,0,1-7.2,14.769,136.778,136.778,0,0,1-9.356,14.13,175.307,175.307,0,0,1-24.9,26.392,259.293,259.293,0,0,1-32.7,23.974,388.205,388.205,0,0,1-39.954,21.644c-14.235,6.728-29.938,13.257-46.672,19.405-16.363,6.01-34.146,11.814-52.853,17.251-18.307,5.319-37.986,10.429-58.49,15.187-20.028,4.648-41.423,9.095-63.588,13.214-42.8,7.951-90.011,14.968-140.32,20.855-48.01,5.617-99.9,10.333-154.238,14.018C-4702.649,4506.718-4814.676,4510.205-4934.241,4510.205Z" transform="translate(5900.5 -3413.45)" fill="#41ba03"/>
  </g>
</svg>
