<svg xmlns="http://www.w3.org/2000/svg" width="711.101" height="515.863" viewBox="0 0 711.101 515.863">
  <g id="our_mission_illustration" data-name="our mission illustration" transform="translate(-84.456 -57.475)">
    <g id="Group_1143" data-name="Group 1143" transform="translate(84.456 59.069)">
      <g id="Group_1136" data-name="Group 1136">
        <path id="Path_2190" data-name="Path 2190" d="M575.33,59.454c29.759.179,54.6-.447,82.395,10.9,4.736,1.966,10.992,6.613,13.762,13.315a37.822,37.822,0,0,1,2.86,15.728l-1.609,38.07c-.447,11.081-1.34,23.235-8.668,31.367-8.043,9.026-21.18,10.188-32.976,10.724-65.683,3.217-132.171,2.323-197.944-.179-8.222-.357-17.158-.894-23.414-6.524-5.719-5.094-7.864-13.047-9.294-20.733-3.485-17.962-3.4-36.64-2.413-54.96.447-7.953,1.34-16.443,6.434-22.431C410,68.3,418.941,66.6,427.252,65.352c38.07-5.9,74.8-6.434,112.511-6.256C551.47,59.275,563.355,59.365,575.33,59.454Z" transform="translate(-155.887 -59.069)" fill="none" stroke="#fff" stroke-miterlimit="10" stroke-width="3.212"/>
        <g id="Group" transform="translate(276.547 8.366)">
          <text id="CUSTOMER_" data-name="CUSTOMER " transform="translate(0 40)" fill="#fff" font-size="36" font-family="ComicSansMS, Comic Sans MS"><tspan x="0" y="0">CUSTOMER </tspan></text>
          <text id="LOYALTY" transform="translate(19.588 88.257)" fill="#fff" font-size="36" font-family="ComicSansMS, Comic Sans MS"><tspan x="0" y="0">LOYALTY</tspan></text>
        </g>
        <g id="Group_1117" data-name="Group 1117" transform="translate(572.484 189.204)">
          <path id="Path_2191" data-name="Path 2191" d="M798.7,280.1" transform="translate(-798.7 -280.1)" fill="none"/>
        </g>
        <text id="SERVICE" transform="translate(558.608 176.584)" fill="#fff" font-size="31" font-family="ComicSansMS, Comic Sans MS"><tspan x="0" y="0">SERVICE</tspan></text>
        <text id="SUPPORT" transform="translate(534.427 339.917)" fill="#fff" font-size="31" font-family="ComicSansMS, Comic Sans MS"><tspan x="0" y="0">SUPPORT</tspan></text>
        <text id="QUALITY" transform="translate(68.458 339.917)" fill="#fff" font-size="31" font-family="ComicSansMS, Comic Sans MS"><tspan x="0" y="0">QUALITY</tspan></text>
        <text id="REWARD" transform="translate(312.853 273.741)" fill="#fff" font-size="31" font-family="ComicSansMS, Comic Sans MS"><tspan x="0" y="0">REWARD</tspan></text>
        <text id="FEEDBACK" transform="translate(300.532 445.797)" fill="#fff" font-size="31" font-family="ComicSansMS, Comic Sans MS"><tspan x="0" y="0">FEEDBACK</tspan></text>
        <g id="Group_1120" data-name="Group 1120" transform="translate(532.448 68.124)">
          <g id="Group_1119" data-name="Group 1119">
            <path id="Path_2192" data-name="Path 2192" d="M753.9,135.3c27.793,3.664,57.015,21.805,75.513,44.593" transform="translate(-753.9 -135.3)" fill="none" stroke="#fff" stroke-miterlimit="10" stroke-width="2"/>
            <g id="Group_1118" data-name="Group 1118" transform="translate(65.951 35.12)">
              <path id="Path_2193" data-name="Path 2193" d="M835.207,181.57l2.949-6.97.268.089,2.77,10.9c1.519,3.4,3.038,6.881,4.468,10.277-2.77-2.5-5.63-5-8.4-7.417l-9.562-6.077v-.268Z" transform="translate(-827.7 -174.6)" fill="#fff"/>
            </g>
          </g>
        </g>
        <g id="Group_1123" data-name="Group 1123" transform="translate(141.513 66.515)">
          <g id="Group_1122" data-name="Group 1122">
            <path id="Path_2194" data-name="Path 2194" d="M329.515,138.7c-27.882,8.311-55.228,29.4-69.615,53.351" transform="translate(-259.9 -134.053)" fill="none" stroke="#fff" stroke-miterlimit="10" stroke-width="2"/>
            <g id="Group_1121" data-name="Group 1121" transform="translate(61.304)">
              <path id="Path_2195" data-name="Path 2195" d="M333.683,139.13l-2.324,7.149.268.089,9.294-6.434,10.188-4.826c-3.753,0-7.507.089-11.26.089l-11.171-1.7-.179.179Z" transform="translate(-328.5 -133.5)" fill="#fff"/>
            </g>
          </g>
        </g>
        <g id="Group_1126" data-name="Group 1126" transform="translate(508.677 363.94)">
          <g id="Group_1125" data-name="Group 1125">
            <path id="Path_2196" data-name="Path 2196" d="M743.2,547.949c26.9-9.651,50.849-35.3,65.326-59.249" transform="translate(-728.991 -488.7)" fill="none" stroke="#fff" stroke-miterlimit="10" stroke-width="2"/>
            <g id="Group_1124" data-name="Group 1124" transform="translate(0 50.849)">
              <path id="Path_2197" data-name="Path 2197" d="M744.458,552.928l2.145-7.239-.268-.089-9.026,6.792c-3.307,1.7-6.613,3.485-10.009,5.183l11.26-.536,11.26,1.34L750,558.2Z" transform="translate(-727.3 -545.6)" fill="#fff"/>
            </g>
          </g>
        </g>
        <g id="Group_1129" data-name="Group 1129" transform="translate(143.197 364.029)">
          <g id="Group_1128" data-name="Group 1128">
            <path id="Path_2198" data-name="Path 2198" d="M358.037,558.657c-27.971-3.664-65.594-31.1-86.237-56.657" transform="translate(-263.31 -490.204)" fill="none" stroke="#fff" stroke-miterlimit="10" stroke-width="2"/>
            <g id="Group_1127" data-name="Group 1127">
              <path id="Path_2199" data-name="Path 2199" d="M272.845,503.1l-2.86,6.97-.268-.089-2.86-10.9c-1.519-3.4-3.038-6.881-4.558-10.277,2.77,2.5,5.63,4.915,8.4,7.417l9.562,5.987v.268Z" transform="translate(-262.3 -488.8)" fill="#fff"/>
            </g>
          </g>
        </g>
        <g id="Group_1132" data-name="Group 1132" transform="translate(643.44 197.23)">
          <g id="Group_1131" data-name="Group 1131">
            <path id="Path_2200" data-name="Path 2200" d="M881.4,291.9c8.758,26.81,12.511,52.815,3.217,77.658" transform="translate(-878.451 -291.9)" fill="none" stroke="#fff" stroke-miterlimit="10" stroke-width="2"/>
            <g id="Group_1130" data-name="Group 1130" transform="translate(0 68.454)">
              <path id="Path_2201" data-name="Path 2201" d="M885.428,374.666l7.507-.894v.268L884.8,381.9c-2.234,3.038-4.468,5.987-6.7,9.026.8-3.664,1.519-7.328,2.323-10.992l.536-11.26.179-.179Z" transform="translate(-878.1 -368.5)" fill="#fff"/>
            </g>
          </g>
        </g>
        <text id="SATISFACTION" transform="translate(0 176.584)" fill="#fff" font-size="31" font-family="ComicSansMS, Comic Sans MS"><tspan x="0" y="0">SATISFACTION</tspan></text>
        <g id="Group_1135" data-name="Group 1135" transform="translate(110.137 197.145)">
          <g id="Group_1134" data-name="Group 1134">
            <path id="Path_2202" data-name="Path 2202" d="M216.358,307.5c-6.792,26.631-7.149,52.368,7.06,76.854" transform="translate(-208.137 -293.47)" fill="none" stroke="#fff" stroke-miterlimit="10" stroke-width="2"/>
            <g id="Group_1133" data-name="Group 1133">
              <path id="Path_2203" data-name="Path 2203" d="M215.117,308.958l5.094,5.541.179-.179-1.162-11.26c.268-3.753.447-7.507.715-11.26l-5.362,9.92-6.881,8.936.089.268Z" transform="translate(-207.7 -291.8)" fill="#fff"/>
            </g>
          </g>
        </g>
      </g>
      <g id="satisfaction_icon" transform="translate(74.123 78.58)">
        <circle id="Ellipse_29" data-name="Ellipse 29" cx="4.468" cy="4.468" r="4.468" transform="translate(20.197)" fill="#fff"/>
        <circle id="Ellipse_30" data-name="Ellipse 30" cx="4.468" cy="4.468" r="4.468" transform="translate(0 16.979)" fill="#fff"/>
        <path id="Path_2204" data-name="Path 2204" d="M178.2,197.218c18.945,3.575,37.623-10.992,41.733-32.618" transform="translate(-168.549 -148.872)" fill="none" stroke="#fff" stroke-linecap="round" stroke-miterlimit="10" stroke-width="5"/>
      </g>
      <g id="support_icon" transform="translate(670.339 355.586)">
        <path id="Path_2205" data-name="Path 2205" d="M908.2,513.34c1.765.679,3.394,1.493,5.023,2.308a56.108,56.108,0,0,1,4.751,2.987c1.493,1.086,2.987,2.172,4.48,3.394a55.732,55.732,0,0,1,4.073,3.937l-2.851.679a108.637,108.637,0,0,1,4.208-14.8,100.258,100.258,0,0,1,6.38-13.982c1.222-2.172,2.579-4.48,3.937-6.652,1.493-2.172,2.851-4.208,4.48-6.245A82.275,82.275,0,0,1,953.134,473.7c-2.851,4.208-5.7,8.417-8.281,12.761s-5.023,8.688-7.195,13.168-4.208,9.1-5.973,13.711-3.394,9.367-4.751,14.254l-.95,3.122-1.9-2.443c-1.086-1.358-2.308-2.715-3.53-4.073s-2.579-2.579-3.8-3.8a52.6,52.6,0,0,0-4.208-3.53A26.065,26.065,0,0,0,908.2,513.34Z" transform="translate(-923.554 -473.7)" fill="#fff"/>
      </g>
      <g id="Group_1139" data-name="Group 1139" transform="translate(302.989 149.757)">
        <g id="Group_1138" data-name="Group 1138">
          <path id="Path_2206" data-name="Path 2206" d="M463.2,268.185c37.176,18.856,82.752,20.465,121.09,4.2,6.881-2.86,14.12-7.06,16.264-14.209,2.413-7.953-3.038-16.622-10.366-20.554-9.919-5.362-22.7-3.575-32.082,2.681s-15.55,16.533-18.856,27.256c-2.234,7.417-1.966,23.146-1.7,35.835" transform="translate(-463.2 -234.447)" fill="none" stroke="#fff" stroke-linecap="round" stroke-miterlimit="10" stroke-width="2"/>
          <g id="Group_1137" data-name="Group 1137" transform="translate(67.739 61.798)">
            <path id="Path_2207" data-name="Path 2207" d="M545.7,307.621l6.345-4.021.179.179L548.2,314.324c-.715,3.664-1.519,7.328-2.234,10.992-.894-3.664-1.7-7.328-2.592-10.9L539,303.957l.089-.179Z" transform="translate(-539 -303.6)" fill="#fff"/>
          </g>
        </g>
      </g>
      <g id="quality_icon" transform="translate(37.993 363.807)">
        <path id="Path_2208" data-name="Path 2208" d="M200.009,483.3H188.928s-3.753,9.741-4.647,32.8H177.4" transform="translate(-132.333 -483.3)" fill="none" stroke="#e2e2e2" stroke-miterlimit="10" stroke-width="5"/>
        <path id="Path_2209" data-name="Path 2209" d="M147.283,522.064c-3.128.268-6.345.536-9.2-.626-4.647-1.877-6.97-6.97-8.937-11.617a23.958,23.958,0,0,1-2.145-7.06,7.98,7.98,0,0,1,2.413-6.7c1.787-1.43,4.2-1.787,6.524-1.966a243.7,243.7,0,0,1,27.971-.8c3.217.089,6.792.447,8.937,2.86,1.519,1.787,1.877,4.29,2.055,6.613a58.779,58.779,0,0,1-.357,11.886c-.447,3.575-.715,4.558-4.379,4.915C161.939,520.544,155.5,521.349,147.283,522.064Z" transform="translate(-126.97 -484.352)" fill="#fff"/>
        <g id="Group_1140" data-name="Group 1140" transform="translate(5.835 14.567)">
          <path id="Path_2210" data-name="Path 2210" d="M133.5,502.281c1.43-.536,2.86-.983,4.29-1.43l4.379-.447c2.949-.268,5.9-.447,8.758-.626,2.949-.089,5.9-.179,8.847-.179,1.43,0,2.949,0,4.379.089a39.046,39.046,0,0,1,4.379,1.072c-1.519.268-2.949.536-4.379.715-1.43,0-2.949-.089-4.379-.089-2.949,0-5.809.089-8.758.179s-5.809.357-8.668.626c-1.43.179-2.86.268-4.379.447C136.538,502.549,135.019,502.46,133.5,502.281Z" transform="translate(-133.5 -499.6)" fill="#41ba03"/>
        </g>
        <g id="Group_1141" data-name="Group 1141" transform="translate(8.427 20.822)">
          <path id="Path_2211" data-name="Path 2211" d="M136.4,509.281c1.43-.536,2.86-.983,4.29-1.43l4.379-.447c2.949-.268,5.9-.447,8.758-.626,2.949-.089,5.9-.179,8.847-.179,1.43,0,2.949,0,4.379.089a39.047,39.047,0,0,1,4.379,1.072c-1.519.268-2.949.536-4.379.715-1.43,0-2.949-.089-4.379-.089-2.949,0-5.809.089-8.758.179s-5.809.357-8.668.626c-1.43.179-2.86.268-4.379.447C139.349,509.46,137.83,509.46,136.4,509.281Z" transform="translate(-136.4 -506.6)" fill="#41ba03"/>
        </g>
        <g id="Group_1142" data-name="Group 1142" transform="translate(9.946 26.988)">
          <path id="Path_2212" data-name="Path 2212" d="M138.1,516.181c1.43-.536,2.86-.983,4.29-1.43l4.379-.447c2.949-.268,5.9-.447,8.758-.626,2.949-.089,5.9-.179,8.847-.179,1.43,0,2.949,0,4.379.089a39.046,39.046,0,0,1,4.379,1.072c-1.519.268-2.949.536-4.379.715-1.43,0-2.949-.089-4.379-.089-2.949,0-5.809.089-8.758.179s-5.809.357-8.668.626c-1.43.179-2.86.268-4.379.447C141.138,516.449,139.619,516.36,138.1,516.181Z" transform="translate(-138.1 -513.5)" fill="#41ba03"/>
        </g>
      </g>
      <g id="reward_icon" transform="translate(443.168 197.003)">
        <path id="Path_2213" data-name="Path 2213" d="M664.6,351.138c.447,4.826,3.485,11.439,4.021,16.264a64.013,64.013,0,0,1,14.3-7.953c-4.558-3.4-8.043-7.864-12.6-11.349" transform="translate(-634.981 -295.732)" fill="#e2e2e2"/>
        <path id="Path_2214" data-name="Path 2214" d="M642.181,336.9a6,6,0,0,0-4.289,4.647c-.357,2.234.715,3.4,2.681,4.558,1.877,1.162,5.719-.089,7.507-1.43" transform="translate(-632.133 -294.541)" fill="none" stroke="#e9e9e9" stroke-miterlimit="10" stroke-width="2.626"/>
        <path id="Path_2215" data-name="Path 2215" d="M675.7,320.662a8.061,8.061,0,0,1,4.111-.089,2.715,2.715,0,0,1,1.877,2.234,6.6,6.6,0,0,1-1.7,5A7.875,7.875,0,0,1,675.7,330.4" transform="translate(-636.161 -292.78)" fill="none" stroke="#e9e9e9" stroke-miterlimit="10" stroke-width="2.626"/>
        <path id="Path_2216" data-name="Path 2216" d="M638.7,329.035c.268,2.055,1.34,10.009,8.132,15.728,1.877,1.519,7.775,6.524,14.835,5,8.311-1.787,11.439-11.26,12.154-13.226,3.664-10.9-2.323-20.733-3.307-22.341C659.88,319.115,649.334,324.03,638.7,329.035Z" transform="translate(-632.227 -292.127)" fill="#fff"/>
        <ellipse id="Ellipse_31" data-name="Ellipse 31" cx="18.23" cy="12.332" rx="18.23" ry="12.332" transform="translate(0 29.298) rotate(-33.353)" fill="#e2e2e2"/>
        <path id="Path_2217" data-name="Path 2217" d="M676,298.2" transform="translate(-636.193 -290.425)" fill="none" stroke="#fff" stroke-linecap="round" stroke-miterlimit="10" stroke-width="2"/>
        <path id="Path_2218" data-name="Path 2218" d="M679.5,299.42a24.81,24.81,0,0,1,14.388-9.92" transform="translate(-636.566 -289.5)" fill="none" stroke="#fff" stroke-linecap="round" stroke-miterlimit="10" stroke-width="1.5"/>
        <path id="Path_2219" data-name="Path 2219" d="M684.8,304.058c4.111-4.915,8.758-8.043,13.583-8.758" transform="translate(-637.129 -290.117)" fill="none" stroke="#fff" stroke-linecap="round" stroke-miterlimit="10" stroke-width="1.5"/>
      </g>
      <g id="feedback_icon" transform="translate(339.777 467.043)">
        <circle id="Ellipse_32" data-name="Ellipse 32" cx="3.575" cy="3.575" r="3.575" transform="translate(54.423 24.868)" fill="#fff"/>
        <circle id="Ellipse_33" data-name="Ellipse 33" cx="3.575" cy="3.575" r="3.575" transform="translate(38.516 24.868)" fill="#fff"/>
        <circle id="Ellipse_34" data-name="Ellipse 34" cx="3.575" cy="3.575" r="3.575" transform="translate(22.609 24.868)" fill="#fff"/>
        <path id="Path_2220" data-name="Path 2220" d="M589.482,621.97v21.09a7.208,7.208,0,0,1-7.239,7.239h-69.7a7.209,7.209,0,0,1-7.239-7.239V621.881a7.209,7.209,0,0,1,7.239-7.239h39.5a11.139,11.139,0,0,0,5.541-1.43l16.8-9.115c.179-.089.357.089.268.179l-1.966,8.132a1.731,1.731,0,0,0,1.7,2.145h7.953A7.465,7.465,0,0,1,589.482,621.97Z" transform="translate(-505.3 -604.073)" fill="none" stroke="#fff" stroke-miterlimit="10" stroke-width="2"/>
      </g>
    </g>
    <g id="service_icon" transform="translate(739.473 143.813)">
      <path id="Path_2221" data-name="Path 2221" d="M937.386,198.52c.626,3.217-1.877,6.524-4.915,7.775s-6.524.894-9.83.179c-9.651-2.055-17.694-7.06-24.486-14.209-3.4-3.575-6.345-7.953-6.97-12.869s.983-9.83,5.541-11.8c3.217.715,7.239,1.251,9.83,3.217s4.379,5.451,3.307,8.579c-.536,1.519-1.7,2.949-1.609,4.558,0,2.234,2.234,3.753,4.111,4.915,2.681,1.609,5.9,3.217,8.758,1.877,1.341-.626,3.217-.983,4.647-1.519a5.009,5.009,0,0,1,5,.357A12.948,12.948,0,0,1,937.386,198.52Z" transform="translate(-891.055 -159.021)" fill="#fff"/>
      <path id="Path_2222" data-name="Path 2222" d="M910.5,178c-1.43,3.038-5.541,2.77-10.366.536-4.736-2.234-7.507-5.719-6.077-8.758s6.077-3.575,10.9-1.34C909.694,170.582,911.928,174.871,910.5,178Z" transform="translate(-891.334 -158.964)" fill="#e2e2e2"/>
      <path id="Path_2223" data-name="Path 2223" d="M941.237,202.773c-1.162,3.217-5.9,2.324-10.456-.357s-7.417-6.613-5.362-9.383c1.966-2.681,6.434-3.128,11.081-.447C941.058,195.267,942.4,199.467,941.237,202.773Z" transform="translate(-894.638 -161.487)" fill="#e2e2e2"/>
      <path id="Path_2224" data-name="Path 2224" d="M905,163.183c.179-1.7.268-3.485.447-5.183" transform="translate(-892.538 -158)" fill="none" stroke="#fff" stroke-linecap="round" stroke-miterlimit="10" stroke-width="1"/>
      <path id="Path_2225" data-name="Path 2225" d="M908.1,164.611c.983-1.34,1.966-2.77,3.038-4.111" transform="translate(-892.868 -158.266)" fill="none" stroke="#fff" stroke-linecap="round" stroke-miterlimit="10" stroke-width="1"/>
      <path id="Path_2226" data-name="Path 2226" d="M910.8,166.966c2.145-.983,3.485-1.072,5.63-1.966" transform="translate(-893.155 -158.744)" fill="none" stroke="#fff" stroke-linecap="round" stroke-miterlimit="10" stroke-width="1"/>
      <path id="Path_2227" data-name="Path 2227" d="M938.6,209.56a4.687,4.687,0,0,0,3.575.983,4.561,4.561,0,0,0,3.128-1.966,2.08,2.08,0,0,0-2.234,3.485,2.427,2.427,0,0,0,1.519.536,3.449,3.449,0,0,0,3.307-1.966,1.512,1.512,0,0,0-1.7,1.34,2.284,2.284,0,0,0,1.162,2.055,3.705,3.705,0,0,0,2.413.179,12.913,12.913,0,0,0,2.323-.983" transform="translate(-896.111 -163.358)" fill="none" stroke="#fff" stroke-miterlimit="10" stroke-width="0.5"/>
    </g>
  </g>
</svg>
