<svg xmlns="http://www.w3.org/2000/svg" width="465.594" height="538.939" viewBox="0 0 465.594 538.939">
  <g id="our_mission_opacity_illustration" data-name="our mission opacity illustration" transform="translate(-69.802 -40.469)" opacity="0.09">
    <g id="Group_1116" data-name="Group 1116" transform="translate(69.802 40.469)">
      <path id="Path_2188" data-name="Path 2188" d="M293.134,119.828A163.208,163.208,0,0,1,400.1,159.508l41.824-41.823a223.19,223.19,0,1,0-84.169,380.168h0l.108-.051h.1l.313-.105.215-.052,2.088-.679.313-.054.215-.1.73-.209.315-.105h0l.206-.105.526-.156.205-.053.313-.1.213-.105.313-.052.206-.1.321-.052.205-.106h.108l.1-.1.321-.051.205-.105.313-.105.214-.052.313-.1.206-.105.313-.1.213-.051.205-.106h.108l.206-.052.214-.1.205-.1.313-.106.733-.26.214-.052.519-.21.213-.053v-.051l.313-.052a223.331,223.331,0,0,0,89.292-358.472l-41.825,41.771a164.239,164.239,0,1,1-124.532-57.194m0,58.4a105.6,105.6,0,0,1,65.557,22.741l35.552-35.6a156.216,156.216,0,1,0,17.566,17.565l-35.551,35.6a105.877,105.877,0,1,1-83.125-40.306Zm19.448,68.9a42.092,42.092,0,0,0-19.448-4.757,41.6,41.6,0,0,0-29.375,11.971l-.214.209a41.8,41.8,0,1,0,66.5,10.142l-28.132,28.178a12.521,12.521,0,0,1-8.782,3.658,12.42,12.42,0,0,1-8.784-21.224Zm-19.448-13.07a49.961,49.961,0,0,1,25.518,7.006l34.186-34.19a98.187,98.187,0,1,0,17.469,17.566l-34.2,34.137a49.256,49.256,0,0,1,7.008,25.513A50.032,50.032,0,1,1,257.689,248.7l.313-.209A49.682,49.682,0,0,1,293.134,234.057ZM193.5,494.509l-51.761,84.9,34.2-8.05,41.816-67.282c-3.865-1.255-7.738-2.667-11.6-4.13C201.858,498.272,197.672,496.442,193.5,494.509ZM101.274,284.087a4.132,4.132,0,0,1-8.264,0A200,200,0,0,1,293.134,83.967a4.157,4.157,0,0,1,0,8.312,191.695,191.695,0,0,0-191.86,191.809Zm405.9-221.66,1.669-21.958L491.9,58.61l-1.673,21.957ZM257.376,550.079A4.175,4.175,0,0,1,253.3,545.9a4.129,4.129,0,0,1,4.078-4.13H388.915l-23.421-37.64a224.579,224.579,0,0,0,24.358-9.617l51.652,84.9-34.195-8.05-13.272-21.278Zm38.686-263.064a4.135,4.135,0,0,1-5.856,0,4.047,4.047,0,0,1,0-5.855L482.283,89.089a4.135,4.135,0,0,1,5.856,0,4.244,4.244,0,0,1,0,5.856ZM513.231,68.072,496.194,86.265l.205.314,21.644-2.4L535.4,64.83Z" transform="translate(-69.802 -40.469)" fill="#fff" fill-rule="evenodd"/>
    </g>
  </g>
</svg>
