<svg xmlns="http://www.w3.org/2000/svg" width="13.479" height="14.052" viewBox="0 0 13.479 14.052">
  <g id="review_like" data-name="review like" transform="translate(-700.938 -1597.982)">
    <path id="Path_1540" data-name="Path 1540" d="M2691.438,1605.344V1610a4.3,4.3,0,0,0,3.5,1.531c2.344-.062,6.563,0,6.563,0a5.169,5.169,0,0,0,1.875-3.719c-.062-.062,0-2.469,0-2.469a1.568,1.568,0,0,0,0-2.187,2.345,2.345,0,0,0-1.875-.656c-.062.063-3,0-3,0v-2.531s-.656-3.312-2.219,0a7.921,7.921,0,0,1-2.969,4.688c0,.031-1.875,0-1.875,0Z" transform="translate(-1990)" fill="none" stroke="#707070" stroke-width="1"/>
    <path id="Path_1541" data-name="Path 1541" d="M2694.469,1603.672v7.906" transform="translate(-1990)" fill="none" stroke="#707070" stroke-width="1"/>
  </g>
</svg>
