<svg xmlns="http://www.w3.org/2000/svg" width="44.472" height="1765.203" viewBox="0 0 44.472 1765.203">
  <path id="reviews_left_text" data-name="reviews left text" d="M8.166,43.229a17.642,17.642,0,0,1,.787-5.056,28.26,28.26,0,0,1,2.18-5.237,31.649,31.649,0,0,1,3.3-4.965,26.558,26.558,0,0,1,4.208-4.178,21.429,21.429,0,0,1,4.844-2.906,13.466,13.466,0,0,1,5.086-1.029,2.445,2.445,0,0,1,2.18,1.09,4.271,4.271,0,0,1,.727,2.422,6.544,6.544,0,0,1-.3,1.816,8.587,8.587,0,0,1-.908,2.028,7.718,7.718,0,0,1-1.362,1.7,2.409,2.409,0,0,1-1.665.7,3.9,3.9,0,0,1,.182-1.181,5.275,5.275,0,0,1,.484-1.09,5.545,5.545,0,0,0,.484-1.06,3.813,3.813,0,0,0,.182-1.211.883.883,0,0,0-.7-1,6.4,6.4,0,0,0-1.362-.151h-.848a28.31,28.31,0,0,0-5.449,2.876,24.372,24.372,0,0,0-4.723,4.117,19.182,19.182,0,0,0-3.27,5.146,15.084,15.084,0,0,0-1.211,6.024,28.626,28.626,0,0,0,.394,4.511,17.225,17.225,0,0,0,1.362,4.541A9.889,9.889,0,0,0,15.4,54.611,6.245,6.245,0,0,0,19.549,56a21.407,21.407,0,0,0,4.087-.394q2.028-.394,4.057-.848t4.057-.817a23.136,23.136,0,0,1,4.087-.363,3.981,3.981,0,0,1,.969.121.649.649,0,0,1,.484.727,1.339,1.339,0,0,1-.363.757,5.4,5.4,0,0,1-.908.878,6.275,6.275,0,0,1-1.029.666l-.605.3L20.4,60q-.121,0-.515.03t-.636.03a7.822,7.822,0,0,1-3.6-.817A10.472,10.472,0,0,1,12.8,57.124,12.692,12.692,0,0,1,10.679,54.1a22.405,22.405,0,0,1-1.453-3.6,22.719,22.719,0,0,1-.817-3.754A27.532,27.532,0,0,1,8.166,43.229ZM13.4,125.191q.121-2.119.272-4.813t.394-5.389q.242-2.694.545-5.207a44.153,44.153,0,0,1,.727-4.39,14.712,14.712,0,0,1,.908-2.906q.605-1.029,1.211-.666.848.121,1.09,1.332a13.8,13.8,0,0,1,.151,3.209q-.091,2-.454,4.541t-.7,5.207q-.333,2.664-.575,5.3a32.924,32.924,0,0,0-.121,4.813,4.485,4.485,0,0,0,.212,1.3,5.8,5.8,0,0,0,.575,1.3,4.663,4.663,0,0,0,.908,1.09,2.008,2.008,0,0,0,1.271.484l12.17,1.09a.663.663,0,0,1,.636.605,5.52,5.52,0,0,1,.091.848,1.5,1.5,0,0,1-.666,1.453A6.8,6.8,0,0,1,30.3,135q-.242,0-.878.03l-1.332.061q-.7.03-1.3.03h-.848a28.666,28.666,0,0,1-5.116-.424,10.137,10.137,0,0,1-3.966-1.544,7.486,7.486,0,0,1-2.543-3.027A11.525,11.525,0,0,1,13.4,125.191Zm10.2,82.508q-.3-2.24-.575-4.692t-.515-4.935q-.242-2.482-.545-4.9-.3-2.543-.666-4.723-.182-.908-.636-2.422t-.878-3.239q-.424-1.726-.757-3.481a17.339,17.339,0,0,1-.333-3.209q.727-.969,1.453-.363A6.262,6.262,0,0,1,21.607,178a31.208,31.208,0,0,1,1.423,4.238q.7,2.573,1.271,5.479t1.09,5.994q.515,3.088.878,5.813t.605,4.844a30.757,30.757,0,0,1,.242,3.209v.727a3.887,3.887,0,0,1-.061.7,1.137,1.137,0,0,1-.333.605,1.633,1.633,0,0,1-.817.394.708.708,0,0,1-.727-.212,8.749,8.749,0,0,1-.727-.757,4.694,4.694,0,0,1-.575-.817Q23.666,207.82,23.605,207.7Zm-11.171,42.85a1.342,1.342,0,0,1-.424-.061,2.358,2.358,0,0,1,.3.848v10.959q.3.484,1.756.454t3.451-.212q2-.182,4.238-.575t4.178-.727q1.937-.333,3.209-.575,1.332-.242,1.453-.121.182,0,.7-.03t1.12-.061q.605-.03,1.09-.061t.666-.03a2.686,2.686,0,0,1-1.6,2.361,13.6,13.6,0,0,1-4.026,1.393,52.607,52.607,0,0,1-5.237.757q-2.815.272-5.268.454t-4.147.424q-1.756.121-1.877.605a9.593,9.593,0,0,0-.515,2.18q-.151,1.211-.182,2.452t0,2.482q.03,1.241.03,2.21v4.057a1.687,1.687,0,0,0,1.09.908,7.447,7.447,0,0,0,1.816.394,11.055,11.055,0,0,0,1.816.03Q17.036,281,17.4,281a40.184,40.184,0,0,0,4.117-.212q2.059-.212,4.087-.424l4.057-.424a39.307,39.307,0,0,1,4.087-.212h.363a1.877,1.877,0,0,0,.363.121,3.169,3.169,0,0,1,.515.182,3.086,3.086,0,0,1,.454.242.93.93,0,0,0,.363.121,2.738,2.738,0,0,1,.363.242q.242.121.242.242a2.206,2.206,0,0,1-1.271,1.907A11.348,11.348,0,0,1,31.931,284a31.121,31.121,0,0,1-4.238.666q-2.3.212-4.42.3t-3.633.091H17.7a19.21,19.21,0,0,1-4.269-.424,7.532,7.532,0,0,1-3.088-1.423A5.92,5.92,0,0,1,8.5,280.52a13.859,13.859,0,0,1-.605-4.359,32.084,32.084,0,0,1,.333-4.6A32.5,32.5,0,0,0,8.56,266.9a3.941,3.941,0,0,0-.3-1.635,3.47,3.47,0,0,1-.3-1.453v-.363a4.637,4.637,0,0,0,.424-.575,4.637,4.637,0,0,1,.424-.575V248.914a3.8,3.8,0,0,1,.212-1.453,1.339,1.339,0,0,1,1.029-.666,9.431,9.431,0,0,1,2.3-.121q1.483.061,4.057.182t6.327.182q3.875.061,9.2,0,.605.242,1.211.515a4.95,4.95,0,0,1,1.12.7,3.375,3.375,0,0,1,.817.969,2.708,2.708,0,0,1,.3,1.332.7.7,0,0,1-.212.424q-.212.242-.333.182L31.931,250ZM5.865,356.307q0-2.846.182-5.691t.454-5.661q.272-2.815.454-5.6.182-2.846.182-5.631A13.513,13.513,0,0,0,6.8,330.7a13.239,13.239,0,0,1-.333-2.967v-.3a2.851,2.851,0,0,1,.454-.151,7.055,7.055,0,0,1,.7-.151,4.784,4.784,0,0,0,.727-.182,1.388,1.388,0,0,1,.424-.121h.605q.484,2.18,1.3,5.207t1.968,6.176a58.3,58.3,0,0,0,2.725,6.267A28.818,28.818,0,0,0,19,350.04a17.564,17.564,0,0,0,4.6,3.936A10.665,10.665,0,0,0,29.3,355.4a8.021,8.021,0,0,0,3.3-.636,6.2,6.2,0,0,0,2.331-1.756,7.6,7.6,0,0,0,1.362-2.634,11.553,11.553,0,0,0,.454-3.33,10.325,10.325,0,0,0-.938-4.39q-.938-2.028-2.028-3.905t-2.028-3.754a8.944,8.944,0,0,1-.938-4.057,3.913,3.913,0,0,1,.182-1.332q.182-.484,1.029-.484a2.775,2.775,0,0,1,1.968,1.09A13.654,13.654,0,0,1,35.9,333a31.665,31.665,0,0,1,1.7,3.784q.787,2.089,1.393,4.147t.938,3.814a15.833,15.833,0,0,1,.333,2.785,12.85,12.85,0,0,1-.848,4.753,11.365,11.365,0,0,1-2.392,3.754,10.642,10.642,0,0,1-3.693,2.482,12.457,12.457,0,0,1-4.753.878,11.675,11.675,0,0,1-5.116-1.09,15.368,15.368,0,0,1-4.057-2.815,25.439,25.439,0,0,1-3.148-3.663,43.127,43.127,0,0,1-2.331-3.663q-.969-1.726-1.665-2.815t-1.12-1.09a1.283,1.283,0,0,0-1.15.545,3.585,3.585,0,0,0-.515,1.271,7.56,7.56,0,0,0-.151,1.544v1.241a16.892,16.892,0,0,0,.363,3.6A16.588,16.588,0,0,1,10.043,356a8.394,8.394,0,0,1-.091,1.09,7.915,7.915,0,0,1-.3,1.332,3.193,3.193,0,0,1-.636,1.15,1.382,1.382,0,0,1-1.09.484,1.264,1.264,0,0,1-1-.454,3.827,3.827,0,0,1-.636-1.029,4.888,4.888,0,0,1-.333-1.211A7.738,7.738,0,0,1,5.865,356.307ZM24.12,401.336a69.173,69.173,0,0,1-8.749-.575q-4.511-.575-8.628-1.241a.909.909,0,0,1-.848-.151,1.913,1.913,0,0,1-.484-.727,2.926,2.926,0,0,1-.212-.878q-.03-.424-.03-.666H8.317q2.24,0,5.3.061t6.66.182q3.6.121,7.235.363t7.023.575q3.391.333,6.024.848a21.089,21.089,0,0,1,4.178,1.181q1.544.666,1.544,1.514a4.2,4.2,0,0,1-.182,1.211.838.838,0,0,1-.908.605,23.387,23.387,0,0,1-4.42-.666q-2.18-.545-4.359-1.06a32.472,32.472,0,0,0-4.45-.727,11.88,11.88,0,0,0-4.632.515q0,2.785.333,6.115t.787,6.781q.454,3.451,1.029,6.9t1.12,6.479a4.972,4.972,0,0,0,.515,1.544q.394.757.817,1.453a10.509,10.509,0,0,1,.727,1.423,3.752,3.752,0,0,1,.3,1.453.966.966,0,0,1-.3.757,1.55,1.55,0,0,1-.727.363,4.33,4.33,0,0,1-.908.091h-.787a2.223,2.223,0,0,1-1.907-.969,7.14,7.14,0,0,1-1.06-2.271,14.758,14.758,0,0,1-.484-2.694q-.121-1.393-.242-2.24-.484-3.33-.848-6.448t-.636-6.236q-.272-3.118-.484-6.3T24.12,401.336ZM4.745,499.223a3.976,3.976,0,0,1,.242-1.3,5.874,5.874,0,0,1,.666-1.332,3.96,3.96,0,0,1,1.029-1.06,2.183,2.183,0,0,1,1.271-.424,11.831,11.831,0,0,0,1.393,6.206,9.174,9.174,0,0,0,3.845,3.481,18,18,0,0,0,5.6,1.635q3.148.424,6.781.605,1.211-.061,3.179-.091a19.229,19.229,0,0,0,3.784-.424,8.255,8.255,0,0,0,3.088-1.3,3.061,3.061,0,0,0,1.211-2.785q0-.848-.061-1.514a4.058,4.058,0,0,0-.272-1.181,2.927,2.927,0,0,0-.727-1,6.657,6.657,0,0,0-1.423-.969L16.37,487.961a10.529,10.529,0,0,1-1.877-1.362,8.055,8.055,0,0,1-1.514-1.816,10.066,10.066,0,0,1-.969-2.119,7.135,7.135,0,0,1-.363-2.21,5.577,5.577,0,0,1,1.241-3.754,9.185,9.185,0,0,1,3.088-2.331,15.129,15.129,0,0,1,4-1.241,23.921,23.921,0,0,1,3.966-.363,20.077,20.077,0,0,1,2.18.151q1.332.151,2.846.454a26.2,26.2,0,0,1,3,.787,10.95,10.95,0,0,1,2.634,1.241,7.607,7.607,0,0,1,1.907,1.756,3.752,3.752,0,0,1,.757,2.331,2.4,2.4,0,0,1-1.726.3,6.68,6.68,0,0,1-1.786-.666q-.908-.484-1.877-1.09t-2-1.211a10.55,10.55,0,0,0-2.18-.969,6.056,6.056,0,0,0-2.422-.242q-1.15,0-2.967.121a18.8,18.8,0,0,0-3.542.575,8.406,8.406,0,0,0-2.967,1.393,3.111,3.111,0,0,0-1.241,2.634,4.542,4.542,0,0,0,1.15,3,13.393,13.393,0,0,0,3.118,2.6,37.462,37.462,0,0,0,4.42,2.361q2.452,1.12,4.965,2.3t4.9,2.452a23.493,23.493,0,0,1,4.178,2.785,12.486,12.486,0,0,1,2.785,3.239,5.946,5.946,0,0,1,.7,3.905,6.431,6.431,0,0,1-1.877,3.754,10.716,10.716,0,0,1-4,2.452,21.564,21.564,0,0,1-5.389,1.15,32.625,32.625,0,0,1-6.115-.03,36.837,36.837,0,0,1-6.236-1.15,25.077,25.077,0,0,1-5.631-2.271,18.309,18.309,0,0,1-4.359-3.33A9.567,9.567,0,0,1,4.745,499.223ZM34.02,658.607a12.347,12.347,0,0,1,.182-2.089q.182-1.06.424-2.119t.424-2.149a13.237,13.237,0,0,0,.182-2.18q0-1.7-.121-3.633a18.1,18.1,0,0,0-.605-3.693,13.317,13.317,0,0,1-3.481.272q-1.786-.091-3.572-.333t-3.6-.484a27.461,27.461,0,0,0-3.633-.242H18.489q-1.181,0-2.422.061T13.8,642.2a2.339,2.339,0,0,0-1.211.363l-.605.545a2.592,2.592,0,0,1-.03.272,3.714,3.714,0,0,0-.03.515q0,.3-.03.605t-.03.484a23.46,23.46,0,0,0,.272,3.542q.272,1.786.605,3.481t.636,3.391a19.252,19.252,0,0,1,.3,3.391v.605q-.908.848-1.635.575a2.68,2.68,0,0,1-1.3-1.332,11.14,11.14,0,0,1-.969-2.725,29.614,29.614,0,0,1-.605-3.633q-.212-1.968-.242-4.026a36.979,36.979,0,0,1,.151-4q-.121-.121-.484-.515t-.727-.848q-.363-.454-.727-.878-.242-.424-.363-.666l-.061-.121v-.121a.76.76,0,0,1,.212-.605,1.4,1.4,0,0,1,.515-.272q.3-.091.605-.212a.984.984,0,0,0,.484-.424v-1.635q.242-2.543.394-5.419t.545-5.631a32.128,32.128,0,0,1,1.211-5.3,15.1,15.1,0,0,1,2.271-4.48,10.589,10.589,0,0,1,3.693-3.088,12.265,12.265,0,0,1,5.631-1.15,9.275,9.275,0,0,1,4.813,1.271,13.552,13.552,0,0,1,3.814,3.421,23.629,23.629,0,0,1,2.906,4.965,41.517,41.517,0,0,1,2.089,5.964q.848,3.148,1.423,6.357t.878,6.115q.3,2.906.424,5.328t.121,4v2.059a17.348,17.348,0,0,1-.091,1.786q-.091.878-.182,1.847t-.333,2.24a6.022,6.022,0,0,1-1.241,1.241,2.69,2.69,0,0,1-1.665.575q-.787,0-1-.394A2.244,2.244,0,0,1,34.02,658.607Zm-1.453-18.346a4.239,4.239,0,0,0,.454-.03.621.621,0,0,0,.454-.3,3.469,3.469,0,0,0,.363-.878,10.075,10.075,0,0,0,.3-1.7,28.106,28.106,0,0,0-.333-4.026,39.134,39.134,0,0,0-1-4.692,30.793,30.793,0,0,0-1.726-4.723A19.838,19.838,0,0,0,28.57,619.8a11.761,11.761,0,0,0-3.36-2.906,8.449,8.449,0,0,0-4.269-1.09,6.656,6.656,0,0,0-4.178,1.3,9.76,9.76,0,0,0-2.755,3.391,19.756,19.756,0,0,0-1.635,4.692,42.263,42.263,0,0,0-.817,5.207q-.242,2.6-.272,4.9t-.03,3.754Zm-15.53,81.3q.424,2.725,1,5t.878,3.966a9.738,9.738,0,0,1,.182,2.725,1.394,1.394,0,0,1-1.211,1.271q-.121.363-.484-.424a19.759,19.759,0,0,1-.848-2.392q-.484-1.6-1.029-3.845t-1.06-4.753q-.515-2.513-.938-5.177t-.7-5.086a39.811,39.811,0,0,1-.272-4.42,12.89,12.89,0,0,1,.363-3.33,1.232,1.232,0,0,1,1.3-.272,2.007,2.007,0,0,1,.908.878,4.188,4.188,0,0,1,.454,1.393,8.137,8.137,0,0,1-.121,1.453q.061.242.212.908t.333,1.423q.182.757.363,1.423a5.7,5.7,0,0,0,.3.908q.848-.121,2.513-.333t3.6-.605q1.937-.394,3.966-.938a25,25,0,0,0,3.663-1.271,9.943,9.943,0,0,0,2.694-1.7,2.9,2.9,0,0,0,1.06-2.18,1,1,0,0,0-.061-.3V705.7a18.922,18.922,0,0,0-3.451-3.148,12.908,12.908,0,0,0-3.724-1.786A20.947,20.947,0,0,0,22.788,700q-2.18-.182-4.662-.182-1.816,0-3.814.03a13.837,13.837,0,0,0-3.663.515,5.606,5.606,0,0,0-2.755,1.756,5.526,5.526,0,0,0-1.09,3.693,1.446,1.446,0,0,1-.969-.363,3.444,3.444,0,0,1-.727-.878,5.274,5.274,0,0,1-.484-1.09,3.392,3.392,0,0,1-.182-1,3.661,3.661,0,0,1,.363-1.6,4.936,4.936,0,0,1,.969-1.362,10.289,10.289,0,0,1,1.332-1.12,11.136,11.136,0,0,1,1.453-.878q1.938-.363,3.421-.605t2.815-.394q1.332-.151,2.694-.182t3.058-.03a24.9,24.9,0,0,1,3.572.272,30.014,30.014,0,0,1,3.814.817,19.993,19.993,0,0,1,3.663,1.423,13.945,13.945,0,0,1,3.088,2.119,9.464,9.464,0,0,1,2.149,2.846,8.071,8.071,0,0,1,.787,3.6,4.733,4.733,0,0,1-1.09,3.088,9.409,9.409,0,0,1-2.906,2.3,22.071,22.071,0,0,1-4.026,1.635q-2.21.666-4.42,1.181t-4.147.878q-1.937.484-3.148.848a55.483,55.483,0,0,0,5.994,7.084,62.206,62.206,0,0,0,5.57,4.9,46.628,46.628,0,0,0,4.723,3.239q2.119,1.241,3.451,2.089a7.084,7.084,0,0,1,1.7,1.332q.363.484-.545,1.09a1.9,1.9,0,0,1-2.18.424,13.687,13.687,0,0,1-3.481-1.665,41.568,41.568,0,0,1-4.208-3.088q-2.24-1.847-4.42-3.845t-4.147-3.936Q18.368,723.012,17.036,721.559Zm-4.6,53.99a1.342,1.342,0,0,1-.424-.061,2.358,2.358,0,0,1,.3.848v10.959q.3.484,1.756.454t3.451-.212q2-.182,4.238-.575t4.178-.727q1.937-.333,3.209-.575,1.332-.242,1.453-.121.182,0,.7-.03t1.12-.061q.605-.03,1.09-.061t.666-.03a2.686,2.686,0,0,1-1.6,2.361,13.6,13.6,0,0,1-4.026,1.393,52.6,52.6,0,0,1-5.237.757q-2.815.272-5.268.454t-4.147.424q-1.756.121-1.877.605a9.592,9.592,0,0,0-.515,2.18q-.151,1.211-.182,2.452t0,2.482q.03,1.241.03,2.21v4.057a1.687,1.687,0,0,0,1.09.908,7.446,7.446,0,0,0,1.816.394,11.058,11.058,0,0,0,1.816.03Q17.036,806,17.4,806a40.175,40.175,0,0,0,4.117-.212q2.059-.212,4.087-.424l4.057-.424a39.3,39.3,0,0,1,4.087-.212h.363a1.877,1.877,0,0,0,.363.121,3.163,3.163,0,0,1,.515.182,3.086,3.086,0,0,1,.454.242.929.929,0,0,0,.363.121,2.735,2.735,0,0,1,.363.242q.242.121.242.242a2.206,2.206,0,0,1-1.271,1.907A11.347,11.347,0,0,1,31.931,809a31.126,31.126,0,0,1-4.238.666q-2.3.212-4.42.3t-3.633.091H17.7a19.211,19.211,0,0,1-4.269-.424,7.532,7.532,0,0,1-3.088-1.423A5.92,5.92,0,0,1,8.5,805.52a13.859,13.859,0,0,1-.605-4.359,32.084,32.084,0,0,1,.333-4.6A32.505,32.505,0,0,0,8.56,791.9a3.941,3.941,0,0,0-.3-1.635,3.47,3.47,0,0,1-.3-1.453v-.363a4.639,4.639,0,0,0,.424-.575,4.639,4.639,0,0,1,.424-.575V773.914a3.8,3.8,0,0,1,.212-1.453,1.339,1.339,0,0,1,1.029-.666,9.432,9.432,0,0,1,2.3-.121q1.483.061,4.057.182t6.327.182q3.875.061,9.2,0,.605.242,1.211.515a4.95,4.95,0,0,1,1.12.7,3.375,3.375,0,0,1,.817.969,2.708,2.708,0,0,1,.3,1.332.7.7,0,0,1-.212.424q-.212.242-.333.182L31.931,775ZM34.02,958.607a12.347,12.347,0,0,1,.182-2.089q.182-1.06.424-2.119t.424-2.149a13.237,13.237,0,0,0,.182-2.18q0-1.7-.121-3.633a18.1,18.1,0,0,0-.605-3.693,13.317,13.317,0,0,1-3.481.272q-1.786-.091-3.572-.333t-3.6-.484a27.461,27.461,0,0,0-3.633-.242H18.489q-1.181,0-2.422.061T13.8,942.2a2.339,2.339,0,0,0-1.211.363l-.605.545a2.592,2.592,0,0,1-.03.272,3.714,3.714,0,0,0-.03.515q0,.3-.03.605t-.03.484a23.46,23.46,0,0,0,.272,3.542q.272,1.786.605,3.481t.636,3.391a19.252,19.252,0,0,1,.3,3.391v.605q-.908.848-1.635.575a2.68,2.68,0,0,1-1.3-1.332,11.14,11.14,0,0,1-.969-2.725,29.614,29.614,0,0,1-.605-3.633q-.212-1.968-.242-4.026a36.979,36.979,0,0,1,.151-4q-.121-.121-.484-.515t-.727-.848q-.363-.454-.727-.878-.242-.424-.363-.666l-.061-.121v-.121a.76.76,0,0,1,.212-.605,1.4,1.4,0,0,1,.515-.272q.3-.091.605-.212a.984.984,0,0,0,.484-.424v-1.635q.242-2.543.394-5.419t.545-5.631a32.128,32.128,0,0,1,1.211-5.3,15.1,15.1,0,0,1,2.271-4.48,10.589,10.589,0,0,1,3.693-3.088,12.265,12.265,0,0,1,5.631-1.15,9.275,9.275,0,0,1,4.813,1.271,13.552,13.552,0,0,1,3.814,3.421,23.629,23.629,0,0,1,2.906,4.965,41.517,41.517,0,0,1,2.089,5.964q.848,3.148,1.423,6.357t.878,6.115q.3,2.906.424,5.328t.121,4v2.059a17.348,17.348,0,0,1-.091,1.786q-.091.878-.182,1.847t-.333,2.24a6.022,6.022,0,0,1-1.241,1.241,2.69,2.69,0,0,1-1.665.575q-.787,0-1-.394A2.244,2.244,0,0,1,34.02,958.607Zm-1.453-18.346a4.239,4.239,0,0,0,.454-.03.621.621,0,0,0,.454-.3,3.469,3.469,0,0,0,.363-.878,10.075,10.075,0,0,0,.3-1.7,28.106,28.106,0,0,0-.333-4.026,39.134,39.134,0,0,0-1-4.692,30.793,30.793,0,0,0-1.726-4.723A19.838,19.838,0,0,0,28.57,919.8a11.761,11.761,0,0,0-3.36-2.906,8.449,8.449,0,0,0-4.269-1.09,6.656,6.656,0,0,0-4.178,1.3,9.76,9.76,0,0,0-2.755,3.391,19.756,19.756,0,0,0-1.635,4.692,42.263,42.263,0,0,0-.817,5.207q-.242,2.6-.272,4.9t-.03,3.754ZM13.4,1025.191q.121-2.119.272-4.813t.394-5.389q.242-2.694.545-5.207a44.153,44.153,0,0,1,.727-4.39,14.713,14.713,0,0,1,.908-2.906q.605-1.029,1.211-.666.848.121,1.09,1.332a13.8,13.8,0,0,1,.151,3.209q-.091,2-.454,4.541t-.7,5.207q-.333,2.664-.575,5.3a32.924,32.924,0,0,0-.121,4.813,4.485,4.485,0,0,0,.212,1.3,5.8,5.8,0,0,0,.575,1.3,4.661,4.661,0,0,0,.908,1.09,2.008,2.008,0,0,0,1.271.484l12.17,1.09a.663.663,0,0,1,.636.605,5.521,5.521,0,0,1,.091.848,1.5,1.5,0,0,1-.666,1.453A6.8,6.8,0,0,1,30.3,1035q-.242,0-.878.03l-1.332.061q-.7.03-1.3.03h-.848a28.662,28.662,0,0,1-5.116-.424,10.138,10.138,0,0,1-3.966-1.544,7.486,7.486,0,0,1-2.543-3.027A11.525,11.525,0,0,1,13.4,1025.191Zm7.9,77.785H21q-2.664,2.422-4.3,3.754t-2.6,1.968a5.079,5.079,0,0,1-1.393.727,3.337,3.337,0,0,1-.605.091,6.246,6.246,0,0,1-3.966-1.3,10.658,10.658,0,0,1-2.785-3.36,21.043,21.043,0,0,1-1.816-4.692,44.593,44.593,0,0,1-1.06-5.237q-.363-2.6-.515-4.9t-.151-3.875v-1.3a16.956,16.956,0,0,1,.182-2.392,8.046,8.046,0,0,1,.666-2.3,1.794,1.794,0,0,1,1.574-1.029q.424,0,.605,1.15t.333,2.967q.151,1.816.333,4.178t.394,4.844q.212,2.482.605,4.844a26.22,26.22,0,0,0,1.029,4.208,9.3,9.3,0,0,0,1.574,2.967,2.865,2.865,0,0,0,2.271,1.12,3.972,3.972,0,0,0,2.089-.605,9.762,9.762,0,0,0,1.847-1.453,17.8,17.8,0,0,0,1.544-1.756q.7-.908,1.241-1.514a7.544,7.544,0,0,0,.515-1.937,20.124,20.124,0,0,0,.182-2.24q.03-1.15,0-2.18t-.091-1.756a2.579,2.579,0,0,1,.727-1.181.831.831,0,0,1,.787-.212,1.583,1.583,0,0,1,.727.636,5.711,5.711,0,0,1,.666,1.362,26.866,26.866,0,0,0,1.09,4.3,19.515,19.515,0,0,0,2.089,4.39,12.45,12.45,0,0,0,3.179,3.391A7.226,7.226,0,0,0,32.324,1106a7.683,7.683,0,0,0,2.755-.545,8.551,8.551,0,0,0,4.39-3.754,5.4,5.4,0,0,0,.727-2.725,14.078,14.078,0,0,0-.727-4.48q-.727-2.18-1.635-4.329t-1.635-4.3a13.62,13.62,0,0,1-.727-4.39q.787-1.7,1.726-1.423a3.75,3.75,0,0,1,1.877,1.786,20.491,20.491,0,0,1,1.786,3.905q.848,2.392,1.514,4.844a42.41,42.41,0,0,1,1,4.6,16.65,16.65,0,0,1,.272,3.179,10.114,10.114,0,0,1-.969,4.359,12.756,12.756,0,0,1-2.634,3.693,13.059,13.059,0,0,1-3.814,2.6,10.718,10.718,0,0,1-4.45.969,6.555,6.555,0,0,1-3.542-1.09,18.61,18.61,0,0,1-3.088-2.422q-1.362-1.332-2.361-2.422T21.3,1102.977Zm12.715,80.631a12.348,12.348,0,0,1,.182-2.089q.182-1.06.424-2.119t.424-2.149a13.237,13.237,0,0,0,.182-2.18q0-1.7-.121-3.633a18.1,18.1,0,0,0-.605-3.693,13.317,13.317,0,0,1-3.481.272q-1.786-.091-3.572-.333t-3.6-.484a27.451,27.451,0,0,0-3.633-.242H18.489q-1.181,0-2.422.061t-2.271.182a2.338,2.338,0,0,0-1.211.363l-.605.545a2.588,2.588,0,0,1-.03.272,3.714,3.714,0,0,0-.03.515q0,.3-.03.605t-.03.484a23.461,23.461,0,0,0,.272,3.542q.272,1.786.605,3.481t.636,3.391a19.252,19.252,0,0,1,.3,3.391v.605q-.908.848-1.635.575a2.679,2.679,0,0,1-1.3-1.332,11.142,11.142,0,0,1-.969-2.725,29.61,29.61,0,0,1-.605-3.633q-.212-1.968-.242-4.026a36.977,36.977,0,0,1,.151-4q-.121-.121-.484-.515t-.727-.848q-.363-.454-.727-.878-.242-.424-.363-.666l-.061-.121v-.121a.76.76,0,0,1,.212-.605,1.4,1.4,0,0,1,.515-.272q.3-.091.605-.212a.984.984,0,0,0,.484-.424v-1.635q.242-2.543.394-5.419t.545-5.631a32.13,32.13,0,0,1,1.211-5.3,15.1,15.1,0,0,1,2.271-4.48,10.59,10.59,0,0,1,3.693-3.088,12.264,12.264,0,0,1,5.631-1.15,9.275,9.275,0,0,1,4.813,1.271,13.551,13.551,0,0,1,3.814,3.421,23.631,23.631,0,0,1,2.906,4.965,41.514,41.514,0,0,1,2.089,5.964q.848,3.148,1.423,6.357t.878,6.115q.3,2.906.424,5.328t.121,4v2.059a17.349,17.349,0,0,1-.091,1.786q-.091.878-.182,1.847t-.333,2.24a6.022,6.022,0,0,1-1.241,1.241,2.69,2.69,0,0,1-1.665.575q-.787,0-1-.394A2.244,2.244,0,0,1,34.02,1183.607Zm-1.453-18.346a4.255,4.255,0,0,0,.454-.03.621.621,0,0,0,.454-.3,3.468,3.468,0,0,0,.363-.878,10.076,10.076,0,0,0,.3-1.7,28.106,28.106,0,0,0-.333-4.026,39.137,39.137,0,0,0-1-4.692,30.788,30.788,0,0,0-1.726-4.723,19.84,19.84,0,0,0-2.513-4.117,11.761,11.761,0,0,0-3.36-2.906,8.449,8.449,0,0,0-4.269-1.09,6.656,6.656,0,0,0-4.178,1.3,9.76,9.76,0,0,0-2.755,3.391,19.755,19.755,0,0,0-1.635,4.692,42.263,42.263,0,0,0-.817,5.207q-.242,2.6-.272,4.9t-.03,3.754Zm-9.839,94.5v-3.209a35.114,35.114,0,0,1,.272-4.632q.272-2.028.727-3.966t1.12-3.966q.666-2.028,1.393-4.571,0-.121.03-.454t.03-.454q.121-.061-1.06-.605t-2.876-1.544a38.974,38.974,0,0,1-3.693-2.513,22.267,22.267,0,0,1-3.663-3.512,16.67,16.67,0,0,1-2.664-4.48,12.012,12.012,0,0,1-.757-5.51q.061,0,.333-.03t.605-.061a6,6,0,0,0,.636-.091h.363a27.047,27.047,0,0,0,1.15,2.725,24.67,24.67,0,0,0,1.786,3.088,33.085,33.085,0,0,0,2.331,3.058,22.353,22.353,0,0,0,2.694,2.664,13.053,13.053,0,0,0,2.967,1.877,7.654,7.654,0,0,0,3.179.7q1.09-2.422,1.726-3.845t1-2.21a10.571,10.571,0,0,0,.484-1.181,5.231,5.231,0,0,0,.182-.848q.061-.454.121-1.09t.3-1.968q0-.242.484-.515a2.659,2.659,0,0,1,1-.333,1.953,1.953,0,0,1,.969.121.707.707,0,0,1,.454.727,26.776,26.776,0,0,1-.727,6.327,47.818,47.818,0,0,1-1.816,5.843q-1.09,2.846-2.3,5.661a56.418,56.418,0,0,0-2.119,5.782,36.049,36.049,0,0,0-1.3,6.176,25.3,25.3,0,0,0,.151,6.842,2.9,2.9,0,0,1-.727.938,1.576,1.576,0,0,1-.969.272,1.864,1.864,0,0,1-1.029-.272A2.516,2.516,0,0,1,22.728,1259.758ZM4.745,1324.223a3.976,3.976,0,0,1,.242-1.3,5.873,5.873,0,0,1,.666-1.332,3.961,3.961,0,0,1,1.029-1.06,2.183,2.183,0,0,1,1.271-.424,11.831,11.831,0,0,0,1.393,6.206,9.174,9.174,0,0,0,3.845,3.481,18,18,0,0,0,5.6,1.635q3.148.424,6.781.605,1.211-.061,3.179-.091a19.229,19.229,0,0,0,3.784-.424,8.255,8.255,0,0,0,3.088-1.3,3.061,3.061,0,0,0,1.211-2.785q0-.848-.061-1.514a4.058,4.058,0,0,0-.272-1.181,2.926,2.926,0,0,0-.727-1,6.657,6.657,0,0,0-1.423-.969l-17.982-9.809a10.529,10.529,0,0,1-1.877-1.362,8.055,8.055,0,0,1-1.514-1.816,10.066,10.066,0,0,1-.969-2.119,7.135,7.135,0,0,1-.363-2.21,5.577,5.577,0,0,1,1.241-3.754,9.185,9.185,0,0,1,3.088-2.331,15.128,15.128,0,0,1,4-1.241,23.921,23.921,0,0,1,3.966-.363,20.069,20.069,0,0,1,2.18.151q1.332.151,2.846.454a26.2,26.2,0,0,1,3,.787,10.95,10.95,0,0,1,2.634,1.241,7.606,7.606,0,0,1,1.907,1.756,3.752,3.752,0,0,1,.757,2.331,2.4,2.4,0,0,1-1.726.3,6.681,6.681,0,0,1-1.786-.666q-.908-.484-1.877-1.09t-2-1.211a10.548,10.548,0,0,0-2.18-.969,6.057,6.057,0,0,0-2.422-.242q-1.15,0-2.967.121a18.8,18.8,0,0,0-3.542.575,8.407,8.407,0,0,0-2.967,1.393,3.111,3.111,0,0,0-1.241,2.634,4.542,4.542,0,0,0,1.15,3,13.393,13.393,0,0,0,3.118,2.6,37.453,37.453,0,0,0,4.42,2.361q2.452,1.12,4.965,2.3t4.9,2.452a23.491,23.491,0,0,1,4.178,2.785,12.487,12.487,0,0,1,2.785,3.239,5.946,5.946,0,0,1,.7,3.905,6.431,6.431,0,0,1-1.877,3.754,10.716,10.716,0,0,1-4,2.452,21.563,21.563,0,0,1-5.389,1.15,32.627,32.627,0,0,1-6.115-.03,36.837,36.837,0,0,1-6.236-1.15,25.074,25.074,0,0,1-5.631-2.271,18.309,18.309,0,0,1-4.359-3.33A9.567,9.567,0,0,1,4.745,1324.223Zm12.291,147.336q.424,2.725,1,5t.878,3.966a9.738,9.738,0,0,1,.182,2.725,1.394,1.394,0,0,1-1.211,1.271q-.121.363-.484-.424a19.759,19.759,0,0,1-.848-2.392q-.484-1.6-1.029-3.845t-1.06-4.753q-.515-2.513-.938-5.177t-.7-5.086a39.812,39.812,0,0,1-.272-4.42,12.89,12.89,0,0,1,.363-3.33,1.232,1.232,0,0,1,1.3-.272,2.006,2.006,0,0,1,.908.878,4.188,4.188,0,0,1,.454,1.393,8.136,8.136,0,0,1-.121,1.453q.061.242.212.908t.333,1.423q.182.757.363,1.423a5.707,5.707,0,0,0,.3.908q.848-.121,2.513-.333t3.6-.605q1.937-.393,3.966-.938a25,25,0,0,0,3.663-1.271,9.941,9.941,0,0,0,2.694-1.7,2.9,2.9,0,0,0,1.06-2.18,1,1,0,0,0-.061-.3v-.182a18.922,18.922,0,0,0-3.451-3.148,12.908,12.908,0,0,0-3.724-1.786,20.951,20.951,0,0,0-4.147-.757q-2.18-.182-4.662-.182-1.816,0-3.814.03a13.837,13.837,0,0,0-3.663.515,5.606,5.606,0,0,0-2.755,1.756,5.526,5.526,0,0,0-1.09,3.693,1.446,1.446,0,0,1-.969-.363,3.443,3.443,0,0,1-.727-.878,5.277,5.277,0,0,1-.484-1.09,3.391,3.391,0,0,1-.182-1,3.661,3.661,0,0,1,.363-1.6,4.937,4.937,0,0,1,.969-1.362,10.289,10.289,0,0,1,1.332-1.12,11.13,11.13,0,0,1,1.453-.878q1.938-.363,3.421-.605t2.815-.394q1.332-.151,2.694-.182t3.058-.03a24.9,24.9,0,0,1,3.572.272,30.014,30.014,0,0,1,3.814.817,19.988,19.988,0,0,1,3.663,1.423,13.945,13.945,0,0,1,3.088,2.119,9.464,9.464,0,0,1,2.149,2.846,8.071,8.071,0,0,1,.787,3.6,4.733,4.733,0,0,1-1.09,3.088,9.409,9.409,0,0,1-2.906,2.3,22.062,22.062,0,0,1-4.026,1.635q-2.21.666-4.42,1.181t-4.147.878q-1.937.484-3.148.848a55.483,55.483,0,0,0,5.994,7.084,62.206,62.206,0,0,0,5.57,4.9,46.638,46.638,0,0,0,4.723,3.239q2.119,1.241,3.451,2.089a7.084,7.084,0,0,1,1.7,1.332q.363.484-.545,1.09a1.9,1.9,0,0,1-2.18.424,13.687,13.687,0,0,1-3.481-1.665,41.587,41.587,0,0,1-4.208-3.088q-2.24-1.847-4.42-3.845t-4.147-3.936Q18.368,1473.012,17.036,1471.559Zm6.569,86.141q-.3-2.24-.575-4.692t-.515-4.935q-.242-2.482-.545-4.9-.3-2.543-.666-4.723-.182-.908-.636-2.422t-.878-3.239q-.424-1.726-.757-3.481a17.339,17.339,0,0,1-.333-3.209q.727-.969,1.453-.363A6.263,6.263,0,0,1,21.607,1528a31.208,31.208,0,0,1,1.423,4.238q.7,2.573,1.271,5.479t1.09,5.994q.515,3.088.878,5.813t.605,4.844a30.756,30.756,0,0,1,.242,3.209v.727a3.887,3.887,0,0,1-.061.7,1.137,1.137,0,0,1-.333.605,1.633,1.633,0,0,1-.817.394.708.708,0,0,1-.727-.212,8.749,8.749,0,0,1-.727-.757,4.7,4.7,0,0,1-.575-.817Q23.666,1557.82,23.605,1557.7Zm10.5,74.576q-.182,0-.757-.03t-.7-.03a16.159,16.159,0,0,0-3.481.394q-1.786.393-3.542.817t-3.542.817a16.976,16.976,0,0,1-3.663.394,11.618,11.618,0,0,1-4.6-.878,10.112,10.112,0,0,1-3.512-2.452,10.992,10.992,0,0,1-2.24-3.724,13.549,13.549,0,0,1-.787-4.692,12.108,12.108,0,0,1,1.15-5.146,19.637,19.637,0,0,1,3.088-4.692,27.715,27.715,0,0,1,4.45-4.057,36.086,36.086,0,0,1,5.237-3.209,34.093,34.093,0,0,1,5.449-2.18,27.6,27.6,0,0,1,5.086-1.06,6.006,6.006,0,0,1,2.331.212,5.809,5.809,0,0,1,1.907.938,4.546,4.546,0,0,1,1.271,1.544,4.62,4.62,0,0,1,.484,2.149,6.263,6.263,0,0,1-1.635-.212q-.787-.212-1.574-.484a13.89,13.89,0,0,0-1.635-.454,8.07,8.07,0,0,0-1.7-.182,18.137,18.137,0,0,0-4.6.636,22.916,22.916,0,0,0-4.753,1.847,27.181,27.181,0,0,0-4.42,2.876,23.494,23.494,0,0,0-3.693,3.663,17.239,17.239,0,0,0-2.543,4.3,12.4,12.4,0,0,0-.938,4.723,5.518,5.518,0,0,0,.848,3.027,7.635,7.635,0,0,0,2.119,2.21,9.848,9.848,0,0,0,2.785,1.332,10.293,10.293,0,0,0,2.967.454q2.664,0,5.479-.151a19.737,19.737,0,0,0,5.116-.908,8.426,8.426,0,0,0,3.754-2.392,6.694,6.694,0,0,0,1.453-4.6,8.5,8.5,0,0,0-.121-1.15,1.941,1.941,0,0,0-.545-1.271H23.03a1.641,1.641,0,0,1-.878-.242,3.623,3.623,0,0,1-.757-.636,2.758,2.758,0,0,1-.545-.848,2.358,2.358,0,0,1-.182-.878,4.357,4.357,0,0,1,.121-1,.653.653,0,0,1,.727-.515,3.646,3.646,0,0,1,1.211.212l1.211.424,1.211.424a3.822,3.822,0,0,0,1.271.212,23.994,23.994,0,0,0,4.178-.363,24.346,24.346,0,0,1,4.238-.363,2.31,2.31,0,0,1,1.029.272,4.125,4.125,0,0,1,.969.666,3.76,3.76,0,0,1,.727.938,2.131,2.131,0,0,1,.3,1.029v15.137q.121.121.424.363t.605.515l.605.545q.3.272.424.394a1.053,1.053,0,0,1-.091.817,2.767,2.767,0,0,1-.575.727,3.209,3.209,0,0,1-.817.545,1.965,1.965,0,0,1-.817.212,2.489,2.489,0,0,1-1.968-.787,5.346,5.346,0,0,1-1.06-1.877,8.527,8.527,0,0,1-.424-2.271Q34.11,1633.123,34.11,1632.275Zm-5.328,57.32q-.545.242-1.6.757t-2.452,1.15q-1.393.636-2.906,1.332t-2.876,1.362q-1.362.666-2.482,1.15t-1.6.727l.121,12.109q0,.182-.424.636a2.8,2.8,0,0,1-.666.575,1.06,1.06,0,0,1-1.362-.757,9.741,9.741,0,0,1-.545-2.6q-.151-1.6-.242-3.421a20.237,20.237,0,0,0-.424-3.33,4.762,4.762,0,0,0-1.12-2.331,2.008,2.008,0,0,0-2.24-.333,2.987,2.987,0,0,1-.151-.424,1.763,1.763,0,0,1-.091-.424,1.124,1.124,0,0,1,.394-1.029,7.109,7.109,0,0,1,.878-.454,3.557,3.557,0,0,0,.878-.545,1.575,1.575,0,0,0,.394-1.241q0-2.422-.182-4.783t-.424-4.783q-.242-2.422-.424-4.813t-.182-4.753v-2.846a.934.934,0,0,1,.515-.605,2.023,2.023,0,0,1,.7-.121,2.715,2.715,0,0,1,.727.121.559.559,0,0,1,.363.605l2.422,20.283a2.318,2.318,0,0,0,.212.605,1.3,1.3,0,0,0,.333.545h.545l.969-.242a21.517,21.517,0,0,0,2.543-.938q1.816-.757,5.025-2.3t8.658-4.208l.242-13.744a1.772,1.772,0,0,1,.242-.817,3.437,3.437,0,0,1,.605-.817,3.622,3.622,0,0,1,.727-.575,1.432,1.432,0,0,1,.727-.212,1.832,1.832,0,0,1,.878.182q.333.182.333,1.029a1.7,1.7,0,0,1-.242.636q-.242.454-.3.575,0,.242-.03.848t-.03,1.3v2.21q0,5.147.121,10.293t.484,10.232q.061.606.212,2.149t.333,3.3q.182,1.756.363,3.36t.3,2.271a1.657,1.657,0,0,0,.061.363,4.289,4.289,0,0,0,.182.545,4.289,4.289,0,0,1,.182.545.745.745,0,0,0,.121.3v.545q-.121.121-.363.333a4.956,4.956,0,0,1-.515.394q-.272.182-.515.333a.8.8,0,0,1-.363.151,1.248,1.248,0,0,1-1.393-.727,7.708,7.708,0,0,1-.848-2.149,17.833,17.833,0,0,1-.424-2.452q-.121-1.211-.182-1.7,0-.061-.03-.908t-.091-2.149q-.061-1.3-.151-2.937t-.212-3.27q-.121-1.635-.272-3.088t-.272-2.422Zm-4.662,61.74a69.179,69.179,0,0,1-8.749-.575q-4.511-.575-8.628-1.241a.909.909,0,0,1-.848-.151,1.913,1.913,0,0,1-.484-.727,2.926,2.926,0,0,1-.212-.878q-.03-.424-.03-.666H8.317q2.24,0,5.3.061t6.66.182q3.6.121,7.235.363t7.023.575q3.391.333,6.024.848a21.093,21.093,0,0,1,4.178,1.181q1.544.666,1.544,1.514a4.2,4.2,0,0,1-.182,1.211.838.838,0,0,1-.908.605,23.384,23.384,0,0,1-4.42-.666q-2.18-.545-4.359-1.06a32.463,32.463,0,0,0-4.45-.727,11.88,11.88,0,0,0-4.632.515q0,2.785.333,6.115t.787,6.781q.454,3.451,1.029,6.9t1.12,6.479a4.972,4.972,0,0,0,.515,1.544q.394.757.817,1.453a10.511,10.511,0,0,1,.727,1.423,3.752,3.752,0,0,1,.3,1.453.966.966,0,0,1-.3.757,1.55,1.55,0,0,1-.727.363,4.33,4.33,0,0,1-.908.091h-.787a2.223,2.223,0,0,1-1.907-.969,7.141,7.141,0,0,1-1.06-2.271,14.758,14.758,0,0,1-.484-2.694q-.121-1.393-.242-2.24-.484-3.33-.848-6.448t-.636-6.236q-.272-3.118-.484-6.3T24.12,1751.336Z" transform="translate(-1.809 -19.857)" fill="#41ba03" opacity="0.4"/>
</svg>
