<svg xmlns="http://www.w3.org/2000/svg" width="150" height="150" viewBox="0 0 150 150">
  <g id="satisfactory_number_illustration" data-name="satisfactory number illustration" transform="translate(0 0)">
    <g id="Group_549" data-name="Group 549">
      <path id="Path_550" data-name="Path 550" d="M409.461,380.33a75,75,0,1,1-75-75A75,75,0,0,1,409.461,380.33Z" transform="translate(-259.46 -305.33)" fill="#41ba03"/>
      <g id="Group_548" data-name="Group 548" transform="translate(23.241 25.783)">
        <path id="Path_551" data-name="Path 551" d="M337.909,412.646a185.8,185.8,0,0,1-51.759-7.016,52.428,52.428,0,0,0,103.519,0A185.847,185.847,0,0,1,337.909,412.646Z" transform="translate(-286.15 -344.04)" fill="#1a1a1a"/>
        <path id="Path_552" data-name="Path 552" d="M317.2,372.8a6.013,6.013,0,1,1-6.014-6.013A6.014,6.014,0,0,1,317.2,372.8Z" transform="translate(-288.594 -339.05)" fill="#1a1a1a"/>
        <path id="Path_553" data-name="Path 553" d="M311.551,371.456a1.726,1.726,0,1,1-1.726-1.726A1.724,1.724,0,0,1,311.551,371.456Z" transform="translate(-288.97 -339.427)" fill="#f2f2f2"/>
        <path id="Path_554" data-name="Path 554" d="M384.147,372.8a6.013,6.013,0,1,1-6.013-6.013A6.014,6.014,0,0,1,384.147,372.8Z" transform="translate(-297.196 -339.05)" fill="#1a1a1a"/>
        <path id="Path_555" data-name="Path 555" d="M378.5,371.456a1.726,1.726,0,1,1-1.726-1.726A1.724,1.724,0,0,1,378.5,371.456Z" transform="translate(-297.572 -339.427)" fill="#f2f2f2"/>
        <path id="Path_556" data-name="Path 556" d="M286.15,405.63a51.788,51.788,0,0,0,3.652,12.48,246.894,246.894,0,0,0,96.215,0,51.9,51.9,0,0,0,3.652-12.48,194.44,194.44,0,0,1-103.519,0Z" transform="translate(-286.15 -344.04)" fill="#f2f2f2"/>
        <path id="Path_557" data-name="Path 557" d="M371.152,444.794a121.461,121.461,0,0,0-60.082,0,52.369,52.369,0,0,0,60.082,0Z" transform="translate(-289.352 -348.587)" fill="#d65158"/>
        <path id="Path_558" data-name="Path 558" d="M323.415,346.437a20.738,20.738,0,0,0-26.625,0" transform="translate(-287.517 -335.813)" fill="rgba(0,0,0,0)"/>
        <path id="Path_559" data-name="Path 559" d="M388.677,338.333a20.745,20.745,0,0,0-22.677,0" transform="translate(-296.41 -334.96)" fill="rgba(0,0,0,0)"/>
      </g>
    </g>
  </g>
</svg>
