<svg xmlns="http://www.w3.org/2000/svg" xmlns:xlink="http://www.w3.org/1999/xlink" width="111.407" height="145.002" viewBox="0 0 111.407 145.002">
  <defs>
    <clipPath id="clip-path">
      <path id="Path_236" data-name="Path 236" d="M204.693,206.863v-.153a.13.13,0,0,1-.083.111v.153A.13.13,0,0,0,204.693,206.863Z" transform="translate(-204.61 -206.71)"/>
    </clipPath>
    <clipPath id="clip-path-2">
      <path id="Path_241" data-name="Path 241" d="M203.92,206.92v.153a.13.13,0,0,0,.083.111.475.475,0,0,0,.389,0v-.153a.475.475,0,0,1-.389,0A.13.13,0,0,1,203.92,206.92Z" transform="translate(-203.92 -206.92)"/>
    </clipPath>
  </defs>
  <g id="secured_storage_illustration" data-name="secured storage illustration" transform="translate(-161.4 -179.8)">
    <g id="Group_139" data-name="Group 139" transform="translate(161.4 227.131)">
      <g id="Group_138" data-name="Group 138">
        <g id="Group_135" data-name="Group 135">
          <g id="Group_134" data-name="Group 134">
            <g id="Group_129" data-name="Group 129" transform="translate(0 18.397)">
              <g id="Group_128" data-name="Group 128">
                <path id="Path_158" data-name="Path 158" d="M183.26,281.664l-8.872-5.159-4.505-2.628-8.441-4.895L161.4,227.07l8.482,4.936.556.32,12.765,7.426Z" transform="translate(-161.4 -227.07)" fill="#bb884f"/>
              </g>
            </g>
            <g id="Group_131" data-name="Group 131" transform="translate(21.804 12.682)">
              <g id="Group_130" data-name="Group 130">
                <path id="Path_159" data-name="Path 159" d="M208.994,264.872l-13.683,7.9-4.533,2.614-13.641,7.885-.056-41.912,13.7-7.912,4.533-2.614,13.628-7.871Z" transform="translate(-177.08 -222.96)" fill="#e0b477"/>
              </g>
            </g>
            <g id="Group_133" data-name="Group 133">
              <g id="Group_132" data-name="Group 132">
                <path id="Path_160" data-name="Path 160" d="M215.062,226.522l-13.628,7.871-4.533,2.614-13.7,7.912-21.8-12.682,13.628-7.871,4.519-2.614,13.7-7.912Z" transform="translate(-161.4 -213.84)" fill="#efcd90"/>
              </g>
            </g>
          </g>
        </g>
        <g id="Group_136" data-name="Group 136" transform="translate(9.025 5.256)" opacity="0.6">
          <path id="Path_161" data-name="Path 161" d="M199.748,217.62l4.519,2.614-31.858,18.4L167.89,236Z" transform="translate(-167.89 -217.62)" fill="#f7ecea"/>
        </g>
        <path id="Path_162" data-name="Path 162" d="M172.4,233.468v41.87l-4.505-2.614V230.84l.57.334Z" transform="translate(-158.865 -207.2)" fill="#c2ab9d" opacity="0.6"/>
        <g id="Group_137" data-name="Group 137" transform="translate(8.482 4.937)">
          <path id="Path_163" data-name="Path 163" d="M199.358,217.39l4.505,2.628L172.019,238.4l-4.519-2.614Z" transform="translate(-167.5 -217.39)" fill="#f7ecea"/>
        </g>
        <path id="Path_164" data-name="Path 164" d="M172.005,233.234v41.884L167.5,272.49V230.62l.556.32Z" transform="translate(-159.018 -207.286)" fill="#c2ab9d"/>
      </g>
    </g>
    <g id="Group_149" data-name="Group 149" transform="translate(203.685 238.784)">
      <g id="Group_148" data-name="Group 148">
        <g id="Group_145" data-name="Group 145">
          <g id="Group_144" data-name="Group 144">
            <g id="Group_140" data-name="Group 140" transform="translate(22.388 12.918)">
              <path id="Path_165" data-name="Path 165" d="M207.91,269.862l6.23-3.615,3.17-1.85,5.924-3.435.042-29.452-5.966,3.463-.4.236-8.969,5.215Z" transform="translate(-207.91 -231.51)" fill="#e0b477"/>
            </g>
            <g id="Group_141" data-name="Group 141" transform="translate(0 8.9)">
              <path id="Path_166" data-name="Path 166" d="M191.81,258.072l9.609,5.548,3.184,1.836,9.595,5.534.028-29.438L204.6,235.99l-3.184-1.836-9.567-5.534Z" transform="translate(-191.81 -228.62)" fill="#bb884f"/>
            </g>
            <g id="Group_143" data-name="Group 143" transform="translate(0.042)">
              <g id="Group_142" data-name="Group 142">
                <path id="Path_167" data-name="Path 167" d="M191.84,231.12l9.567,5.534,3.184,1.836,9.623,5.562,15.338-8.914-9.581-5.534-3.184-1.836-9.623-5.548Z" transform="translate(-191.84 -222.22)" fill="#efcd90"/>
              </g>
            </g>
          </g>
        </g>
        <g id="Group_146" data-name="Group 146" transform="translate(5.84 3.685)" opacity="0.6">
          <path id="Path_168" data-name="Path 168" d="M199.18,224.87l-3.17,1.836L218.4,239.638l3.171-1.849Z" transform="translate(-196.01 -224.87)" fill="#f7ecea"/>
        </g>
        <path id="Path_169" data-name="Path 169" d="M212.11,236.009v29.424l3.17-1.849V234.16l-.4.236Z" transform="translate(-183.881 -217.557)" fill="#c2ab9d" opacity="0.6"/>
        <g id="Group_147" data-name="Group 147" transform="translate(6.23 3.463)">
          <path id="Path_170" data-name="Path 170" d="M199.461,224.71l-3.171,1.836,22.388,12.932,3.171-1.849Z" transform="translate(-196.29 -224.71)" fill="#f7ecea"/>
        </g>
        <path id="Path_171" data-name="Path 171" d="M212.39,235.849v29.424l3.17-1.849V234l-.4.236Z" transform="translate(-183.772 -217.619)" fill="#c2ab9d"/>
      </g>
    </g>
    <g id="Group_157" data-name="Group 157" transform="translate(173.929 215.786)">
      <g id="Group_155" data-name="Group 155">
        <g id="Group_154" data-name="Group 154">
          <g id="Group_150" data-name="Group 150" transform="translate(16.214 9.428)">
            <path id="Path_172" data-name="Path 172" d="M198.062,212.46l-.083,16.3-15.908,9.192.083-16.284Z" transform="translate(-182.07 -212.46)" fill="#e0b477"/>
          </g>
          <g id="Group_151" data-name="Group 151" transform="translate(0 9.206)">
            <path id="Path_173" data-name="Path 173" d="M186.707,221.728l-.083,16.284L170.41,228.6l.083-16.3Z" transform="translate(-170.41 -212.3)" fill="#bb884f"/>
          </g>
          <g id="Group_153" data-name="Group 153" transform="translate(0.083)">
            <g id="Group_152" data-name="Group 152">
              <path id="Path_174" data-name="Path 174" d="M202.592,215.108l-15.908,9.206-16.214-9.428,15.908-9.206Z" transform="translate(-170.47 -205.68)" fill="#efcd90"/>
            </g>
          </g>
        </g>
      </g>
      <g id="Group_156" data-name="Group 156" transform="translate(6.508 3.588)">
        <path id="Path_175" data-name="Path 175" d="M178.386,208.26l-3.3,1.905,16.214,9.414,3.3-1.905Z" transform="translate(-175.09 -208.26)" fill="#f7ecea"/>
      </g>
      <path id="Path_176" data-name="Path 176" d="M186.764,216.935l3.282-1.905v3.323l-3.3,1.891Z" transform="translate(-164.028 -202.028)" fill="#c2ab9d"/>
    </g>
    <g id="Group_173" data-name="Group 173" transform="translate(224.513 262.616)">
      <g id="Group_172" data-name="Group 172">
        <g id="Group_165" data-name="Group 165">
          <g id="Group_164" data-name="Group 164">
            <g id="Group_159" data-name="Group 159" transform="translate(0 16.534)">
              <g id="Group_158" data-name="Group 158">
                <path id="Path_177" data-name="Path 177" d="M226.439,279.8l-7.968-4.645-4.06-2.35-7.579-4.408-.042-17.146,7.62,4.436.515.292,11.472,6.675Z" transform="translate(-206.79 -251.25)" fill="#bb884f"/>
              </g>
            </g>
            <g id="Group_161" data-name="Group 161" transform="translate(19.607 11.403)">
              <g id="Group_160" data-name="Group 160">
                <path id="Path_178" data-name="Path 178" d="M249.577,264.706,237.271,271.8l-4.074,2.35-12.265,7.092-.042-17.146,12.307-7.12,4.074-2.35,12.251-7.064Z" transform="translate(-220.89 -247.56)" fill="#e0b477"/>
              </g>
            </g>
            <g id="Group_163" data-name="Group 163">
              <g id="Group_162" data-name="Group 162">
                <path id="Path_179" data-name="Path 179" d="M255.029,250.763l-12.251,7.064-4.074,2.35L226.4,267.3l-19.607-11.4,12.251-7.064,4.06-2.364,12.32-7.106Z" transform="translate(-206.79 -239.36)" fill="#efcd90"/>
              </g>
            </g>
          </g>
        </g>
        <g id="Group_168" data-name="Group 168" transform="translate(11.709 7.44)" opacity="0.5">
          <g id="Group_167" data-name="Group 167">
            <g id="Group_166" data-name="Group 166">
              <path id="Path_180" data-name="Path 180" d="M238.947,256.071l-4.074,2.35L215.21,247.06l4.06-2.35Z" transform="translate(-215.21 -244.71)" fill="#e4cdbf"/>
            </g>
          </g>
        </g>
        <path id="Path_181" data-name="Path 181" d="M233.424,252.88v17.174l-4.074,2.35V255.23Z" transform="translate(-197.979 -234.08)" fill="#e4cdbf" opacity="0.5"/>
        <path id="Path_182" data-name="Path 182" d="M233.814,252.65v17.174l-4.074,2.35V255Z" transform="translate(-197.826 -234.169)" fill="#c2ab9d"/>
        <g id="Group_169" data-name="Group 169" transform="translate(12.251 7.106)">
          <path id="Path_183" data-name="Path 183" d="M239.337,255.831l-4.074,2.35L215.6,246.834l4.06-2.364Z" transform="translate(-215.6 -244.47)" fill="#f7ecea"/>
        </g>
        <g id="Group_170" data-name="Group 170" transform="translate(8.121 4.714)" opacity="0.6">
          <path id="Path_184" data-name="Path 184" d="M241.262,242.75l4.06,2.364L216.69,261.648l-4.06-2.364Z" transform="translate(-212.63 -242.75)" fill="#f7ecea"/>
        </g>
        <path id="Path_185" data-name="Path 185" d="M216.677,257v17.1l-4.047-2.35V254.64l.5.292Z" transform="translate(-204.509 -233.392)" fill="#c2ab9d" opacity="0.6"/>
        <g id="Group_171" data-name="Group 171" transform="translate(7.62 4.436)">
          <path id="Path_186" data-name="Path 186" d="M240.916,242.55l4.047,2.364L216.33,261.448l-4.06-2.364Z" transform="translate(-212.27 -242.55)" fill="#f7ecea"/>
        </g>
        <path id="Path_187" data-name="Path 187" d="M216.33,256.8v17.1l-4.06-2.35V254.44l.514.292Z" transform="translate(-204.65 -233.47)" fill="#c2ab9d"/>
      </g>
    </g>
    <g id="Group_181" data-name="Group 181" transform="translate(235.778 252.426)">
      <g id="Group_179" data-name="Group 179">
        <g id="Group_178" data-name="Group 178">
          <g id="Group_174" data-name="Group 174" transform="translate(14.573 8.469)">
            <path id="Path_188" data-name="Path 188" d="M239.748,238.12l-.07,14.643-14.309,8.274.083-14.643Z" transform="translate(-225.37 -238.12)" fill="#e0b477"/>
          </g>
          <g id="Group_175" data-name="Group 175" transform="translate(0 8.274)">
            <path id="Path_189" data-name="Path 189" d="M229.547,246.449l-.083,14.643-14.573-8.469.07-14.643Z" transform="translate(-214.89 -237.98)" fill="#bb884f"/>
          </g>
          <g id="Group_177" data-name="Group 177" transform="translate(0.07)">
            <g id="Group_176" data-name="Group 176">
              <path id="Path_190" data-name="Path 190" d="M243.822,240.5l-14.3,8.274L214.94,240.3l14.309-8.274Z" transform="translate(-214.94 -232.03)" fill="#efcd90"/>
            </g>
          </g>
        </g>
      </g>
      <g id="Group_180" data-name="Group 180" transform="translate(5.854 3.212)">
        <path id="Path_191" data-name="Path 191" d="M222.062,234.34l-2.962,1.71,14.573,8.469,2.962-1.71Z" transform="translate(-219.1 -234.34)" fill="#f7ecea"/>
      </g>
      <path id="Path_192" data-name="Path 192" d="M229.594,242.14l2.948-1.71v2.99l-2.962,1.7Z" transform="translate(-209.153 -228.749)" fill="#c2ab9d"/>
    </g>
    <g id="Group_195" data-name="Group 195" transform="translate(179.644 265.801)">
      <g id="Group_190" data-name="Group 190">
        <g id="Group_188" data-name="Group 188">
          <g id="Group_187" data-name="Group 187">
            <g id="Group_182" data-name="Group 182" transform="translate(32.525 18.926)">
              <path id="Path_193" data-name="Path 193" d="M225.513,255.26l-.069,24.085L197.91,295.336l.07-24.071Z" transform="translate(-197.91 -255.26)" fill="#c5975b"/>
            </g>
            <g id="Group_184" data-name="Group 184" transform="translate(0 16.005)">
              <g id="Group_183" data-name="Group 183">
                <path id="Path_194" data-name="Path 194" d="M207.115,272.086l-.07,24.071L174.52,277.231l.056-24.071Z" transform="translate(-174.52 -253.16)" fill="#daaf6a"/>
              </g>
            </g>
            <g id="Group_186" data-name="Group 186" transform="translate(0.056)">
              <g id="Group_185" data-name="Group 185">
                <path id="Path_195" data-name="Path 195" d="M234.632,260.576,207.1,276.581,174.56,257.655l27.547-16.005Z" transform="translate(-174.56 -241.65)" fill="#efd996"/>
              </g>
            </g>
          </g>
        </g>
        <g id="Group_189" data-name="Group 189" transform="translate(11.18 6.23)">
          <path id="Path_196" data-name="Path 196" d="M188.261,246.13l-5.7,3.31L215.1,268.365l5.687-3.31Z" transform="translate(-182.56 -246.13)" fill="#f7ecea"/>
        </g>
        <path id="Path_197" data-name="Path 197" d="M205.97,263.049l5.673-3.31V265.5l-5.673,3.282Z" transform="translate(-162.237 -234.585)" fill="#c2ab9d"/>
      </g>
      <g id="Group_192" data-name="Group 192" transform="translate(51.451 35.785)">
        <g id="Group_191" data-name="Group 191" transform="translate(1.446 1.843)">
          <path id="Path_198" data-name="Path 198" d="M216.857,271.58v.556l-4.3,2.489v-.57Z" transform="translate(-212.56 -267.589)" fill="#5c4123"/>
          <path id="Path_199" data-name="Path 199" d="M215.333,272.854l-.487.278V270.1l-.487.278.723-1.669.723.834-.473.278Z" transform="translate(-211.857 -268.71)" fill="#5c4123"/>
          <path id="Path_200" data-name="Path 200" d="M213.769,273.744l-.487.278V271l-.473.278.723-1.683.723.834-.487.278Z" transform="translate(-212.462 -268.362)" fill="#5c4123"/>
        </g>
        <path id="Path_201" data-name="Path 201" d="M211.52,276.612v-4.227a3.091,3.091,0,0,1,1.474-2.336l4.227-2.434c.82-.473,1.474-.195,1.474.626v4.227a3.091,3.091,0,0,1-1.474,2.336l-4.227,2.434C212.187,277.71,211.52,277.432,211.52,276.612Zm1.488-6.258a2.444,2.444,0,0,0-1.182,1.863v4.227c0,.654.528.876,1.182.5l4.227-2.434a2.444,2.444,0,0,0,1.182-1.863v-4.227c0-.654-.528-.876-1.182-.5Z" transform="translate(-211.52 -267.384)" fill="#5c4123"/>
      </g>
      <g id="Group_193" data-name="Group 193" transform="translate(43.149 40.583)">
        <path id="Path_202" data-name="Path 202" d="M206.178,276.612c.014-.014.028-.028.028-.042,0-.1.362-.4.876-.709s.876-.4.876-.32c0,.014.014.014.028.014s.028-.028.028-.042c0-.083.292-.348.737-.612v2.336l.014.278c.056.278.306.32.612.153a1.258,1.258,0,0,0,.626-.96c0-.083-.056-.111-.139-.07a.287.287,0,0,0-.139.236.678.678,0,0,1-.348.5c-.375.209-.334-.236-.334-.236v-2.378c.445-.236.737-.32.737-.236,0,.014.014.014.028.014s.028-.028.028-.042c0-.1.362-.4.876-.709s.876-.4.876-.32c0,.014.014.014.028.014s.028-.028.028-.042c-.042-1.043-1.168-1.46-2.545-.765h0c0-.069-.1-.083-.195-.014s-.209.181-.209.25h0a5.7,5.7,0,0,0-2.545,3.7C206.164,276.612,206.164,276.625,206.178,276.612Z" transform="translate(-205.316 -270.249)" fill="#5c4123"/>
        <path id="Path_203" data-name="Path 203" d="M205.55,280.062v-4.227a3.091,3.091,0,0,1,1.474-2.336l4.227-2.434c.82-.473,1.474-.195,1.474.626v4.227a3.091,3.091,0,0,1-1.474,2.336l-4.227,2.433C206.2,281.16,205.55,280.882,205.55,280.062Zm1.474-6.244a2.444,2.444,0,0,0-1.182,1.863v4.227c0,.654.528.876,1.182.5l4.227-2.434a2.444,2.444,0,0,0,1.182-1.863v-4.227c0-.654-.528-.876-1.182-.5Z" transform="translate(-205.55 -270.834)" fill="#5c4123"/>
      </g>
      <g id="Group_194" data-name="Group 194" transform="translate(34.834 45.394)">
        <path id="Path_204" data-name="Path 204" d="M201.34,278.437c.014.654.459.946,1.029.667v2.086l-.723.417v.264l1.627-.946v-.264l-.723.417v-2.086a2.5,2.5,0,0,0,1.029-1.849V275.6l-2.239,1.293Z" transform="translate(-198.879 -273.784)" fill="#5c4123"/>
        <path id="Path_205" data-name="Path 205" d="M199.57,283.522v-4.227a3.091,3.091,0,0,1,1.474-2.336l4.227-2.433c.82-.473,1.474-.195,1.474.626v4.227a3.091,3.091,0,0,1-1.474,2.336l-4.227,2.433C200.224,284.606,199.57,284.328,199.57,283.522Zm1.474-6.258a2.444,2.444,0,0,0-1.182,1.863v4.227c0,.654.528.876,1.182.5l4.227-2.434a2.444,2.444,0,0,0,1.182-1.863v-4.227c0-.654-.528-.876-1.182-.5Z" transform="translate(-199.57 -274.294)" fill="#5c4123"/>
      </g>
    </g>
    <ellipse id="Ellipse_6" data-name="Ellipse 6" cx="18.564" cy="8.204" rx="18.564" ry="8.204" transform="translate(194.786 277.747)" fill="#abb7b9" opacity="0.5"/>
    <g id="Group_214" data-name="Group 214" transform="translate(197.29 179.8)">
      <path id="Path_206" data-name="Path 206" d="M200.778,192.336a4.126,4.126,0,0,1,4.033,2.364c2.128,4.923,2.586,6.675,4.255,9.762l11.1,3.824h-1.071v3.351l-9.414-1.182c0,.223,0,.417-.014.612-2.475.056-4.909-1.836-6.313-3.727a17.543,17.543,0,0,1-2.114-4.088c-1.224-3.8-2.183-7.5-2.364-8.441C198.567,193.073,198.317,193.309,200.778,192.336Z" transform="translate(-182.73 -174.927)" fill="#c1cdeb"/>
      <path id="Path_207" data-name="Path 207" d="M204.644,195.951a7.837,7.837,0,0,0-1.446-3.031,3.482,3.482,0,0,0-2.42-.584c-2.475.973-2.211.723-1.891,2.461.181.946,1.14,4.658,2.364,8.441a17.029,17.029,0,0,0,2.114,4.088,10.9,10.9,0,0,0,1.446,1.585C206.187,204.781,205.589,200.3,204.644,195.951Z" transform="translate(-182.73 -174.926)" fill="#ccd8f5" opacity="0.3"/>
      <path id="Path_208" data-name="Path 208" d="M219.545,208.287l-11.1-3.824c-1.669-3.087-2.141-4.825-4.255-9.762A4.249,4.249,0,0,0,200.3,192.3c4.811,2.559,5.423,9.15,6.341,14.114a2.474,2.474,0,0,1,2.35-.264c2.99,1.5,6.077,3.17,9.5,2.906v-.765h1.057Z" transform="translate(-182.099 -174.928)" fill="#ccd8f5" opacity="0.3"/>
      <path id="Path_209" data-name="Path 209" d="M190.367,252.928a1.773,1.773,0,0,0-.028,1.043,7.819,7.819,0,0,1-.473,2.5,9.338,9.338,0,0,0-.334,2.628,5.986,5.986,0,0,0,1.5,3.574,3.8,3.8,0,0,0,1.613,1.112,2.315,2.315,0,0,0,1.919-.181,2.58,2.58,0,0,0,1.029-1.585,7.5,7.5,0,0,0,.125-1.683V260.1a21.4,21.4,0,0,1-.014-3.532c.111-.834.431-1.641.515-2.489a2.039,2.039,0,0,0-.125-1,1.321,1.321,0,0,0-.139-.236,2.892,2.892,0,0,0-.375-.445,5.316,5.316,0,0,0-.918-.848c-.139-.1-1.71-.876-1.7-.932a2.555,2.555,0,0,1-1.432,1.6,5.762,5.762,0,0,0-.848.362A.951.951,0,0,0,190.367,252.928Z" transform="translate(-186.308 -152.14)"/>
      <path id="Path_210" data-name="Path 210" d="M190.367,252.452a1.773,1.773,0,0,0-.028,1.043,7.82,7.82,0,0,1-.473,2.5,9.337,9.337,0,0,0-.334,2.628,5.986,5.986,0,0,0,1.5,3.574,3.8,3.8,0,0,0,1.613,1.112,2.315,2.315,0,0,0,1.919-.181,2.58,2.58,0,0,0,1.029-1.585,7.5,7.5,0,0,0,.125-1.683v-.236a21.564,21.564,0,0,1-.014-3.546c.111-.834.431-1.641.515-2.489a2.019,2.019,0,0,0-.125-1,1.319,1.319,0,0,0-.139-.236,2.89,2.89,0,0,0-.375-.445,5.315,5.315,0,0,0-.918-.848c-.139-.1-1.71-.876-1.7-.932a2.555,2.555,0,0,1-1.432,1.6,5.762,5.762,0,0,0-.848.362A1.113,1.113,0,0,0,190.367,252.452Z" transform="translate(-186.308 -152.332)" fill="#171716"/>
      <path id="Path_211" data-name="Path 211" d="M202.343,248.505s-3.727-1.655-4.1,3.268c-.1,1.279,1.5,1.78,2.225,1.863a1.826,1.826,0,0,1,1.224.348,5.958,5.958,0,0,1,.9,1.1c1.71,1.988,5.1,1.988,6.132,1.126,1.474-1.238-.876-3.1-3.157-4.867A23.389,23.389,0,0,1,202.343,248.505Z" transform="translate(-182.905 -153.071)"/>
      <g id="Group_196" data-name="Group 196" transform="translate(15.346 94.43)">
        <path id="Path_212" data-name="Path 212" d="M202.353,247.975s-3.727-1.655-4.1,3.268c-.1,1.279,1.5,1.78,2.225,1.863a1.826,1.826,0,0,1,1.224.348,5.958,5.958,0,0,1,.9,1.1c1.71,1.989,5.1,1.989,6.132,1.126,1.474-1.238-.876-3.1-3.157-4.867A23.4,23.4,0,0,1,202.353,247.975Z" transform="translate(-198.247 -247.708)" fill="#171716"/>
      </g>
      <g id="Group_198" data-name="Group 198" transform="translate(1.984 52.063)">
        <path id="Path_213" data-name="Path 213" d="M204.146,219.02c-.25.6-.64,1.571-1.1,2.712-.056.139-.111.292-.181.445-.181.445-.362.9-.542,1.363-.153.375-.306.765-.459,1.154-.195.5-.4,1.015-.584,1.516a36.863,36.863,0,0,0-1.655,4.784c-.083,2.03-.181,6.216-.278,8.135v.014c-.014.195-.014.362-.028.515-.07,1.085-.584,5.993-.737,7.231-.973,7.662-1.14,15.839-1.5,21.929-.042.028-.111.042-.167.07-.125.042-.264.083-.431.125a4.574,4.574,0,0,1-.5.1,30.776,30.776,0,0,1-4.158.375c-.459.014-.9.014-1.279,0-.1,0-.195-.014-.292-.014-.306-.014-.57-.042-.765-.07.014-.028.028-.6.042-1.4a32.961,32.961,0,0,0-.209-4.881c-.1-.362-.153-.709-.209-1.029h.014a29.758,29.758,0,0,1-.4-3.5,54.406,54.406,0,0,1,1.126-14.726c.042-.181.083-.348.139-.515q-.042-.521-.083-1.126c-.389-5.2-1.224-20.845-.862-24.975l.987,1.349.111.236h.236l2.1.056v.014l1.738.028,3.629.1.028-.042Z" transform="translate(-188.638 -217.24)" fill="#41ba03"/>
        <path id="Path_214" data-name="Path 214" d="M191.63,237.8c-.709-.306-1.418-.612-2.1-.973.042-.181.083-.348.139-.515q-.042-.521-.083-1.126a10.709,10.709,0,0,1,3.421.292c-.375.209-2.267.765-2.628.417A5.537,5.537,0,0,1,191.63,237.8Z" transform="translate(-188.289 -210.251)" fill="#090909" opacity="0.3"/>
        <path id="Path_215" data-name="Path 215" d="M198.827,223.228c-.292.987-.292,6.2-.445,7.217-.348,2.461-.348,4.964-.542,7.453-.417,5.4-1.71,10.707-1.822,16.1a28.179,28.179,0,0,1-.445,6.591c-.556,2.128-2.044,4.2-4.186,4.7-.681.167-1.4.153-2.086.348-.014.807-.028,1.377-.042,1.4.195.028.459.056.765.07.1,0,.195.014.292.014.375.014.82.014,1.279,0a28.852,28.852,0,0,0,4.158-.375c.181-.028.348-.07.5-.1s.306-.083.431-.125c.056-.028.111-.042.167-.07.362-6.091.528-14.267,1.5-21.929.153-1.238.667-6.146.737-7.231.014-.139.014-.32.028-.514v-.014c.1-1.919.181-6.091.278-8.135a3.942,3.942,0,0,1,.222-.848c-.042-.111-.375-4.45-.389-4.589h-.4Z" transform="translate(-188.395 -214.912)" fill="#090909" opacity="0.3"/>
        <g id="Group_197" data-name="Group 197" transform="translate(7.275 2.934)">
          <path id="Path_216" data-name="Path 216" d="M206.432,224.843c-.014-.32-.028-.626-.042-.932-.083-1.724-.167-3.282-.25-4.561h-9.72c.014.612.014,1.307.028,2.058v.417c0,.709.014,1.46.028,2.253.014,1.321.042,2.767.07,4.283s.07,3.059.111,4.658c0,.25.014.487.028.737h0c.056,1.947.125,3.935.223,5.882.389,8.385.07,22.04,1.544,22.958,1.321.834,6.188.292,7.342-.362.195-.111.32-1.112.375-2.628.181-4.561-.139-13.836-.236-18.258C205.862,237.747,206.571,227.916,206.432,224.843Z" transform="translate(-192.873 -219.35)" fill="#41ba03"/>
          <path id="Path_217" data-name="Path 217" d="M204.475,258.916a3.687,3.687,0,0,1-1.961.779,2.534,2.534,0,0,1-1.78-.973c-1.279-1.446-1.544-3.518-1.613-5.437a39.468,39.468,0,0,1,.111-4.8,4.32,4.32,0,0,1,1.224-3.157.773.773,0,0,0,.292-.306c.139-.334-.236-.612-.528-.834a4.326,4.326,0,0,1-1.307-2.656,45.246,45.246,0,0,1-.473-4.561c-.042-.542-.306-3.476-.737-6.271-.153-.306-1.071-7.05-1.21-7.37-.264-.584.209,5.284-.07,4.7.111,1.836.264,4.019.264,4.172h0c.056,1.947.125,3.935.222,5.882.389,8.385.07,22.041,1.544,22.958,1.321.834,6.188.292,7.342-.362.195-.111.32-1.112.375-2.628A9.277,9.277,0,0,0,204.475,258.916Z" transform="translate(-192.877 -217.811)" fill="#1a1c1f" opacity="0.3"/>
          <path id="Path_218" data-name="Path 218" d="M196.526,223.734a3.126,3.126,0,0,0-1.557.125,5.816,5.816,0,0,0,1.836.125,2.439,2.439,0,0,0,.82-.195,5.225,5.225,0,0,0,.932-.667,4.429,4.429,0,0,1,2.267-.89,8.411,8.411,0,0,0-2.281,1.418c.946.028,1.891.042,2.851.07a1,1,0,0,1,.793.278,14.774,14.774,0,0,1-4.241.654c-.487.042-.779-1.238-1.182-1.544a8.9,8.9,0,0,0-2.892-1.1C193.815,222.511,195.817,223.387,196.526,223.734Z" transform="translate(-193.869 -218.311)" fill="#1a1c1f" opacity="0.4"/>
        </g>
      </g>
      <path id="Path_219" data-name="Path 219" d="M209.62,230.67s-20.066,3.282-20.2,1c-.028-.459-.056-.918-.07-1.349,0-.125-.014-.236-.014-.362a72.388,72.388,0,0,1,.5-9.178c.083-.946.167-1.947.222-3.018.028-.473.056-.973.07-1.488a24.878,24.878,0,0,0-.64-6.925c-.139-.584-.278-1.126-.417-1.683-.014-.056-.028-.111-.042-.153-.139-.515-.278-1.015-.417-1.53-.014-.042-.014-.07-.028-.111-.056-.209-.111-.431-.167-.64-.028-.139-.07-.278-.1-.417-.153-.667-.292-1.349-.389-2.072-.014-.083-.028-.181-.042-.264a21.149,21.149,0,0,1-.264-3.365,5.3,5.3,0,0,1,.681-2.684,3.361,3.361,0,0,1,1.4-.876c.292-.139.7-.32,1.154-.515.751-.334,1.641-.723,2.42-1.057.042-.014.1-.042.139-.056.195-.083.375-.153.556-.222.334-.139.64-.236.862-.306.028-.014.056-.014.07-.028.25-.07,2.781-.779,3.31-.862.334-.056.667-.111.987-.181.584-.111,1.14-.25,1.71-.32a1.89,1.89,0,0,1,.278-.028h.014l.278-.014h.626a1.879,1.879,0,0,1,.278.028h0c.278.028.793.07,1.391.167h.014a5.556,5.556,0,0,1,3.059,1.293c.946,1.043,1.349,2.976,1.516,4.825h0c.056.667.1,1.335.111,1.947.028,1.071.014,1.975.014,2.5v.125c0,.167.014.348.014.528,0,.9-.056,2.03-.125,3.337-.07,1.363-.153,2.906-.181,4.547a53.434,53.434,0,0,0-.042,6.341c.014.125.028.236.042.362.056.5.181,1.377.334,2.461C209.05,224.148,209.62,230.364,209.62,230.67Z" transform="translate(-187.053 -175.047)" fill="#ccd8f5"/>
      <g id="Group_199" data-name="Group 199" transform="translate(13.849 16.909)">
        <path id="Path_220" data-name="Path 220" d="M203.191,206.422c-.32,1.418-2.392.153-3.393-.306.306-8.941-1.557-12.7-2.628-14.114a1.885,1.885,0,0,1,.278-.028h.014l.278-.014h.626a1.878,1.878,0,0,1,.278.028h0c.278.028.793.07,1.391.167C202.287,196.312,203.441,205.337,203.191,206.422Z" transform="translate(-197.17 -191.96)" fill="#41ba03"/>
      </g>
      <path id="Path_221" data-name="Path 221" d="M209.143,228.607s-20.2,3.407-20.2.654c0-.459-.056-.918-.07-1.349,0-.125-.014-.236-.014-.362a72.388,72.388,0,0,1,.5-9.178c.056-.7.125-1.4.167-2.155l.348-.042a8.3,8.3,0,0,0,1.5-.223,4.093,4.093,0,0,0,2.253-2.8c.111-.445.195-.876.264-1.321.64-3.907-.014-7.843,1.446-11.486A2.472,2.472,0,0,1,197.324,199c2.712-.626,6.494-1.891,8.024.723,1.627,2.8.807,6.23,1.627,9.47a4.084,4.084,0,0,0,.7,1.391c-.014.195-.014.4-.028.6a27.693,27.693,0,0,0,.042,4.019c.014.125.028.236.042.362s.028.236.056.389c.07.514.153,1.238.278,2.072A94.281,94.281,0,0,1,209.143,228.607Z" transform="translate(-186.576 -172.637)" fill="#41ba03"/>
      <path id="Path_222" data-name="Path 222" d="M207.473,212.284h-.014q-4.505,1.314-9,2.628c-2.2.64-4.7,1.252-6.661.083a6.383,6.383,0,0,1-2.211-2.489,8.3,8.3,0,0,0,1.5-.223,4.093,4.093,0,0,0,2.253-2.795c.111-.445.195-.876.264-1.321a10.422,10.422,0,0,0,2.753,1.015,11.991,11.991,0,0,0,4.756-.334c2.058-.445,4.144-1,6.23-1.349a27.7,27.7,0,0,0,.042,4.019c.014.125.028.236.042.362A2.091,2.091,0,0,0,207.473,212.284Z" transform="translate(-186.282 -168.982)" fill="#1a1c1f" opacity="0.4"/>
      <g id="Group_200" data-name="Group 200" transform="translate(8.133 15.421)">
        <path id="Path_223" data-name="Path 223" d="M195.313,195.173c-.946-.223-1.988-.64-2.058-1.238-.1-.82-.195-2.8-.195-2.8l5.729-.25s-.042,2.211-.125,2.906C198.553,194.658,196.731,195.507,195.313,195.173Z" transform="translate(-193.06 -190.89)" fill="#e0b29d"/>
      </g>
      <g id="Group_201" data-name="Group 201" transform="translate(8.133 15.421)" opacity="0.4">
        <path id="Path_224" data-name="Path 224" d="M198.692,193.476c.07-.89.1-2.586.1-2.586l-5.729.25s.014.348.042.793A7.042,7.042,0,0,0,198.692,193.476Z" transform="translate(-193.06 -190.89)" fill="#e0b29d"/>
      </g>
      <g id="Group_203" data-name="Group 203" transform="translate(2.36)">
        <g id="Group_202" data-name="Group 202">
          <path id="Path_225" data-name="Path 225" d="M200.7,195.664a3.668,3.668,0,0,1-2.7.876,7.316,7.316,0,0,1-3.755-1.238,15.133,15.133,0,0,1-3.337-4.978c-.07-.222-.125-.417-.181-.626-.793-3.518,2.35-4.658,4.631-6.758,2.406-2.225,5.729-1.975,6.424,2.2S202.8,193.675,200.7,195.664Z" transform="translate(-188.247 -179.116)" fill="#e9c2b0"/>
          <path id="Path_226" data-name="Path 226" d="M201.78,185.139c-.7-4.172-4-4.436-6.424-2.2-2.281,2.1-5.423,3.24-4.631,6.758a4.373,4.373,0,0,0,.181.626,6.012,6.012,0,0,0,.459,1.015c.862-.667,1.669-1.585,2.489-2.211.306-.181,1.488.389,1.6-.431.25-1.154.223-.793.7-1.14,1.377-1.224,2.35.6,4.269-1.627,1.975,2.962,2.753,8.927-1.724,10.026a7.3,7.3,0,0,1-3.1.056,7.262,7.262,0,0,0,2.42.528,3.708,3.708,0,0,0,2.7-.876C202.8,193.677,202.475,189.311,201.78,185.139Z" transform="translate(-188.247 -179.118)" fill="#e9c2b0" opacity="0.1"/>
          <path id="Path_227" data-name="Path 227" d="M202.413,185.682c-.222.014-.236-1.752-2.642.765-1.418,1.488-3.5-.584-4,.264-.445.751-.111,1.085.181,2.281.139.57-1.321,1.988-1.627,1.919-.528-.111.473.515.264.932-.542,1.1-.125,3.379.1,3.935a8.09,8.09,0,0,1-2.239-1.919c-.1-.125-.181-.236-.278-.362a6.279,6.279,0,0,1-1.071-1.182,13.566,13.566,0,0,1-1.7-3.045c-1.877-5.27,2.253-6.369,2.253-6.369s2.753-4.547,7.4-2.628C202.955,181.886,202.8,185.654,202.413,185.682Z" transform="translate(-188.908 -179.8)" fill="#2b0d04"/>
        </g>
        <path id="Path_228" data-name="Path 228" d="M194.705,189.968c-.473.445-1.432.181-2.141-.584s-.9-1.738-.431-2.183,1.432-.181,2.141.584S195.178,189.523,194.705,189.968Z" transform="translate(-187.75 -176.994)" fill="#e9c2b0"/>
        <path id="Path_229" data-name="Path 229" d="M193.6,188.973c-.236.181-.681.014-.973-.389s-.334-.862-.1-1.043.681-.014.973.389S193.84,188.792,193.6,188.973Z" transform="translate(-187.552 -176.806)" fill="#e9c2b0" opacity="0.2"/>
      </g>
      <g id="Group_204" data-name="Group 204" transform="translate(3.809 18.925)">
        <path id="Path_230" data-name="Path 230" d="M196.388,206.467c-.195,1.446-1.544,3.143-2.573,2.8-.514-8.4-2.586-12.807-3.866-14.8.751-.334,1.641-.723,2.42-1.057C194.97,197.039,196.527,205.341,196.388,206.467Z" transform="translate(-189.95 -193.41)" fill="#41ba03"/>
      </g>
      <path id="Path_231" data-name="Path 231" d="M201.723,211.206c-.973-1.154-.793-3.532-.445-4.3a18.691,18.691,0,0,1,2.892-.737c1.766-.306,3.81-.389,4.895.375,2.308,1.641,1.738,2.684.89,3.574C208.648,211.47,203.35,209.788,201.723,211.206Z" transform="translate(-181.826 -169.587)" fill="#bd825a"/>
      <path id="Path_232" data-name="Path 232" d="M209.737,215.349l-13.794,4.213a3.557,3.557,0,0,1-.932.069,2.012,2.012,0,0,1-1.238-.306c-1.46-.862-2.6-3-3.087-3.921-2.072-3.935-3.351-15.421-3.449-17.187s-.056-3.129,2.517-3.768a1.7,1.7,0,0,1,1.057.153h0a4.277,4.277,0,0,1,2.1,2.267,47.357,47.357,0,0,1,3.741,13.363c.083.723.125,2.072,1.822,1.78,4.269-.723,9.915-2.114,9.915-2.114l.375,1.544Z" transform="translate(-187.211 -174.091)" fill="#c1cdeb"/>
      <path id="Path_233" data-name="Path 233" d="M193.412,214.532c1.349-5.2.6-10.735-1.043-15.852a10.585,10.585,0,0,0-1.224-2.781,4.744,4.744,0,0,0-1.335-1.349,4.277,4.277,0,0,1,2.1,2.267,47.359,47.359,0,0,1,3.741,13.363c.083.723.125,2.072,1.822,1.78,4.269-.723,9.915-2.114,9.915-2.114l.375,1.544Q200.545,212.787,193.412,214.532Z" transform="translate(-186.196 -174.039)" fill="#ccd8f5" opacity="0.3"/>
      <g id="Group_213" data-name="Group 213" transform="translate(21.482 29.354)">
        <path id="Path_234" data-name="Path 234" d="M203.369,209.713l14.712-8.7a.543.543,0,0,1,.514-.056c.25.139.487.278.737.417a.506.506,0,0,0-.515.056l-.765.459a.1.1,0,0,1,.056.028h0c.125.069.292.167.431.25l.292.167a.285.285,0,0,1,.125.278l.125,9.011a1.011,1.011,0,0,1-.431.765c-.111-.07-.236-.125-.348-.195h0l.348.195-14.114,8.357c-.125.07-.236.083-.306.028-.236-.139-.487-.278-.723-.4l.014.89a.507.507,0,0,0,.223.473c-.125-.07-.25-.139-.362-.209s-.25-.139-.362-.209a.492.492,0,0,1-.222-.473l-.139-9.845A1.618,1.618,0,0,1,203.369,209.713Z" transform="translate(-202.66 -200.909)" fill="#292b34"/>
        <g id="Group_212" data-name="Group 212" transform="translate(1.753 7.913)">
          <g id="Group_211" data-name="Group 211">
            <g id="Group_206" data-name="Group 206" transform="translate(0.959 0.153)">
              <g id="Group_205" data-name="Group 205" clip-path="url(#clip-path)">
                <path id="Path_235" data-name="Path 235" d="M204.61,206.831v.153a.13.13,0,0,0,.083-.111v-.153c0,.028-.028.07-.083.111Z" transform="translate(-204.61 -206.706)" fill="#17191f"/>
              </g>
            </g>
            <g id="Group_207" data-name="Group 207" transform="translate(0.473 0.278)">
              <path id="Path_237" data-name="Path 237" d="M204.26,207.078v.153l.487-.292V206.8Z" transform="translate(-204.26 -206.8)" fill="#131419"/>
            </g>
            <g id="Group_209" data-name="Group 209" transform="translate(0 0.445)">
              <g id="Group_208" data-name="Group 208" clip-path="url(#clip-path-2)">
                <path id="Path_238" data-name="Path 238" d="M203.92,206.92v.153a.106.106,0,0,0,.028.07v-.153a.106.106,0,0,1-.028-.07Z" transform="translate(-203.92 -206.92)" fill="#17191f"/>
                <path id="Path_239" data-name="Path 239" d="M203.94,206.97v.153a.192.192,0,0,0,.056.042.235.235,0,0,0,.139.042v-.153a.235.235,0,0,1-.139-.042.192.192,0,0,1-.056-.042Z" transform="translate(-203.912 -206.9)" fill="#1d2027"/>
                <path id="Path_240" data-name="Path 240" d="M204.07,207.042v.153a.386.386,0,0,0,.25-.042V207a.356.356,0,0,1-.25.042Z" transform="translate(-203.861 -206.889)" fill="#17191f"/>
              </g>
            </g>
            <g id="Group_210" data-name="Group 210">
              <path id="Path_242" data-name="Path 242" d="M204,206.934a.116.116,0,0,0,0,.222.475.475,0,0,0,.389,0l.5-.292a.116.116,0,0,0,0-.223.475.475,0,0,0-.389,0Z" transform="translate(-203.92 -206.6)" fill="#1e2129"/>
            </g>
          </g>
        </g>
        <path id="Path_243" data-name="Path 243" d="M203.9,210.014l14.712-8.7c.4-.236.737-.056.737.4l.139,9.845a1.648,1.648,0,0,1-.709,1.265l-14.712,8.7c-.4.236-.737.056-.737-.417l-.139-9.845A1.568,1.568,0,0,1,203.9,210.014Z" transform="translate(-202.453 -200.794)" fill="#23262f"/>
        <path id="Path_244" data-name="Path 244" d="M204.02,209a1.409,1.409,0,0,1,.64-1.112c.362-.209.64-.042.64.375a1.409,1.409,0,0,1-.64,1.112A.4.4,0,0,1,204.02,209Z" transform="translate(-202.128 -198.22)" fill="#0b0b0b"/>
        <path id="Path_245" data-name="Path 245" d="M203.2,210.706l-.4-.236V209.19l.4.222Z" transform="translate(-202.605 -197.675)" fill="#0b0b0b"/>
        <path id="Path_246" data-name="Path 246" d="M203.2,211.932l-.4-.222V210.43l.4.222Z" transform="translate(-202.605 -197.191)" fill="#0b0b0b"/>
        <ellipse id="Ellipse_7" data-name="Ellipse 7" cx="0.292" cy="0.167" rx="0.292" ry="0.167" transform="translate(3.213 7.426)" fill="#0b0b0b"/>
        <path id="Path_247" data-name="Path 247" d="M205.733,205.895a.416.416,0,0,1,.4,0c.111.07.111.167,0,.236a.416.416,0,0,1-.4,0C205.622,206.062,205.622,205.95,205.733,205.895Z" transform="translate(-201.492 -198.983)" fill="#0b0b0b"/>
        <path id="Path_248" data-name="Path 248" d="M206.38,205.619l.348.209.793-.459-.362-.209Z" transform="translate(-201.207 -199.249)" fill="#0b0b0b"/>
      </g>
      <path id="Path_249" data-name="Path 249" d="M213.371,206.033c.153-.139.306-.264.4-.362-.209-.014-.459-.042-.528-.236a.357.357,0,0,1,.125-.389,1.278,1.278,0,0,1,.389-.195c.612-.195,1.321-.57,1.919-.751.654.153,1.071,1.794,1.14,2.169a2.166,2.166,0,0,1-.334,1.78c-.223.042-.445.083-.709.125-.181.028-.362.056-.528.07-.1-.042-.181-.195-.195-.209a.465.465,0,0,1,.014-.236.188.188,0,0,0-.167-.236c-.278-.042-.89.014-.834-.528.014-.07-.056-.125-.125-.139C213.4,206.853,213.357,206.436,213.371,206.033Z" transform="translate(-177.05 -170.31)" fill="#bd825a"/>
    </g>
  </g>
</svg>
