<?xml version="1.0" encoding="utf-8"?>
<!-- Generator: Adobe Illustrator 24.0.1, SVG Export Plug-In . SVG Version: 6.00 Build 0)  -->
<svg version="1.1" id="Layer_1" xmlns="http://www.w3.org/2000/svg" xmlns:xlink="http://www.w3.org/1999/xlink" x="0px" y="0px"
	 viewBox="0 0 657.2 381" style="enable-background:new 0 0 657.2 381;" xml:space="preserve">
<style type="text/css">
	.st0{opacity:0.5;fill:#41BA03;enable-background:new    ;}
	.st1{opacity:0.8;fill:#0F7DC7;enable-background:new    ;}
	.st2{fill:#0F6BC7;}
	.st3{fill:#0F5AC7;}
	.st4{fill:#0F6BFF;}
	.st5{fill:#FFFFFF;}
	.st6{fill:#2A292D;}
	.st7{fill:#E9E9E9;}
	.st8{fill:#0F64C7;}
	.st9{fill:#EFCF60;}
	.st10{fill:#EBB737;}
	.st11{fill:#F8E8BB;}
	.st12{fill:#E7EDED;}
	.st13{fill:#FDFFFF;}
	.st14{opacity:0.28;fill:#C2C2C2;enable-background:new    ;}
	.st15{fill:#41BA03;}
	.st16{clip-path:url(#SVGID_2_);}
	.st17{fill:none;stroke:#2A292D;stroke-width:1.328;stroke-linecap:round;stroke-linejoin:round;stroke-miterlimit:10;}
	.st18{fill:#419F03;}
</style>
<g id="service_boxes" transform="translate(-43.567 -83.686)">
	<g id="Group_1106" transform="translate(33.699 83.686)">
		<g id="Group_1105" transform="translate(0 0)">
			<path class="st0" d="M634,230.2c-86.7-84,49-99.2,29-156C643.2,17.9,402.1-1.2,338.5,0.1C274.9-1.2,33.7,17.9,13.9,74.1
				c-20,56.8,115.7,72,29,156s43.3,146.6,43.3,146.6h250.3h3.9h250.3C590.7,376.8,720.7,314.2,634,230.2z"/>
			<path id="Path_2137" class="st1" d="M44.6,376.8h587.6c3.4,0,4.2,0.9,4.2,2.1l0,0c0,1.1-0.7,2.1-4.2,2.1H44.6
				c-3.4,0-4.2-0.9-4.2-2.1l0,0C40.4,377.7,41.2,376.8,44.6,376.8z"/>
			<g id="Group_1104" transform="translate(141.257 66.6)">
				<g id="Group_1103_1_" transform="translate(183.2 174.9)">
					<g id="Group_1102_1_">
						<g id="Group_1101_1_">
							<path id="Rectangle_217_1_" class="st2" d="M0,0l43.3,4v131.3H0V0z"/>
							<path id="Rectangle_217_2_" class="st2" d="M167.7,0L211,4v131.3h-43.3V0z"/>
							<path id="Rectangle_218_1_" class="st3" d="M17,1.5l3.5,0.4v133.4H17V1.5z"/>
						</g>
						<path id="Rectangle_219_1_" class="st3" d="M13.4,1.1l30.8,1v133.2H13.4V1.1z"/>
					</g>
					<g id="Group_1100_1_" transform="translate(42.859 4)">
						<rect id="Rectangle_214_1_" x="0" y="0" class="st4" width="168.2" height="131.3"/>
					</g>
					<path id="Path_2177" class="st3" d="M167.7,0H0l42.8,5L211,4.6L167.7,0z"/>
					<g id="Group_1099" transform="translate(166.091 55.775)">
						<path id="Path_2171" class="st5" d="M25.1,14.1l-1.9,5.1L5.5,27.4L0,9.6L20.7,0L25.1,14.1z"/>
						<g id="Group_1098" transform="translate(3.402 4.487)">
							<path id="Path_2175" class="st6" d="M0,7.4L16,0l0.5,1.7l-16,7.4L0,7.4z"/>
							<path id="Path_2176" class="st6" d="M1.4,12l6.8-3.2l0.5,1.7l-6.8,3.2L1.4,12z"/>
						</g>
						<path id="Path_2172" class="st7" d="M25.1,14.1l-3.4,0.8l1.5,4.3L25.1,14.1z"/>
					</g>
				</g>
				<g id="Group_1103_2_" transform="translate(0 174.025)">
					<g id="Group_1102_2_" transform="translate(0 0.875)">
						<g id="Group_1101_2_">
							<path id="Rectangle_217_4_" class="st2" d="M0,0l43.3,4v131.3H0V0z"/>
							<path id="Rectangle_217_3_" class="st2" d="M167.7,0L211,4v131.3h-43.3V0z"/>
							<path id="Rectangle_218_2_" class="st3" d="M17,1.5l3.5,0.4v133.4H17V1.5z"/>
						</g>
						<rect id="Rectangle_219_2_" x="13.4" y="122.1" class="st3" width="10.8" height="13.2"/>
					</g>
					<g id="Group_1100_2_" transform="translate(42.859 4.875)">
						<rect id="Rectangle_214_2_" x="0" y="0" class="st4" width="168.2" height="131.3"/>
					</g>
					<path id="Path_2178" class="st8" d="M167.8,0L0,0.9l42.8,5L211.1,5L167.8,0z"/>
				</g>
				<g id="Group_1097" transform="translate(100.118)">
					<g id="Group_1075" transform="translate(109.269)">
						<path id="Path_2138" class="st9" d="M55.5,16.2c-1.1-1.1-2.5-1.9-4.1-2.3c-1.2-0.3-2.5-0.4-3.8-0.3c0.2-0.7,0.3-1.4,0.4-2.1
							l1,0.2l0.5-1.8L12.6,0.6l-0.5,1.8l1,0.2c-0.1,0.3-0.3,1-0.7,2c-1-0.7-2.2-1.2-3.4-1.5C7.4,2.7,5.8,2.7,4.3,3.2
							c-1.7,0.6-3,1.9-3.6,3.5c-1.4,3.5-0.5,9,2.3,13.5c2.2,3.2,4.9,6,8,8.3c2.4,6.3,7.2,10.7,6.5,14.6c-0.9,4.9-3.5,6.4-2.8,7.3
							s-0.8,3-0.8,3c-0.4,1.3-1.2,2.4-2.3,3.2c-1.7,1-1.6,1.9-1.3,3c0.2,0.9-0.8,1.8-1.3,2.2l13.5,3.4c-0.2-0.6-0.6-1.9,0-2.6
							c0.8-0.9,1.3-1.6,0.3-3.3c-0.6-1.2-0.7-2.5-0.4-3.8c0,0-0.2-2.6,0.8-3c1.1-0.5-0.5-3,1.1-7.7c1.3-3.8,7.7-5.3,12.9-9.7
							c3.9-0.6,7.6-1.8,11.1-3.5c4.6-2.6,8.2-6.9,8.7-10.7C57.2,19.2,56.6,17.5,55.5,16.2z M5.5,18.9c-2.3-3.8-3.2-8.3-2.1-11.1
							c0.3-0.9,0.9-1.6,1.8-1.9c1-0.3,2.2-0.3,3.2,0c1,0.3,2,0.7,2.9,1.3c-0.1,1-0.2,2.1-0.2,3.1c-1.1,4.3-1.5,8.8-1.2,13.2V24
							C8.2,22.5,6.7,20.8,5.5,18.9z M46.8,29.3c-2,1-4.1,1.8-6.3,2.4c0.1-0.1,0.2-0.3,0.3-0.4c2.4-3.8,4.3-7.9,5.5-12.2
							c0.5-0.9,1-1.8,1.4-2.8c1.1-0.1,2.1,0,3.2,0.2c1,0.2,2,0.8,2.7,1.5c0.6,0.7,0.8,1.6,0.6,2.5C53.7,23.6,50.7,27.2,46.8,29.3z"
							/>
						<path id="Path_2139" class="st10" d="M55.5,16.2c-1.1-1.1-2.5-1.9-4.1-2.3c-1.2-0.3-2.5-0.4-3.8-0.3c0.2-0.7,0.3-1.4,0.4-2.1
							l1,0.2l0.5-1.8L39.3,7.3l-0.5,1.8L13,2.6L12.6,4l25.5,6.7c-1.7,6.3-3.8,12.6-6.2,18.7c-3.4,8.4-7.3,9.3-9.1,12
							c-1.8,2.8-2.9,7.6-3.1,8.4c-0.1,0.8-0.2,1.6-0.1,2.4c0,0.6-0.6,1.7-0.8,2.7c-0.2,1-0.2,2.5-0.4,3.1s-1.5,0.9-1.7,1.9
							c-0.2,1,0.5,1.7,0.3,2.7c-0.2,0.4-0.5,0.8-0.8,1.1l5.9,1.5c-0.2-0.6-0.6-1.9,0-2.6c0.8-0.9,1.3-1.6,0.3-3.3
							c-0.6-1.2-0.7-2.5-0.4-3.8c0,0-0.2-2.6,0.8-3c1.1-0.5-0.5-3,1.1-7.7c1.3-3.8,7.7-5.3,12.9-9.7c3.9-0.6,7.6-1.8,11.1-3.5
							c4.6-2.6,8.2-6.9,8.7-10.7C57.2,19.3,56.8,17.4,55.5,16.2z M46.8,29.3c-2,1-4.1,1.8-6.3,2.4c0.1-0.1,0.2-0.3,0.3-0.4
							c2.4-3.8,4.3-7.9,5.5-12.2c0.5-0.9,1-1.8,1.4-2.8c1.1-0.1,2.1,0,3.2,0.2c1,0.2,2,0.8,2.7,1.5c0.6,0.7,0.8,1.6,0.6,2.5
							C53.7,23.6,50.7,27.2,46.8,29.3z"/>
						<path id="Path_2140" class="st10" d="M7.1,4.6c-2.3,0-4.8,1-5.1,4.6c-0.2,2.2,0.9,5.3,2.4,7.9c-1.6-3.4-2.1-6.9-1.1-9.3
							c0.3-0.9,0.9-1.6,1.8-1.9c1-0.3,2.2-0.3,3.2,0c1,0.3,2,0.7,2.9,1.3l0.3-1C10.2,5.2,8.7,4.7,7.1,4.6z"/>
						<path id="Path_2141" class="st11" d="M13.7,6.6l7.9,2c0,0-5.4,10.7-3.9,21.9C17.6,30.5,10.5,23,13.7,6.6z"/>
						<path id="Path_2142" class="st5" d="M23.1,0c0.1,1.9-1.3,3.6-3.2,4c2-0.1,3.7,1.2,4.1,3.1c-0.1-1.9,1.3-3.6,3.2-4
							C25.2,3.3,23.4,1.9,23.1,0z"/>
					</g>
					<g id="Group_1077" transform="translate(77.997 2.2)">
						<path id="Path_2174" class="st6" d="M17.1,20.8l4.5-1.7L34.1,51l-4.5,1.7L17.1,20.8z"/>
						<g id="Group_1076">
							<path id="Path_2143" class="st12" d="M1.6,7.7L0,46l50.4-18.8L22.6,0L1.6,7.7z"/>
							<path id="Path_2144" class="st13" d="M5.2,6.4l0.6,37.5l10.9-4.1L8.5,5.2L5.2,6.4z"/>
							<path id="Path_2145" class="st14" d="M20.1,0.9l20.7,29.9l9.5-3.6L22.6,0L20.1,0.9z"/>
						</g>
					</g>
					<g id="Group_1079" transform="translate(108.473 35.764)">
						<path id="Path_2146" class="st5" d="M2.9,2.3c-3.5,3.1-3.9,8.5-0.7,12.1c0,0,0,0,0,0l0.2,0.2c3.4,3.5,9,3.8,12.6,0.5
							c3.5-3.1,3.9-8.5,0.7-12.1c0,0,0,0,0,0l-0.2-0.2C12.1-0.7,6.6-0.9,2.9,2.3z"/>
						<g id="Group_1078" transform="translate(0 0.013)">
							<path id="Path_2147" class="st15" d="M12.2,6.3c-0.6-0.6-1.2-1.2-1.9-1.7c-1-0.8-1.9-1.8-2.7-2.8c-0.3-0.5-0.5-1-0.8-1.5
								C5.3,0.6,4,1.3,2.8,2.4c-1.2,1-2,2.4-2.5,3.9c0.5,0.2,0.9,0.5,1.3,0.8c1,0.8,1.9,1.8,2.7,2.8c0.5,0.7,1,1.4,1.6,2L6,12
								c1.6,1.6,4.2,1.6,5.8,0.1l0,0c1.7-1.5,1.8-4,0.4-5.6c0,0,0,0-0.1-0.1l0,0L12.2,6.3z"/>
							<path id="Path_2148" class="st15" d="M7.8,0.1l0.6,1.2c0.7,1,1.5,1.9,2.5,2.6c0.6,0.5,1.2,1.1,1.8,1.7l0,0l0.1,0.1
								c1.9,2,1.8,5.2-0.2,7.1l-0.1,0.1l0,0c-2.1,1.9-5.3,1.7-7.3-0.3l-0.1-0.1c-0.5-0.6-1-1.2-1.5-1.9C3,9.6,2.2,8.7,1.2,8
								C0.8,7.8,0.5,7.5,0.1,7.3c-0.5,2.7,0.3,5.4,2.2,7.4c3.4,3.5,9,3.8,12.6,0.5c3.5-3.1,3.9-8.5,0.7-12.1c0,0,0,0,0,0l-0.2-0.2
								C13.6,0.7,10.7-0.3,7.8,0.1z"/>
						</g>
						<path id="Path_2149" class="st14" d="M12,1.2c2.8,5.4,0.6,12-4.7,14.8c0,0,0,0-0.1,0c-0.1,0-0.2,0.1-0.3,0.1
							c-0.5,0.2-1,0.4-1.4,0.6c2.4,1,5.1,0.9,7.4-0.3c4.3-2,6.1-7.2,4-11.4c0,0,0,0,0-0.1c-1.1-2.2-3-3.9-5.4-4.6
							C11.7,0.6,11.8,0.9,12,1.2z"/>
					</g>
					<g id="Group_1080" transform="translate(138.728 14.8)">
						<path id="Path_2150" class="st5" d="M25.7,0C11.5,0,0,11.2,0,25.1s11.5,25.1,25.7,25.1S51.4,39,51.4,25.1
							C51.2,11.1,39.7-0.1,25.7,0z"/>
						<path id="Path_2151" class="st6" d="M50,24.8l-5.2,2.1l-6-8.6l-0.7-9.4L43.5,8l4.3,4.3c-0.6-1-1.3-2-2.1-2.9l-1.8-1.6L44,7.5
							c-4.3-4.2-9.8-6.8-15.8-7.4l-0.4,3.3l-9.9,4.3h-7.8l0.6-2.9c-0.3,0.3-0.7,0.5-1,0.7L9.4,8.1l-5.6,8.3l-3.1,3.1
							c-0.1,0.4-0.1,0.7-0.2,1.1l3.3-3.5l3.8,6.6L7.5,34.5L5,37.4l-2.3-1.8l0.9,1.7l0.8,0.5l-0.2,0.5c0.1,0.3,0.3,0.5,0.5,0.8v-0.6
							l6.4,7c1.7,1.2,3.6,2.2,5.6,2.9l3.7,0.6l6.3,1c1,0,1.9-0.1,2.9-0.2l-9-1.6l-1.3-6.4l9.7-5.1l10.2,1.7v6.9l-6.7,3.9
							c3.6-0.9,6.9-2.6,9.7-5l-2.3,0.7V38l4.9-10.2l5.2-2.1l1.1,3c0.2-1.2,0.3-2.5,0.3-3.7c0-2.6-0.4-5.2-1.2-7.7L50,24.8z
							 M18.5,41.2L7.9,34.7L8,23.9l8.6-5.7l10.9,5.4l0.6,12.5L18.5,41.2z M28.1,22.8l-10.8-5.3l1-9.3l9.9-4.3l9.1,4.8l0.7,9.5
							L28.1,22.8z"/>
						<path id="Path_2152" class="st14" d="M44.8,8.4c0,18.8-15.6,34-34.9,34c-1,0-1.9,0-2.9-0.1c4.9,5,11.6,7.8,18.6,7.8
							c14.2,0,25.7-11.2,25.7-25.1C51.3,18.8,49,12.8,44.8,8.4L44.8,8.4z"/>
					</g>
					<g id="Group_1087" transform="translate(47.579 15.846)">
						<g id="Group_1083" transform="translate(13.893)">
							<g id="Group_1082">
								<path id="Path_2153" class="st5" d="M7.1,3.5C6.1-0.7,2.7,0,2.7,0s-3.4,0.7-2.5,5C1,8.6,2.3,8.2,2.9,11
									c0.7,2.8-2,10.8-0.1,18.7s4.7,10.2,4.7,10.2l0.2,0.8l4.2-0.9l4.2-0.9l-0.2-0.8c0,0,1.5-3.1-0.2-11.2
									C13.9,18.9,8,12.8,7.3,10C6.7,7.3,8,7.1,7.1,3.5z"/>
								<g id="Group_1081" transform="translate(1.685 7.154)">
									<path id="Path_2154" class="st6" d="M1.4,5.6c0,0.8-0.1,1.6-0.2,2.4l6.4-1.3c-0.5-0.8-1-1.5-1.3-2.1L1.4,5.6z"/>
									<path id="Path_2155" class="st6" d="M1.1,3.4l4.4-1C5.4,1.6,5.4,0.8,5.6,0L0,1.3C0.5,1.9,0.9,2.6,1.1,3.4z"/>
								</g>
								<path id="Path_2156" class="st14" d="M7.1,3.5c-0.2-1.2-0.9-2.3-1.9-3C5.7,1.9,6.5,4.3,6.3,6C6,8.5,4.4,8.9,5.6,12.5
									c1.2,3.5,4.2,5.8,6,13.2s1.7,11.6,1.3,12.4c-0.3,0.7-3.6,1.4-5.4,1.9l0.1,0.1l0.2,0.8L12,40l4.2-0.9L16,38.3
									c0.9-3.7,0.9-7.5-0.2-11.1c-2-6.9-7.7-14.1-8.4-16.9C6.7,7.3,8,7.1,7.1,3.5z"/>
							</g>
						</g>
						<g id="Group_1086" transform="translate(0 3.6)">
							<g id="Group_1085">
								<path id="Path_2157" class="st5" d="M7.1,3.5C6.1-0.7,2.7,0,2.7,0s-3.4,0.7-2.5,5C1,8.6,2.3,8.2,2.9,11
									c0.7,2.8-2,10.8,0,18.8C4.8,37.8,7.6,40,7.6,40l0.2,0.8l4.2-0.9l4.2-0.9l-0.4-0.9c0,0,1.5-3.1-0.2-11.2
									c-1.8-8-7.7-14.1-8.4-16.9C6.7,7.3,8,7.1,7.1,3.5z"/>
								<g id="Group_1084" transform="translate(1.685 7.154)">
									<path id="Path_2158" class="st6" d="M1.4,5.6c0,0.8-0.1,1.6-0.2,2.4l6.4-1.3c-0.5-0.8-1-1.5-1.3-2.1L1.4,5.6z"/>
									<path id="Path_2159" class="st6" d="M1.1,3.4l4.4-1C5.4,1.6,5.4,0.8,5.6,0L0,1.3C0.4,2,0.8,2.7,1.1,3.4z"/>
								</g>
								<path id="Path_2160" class="st14" d="M7.1,3.5c-0.2-1.2-0.9-2.3-1.9-3C5.7,1.9,6.5,4.3,6.3,6C6,8.5,4.4,8.9,5.6,12.5
									c1.2,3.5,4.2,5.8,6,13.2s1.7,11.6,1.3,12.4c-0.3,0.7-3.6,1.4-5.4,1.9l0.1,0.1l0.2,0.8L12,40l4.2-0.9L16,38.3
									c0,0,1.5-3.1-0.2-11.2C14,19.1,8.1,13,7.4,10.2C6.7,7.3,8,7.1,7.1,3.5z"/>
							</g>
						</g>
					</g>
					<g id="Group_1096" transform="translate(0 24.902)">
						<g id="Group_1088" transform="translate(4.005 12.898)">
							<ellipse id="Ellipse_29" class="st15" cx="5.7" cy="5.6" rx="5.7" ry="5.6"/>
							<ellipse id="Ellipse_30" class="st6" cx="5.7" cy="5.6" rx="2.3" ry="2.2"/>
						</g>
						<g id="Group_1089" transform="translate(19.374 27.898)">
							<ellipse id="Ellipse_31" class="st15" cx="5.7" cy="5.6" rx="5.7" ry="5.6"/>
							<ellipse id="Ellipse_32" class="st6" cx="5.7" cy="5.6" rx="2.3" ry="2.2"/>
						</g>
						<g id="Group_1092" transform="translate(4.579)">
							<path id="Path_2161" class="st6" d="M31.2,31.7l-0.8,1.9c-0.2,0.5-0.8,0.8-1.3,0.5c0,0,0,0-0.1,0c-0.1,0-0.2-0.1-0.3-0.2
								l-19-17.2c-1.3-1.1-2.5-2.4-3.5-3.8L0.4,5.4c-0.6-0.8-0.5-1.9,0.2-2.6l0.6-0.6L31.2,31.7z"/>
							<g id="Group_1091" transform="translate(1.112)">
								<path id="Path_2162" class="st5" d="M39.9,6.6l4.3,9.8l-8.5,11.5c0,0-2.4,3.4-5.6,3.8L13.9,17.9c-3.6-3-6.8-6.4-9.6-10.1
									L0,2.2l0,0c2.4-2.3,6-2.9,9-1.4L27.4,10l9.4-4.6C38,4.9,39.3,5.4,39.9,6.6C39.9,6.6,39.9,6.6,39.9,6.6L39.9,6.6z"/>
								<g id="Group_1107">
									<g>
										<defs>
											<path id="SVGID_1_" d="M39.9,6.6l4.3,9.8l-8.5,11.5c0,0-2.4,3.4-5.6,3.8L13.9,17.9c-3.6-3-6.8-6.4-9.6-10.1L0,2.2l0,0
												c2.4-2.3,6-2.9,9-1.4L27.4,10l9.4-4.6C38,4.9,39.3,5.4,39.9,6.6C39.9,6.6,39.9,6.6,39.9,6.6L39.9,6.6z"/>
										</defs>
										<clipPath id="SVGID_2_">
											<use xlink:href="#SVGID_1_"  style="overflow:visible;"/>
										</clipPath>
										<g id="Group_1090" class="st16">
											<path id="Path_2163" class="st15" d="M42.1,23.9c-4.7-3.5-10.5-5-16.3-4.4c-8.2,0.7-17-2.8-17-2.8l13.9,10.6
												c0,0,11.3-6.6,18.3-0.1L42.1,23.9z"/>
										</g>
									</g>
								</g>
							</g>
						</g>
						<g id="Group_1093" transform="translate(0 4.698)">
							<path id="Path_2165" class="st6" d="M5.5,0L4.1,1.4c0,0,2.2,5,2.3,4.9s3.5-0.7,3.5-0.7L5.5,0z"/>
							<path id="Path_2166" class="st15" d="M4.1,1.4L2,1.3C1,1.2,0.1,1.9,0,2.9C0,3,0,3,0,3v0.6l0.6,2.5c0.3,1,1.3,1.6,2.3,1.4h0.2
								l3.4-1L4.1,1.4z"/>
						</g>
						<g id="Group_1095" transform="translate(17.901 2.998)">
							<line id="Line_24" class="st17" x1="1" y1="0" x2="0" y2="3.3"/>
							<line id="Line_25" class="st17" x1="3.9" y1="1.6" x2="2.8" y2="4.8"/>
							<line id="Line_26" class="st17" x1="6.8" y1="2.9" x2="5.7" y2="6.1"/>
							<line id="Line_27" class="st17" x1="9.7" y1="4.4" x2="8.6" y2="7.6"/>
							<line id="Line_28" class="st17" x1="12.5" y1="5.8" x2="11.4" y2="9"/>
							<g id="Group_1094" transform="translate(16.79 5.05)">
								<path id="Path_2167" class="st6" d="M1.4,4.5c-0.3,0.3-0.9,0.3-1.2,0c-0.3-0.3-0.3-0.8,0-1.1l0,0c0.3-0.3,0.9-0.3,1.2,0
									C1.8,3.6,1.8,4.1,1.4,4.5z"/>
								<path id="Path_2168" class="st6" d="M4.3,2.9C4,3.2,3.5,3.2,3.1,2.9c-0.3-0.3-0.3-0.8,0-1.1l0,0c0.3-0.3,0.9-0.3,1.2,0
									C4.6,2.1,4.6,2.6,4.3,2.9C4.3,2.9,4.3,2.9,4.3,2.9z"/>
								<path id="Path_2169" class="st6" d="M7.1,1.3c-0.3,0.3-0.9,0.3-1.2,0C5.6,1,5.6,0.5,5.9,0.2l0,0c0.3-0.3,0.9-0.3,1.2,0
									C7.4,0.5,7.4,1,7.1,1.3z"/>
							</g>
						</g>
					</g>
				</g>
				<g id="Group_1103" transform="translate(67 45.8)">
					<g id="Group_1100" transform="translate(65.359)">
						<rect id="Rectangle_214" x="0" y="0" class="st4" width="168.2" height="131.3"/>
						<path id="Path_2170" class="st3" d="M0.5,0l13.7,25.5h176.6L168.2,0H0.5z"/>
						<g id="Group_1099-2" transform="translate(104.932 49.875)">
							<path id="Path_2171-2" class="st15" d="M25.1,14.1l-1.9,5.1L5.5,27.4L0,9.6L20.7,0L25.1,14.1z"/>
							<g id="Group_1098-2" transform="translate(3.402 4.487)">
								<path id="Path_2175-2" class="st6" d="M0,7.4L16,0l0.5,1.7l-16,7.4L0,7.4z"/>
								<path id="Path_2176-2" class="st6" d="M1.4,12l6.8-3.2l0.5,1.7l-6.8,3.2L1.4,12z"/>
							</g>
							<path id="Path_2172-2" class="st18" d="M25.1,14.1l-3.4,0.8l1.5,4.3L25.1,14.1z"/>
						</g>
					</g>
					<g id="Group_1102">
						<g id="Group_1101">
							<rect id="Rectangle_217" x="22.6" y="0" class="st2" width="43.3" height="131.3"/>
							<rect id="Rectangle_218" x="39.5" y="0" class="st3" width="3.6" height="131.3"/>
							<path id="Path_2173" class="st4" d="M22.6,0L0,25.5h43L65.8,0H22.6z"/>
						</g>
						<rect id="Rectangle_219" x="35.9" y="118.1" class="st3" width="10.8" height="13.2"/>
					</g>
				</g>
			</g>
		</g>
	</g>
</g>
</svg>
