<svg xmlns="http://www.w3.org/2000/svg" width="694.396" height="226.077" viewBox="0 0 694.396 226.077">
  <g id="service_commercial" data-name="service commercial" transform="translate(-95.552 -454.836)">
    <path id="Path_2016" data-name="Path 2016" d="M681.931,679.733s75.679,9.876,99.772-27.512c31.256-48.512-32.956-85.3-82.209-78.447-107.3,14.941-105.958-205.64-251.384-80.183C409.637,526.783,357.779,467.256,295,540.729c-14.669,17.165-104.349-16.008-148.971-2.424C58.68,564.894,98.617,680.186,161.02,680.638S681.931,679.733,681.931,679.733Z" transform="translate(0 0)" fill="#41ba03" opacity="0.5"/>
    <g id="Group_1007" data-name="Group 1007" transform="translate(556.402 458.483)">
      <rect id="Rectangle_151" data-name="Rectangle 151" width="91.94" height="221.919" transform="translate(0.09)" fill="#a6c7f9"/>
      <rect id="Rectangle_152" data-name="Rectangle 152" width="16.388" height="221.919" fill="#699dee"/>
      <rect id="Rectangle_153" data-name="Rectangle 153" width="91.94" height="221.919" transform="translate(20.403)" fill="#d2e4ff"/>
      <rect id="Rectangle_154" data-name="Rectangle 154" width="17.057" height="221.919" transform="translate(92.248)" fill="#a6c7f9"/>
    </g>
    <g id="Group_1008" data-name="Group 1008" transform="translate(370.369 575.403)">
      <rect id="Rectangle_155" data-name="Rectangle 155" width="50.664" height="50.664" fill="#4a75cb"/>
      <rect id="Rectangle_156" data-name="Rectangle 156" width="50.664" height="50.664" transform="translate(15.628)" fill="#699dee"/>
    </g>
    <g id="Group_1009" data-name="Group 1009" transform="translate(413.544 626.067)">
      <rect id="Rectangle_157" data-name="Rectangle 157" width="54.39" height="54.39" fill="#d86713"/>
      <rect id="Rectangle_158" data-name="Rectangle 158" width="54.39" height="54.39" transform="translate(16.767)" fill="#f1a34f"/>
      <path id="Path_2017" data-name="Path 2017" d="M1870.367,1401.5l-16.767,10.165V1401.5Z" transform="translate(-1853.6 -1401.5)" fill="#c95c12"/>
    </g>
    <g id="Group_1028" data-name="Group 1028" transform="translate(211.392 580.394)">
      <g id="Group_1014" data-name="Group 1014" transform="translate(47.772 51.352)">
        <g id="Group_1012" data-name="Group 1012">
          <g id="Group_1011" data-name="Group 1011">
            <g id="Group_1010" data-name="Group 1010">
              <rect id="Rectangle_159" data-name="Rectangle 159" width="34.566" height="34.566" fill="#d86713"/>
              <rect id="Rectangle_160" data-name="Rectangle 160" width="34.566" height="34.566" transform="translate(10.672)" fill="#f1a34f"/>
            </g>
          </g>
          <path id="Path_2018" data-name="Path 2018" d="M1010.772,1432.9l-10.672,6.457V1432.9Z" transform="translate(-1000.1 -1432.9)" fill="#c95c12"/>
        </g>
        <g id="Group_1013" data-name="Group 1013" transform="translate(3.925 16.93)">
          <path id="Path_2019" data-name="Path 2019" d="M1035.185,1529.756H1021.8l.561-1.574-.561-1.682h13.276l-.814,1.736Z" transform="translate(-1021.8 -1526.5)" fill="#ffd5ab"/>
          <path id="Path_2020" data-name="Path 2020" d="M1028.492,1526.5v3.256H1021.8l.561-1.574-.561-1.682Z" transform="translate(-1021.8 -1526.5)" fill="#c95c12"/>
        </g>
      </g>
      <g id="Group_1021" data-name="Group 1021" transform="translate(49.852 31.474)">
        <g id="Group_1015" data-name="Group 1015">
          <rect id="Rectangle_161" data-name="Rectangle 161" width="19.878" height="19.878" fill="#d86713"/>
          <rect id="Rectangle_162" data-name="Rectangle 162" width="19.878" height="19.878" transform="translate(6.132)" fill="#f1a34f"/>
          <path id="Path_2021" data-name="Path 2021" d="M1017.732,1323l-6.132,3.708V1323Z" transform="translate(-1011.6 -1323)" fill="#c95c12"/>
        </g>
        <g id="Group_1018" data-name="Group 1018" transform="translate(14 4.214)">
          <g id="Group_1016" data-name="Group 1016">
            <rect id="Rectangle_163" data-name="Rectangle 163" width="15.646" height="15.646" fill="#4a75cb"/>
            <rect id="Rectangle_164" data-name="Rectangle 164" width="15.646" height="15.646" transform="translate(4.829)" fill="#699dee"/>
          </g>
          <rect id="Rectangle_165" data-name="Rectangle 165" width="5.915" height="3.003" transform="translate(6.075 11.894) rotate(-11.292)" fill="#ebf2f9"/>
          <g id="Group_1017" data-name="Group 1017" transform="translate(1.99 2.623)">
            <path id="Path_2022" data-name="Path 2022" d="M1105.661,1362.175H1100l.235-.669-.235-.705h5.607l-.344.742Z" transform="translate(-1100 -1360.8)" fill="#ebf2f9"/>
            <path id="Path_2023" data-name="Path 2023" d="M1102.822,1360.8v1.375H1100l.235-.669-.235-.705Z" transform="translate(-1100 -1360.8)" fill="#a6c7f9"/>
          </g>
        </g>
        <g id="Group_1019" data-name="Group 1019" transform="translate(2.786 2.677)">
          <path id="Path_2024" data-name="Path 2024" d="M1033.693,1339.428H1027l.289-.8-.289-.832h6.62l-.4.868Z" transform="translate(-1027 -1337.8)" fill="#ffd5ab"/>
          <path id="Path_2025" data-name="Path 2025" d="M1030.346,1337.8v1.628H1027l.289-.8-.289-.832Z" transform="translate(-1027 -1337.8)" fill="#c95c12"/>
        </g>
        <g id="Group_1020" data-name="Group 1020" transform="translate(2.786 14.669)">
          <path id="Path_2026" data-name="Path 2026" d="M1033.693,1405.728H1027l.289-.778-.289-.85h6.62l-.4.886Z" transform="translate(-1027 -1404.1)" fill="#ffd5ab"/>
          <path id="Path_2027" data-name="Path 2027" d="M1030.346,1404.1v1.628H1027l.289-.778-.289-.85Z" transform="translate(-1027 -1404.1)" fill="#c95c12"/>
        </g>
      </g>
      <g id="Group_1025" data-name="Group 1025" transform="translate(77.165 58.407)">
        <g id="Group_1022" data-name="Group 1022">
          <rect id="Rectangle_166" data-name="Rectangle 166" width="27.493" height="27.493" fill="#4a75cb"/>
          <rect id="Rectangle_167" data-name="Rectangle 167" width="27.493" height="27.493" transform="translate(8.483)" fill="#699dee"/>
        </g>
        <rect id="Rectangle_168" data-name="Rectangle 168" width="6.711" height="3.419" transform="translate(27.096 2.968) rotate(-11.292)" fill="#ebf2f9"/>
        <g id="Group_1023" data-name="Group 1023" transform="translate(4.667 2.55)">
          <path id="Path_2028" data-name="Path 2028" d="M1195.852,1487.809H1188.4l.326-.868-.326-.941h7.4l-.452.977Z" transform="translate(-1188.4 -1486)" fill="#ebf2f9"/>
          <path id="Path_2029" data-name="Path 2029" d="M1192.126,1486v1.809H1188.4l.326-.868-.326-.941Z" transform="translate(-1188.4 -1486)" fill="#a6c7f9"/>
        </g>
        <g id="Group_1024" data-name="Group 1024" transform="translate(4.667 23.026)">
          <path id="Path_2030" data-name="Path 2030" d="M1195.852,1601.009H1188.4l.326-.868-.326-.941h7.4l-.452.977Z" transform="translate(-1188.4 -1599.2)" fill="#ebf2f9"/>
          <path id="Path_2031" data-name="Path 2031" d="M1192.126,1599.2v1.809H1188.4l.326-.868-.326-.941Z" transform="translate(-1188.4 -1599.2)" fill="#a6c7f9"/>
        </g>
      </g>
      <g id="Group_1026" data-name="Group 1026" transform="translate(34.55 91.905)">
        <path id="Path_2032" data-name="Path 2032" d="M930.78,1657.1a3.78,3.78,0,1,0,3.78,3.78A3.779,3.779,0,0,0,930.78,1657.1Z" transform="translate(-927 -1657.1)" fill="#1c468a"/>
        <path id="Path_2033" data-name="Path 2033" d="M936.924,1664.4a2.424,2.424,0,1,0,2.424,2.424A2.424,2.424,0,0,0,936.924,1664.4Z" transform="translate(-933.143 -1663.079)" fill="#699dee"/>
      </g>
      <g id="Group_1027" data-name="Group 1027" transform="translate(110.537 91.905)">
        <path id="Path_2034" data-name="Path 2034" d="M1350.88,1657.1a3.78,3.78,0,1,0,3.78,3.78A3.779,3.779,0,0,0,1350.88,1657.1Z" transform="translate(-1347.1 -1657.1)" fill="#1c468a"/>
        <path id="Path_2035" data-name="Path 2035" d="M1357.024,1664.4a2.424,2.424,0,1,0,2.424,2.424A2.424,2.424,0,0,0,1357.024,1664.4Z" transform="translate(-1353.243 -1663.079)" fill="#699dee"/>
      </g>
      <path id="Path_2036" data-name="Path 2036" d="M858.172,1234.894H780.955l-30.822-84.181a1.97,1.97,0,0,0-1.791-1.3L738.069,1149a2,2,0,1,0-.163,4l8.935.362,29.845,81.54h-6.711a1.937,1.937,0,0,0-1.935,1.935v2.315a1.938,1.938,0,0,0,1.935,1.935h88.2a1.938,1.938,0,0,0,1.935-1.935v-2.315A1.949,1.949,0,0,0,858.172,1234.894Z" transform="translate(-735.987 -1148.994)" fill="#1c468a"/>
    </g>
    <g id="man_5_" transform="translate(127.036 498.536)">
      <path id="Path_2037" data-name="Path 2037" d="M724.746,1115.1s3.853,2.532,6.8,2.641c2.966.109,4.721,3.075,5.137,4.3s-.778,3.129-1.682,2.008c-1.375-1.7-4.2-.38-6.891-2.587a26.094,26.094,0,0,0-6.711-3.654Z" transform="translate(-639.682 -1039.373)" fill="#e2af9a"/>
      <path id="Path_2038" data-name="Path 2038" d="M550.3,857.956s8.266,29.555,14.85,35.506c3.419,3.093,22.357,15.718,23.912,11.7,0,0,2.333-2.858,1.031-4.54,0,0-15.917-11.45-17.147-12.209-2.152-1.339.506-28.163-5.155-32.793S553.447,849.8,550.3,857.956Z" transform="translate(-499.53 -823.849)" fill="#125f9e"/>
      <path id="Path_2039" data-name="Path 2039" d="M649.141,1654.77s-.615.018-1.628.054H631.922a2.151,2.151,0,0,1-.742-.163c-1.411-.669-.76-6.855-.76-6.855s6.059-5.064,6.982-1.3,5.969,5.354,8.827,5.752C649.105,1652.689,649.141,1654.77,649.141,1654.77Z" transform="translate(-565.035 -1473.518)" fill="#233862"/>
      <path id="Path_2040" data-name="Path 2040" d="M441.935,1161.924c3,6.132,10.111,14.651,12.752,21.271a12.139,12.139,0,0,1,.995,4.3c.054,14.832,16.17,44.1,16.17,44.1,1.537.995,8.085-.995,8.085-.995s-.76-6.494-4.522-28.959c-2.08-12.39-5.571-30.84-8.3-44.894-.705-3.617-1.357-6.946-1.917-9.8-1.212-6.168-2.008-10.147-2.008-10.147l-6.24.109-16.876.271C440.09,1137.18,433.09,1143.891,441.935,1161.924Z" transform="translate(-407.1 -1057.148)" fill="#2b478b"/>
      <path id="Path_2041" data-name="Path 2041" d="M441.94,1162.333c3,6.132,10.111,14.651,12.752,21.271,3.726-7.868,9.369-19.842,12.444-26.463-.705-3.618-1.357-6.946-1.917-9.8-2.424-2.966-5.553-6.783-8.248-10.039l-16.876.271C440.095,1137.589,433.095,1144.3,441.94,1162.333Z" transform="translate(-407.105 -1057.557)" fill="#233862"/>
      <path id="Path_2042" data-name="Path 2042" d="M284.044,1628.355h-8.465a5.163,5.163,0,0,1-1.755-3.166c-.488-2.532-3.4-3.8-4.106-5.842-.705-2.062,2.333-5.119,2.333-5.119l1.013-1.429,5.282,1.013a49.809,49.809,0,0,1,.506,6.457c-.036,2.786,1.013,5.734,3.509,6.168C284.189,1626.746,284.171,1627.795,284.044,1628.355Z" transform="translate(-269.613 -1447.049)" fill="#233862"/>
      <path id="Path_2043" data-name="Path 2043" d="M318.935,1194.832c-3.165,5.752-26.553,32.486-26.553,32.486s-7.362-2.5-8.682-6.964c0,0,13.837-22.718,20.114-32.413,1.791-2.768,2.8-45.093,9.207-52.8,8.031-9.677,22.574,8.682,22.574,8.682s-4.558,14.8-5.969,19.462C326.514,1173.615,321.124,1190.871,318.935,1194.832Z" transform="translate(-281.152 -1053.482)" fill="#2b478b"/>
      <path id="Path_2044" data-name="Path 2044" d="M712.546,1127.3s3.853,2.532,6.8,2.641c2.966.109,4.721,3.075,5.137,4.3s-.778,3.129-1.682,2.008c-1.375-1.7-4.2-.38-6.891-2.587a26.1,26.1,0,0,0-6.711-3.654Z" transform="translate(-629.688 -1049.366)" fill="#e9c2b0"/>
      <path id="Path_2045" data-name="Path 2045" d="M593.143,783.445a51.181,51.181,0,0,0,3.31-6.295l-5.444-9.55c-3.165,8.953-10.509,10.979-10.509,10.979s8.574,9.406,15.465,9.876A15.888,15.888,0,0,0,593.143,783.445Z" transform="translate(-524.267 -754.728)" fill="#e2af9a"/>
      <path id="Path_2046" data-name="Path 2046" d="M636.682,735.311s-10.8-2.3-9.261-9.008,1.176-11.522,8.14-10.328c6.964,1.176,7.705,4.052,7.742,6.421C643.339,724.747,639.54,735.745,636.682,735.311Z" transform="translate(-562.579 -712.291)" fill="#e9c2b0"/>
      <path id="Path_2047" data-name="Path 2047" d="M623.2,710.917a11.274,11.274,0,0,1,13.313-6.132c6.693,1.555,4.938-5.245,4.54-6.367,0,0-5.209-.977-10.581-1.827C619.185,694.783,622.6,709.217,623.2,710.917Z" transform="translate(-558.467 -696.435)" fill="#233862"/>
      <path id="Path_2048" data-name="Path 2048" d="M485.024,840.258a93.348,93.348,0,0,1-2.6,14.072c-.543,2.189-1.121,4.45-1.736,6.729-.995,3.708-2.044,7.434-3.111,10.943l-.036.127a10.676,10.676,0,0,1-.307,1.085c-.941,3.093-1.827,5.969-2.6,8.393-1.483,4.649-1.5,7.253-2.7,7.778-2.388,1.049-11.793-.072-17.437-2.514-4.757-2.026-12.028-8.139-11.992-11.214.036-3.563,4.829-14.307,8.013-26.86,3.925-15.32,12.607-27.566,19.842-30.08.543-.181,1.121.959,3.22,2.984a11.758,11.758,0,0,0,6.693,3.274l1.375,2.3A22.328,22.328,0,0,1,485.024,840.258Z" transform="translate(-411.228 -796.582)" fill="#0f6bc7"/>
      <path id="Path_2049" data-name="Path 2049" d="M585.778,955.506c-.543,2.189.615-2.279,0,0-.995,3.708-2.044,7.434-3.111,10.943l-.036.127a10.676,10.676,0,0,1-.308,1.085c-.941,3.093-1.827,5.969-2.6,8.393-15.067-19.137-6.53-42.054-6.53-42.054Z" transform="translate(-516.305 -891.03)" fill="#125f9e"/>
      <path id="Path_2050" data-name="Path 2050" d="M537,871.256s8.266,29.555,14.85,35.506c3.419,3.093,22.356,15.718,23.912,11.7,0,0,2.333-2.858,1.031-4.54,0,0-15.917-11.45-17.147-12.209-2.152-1.339.506-28.163-5.155-32.793C548.848,864.292,540.147,863.1,537,871.256Z" transform="translate(-488.635 -834.743)" fill="#0f6bc7"/>
      <path id="Path_2051" data-name="Path 2051" d="M633.469,742.833a5.856,5.856,0,0,1,4.45-2.333s-9.532.2-9.912,3.129c-.4,2.93-.506,3.382-.506,3.382S632.528,747.211,633.469,742.833Z" transform="translate(-562.766 -732.53)" fill="#233862"/>
    </g>
    <g id="Group_1033" data-name="Group 1033" transform="translate(587.675 504.527)">
      <path id="Path_2052" data-name="Path 2052" d="M3477.441,925.534a102.74,102.74,0,0,1-10.853,4.214c-1.99.615-4.034,1.194-6.023,1.646a26.66,26.66,0,0,1-5.119.742,2.5,2.5,0,0,1-.38-.163,37.769,37.769,0,0,1-12.318-9.134c-.416-.488-.868-.995-1.284-1.519-.326-.38-.669-4.052-.923-7.886l-.036-.036c-.289-4.5-.506-9.3-.506-9.3s7.235,1.935,17.636,19.444c.29.488,1.158.416,3.2.036,2.623-.488,7.9-.452,15.881-1.61,0,0,.29.2.38,1.067A12.133,12.133,0,0,0,3477.441,925.534Z" transform="translate(-3327.186 -872.529)" fill="#0f8ec7"/>
      <path id="Path_2053" data-name="Path 2053" d="M3457.624,974.34a37.781,37.781,0,0,1-12.318-9.134c-.416-.488-.868-.995-1.284-1.519-.325-.38-.669-4.052-.922-7.886C3444.095,956.777,3455.743,968.009,3457.624,974.34Z" transform="translate(-3329.725 -914.878)" fill="#0f79c7"/>
      <path id="Path_2054" data-name="Path 2054" d="M3297.584,730.6s-.669-1.339-3.979-.977-9.044.977-9.08,19.01c0,1.972-11.92,19.969,1.52,36.935l9.586-24.238Z" transform="translate(-3195.84 -729.557)" fill="#163560"/>
      <path id="Path_2055" data-name="Path 2055" d="M3354.671,734.954s-3.527-1.176-5.39.579a3.684,3.684,0,0,0-.814,4.07Z" transform="translate(-3251.969 -733.662)" fill="#c65447"/>
      <path id="Path_2056" data-name="Path 2056" d="M3361.242,743.516s-.072-7.723-12.589-6.837a6.06,6.06,0,0,0-5.028,3.256c-1.411,2.731-2.026,7.543,2.532,15.266Z" transform="translate(-3247.397 -735.333)" fill="#163560"/>
      <path id="Path_2057" data-name="Path 2057" d="M3358,850.433l2.822,10.961,8.158.4,4.051-6.041c-3.8-2.858-4.341-7.868-4.269-10.835v-.09a17.789,17.789,0,0,1,.2-2.333l-5.789-1.755-4.413-1.339a33.764,33.764,0,0,1,.2,7.452A8.152,8.152,0,0,1,3358,850.433Z" transform="translate(-3260.018 -819.532)" fill="#e49963"/>
      <path id="Path_2058" data-name="Path 2058" d="M3307.983,953.514l29.591-.036s-3.69-19.716-1.646-26.173-.109-15.9-.109-15.9c-2.966-7.018-3.726-13.584-5.046-13.928-.724-.2-1.32-.579-2.026-.724a38.168,38.168,0,0,0-21.072,1.9c-2.6,6.512,2.984,11.4,3.256,26.1A138.092,138.092,0,0,1,3307.983,953.514Z" transform="translate(-3218.231 -865.943)" fill="#e49963"/>
      <path id="Path_2059" data-name="Path 2059" d="M3324.913,956.805s-22.537,4.63-35.434-.163c-.705-.289,1.99-9.948,3.871-16.568a53.437,53.437,0,0,0,1.574-6.114c-.452-9.008-2.243-16.677-3.075-22.628a32.728,32.728,0,0,1-.452-4.287v-.669a11.091,11.091,0,0,1,1-5.336c1.411-2.6,9.026-2.641,9.026-2.641a15.064,15.064,0,0,0,9.767,3.672c4.956-.036,2.5-3.509,2.5-3.509.2.036.542.09.705.127a12.683,12.683,0,0,1,4.124,1.7c3.943,4.287,5.245,25.685,5.155,26.39C3323.5,929.384,3324.913,956.805,3324.913,956.805Z" transform="translate(-3203.797 -867.86)" fill="#0f8ec7"/>
      <path id="Path_2060" data-name="Path 2060" d="M3362.4,846.852c3.509-1.863,8.936-1.953,9.8-1.953h.126a.714.714,0,0,0-.126-.09c-.579-.416-3.184-2.333-5.589-4.07L3362.2,839.4A32.668,32.668,0,0,1,3362.4,846.852Z" transform="translate(-3263.459 -819.532)" fill="#d68d5d"/>
      <path id="Path_2061" data-name="Path 2061" d="M3370.7,776.855s-12.444.561-12.679-7.127c-.235-7.705-1.99-12.806,5.933-13.493s9.568,2.207,10.274,4.757S3373.918,776.511,3370.7,776.855Z" transform="translate(-3259.766 -751.325)" fill="#e49963"/>
      <path id="Path_2062" data-name="Path 2062" d="M3392.62,752.493s5.318,3.636,4.468,7.85c0,0,2.641-1.375,2.387-5.408-.253-4.016-4.106-6.783-7.506-7a37.678,37.678,0,0,0-5.969.072Z" transform="translate(-3282.954 -744.544)" fill="#163560"/>
      <path id="Path_2063" data-name="Path 2063" d="M3368.114,754.818c2.207,1.158-6.909,2.134-7.47,5.824s-4.9,5.1-4.9,5.1S3350.207,745.395,3368.114,754.818Z" transform="translate(-3257.507 -748.208)" fill="#163560"/>
      <path id="Path_2064" data-name="Path 2064" d="M3330.825,961.076a42.909,42.909,0,0,1-28.271,15.121,53.439,53.439,0,0,0,1.574-6.114c-.452-9.008-2.243-16.677-3.075-22.628a32.728,32.728,0,0,1-.452-4.287V942.5c2.116.416,5.408,2.6,6.819,2.93C3318.344,948,3330.825,961.076,3330.825,961.076Z" transform="translate(-3213 -903.983)" fill="#0f79c7"/>
      <path id="Path_2065" data-name="Path 2065" d="M3421.172,846.374s-.09.778-2.008.886c0,0-1.61.09-1.664-.76A5.436,5.436,0,0,1,3421.172,846.374Z" transform="translate(-3308.756 -825.041)" fill="#fff"/>
      <path id="Path_2066" data-name="Path 2066" d="M3339.838,928.64a88.438,88.438,0,0,1-15.881,6.005,32.123,32.123,0,0,1-5.915.941,29.865,29.865,0,0,1-13.982-10.853c-11.7-16.279-2.659-18.034-2.659-18.034s7.813,4.848,18.847,20.258c.38.543,1.357.416,3.871-.09,2.677-.543,8.013-.47,15.393-1.556a3.944,3.944,0,0,1,.2,1.14C3339.856,928.405,3339.838,928.64,3339.838,928.64Z" transform="translate(-3210.927 -874.659)" fill="#0f8ec7"/>
      <path id="Path_2067" data-name="Path 2067" d="M3568.857,1006.054a100.086,100.086,0,0,1-10.853,4.214c-1.971.633-4.052,1.212-6.023,1.646a14.273,14.273,0,0,1,.289-7.814c2.587-.506,8.14-.543,16.134-1.7Z" transform="translate(-3418.584 -953.049)" fill="#a86337"/>
      <path id="Path_2068" data-name="Path 2068" d="M3633.5,995.3a17.136,17.136,0,0,0,3.708-1.23c1.682-.832,6.168-1.393,7.126-.506s-1.013,4.522-5.1,4.63c-4.106.109-5.282.778-5.282.778Z" transform="translate(-3485.687 -945.443)" fill="#a86337"/>
      <path id="Path_2069" data-name="Path 2069" d="M3457.28,1011.935a103.2,103.2,0,0,1-16.08,5.77,8.508,8.508,0,0,0,.145-7.76c2.677-.543,8.049-.778,15.429-1.845,0,0,.09.561.163,1.429A11.271,11.271,0,0,0,3457.28,1011.935Z" transform="translate(-3328.169 -957.718)" fill="#b77446"/>
      <path id="Path_2070" data-name="Path 2070" d="M2854.1,1213.99v-.289h-30.894a6.807,6.807,0,0,0-6.909,6.693,6.726,6.726,0,0,0,5.788,6.6v74.974h116.178V1213.99Z" transform="translate(-2816.3 -1126.129)" fill="#aa443e"/>
      <g id="Group_1032" data-name="Group 1032" transform="translate(131.878 41.646)">
        <g id="Group_1029" data-name="Group 1029">
          <rect id="Rectangle_169" data-name="Rectangle 169" width="18.558" height="18.431" fill="#d86713"/>
          <rect id="Rectangle_170" data-name="Rectangle 170" width="18.558" height="18.431" transform="translate(5.734)" fill="#f1a34f"/>
          <path id="Path_2071" data-name="Path 2071" d="M3551.134,959.8l-5.734,3.455V959.8Z" transform="translate(-3545.4 -959.8)" fill="#c95c12"/>
        </g>
        <g id="Group_1030" data-name="Group 1030" transform="translate(2.605 2.496)">
          <path id="Path_2072" data-name="Path 2072" d="M3566.041,975.1h-6.24l.271-.724-.271-.778h6.186l-.379.8Z" transform="translate(-3559.8 -973.6)" fill="#ffd5ab"/>
          <path id="Path_2073" data-name="Path 2073" d="M3562.929,973.6v1.5H3559.8l.271-.724-.271-.778Z" transform="translate(-3559.8 -973.6)" fill="#c95c12"/>
        </g>
        <g id="Group_1031" data-name="Group 1031" transform="translate(2.605 13.62)">
          <path id="Path_2074" data-name="Path 2074" d="M3566.041,1036.6h-6.24l.271-.724-.271-.778h6.186l-.379.814Z" transform="translate(-3559.8 -1035.1)" fill="#ffd5ab"/>
          <path id="Path_2075" data-name="Path 2075" d="M3562.929,1035.1v1.5H3559.8l.271-.724-.271-.778Z" transform="translate(-3559.8 -1035.1)" fill="#c95c12"/>
        </g>
      </g>
      <path id="Path_2076" data-name="Path 2076" d="M3522.1,998.888a18.292,18.292,0,0,0,3.961-1.3c1.791-.886,6.584-1.483,7.615-.543,1.013.959-1.085,4.829-5.444,4.938-4.377.127-5.625.832-5.625.832Z" transform="translate(-3394.436 -948.271)" fill="#b77446"/>
      <rect id="Rectangle_171" data-name="Rectangle 171" width="116.178" height="87.979" transform="translate(38.021 87.86)" fill="#c65447"/>
      <path id="Path_2077" data-name="Path 2077" d="M2987.628,1213.7H2823.209a6.7,6.7,0,1,0,0,13.385h164.418c4.251,0,7.687-3.021,7.687-6.692C2995.333,1216.721,2991.878,1213.7,2987.628,1213.7Z" transform="translate(-2816.3 -1126.129)" fill="#e57970"/>
    </g>
    <g id="Group_1034" data-name="Group 1034" transform="translate(579.843 552.938)">
      <rect id="Rectangle_172" data-name="Rectangle 172" width="20.855" height="18.522" transform="translate(0 0)" fill="#8cb3ed"/>
      <rect id="Rectangle_173" data-name="Rectangle 173" width="20.855" height="18.522" transform="translate(3.817 0)" fill="#a6c7f9"/>
    </g>
    <g id="Group_1035" data-name="Group 1035" transform="translate(606.613 550.152)">
      <rect id="Rectangle_174" data-name="Rectangle 174" width="26.282" height="21.307" fill="#8cb3ed"/>
      <rect id="Rectangle_175" data-name="Rectangle 175" width="26.282" height="21.307" transform="translate(4.811)" fill="#a6c7f9"/>
    </g>
    <g id="Group_1038" data-name="Group 1038" transform="translate(533.989 593.625)">
      <path id="Path_2078" data-name="Path 2078" d="M2808.227,1413.183s-8.646,6.439-10.346,6.041c-1.682-.4,6.331-6.946,6.331-6.946-3.021-1.447-12.39-.543-12.39-.543s-3.129,10.057-4.667,9.261,3.219-8.772,3.219-8.772c-3.365-.2-7.47,2.3-7.47,2.3-5.643,4.449.362,11.449.362,11.449a17.068,17.068,0,0,1-4.721,6.62,14.906,14.906,0,0,0-5.444,10.473l.923.09s1.483-6.313,4.16-9.261l.4-.4c.434-.4.723-.705.94-.923,1.32-1.266,3.147-2.894,4.034-3.057a2.207,2.207,0,0,1-.036-.434c.018.145.018.289.036.434.308,3.545,7.181,6.638,11.4,7.271,4.232.633,2.912-1.1,1.465-3.672-1.465-2.568-6.059-3.726-7.108-4.92s1.122-1.194,3.672-.018c2.551,1.158,2.894,4.269,6.982,6.222s10.238-4.829,10.238-4.829c-3.256-.163-7.9-3.708-7.741-4.775s7.886,1.863,9.207,2.008,4.323-1.5,4.793-6.819C2816.945,1414.666,2808.227,1413.183,2808.227,1413.183Z" transform="translate(-2727.227 -1377.214)" fill="#82b378"/>
      <g id="Group_1036" data-name="Group 1036" transform="translate(0 15.208)">
        <path id="Path_2079" data-name="Path 2079" d="M2554.546,1330.983s9.55-5.354,5.1-12.607c0,0-3.563-4.468-7.4-5.607,0,0,2.044,10.835,0,11.088s-1.393-12.227-1.393-12.227-10.057-4.848-14.018-4.468c0,0,6.24,10.581,4.2,10.31-2.044-.253-9.044-10.961-9.044-10.961s-10.31-1.917-11.974,4.2,1.013,9.171,2.551,9.55,11.341.253,11.088,1.537c-.253,1.266-6.873,3.31-10.581,2.171,0,0,4.07,10.057,9.424,9.55s7-3.817,10.31-4.07,5.733.633,4.07,1.537-7.253.289-9.93,2.568-4.848,3.672.126,4.7,13.891.38,15.664-3.437Z" transform="translate(-2519.49 -1306.225)" fill="#a8d29f"/>
        <path id="Path_2080" data-name="Path 2080" d="M2580.859,1369.338a20.331,20.331,0,0,1-2.551-9.3c-3.057-9.677-29.809-18.341-29.809-18.341,34.005,13.765,28.018,22.158,28.018,22.158.923.543,2.3,3.093,3.238,5.047.145.326.344.8.669,1.411.126.289.235.525.307.687,1.754,4.377.832,11.956.832,11.956l1.067.289A17.7,17.7,0,0,0,2580.859,1369.338Z" transform="translate(-2543.252 -1335.283)" fill="#82b378"/>
      </g>
      <g id="Group_1037" data-name="Group 1037" transform="translate(41.975)">
        <path id="Path_2081" data-name="Path 2081" d="M2759.829,1254.731s-12.589-7.054-6.711-16.623c0,0,4.7-5.879,9.731-7.38,0,0-2.7,14.271,0,14.615s1.845-16.116,1.845-16.116,13.258-6.385,18.468-5.879c0,0-8.23,13.946-5.535,13.6s11.92-14.434,11.92-14.434,13.6-2.514,15.791,5.535-1.338,12.083-3.364,12.589-14.941.344-14.615,2.008c.344,1.682,9.062,4.359,13.946,2.858,0,0-5.372,13.258-12.426,12.589s-9.243-5.046-13.6-5.372c-4.359-.344-7.561.832-5.372,2.008s9.568.38,13.1,3.382,6.385,4.848-.163,6.186-18.3.507-20.656-4.54Z" transform="translate(-2751.554 -1222.145)" fill="#a8d29f"/>
        <path id="Path_2082" data-name="Path 2082" d="M2806.536,1268.6s-35.271,11.413-39.287,24.183a26.847,26.847,0,0,1-3.365,12.264,23.217,23.217,0,0,0-2.333,18.3l1.393-.38s-1.23-9.966,1.085-15.755c.091-.217.235-.525.4-.886h0c.416-.832.705-1.429.886-1.863,1.266-2.586,3.075-5.933,4.269-6.638C2769.583,1297.83,2761.7,1286.742,2806.536,1268.6Z" transform="translate(-2758.957 -1260.197)" fill="#82b378"/>
      </g>
      <path id="Path_2083" data-name="Path 2083" d="M2658.6,1555.5a24.672,24.672,0,1,0,49.344,0Z" transform="translate(-2633.438 -1495.203)" fill="#f1a34f"/>
      <path id="Path_2084" data-name="Path 2084" d="M2702.929,1579.891a24.345,24.345,0,0,1-3.057.181A24.679,24.679,0,0,1,2675.2,1555.4h6.132A24.674,24.674,0,0,0,2702.929,1579.891Z" transform="translate(-2647.036 -1495.121)" fill="#ffb973"/>
      <path id="Path_2085" data-name="Path 2085" d="M2703.674,1682h-43.935a3.034,3.034,0,0,0-3.039,3.039h50.031A3.049,3.049,0,0,0,2703.674,1682Z" transform="translate(-2631.882 -1598.822)" fill="#f1a34f"/>
      <rect id="Rectangle_176" data-name="Rectangle 176" width="50.718" height="0.76" transform="translate(24.348 60.297)" fill="#d86713"/>
    </g>
    <g id="Group_1041" data-name="Group 1041" transform="translate(350.4 626.067)">
      <g id="Group_1039" data-name="Group 1039" transform="translate(0)">
        <rect id="Rectangle_177" data-name="Rectangle 177" width="54.39" height="54.39" fill="#d86713"/>
        <rect id="Rectangle_178" data-name="Rectangle 178" width="54.39" height="54.39" transform="translate(16.767)" fill="#f1a34f"/>
        <path id="Path_2086" data-name="Path 2086" d="M1521.267,1401.5l-16.767,10.165V1401.5Z" transform="translate(-1504.5 -1401.5)" fill="#c95c12"/>
      </g>
      <g id="Group_1040" data-name="Group 1040" transform="translate(6.15 26.643)">
        <path id="Path_2087" data-name="Path 2087" d="M1559.59,1553.919H1538.5l.886-2.46-.886-2.659h20.891l-1.284,2.749Z" transform="translate(-1538.5 -1548.8)" fill="#ffd5ab"/>
        <path id="Path_2088" data-name="Path 2088" d="M1549.045,1548.8v5.119H1538.5l.886-2.46-.886-2.659Z" transform="translate(-1538.5 -1548.8)" fill="#c95c12"/>
      </g>
    </g>
    <g id="Group_1046" data-name="Group 1046" transform="translate(467.41 648.568)">
      <g id="Group_1042" data-name="Group 1042">
        <rect id="Rectangle_179" data-name="Rectangle 179" width="31.274" height="31.274" fill="#d86713"/>
        <rect id="Rectangle_180" data-name="Rectangle 180" width="31.274" height="31.274" transform="translate(9.659)" fill="#f1a34f"/>
        <path id="Path_2089" data-name="Path 2089" d="M2161.059,1525.9l-9.659,5.842V1525.9Z" transform="translate(-2151.4 -1525.9)" fill="#c95c12"/>
      </g>
      <rect id="Rectangle_181" data-name="Rectangle 181" width="24.636" height="24.636" transform="translate(22.031 6.638)" fill="#4a75cb"/>
      <rect id="Rectangle_182" data-name="Rectangle 182" width="24.636" height="24.636" transform="translate(29.628 6.638)" fill="#699dee"/>
      <rect id="Rectangle_183" data-name="Rectangle 183" width="9.315" height="4.739" transform="translate(31.579 25.366) rotate(-11.292)" fill="#ebf2f9"/>
      <g id="Group_1043" data-name="Group 1043" transform="translate(25.16 10.762)">
        <path id="Path_2090" data-name="Path 2090" d="M2299.4,1587.552h-8.9l.38-1.031-.38-1.121h8.827l-.543,1.158Z" transform="translate(-2290.5 -1585.4)" fill="#ebf2f9"/>
        <path id="Path_2091" data-name="Path 2091" d="M2294.95,1585.4v2.152h-4.45l.38-1.031-.38-1.121Z" transform="translate(-2290.5 -1585.4)" fill="#a6c7f9"/>
      </g>
      <g id="Group_1044" data-name="Group 1044" transform="translate(4.395 4.214)">
        <path id="Path_2092" data-name="Path 2092" d="M2186.227,1551.75H2175.7l.452-1.23-.452-1.32h10.418l-.633,1.375Z" transform="translate(-2175.7 -1549.2)" fill="#ffd5ab"/>
        <path id="Path_2093" data-name="Path 2093" d="M2180.964,1549.2v2.55H2175.7l.452-1.23-.452-1.32Z" transform="translate(-2175.7 -1549.2)" fill="#c95c12"/>
      </g>
      <g id="Group_1045" data-name="Group 1045" transform="translate(4.395 23.098)">
        <path id="Path_2094" data-name="Path 2094" d="M2186.227,1656.15H2175.7l.452-1.23-.452-1.321h10.418l-.633,1.375Z" transform="translate(-2175.7 -1653.6)" fill="#ffd5ab"/>
        <path id="Path_2095" data-name="Path 2095" d="M2180.964,1653.6v2.551H2175.7l.452-1.23-.452-1.321Z" transform="translate(-2175.7 -1653.6)" fill="#c95c12"/>
      </g>
    </g>
    <g id="Group_1049" data-name="Group 1049" transform="translate(396.759 637.372)">
      <rect id="Rectangle_184" data-name="Rectangle 184" width="43.266" height="43.266" fill="#4a75cb"/>
      <rect id="Rectangle_185" data-name="Rectangle 185" width="43.266" height="43.266" transform="translate(13.331)" fill="#699dee"/>
      <rect id="Rectangle_186" data-name="Rectangle 186" width="10.563" height="5.372" transform="translate(42.639 4.67) rotate(-11.292)" fill="#ebf2f9"/>
      <g id="Group_1047" data-name="Group 1047" transform="translate(7.362 3.997)">
        <path id="Path_2096" data-name="Path 2096" d="M1813.221,1488.94H1801.5l.488-1.357-.488-1.483h11.612l-.705,1.537Z" transform="translate(-1801.5 -1486.1)" fill="#ebf2f9"/>
        <path id="Path_2097" data-name="Path 2097" d="M1807.36,1486.1v2.84h-5.86l.488-1.357-.488-1.483Z" transform="translate(-1801.5 -1486.1)" fill="#a6c7f9"/>
      </g>
      <g id="Group_1048" data-name="Group 1048" transform="translate(7.362 36.23)">
        <path id="Path_2098" data-name="Path 2098" d="M1813.221,1667.14H1801.5l.488-1.375-.488-1.465h11.612l-.705,1.519Z" transform="translate(-1801.5 -1664.3)" fill="#ebf2f9"/>
        <path id="Path_2099" data-name="Path 2099" d="M1807.36,1664.3v2.84h-5.86l.488-1.375-.488-1.465Z" transform="translate(-1801.5 -1664.3)" fill="#a6c7f9"/>
      </g>
    </g>
    <g id="Group_1050" data-name="Group 1050" transform="translate(377.604 585.622)">
      <path id="Path_2100" data-name="Path 2100" d="M1671.559,1181.952H1654.9l.705-1.936-.705-2.116h16.514l-1.013,2.189Z" transform="translate(-1654.9 -1177.9)" fill="#ebf2f9"/>
      <path id="Path_2101" data-name="Path 2101" d="M1663.239,1177.9v4.052H1654.9l.705-1.936-.705-2.116Z" transform="translate(-1654.9 -1177.9)" fill="#a6c7f9"/>
    </g>
    <rect id="Rectangle_187" data-name="Rectangle 187" width="86.514" height="3.039" transform="translate(576.768 481.184)" fill="#91b6ed"/>
    <rect id="Rectangle_188" data-name="Rectangle 188" width="112.398" height="3.039" transform="translate(556.365 455.625)" fill="#699dee"/>
    <rect id="Rectangle_189" data-name="Rectangle 189" width="86.514" height="3.039" transform="translate(576.768 511.282)" fill="#91b6ed"/>
    <rect id="Rectangle_190" data-name="Rectangle 190" width="86.514" height="3.039" transform="translate(576.768 541.38)" fill="#91b6ed"/>
    <rect id="Rectangle_191" data-name="Rectangle 191" width="86.514" height="3.039" transform="translate(576.768 571.478)" fill="#91b6ed"/>
    <g id="Group_1056" data-name="Group 1056" transform="translate(579.753 486.718)">
      <g id="Group_1051" data-name="Group 1051">
        <rect id="Rectangle_192" data-name="Rectangle 192" width="24.563" height="24.563" fill="#d86713"/>
        <rect id="Rectangle_193" data-name="Rectangle 193" width="24.563" height="24.563" transform="translate(7.579)" fill="#f1a34f"/>
        <path id="Path_2102" data-name="Path 2102" d="M2780.079,631.1l-7.579,4.594V631.1Z" transform="translate(-2772.5 -631.1)" fill="#c95c12"/>
      </g>
      <g id="Group_1052" data-name="Group 1052" transform="translate(17.31 5.227)">
        <rect id="Rectangle_194" data-name="Rectangle 194" width="19.336" height="19.336" fill="#4a75cb"/>
        <rect id="Rectangle_195" data-name="Rectangle 195" width="19.336" height="19.336" transform="translate(5.951)" fill="#699dee"/>
      </g>
      <rect id="Rectangle_196" data-name="Rectangle 196" width="7.326" height="3.726" transform="translate(24.805 20.035) rotate(-11.292)" fill="#ebf2f9"/>
      <g id="Group_1053" data-name="Group 1053" transform="translate(19.752 8.556)">
        <path id="Path_2103" data-name="Path 2103" d="M2888.7,680.1h-7l.307-.814-.307-.886h6.928l-.416.9Z" transform="translate(-2881.7 -678.4)" fill="#ebf2f9"/>
        <path id="Path_2104" data-name="Path 2104" d="M2885.209,678.4v1.7H2881.7l.307-.814-.307-.886Z" transform="translate(-2881.7 -678.4)" fill="#a6c7f9"/>
      </g>
      <g id="Group_1054" data-name="Group 1054" transform="translate(3.455 3.274)">
        <path id="Path_2105" data-name="Path 2105" d="M2799.848,651.208H2791.6l.344-.977-.344-1.031h8.176l-.507,1.067Z" transform="translate(-2791.6 -649.2)" fill="#ffd5ab"/>
        <path id="Path_2106" data-name="Path 2106" d="M2795.724,649.2v2.008H2791.6l.344-.977-.344-1.031Z" transform="translate(-2791.6 -649.2)" fill="#c95c12"/>
      </g>
      <g id="Group_1055" data-name="Group 1055" transform="translate(3.455 18.106)">
        <path id="Path_2107" data-name="Path 2107" d="M2799.848,733.208H2791.6l.344-.977-.344-1.031h8.176l-.507,1.067Z" transform="translate(-2791.6 -731.2)" fill="#ffd5ab"/>
        <path id="Path_2108" data-name="Path 2108" d="M2795.724,731.2v2.008H2791.6l.344-.977-.344-1.031Z" transform="translate(-2791.6 -731.2)" fill="#c95c12"/>
      </g>
    </g>
    <g id="Group_1061" data-name="Group 1061" transform="translate(591.691 461.884)">
      <rect id="Rectangle_197" data-name="Rectangle 197" width="19.336" height="19.336" fill="#4a75cb"/>
      <rect id="Rectangle_198" data-name="Rectangle 198" width="19.336" height="19.336" transform="translate(5.951)" fill="#699dee"/>
      <rect id="Rectangle_199" data-name="Rectangle 199" width="7.326" height="3.726" transform="translate(7.496 14.718) rotate(-11.292)" fill="#ebf2f9"/>
      <g id="Group_1057" data-name="Group 1057" transform="translate(2.46 3.238)">
        <path id="Path_2109" data-name="Path 2109" d="M2859.082,513.4H2852.1l.289-.814-.289-.886h6.909l-.416.922Z" transform="translate(-2852.1 -511.7)" fill="#ebf2f9"/>
        <path id="Path_2110" data-name="Path 2110" d="M2855.591,511.7v1.7H2852.1l.289-.814-.289-.886Z" transform="translate(-2852.1 -511.7)" fill="#a6c7f9"/>
      </g>
      <g id="Group_1060" data-name="Group 1060" transform="translate(27.873 5.625)">
        <rect id="Rectangle_200" data-name="Rectangle 200" width="13.674" height="13.674" fill="#d86713"/>
        <rect id="Rectangle_201" data-name="Rectangle 201" width="13.674" height="13.674" transform="translate(4.214)" fill="#f1a34f"/>
        <path id="Path_2111" data-name="Path 2111" d="M2996.814,524.9l-4.214,2.568V524.9Z" transform="translate(-2992.6 -524.9)" fill="#c95c12"/>
        <g id="Group_1058" data-name="Group 1058" transform="translate(1.917 1.845)">
          <path id="Path_2112" data-name="Path 2112" d="M3007.794,536.221H3003.2l.181-.543-.181-.579h4.558l-.29.6Z" transform="translate(-3003.2 -535.1)" fill="#ffd5ab"/>
          <path id="Path_2113" data-name="Path 2113" d="M3005.5,535.1v1.121h-2.3l.181-.543-.181-.579Z" transform="translate(-3003.2 -535.1)" fill="#c95c12"/>
        </g>
        <g id="Group_1059" data-name="Group 1059" transform="translate(1.917 10.093)">
          <path id="Path_2114" data-name="Path 2114" d="M3007.794,581.821H3003.2l.181-.525-.181-.6h4.558l-.29.615Z" transform="translate(-3003.2 -580.7)" fill="#ffd5ab"/>
          <path id="Path_2115" data-name="Path 2115" d="M3005.5,580.7v1.121h-2.3l.181-.525-.181-.6Z" transform="translate(-3003.2 -580.7)" fill="#c95c12"/>
        </g>
      </g>
    </g>
    <g id="Group_1063" data-name="Group 1063" transform="translate(579.988 525.318)">
      <rect id="Rectangle_202" data-name="Rectangle 202" width="16.062" height="16.062" fill="#4a75cb"/>
      <rect id="Rectangle_203" data-name="Rectangle 203" width="16.062" height="16.062" transform="translate(4.956)" fill="#699dee"/>
      <rect id="Rectangle_204" data-name="Rectangle 204" width="6.078" height="3.093" transform="matrix(0.981, -0.196, 0.196, 0.981, 6.24, 12.189)" fill="#ebf2f9"/>
      <g id="Group_1062" data-name="Group 1062" transform="translate(2.044 2.695)">
        <path id="Path_2116" data-name="Path 2116" d="M2790.906,860.811H2785.1l.235-.687-.235-.724h5.752l-.362.76Z" transform="translate(-2785.1 -859.4)" fill="#ebf2f9"/>
        <path id="Path_2117" data-name="Path 2117" d="M2787.994,859.4v1.411H2785.1l.235-.687-.235-.724Z" transform="translate(-2785.1 -859.4)" fill="#a6c7f9"/>
      </g>
    </g>
    <g id="Group_1065" data-name="Group 1065" transform="translate(602.96 525.318)">
      <rect id="Rectangle_205" data-name="Rectangle 205" width="16.062" height="16.062" fill="#4a75cb"/>
      <rect id="Rectangle_206" data-name="Rectangle 206" width="16.062" height="16.062" transform="translate(4.956)" fill="#699dee"/>
      <rect id="Rectangle_207" data-name="Rectangle 207" width="6.078" height="3.093" transform="matrix(0.981, -0.196, 0.196, 0.981, 6.24, 12.188)" fill="#ebf2f9"/>
      <g id="Group_1064" data-name="Group 1064" transform="translate(2.044 2.695)">
        <path id="Path_2118" data-name="Path 2118" d="M2917.906,860.811H2912.1l.235-.687-.235-.724h5.752l-.362.76Z" transform="translate(-2912.1 -859.4)" fill="#ebf2f9"/>
        <path id="Path_2119" data-name="Path 2119" d="M2914.994,859.4v1.411H2912.1l.235-.687-.235-.724Z" transform="translate(-2912.1 -859.4)" fill="#a6c7f9"/>
      </g>
    </g>
    <g id="Group_1072" data-name="Group 1072" transform="translate(624.737 499.561)">
      <g id="Group_1066" data-name="Group 1066" transform="translate(0 0)">
        <rect id="Rectangle_208" data-name="Rectangle 208" width="11.721" height="11.721" fill="#d86713"/>
        <rect id="Rectangle_209" data-name="Rectangle 209" width="11.721" height="11.721" transform="translate(3.599)" fill="#f1a34f"/>
        <path id="Path_2120" data-name="Path 2120" d="M3024.8,702.1l-3.6,2.189V702.1Z" transform="translate(-3021.2 -702.1)" fill="#c95c12"/>
      </g>
      <g id="Group_1068" data-name="Group 1068" transform="translate(8.248 2.496)">
        <g id="Group_1067" data-name="Group 1067">
          <rect id="Rectangle_210" data-name="Rectangle 210" width="9.225" height="9.225" fill="#4a75cb"/>
          <rect id="Rectangle_211" data-name="Rectangle 211" width="9.225" height="9.225" transform="translate(2.84)" fill="#699dee"/>
        </g>
      </g>
      <rect id="Rectangle_212" data-name="Rectangle 212" width="3.491" height="1.773" transform="translate(11.808 9.618) rotate(-11.292)" fill="#ebf2f9"/>
      <g id="Group_1069" data-name="Group 1069" transform="translate(9.424 4.142)">
        <path id="Path_2121" data-name="Path 2121" d="M3076.628,725.8H3073.3l.145-.38L3073.3,725h3.292l-.2.434Z" transform="translate(-3073.3 -725)" fill="#ebf2f9"/>
        <path id="Path_2122" data-name="Path 2122" d="M3074.964,725v.8H3073.3l.145-.38L3073.3,725Z" transform="translate(-3073.3 -725)" fill="#a6c7f9"/>
      </g>
      <g id="Group_1070" data-name="Group 1070" transform="translate(1.646 1.61)">
        <path id="Path_2123" data-name="Path 2123" d="M3034.225,711.959H3030.3l.163-.452L3030.3,711h3.889l-.235.525Z" transform="translate(-3030.3 -711)" fill="#ffd5ab"/>
        <path id="Path_2124" data-name="Path 2124" d="M3032.271,711v.959H3030.3l.163-.452L3030.3,711Z" transform="translate(-3030.3 -711)" fill="#c95c12"/>
      </g>
      <g id="Group_1071" data-name="Group 1071" transform="translate(1.646 8.682)">
        <path id="Path_2125" data-name="Path 2125" d="M3034.225,751.059H3030.3l.163-.452-.163-.506h3.889l-.235.525Z" transform="translate(-3030.3 -750.1)" fill="#ffd5ab"/>
        <path id="Path_2126" data-name="Path 2126" d="M3032.271,750.1v.959H3030.3l.163-.452-.163-.506Z" transform="translate(-3030.3 -750.1)" fill="#c95c12"/>
      </g>
    </g>
    <path id="Path_2127" data-name="Path 2127" d="M3143.738,815.2l-4.938,21.434h13.657l4.938-21.434Z" transform="translate(-2492.791 -295.182)" fill="#699dee"/>
    <path id="Path_2128" data-name="Path 2128" d="M3094.938,815.2,3090,836.634h13.638l4.938-21.434Z" transform="translate(-2452.818 -295.182)" fill="#fff"/>
    <g id="Group_1073" data-name="Group 1073" transform="translate(629.096 530.853)">
      <path id="Path_2129" data-name="Path 2129" d="M3062.167,875.733v9.315a.641.641,0,0,1-.633.633l-15.5.018a.629.629,0,0,1-.633-.633v-9.315a.629.629,0,0,1,.633-.633l15.5-.018A.629.629,0,0,1,3062.167,875.733Z" transform="translate(-3045.382 -875.1)" fill="#f1a34f"/>
      <path id="Path_2130" data-name="Path 2130" d="M3062.086,875.733V876l-8.393,4.4-8.393-4.649a.629.629,0,0,1,.633-.633l15.5-.018A.633.633,0,0,1,3062.086,875.733Z" transform="translate(-3045.3 -875.1)" fill="#d86713"/>
      <path id="Path_2131" data-name="Path 2131" d="M3117.065,924.9h-2.912a.253.253,0,0,0,0,.506h2.912a.253.253,0,0,0,0-.506Z" transform="translate(-3101.492 -915.892)" fill="#d86713"/>
    </g>
    <g id="Group_1074" data-name="Group 1074" transform="translate(626.239 530.78)">
      <path id="Path_2132" data-name="Path 2132" d="M3046.368,875.333a.629.629,0,0,0-.633-.633l-15.5.018a.629.629,0,0,0-.633.633v9.315a.641.641,0,0,0,.633.633l15.5-.018a.629.629,0,0,0,.633-.633Z" transform="translate(-3029.582 -874.7)" fill="#f1a34f"/>
      <path id="Path_2133" data-name="Path 2133" d="M3046.286,875.333v.271l-8.393,4.4-8.393-4.649a.629.629,0,0,1,.633-.633l15.5-.018A.645.645,0,0,1,3046.286,875.333Z" transform="translate(-3029.5 -874.7)" fill="#d86713"/>
      <path id="Path_2134" data-name="Path 2134" d="M3101.266,924.5h-2.912a.253.253,0,1,0,0,.506h2.912a.253.253,0,0,0,0-.506Z" transform="translate(-3085.692 -915.492)" fill="#d86713"/>
    </g>
    <path id="Path_2135" data-name="Path 2135" d="M871.221,1699.841H239.052a.448.448,0,0,1-.452-.452v-.036a.448.448,0,0,1,.452-.452H871.2a.448.448,0,0,1,.452.452v.036A.444.444,0,0,1,871.221,1699.841Z" transform="translate(-117.174 -1019.04)" fill="#283250"/>
  </g>
</svg>
