<svg xmlns="http://www.w3.org/2000/svg" width="714.834" height="161.9" viewBox="0 0 714.834 161.9">
  <g id="subscribe_illustration" data-name="subscribe illustration" transform="translate(-1116 -3849.584)">
    <path id="mail_road" data-name="mail road" d="M1116,4001.428c85,0,154-179.521,255-150.042s249,162.136,145,157.6,206-164.4,290-136.058" transform="translate(0 1.884)" fill="none" stroke="#41ba03" stroke-width="1" stroke-dasharray="8" opacity="0.5"/>
    <g id="flying_mail" data-name="flying mail" transform="translate(1826.942 3868.151) rotate(79)" opacity="0.5">
      <g id="Group_586" data-name="Group 586" transform="translate(0 0)">
        <g id="Group_585" data-name="Group 585" transform="translate(0 0)">
          <path id="Path_679" data-name="Path 679" d="M.225,8.479l5.728,2.329A1.658,1.658,0,0,0,6.5,11l-.314-.314a1,1,0,0,0,.063.268c.05.18.1.364.155.544.167.585.334,1.171.5,1.752.305,1.066.606,2.128.911,3.194a.841.841,0,0,0,.251.452.666.666,0,0,0,.916-.079l.9-.924L12.3,13.413c.029-.029.059-.059.088-.092-.1.025-.2.054-.305.079.9.355,1.806.715,2.709,1.07.531.209,1.062.418,1.593.631l.334.134a1,1,0,0,0,1.208-.435,1.762,1.762,0,0,0,.163-.619c.054-.33.113-.656.167-.987.192-1.112.38-2.224.573-3.341q.646-3.757,1.288-7.518c.088-.51.176-1.024.263-1.534a.664.664,0,0,0-.916-.748c-.18.075-.36.146-.544.222L13.149,2.617q-3.7,1.5-7.4,3c-1.162.472-2.325.941-3.483,1.413a.317.317,0,0,0-.217.385.31.31,0,0,0,.385.217q1.856-.753,3.709-1.5,3.719-1.505,7.434-3.01Q16.389,1.977,19.2.84c.159-.063.314-.13.472-.192A.288.288,0,0,0,19.7.635a0,0,0,0,0,0,0c.029-.013.033-.021.05-.008s.008.067.021.017c-.008.038-.013.075-.021.117-.121.7-.238,1.4-.36,2.095Q18.748,6.7,18.083,10.57q-.257,1.493-.51,2.985c-.042.23-.079.464-.121.694a.875.875,0,0,1-.059.234c-.121.243-.376.2-.581.117l-4.557-1.8a.316.316,0,0,0-.305.079c-.682.7-1.359,1.4-2.04,2.095-.393.4-.786.807-1.175,1.208-.075.079-.151.155-.226.234-.05.054-.075-.1-.079-.117q-.445-1.562-.891-3.127c-.167-.594-.339-1.183-.506-1.777-.054-.188-.109-.38-.163-.569-.013-.05-.029-.1-.042-.155s0-.1,0,.021a.316.316,0,0,0-.314-.314c.1,0,.088.017.033-.008s-.1-.038-.142-.059l-.506-.2c-.544-.222-1.087-.443-1.635-.665q-1.7-.69-3.4-1.384L.4,7.873a.313.313,0,0,0-.385.217.308.308,0,0,0,.209.389Z" fill="#41ba03"/>
          <path id="Path_680" data-name="Path 680" d="M.615.422C.619.413.619.4.623.4.493.468.364.543.238.614a.015.015,0,0,1,.008,0C.2.442.155.267.109.1.1.1.1.108.092.116L.042.179A.3.3,0,0,0,0,.338.314.314,0,0,0,.314.652.3.3,0,0,0,.535.56C.539.551.548.547.552.539A.286.286,0,0,0,.631.4a.285.285,0,0,0,0-.167A.324.324,0,0,0,.552.1.286.286,0,0,0,.414.016a.015.015,0,0,1-.008,0A.309.309,0,0,0,.163.045.307.307,0,0,0,.021.233c0,.008,0,.017-.008.025A.317.317,0,0,0,.23.643.314.314,0,0,0,.615.422Z" transform="translate(9.608 11.846)" fill="#41ba03"/>
        </g>
      </g>
      <g id="Group_588" data-name="Group 588" transform="translate(8.433 11.843)">
        <g id="Group_587" data-name="Group 587" transform="translate(0 0)">
          <path id="Path_681" data-name="Path 681" d="M3.516,1.038Q1.792,2.807.071,4.576l.443.443A2.139,2.139,0,0,0,.824,4.17c.13-.506.259-1.012.393-1.514s.263-1.02.4-1.53C1.66.955,1.7.779,1.748.608,1.76.562,1.773.516,1.781.47c.033-.125-.059.079-.05.071-.1.025-.2.054-.305.079.422.176.84.355,1.263.531l.2.088c.05.021-.113-.046-.038-.017.054.021.1.046.159.067.213.092.426.184.644.268.376.146.539-.46.167-.606C3.755.926,3.734.917,3.8.942,3.755.921,3.709.9,3.663.884L3.27.716C3.132.658,3,.6,2.86.545,2.437.369,2.019.19,1.6.014a.306.306,0,0,0-.305.079,1.888,1.888,0,0,0-.247.744c-.13.5-.255.991-.385,1.488S.4,3.346.263,3.856C.217,4.028.175,4.2.13,4.375c-.013.05-.017.159-.054.2-.243.309.155.74.443.443Q2.243,3.25,3.964,1.482C4.24,1.193,3.8.746,3.516,1.038Z" fill="#41ba03"/>
        </g>
      </g>
      <g id="Group_591" data-name="Group 591" transform="translate(6.183 0.079)">
        <g id="Group_590" data-name="Group 590" transform="translate(0 0)">
          <g id="Group_589" data-name="Group 589" transform="translate(0)">
            <path id="Path_682" data-name="Path 682" d="M9.1,3.491Q6.646,5.373,4.189,7.25l-.376.288h.318a.3.3,0,0,0-.318,0c-.631.485-1.263.966-1.894,1.451-.426.326-.849.652-1.275.978-.18.138-.644.389-.644.648a.316.316,0,0,0,.314.314h0L0,10.616a1,1,0,0,0,.063.268c.05.18.1.364.155.544.167.585.334,1.171.5,1.752.305,1.066.606,2.128.911,3.194a.841.841,0,0,0,.251.452.658.658,0,0,0,1.049-.351c.1-.4.2-.794.309-1.2.268-1.029.531-2.053.8-3.081,0-.013,0-.021.008-.033-.13.071-.259.146-.385.217a.015.015,0,0,1,.008,0A.3.3,0,0,0,3.98,12.3l2.969-3.47q2.578-3.017,5.16-6.029L14.04.548C14.3.242,13.86-.2,13.6.1l-2.969,3.47Q8.051,6.591,5.469,9.6L3.537,11.862c.1-.025.2-.054.305-.079a.015.015,0,0,1-.008,0A.315.315,0,0,0,3.449,12c-.268.957-.5,1.927-.748,2.889-.117.456-.234.911-.355,1.367-.013.042-.05.146-.075.054-.033-.113-.063-.226-.1-.339-.305-1.066-.606-2.128-.911-3.194-.151-.523-.3-1.049-.447-1.572l-.138-.489c-.013-.042-.025-.088-.038-.13s0-.088,0,.029A.316.316,0,0,0,.322,10.3h0l.314.314v0c-.05.092-.1.18-.155.272q1.831-1.4,3.658-2.8H3.817a.3.3,0,0,0,.318,0Q6.587,6.2,9.044,4.319l.376-.288A.314.314,0,1,0,9.1,3.491Z" fill="#41ba03"/>
          </g>
        </g>
      </g>
    </g>
  </g>
</svg>
