<svg xmlns="http://www.w3.org/2000/svg" width="36.426" height="29.75" viewBox="0 0 36.426 29.75">
  <g id="support_icon" data-name="support icon" transform="translate(-34 -83.191)">
    <g id="_Group_" data-name="&lt;Group&gt;" transform="translate(34 100.361)">
      <g id="_Group_2" data-name="&lt;Group&gt;" transform="translate(5.62 0.878)">
        <path id="_Path_" data-name="&lt;Path&gt;" d="M123.342,280.165l6.161-3.01a2.868,2.868,0,0,1,3.8,1.1l-12.5,8.317a8.668,8.668,0,0,1-5.4.683l-8.723-2.326a3.219,3.219,0,0,0-2.384.292l-1.8,1,.127-8.868h.072a8.506,8.506,0,0,1,8.83-.733l.523.262a6.082,6.082,0,0,0,2.636.644l5.111.074A3.8,3.8,0,0,1,123.342,280.165Z" transform="translate(-102.5 -275.714)" fill="#f7caa5"/>
      </g>
      <g id="_Group_3" data-name="&lt;Group&gt;" transform="translate(0 0)">
        <path id="_Path_2" data-name="&lt;Path&gt;" d="M39.62,276.392l-.015,1L34,277.31l.177-12.3,5.605.081-.035,2.433Z" transform="translate(-34 -265.01)" fill="#41ba03"/>
      </g>
    </g>
    <g id="Group_2511" data-name="Group 2511" transform="translate(51 84.941)">
      <g id="Group_2512" data-name="Group 2512" transform="translate(-3.458)">
        <path id="Path_3024" data-name="Path 3024" d="M11.414,13.726H8.364a4.581,4.581,0,0,1,3.05-4.574,2.458,2.458,0,0,0,1.067-.61.8.8,0,0,0,.152-1.067A2.7,2.7,0,0,0,10.042,5.95,2.6,2.6,0,0,0,7.45,8.237L4.4,7.779A5.349,5.349,0,0,1,9.889,2.9a6.009,6.009,0,0,1,5.489,3.354,4.2,4.2,0,0,1-.915,4.574,3.835,3.835,0,0,1-1.83,1.067C11.719,12.506,11.414,12.2,11.414,13.726Z" transform="translate(-1.942 -4.65)" fill="#f4b844"/>
        <path id="Path_3026" data-name="Path 3026" d="M6.9,11H9.95v3.05H6.9V11Z" transform="translate(-0.63 -0.4)" fill="#f4b844"/>
      </g>
    </g>
  </g>
</svg>
