<?xml version="1.0" encoding="utf-8"?>
<!-- Generator: Adobe Illustrator 24.0.1, SVG Export Plug-In . SVG Version: 6.00 Build 0)  -->
<svg version="1.1" id="Layer_1" xmlns="http://www.w3.org/2000/svg" xmlns:xlink="http://www.w3.org/1999/xlink" x="0px" y="0px"
	 viewBox="0 0 31.9 24.2" style="enable-background:new 0 0 31.9 24.2;" xml:space="preserve">
<style type="text/css">
	.st0{fill:#7CCF51;}
</style>
<g>
	<path class="st0" d="M2.3,1.7C3.8,0.6,5.3,0,6.9,0C10.3,0,12,1.7,12,5.1c0,0.7-0.8,1.7-2.3,3c-1.5,1.3-2.3,2.8-2.3,4.6
		c0,1.7,1.2,4,3.6,6.7c2.4,2.7,3.6,4.2,3.6,4.5c0,0.3-0.6,0.4-1.9,0.4c-1.2,0-3.7-1.9-7.4-5.7C1.8,14.7,0,10.4,0,5.6
		C0,4.1,0.8,2.8,2.3,1.7z M19.4,1.6C20.9,0.5,22.5,0,24.2,0c3.3,0,4.9,1.7,4.9,5.1c0,0.7-0.8,1.7-2.3,3c-1.5,1.3-2.3,2.8-2.3,4.6
		c0,1.7,1.2,4,3.7,6.7c2.5,2.7,3.7,4.2,3.7,4.5c0,0.3-0.6,0.4-1.9,0.4c-1.3,0-3.8-1.9-7.4-5.7c-3.7-3.8-5.5-8.1-5.5-12.9
		C17.1,4,17.8,2.7,19.4,1.6z"/>
</g>
</svg>
